<?xml version="1.0" standalone="no"?>
<!DOCTYPE svg PUBLIC "-//W3C//DTD SVG 1.1//EN" "http://www.w3.org/Graphics/SVG/1.1/DTD/svg11.dtd" >
<svg xmlns="http://www.w3.org/2000/svg" width="100%" height="100%">
<metadata>
Created by Ingo Preuss | PreussType at Tue Mar  7 13:04:03 2017
Copyright (c) 2017 by Hubert Jocham. All rights reserved.
</metadata>
<defs>
<font id="Carloschi-Bold" horiz-adv-x="1249" >
  <font-face 
    font-family="Carloschi"
    font-weight="700"
    font-stretch="normal"
    units-per-em="2048"
    panose-1="2 11 8 3 4 0 0 2 0 3"
    ascent="1659"
    descent="-389"
    x-height="1118"
    cap-height="1526"
    bbox="-984 -507 2333 2013"
    underline-thickness="50"
    underline-position="-50"
    unicode-range="U+0020-FB02"
  />
<missing-glyph horiz-adv-x="1034" 
d="M848 -389h-656v2068h656v-2068zM347 1540v-68h135v-76h-137v-69h344v69h-137v76h137v68h-342zM345 1274v-215h344v70h-137v145h-207zM482 1129h-68v74h68v-74zM345 1003v-68h137v-77h-137v-68h207v145h137v68h-344zM620 879v-137h-275v-70h344v207h-69zM482 626v-115h70
v47h68v-97h-206v165h-69v-233h344v233h-207zM345 269v-234h344v234h-344zM620 103h-206v97h206v-97zM345 -13v-68h145l-145 -97v-68h344v68h-211l144 97h67v68h-344z" />
    <glyph glyph-name="fi" unicode="fi" horiz-adv-x="1266" 
d="M521 1261.5q-22 -27.5 -22 -79.5v-64h221v-246h-221v-872h-322v872h-143v246h143v100q0 159 94 242.5t260 83.5q58 0 110 -6t84 -13t40 -9l-37 -245q-5 1 -23.5 5.5t-47.5 8.5t-59 4q-55 0 -77 -27.5zM875.5 1265q-51.5 41 -51.5 121q0 81 51 120.5t128 39.5
q79 0 131.5 -39.5t52.5 -120.5q0 -80 -53 -121t-131 -41q-76 0 -127.5 41zM844 1118h322v-1118h-322v1118z" />
    <glyph glyph-name="fl" unicode="fl" horiz-adv-x="1266" 
d="M521 1261.5q-22 -27.5 -22 -79.5v-64h221v-246h-221v-872h-322v872h-143v246h143v100q0 159 94 242.5t260 83.5q58 0 110 -6t84 -13t40 -9l-37 -245q-5 1 -23.5 5.5t-47.5 8.5t-59 4q-55 0 -77 -27.5zM844 1526h322v-1526h-322v1526z" />
    <glyph glyph-name=".notdef" horiz-adv-x="1034" 
d="M848 -389h-656v2068h656v-2068zM347 1540v-68h135v-76h-137v-69h344v69h-137v76h137v68h-342zM345 1274v-215h344v70h-137v145h-207zM482 1129h-68v74h68v-74zM345 1003v-68h137v-77h-137v-68h207v145h137v68h-344zM620 879v-137h-275v-70h344v207h-69zM482 626v-115h70
v47h68v-97h-206v165h-69v-233h344v233h-207zM345 269v-234h344v234h-344zM620 103h-206v97h206v-97zM345 -13v-68h145l-145 -97v-68h344v68h-211l144 97h67v68h-344z" />
    <glyph glyph-name="space" unicode=" " horiz-adv-x="614" 
 />
    <glyph glyph-name="exclam" unicode="!" horiz-adv-x="533" 
d="M99 1526h337l-15 -1075h-307zM137 27q-51 43 -51 131t51 129.5t128 41.5q80 0 131 -41.5t51 -129.5t-51.5 -131t-130.5 -43q-77 0 -128 43z" />
    <glyph glyph-name="quotedbl" unicode="&#x22;" horiz-adv-x="801" 
d="M447 1526h270l-29 -434h-213zM83 1526h270l-29 -434h-213z" />
    <glyph glyph-name="numbersign" unicode="#" horiz-adv-x="1449" 
d="M1116 870l-43 -229h248l-42 -247h-252l-74 -394h-281l74 394h-180l-74 -394h-281l74 394h-240l42 247h245l43 229h-248l42 248h252l77 408h280l-76 -408h180l77 408h280l-76 -408h240l-42 -248h-245zM836 870h-181l-43 -229h181z" />
    <glyph glyph-name="dollar" unicode="$" 
d="M1139.5 249q-43.5 -94 -128 -158t-204.5 -92v-265h-322v255q-116 14 -208 45.5t-149.5 62t-57.5 33.5l91 309q0 -4 73.5 -43t179.5 -71.5t225 -32.5q196 0 196 139q0 54 -26 86.5t-75 51.5t-130 35l-83 16q-131 25 -222 70t-147 140.5t-56 255.5q0 178 101 295t288 151
v250h322v-248q100 -13 178.5 -37.5t127.5 -47.5t49 -25l-75 -301q0 4 -60.5 32.5t-157 53t-217.5 24.5q-97 0 -147 -34t-50 -101q0 -51 24.5 -81.5t74.5 -49.5t144 -39l78 -17q123 -24 211 -71t142 -139.5t54 -242.5q0 -115 -43.5 -209z" />
    <glyph glyph-name="percent" unicode="%" horiz-adv-x="1663" 
d="M204 770q-74 41 -108 130t-34 237t34 236.5t108 129.5t197 41t196 -40.5t106.5 -129t33.5 -237.5q0 -148 -33.5 -237t-107 -130t-195.5 -41q-123 0 -197 41zM1116 1524h262l-826 -1524h-269zM455.5 925q18.5 18 26.5 67t8 145q0 99 -8 147.5t-26.5 66t-54.5 17.5
q-35 0 -54 -19t-28 -68.5t-9 -143.5q0 -95 9 -144t28.5 -67.5t55.5 -18.5q34 0 52.5 18zM1068 21q-74 41 -108 130t-34 237t34 236.5t108 129.5t197 41t196 -41t106 -129.5t33 -236.5q0 -149 -33.5 -237.5t-106.5 -129.5t-195 -41q-123 0 -197 41zM1319 175.5
q18 18.5 26.5 68t8.5 144.5q0 98 -8 146.5t-26.5 66t-54.5 17.5q-35 0 -54 -19t-28 -68t-9 -143q0 -95 9 -144.5t28.5 -68t55.5 -18.5q34 0 52 18.5z" />
    <glyph glyph-name="ampersand" unicode="&#x26;" horiz-adv-x="1638" 
d="M1514 289v-289h-110q-116 0 -205.5 23t-168.5 80q-184 -123 -413 -123q-166 0 -279 55.5t-168.5 152.5t-55.5 224q0 154 71 247t195 157q-59 75 -89.5 150.5t-30.5 170.5q0 115 54.5 202.5t153 136t227.5 48.5q125 0 218.5 -45t144 -127t50.5 -191q0 -110 -38 -188.5
t-99.5 -129.5t-146.5 -94l214 -220q69 114 112.5 251t54.5 252h305q-20 -157 -81.5 -349t-173.5 -352q77 -42 173 -42h86zM583.5 1031.5q19.5 -44.5 62.5 -95.5q80 41 122.5 91t42.5 125q0 47 -32 79.5t-84 32.5q-64 0 -97.5 -38.5t-33.5 -94.5q0 -55 19.5 -99.5z
M470.5 338.5q23.5 -39.5 65.5 -62t96 -22.5q104 0 196 54l-273 307q-52 -37 -80 -81.5t-28 -105.5q0 -50 23.5 -89.5z" />
    <glyph glyph-name="quotesingle" unicode="'" horiz-adv-x="437" 
d="M83 1526h270l-29 -434h-213z" />
    <glyph glyph-name="asterisk" unicode="*" horiz-adv-x="1065" 
d="M158 794l193 223l-285 66l79 260l276 -118l-23 299h269l-23 -299l276 115l79 -259l-281 -64l191 -224l-220 -162l-156 256l-155 -253z" />
    <glyph glyph-name="plus" unicode="+" 
d="M1110 634h-352v-353h-266v353h-353v266h353v352h266v-352h352v-266z" />
    <glyph glyph-name="comma" unicode="," horiz-adv-x="520" 
d="M276 -209h-255l107 526h336z" />
    <glyph glyph-name="hyphen" unicode="-" horiz-adv-x="799" 
d="M78 790h642v-263h-642v263z" />
    <glyph glyph-name="period" unicode="." horiz-adv-x="520" 
d="M130.5 25q-51.5 45 -51.5 138q0 92 51 136t128 44q80 0 131.5 -43.5t51.5 -136.5t-52 -138t-131 -45q-76 0 -127.5 45z" />
    <glyph glyph-name="slash" unicode="/" horiz-adv-x="860" 
d="M490 1524h351l-465 -1524h-357z" />
    <glyph glyph-name="zero" unicode="0" 
d="M309.5 51q-121.5 71 -182 242t-60.5 471q0 298 60.5 468t182 241t317.5 71q195 0 315.5 -71t180.5 -241t60 -468q0 -300 -60 -471t-180.5 -242t-315.5 -71q-196 0 -317.5 71zM751 290.5q43 39.5 63.5 149.5t20.5 324q0 216 -20 324t-63.5 146.5t-126.5 38.5
q-78 0 -122 -38.5t-66 -148t-22 -322.5q0 -214 21.5 -324t66.5 -149.5t127 -39.5q78 0 121 39.5z" />
    <glyph glyph-name="one" unicode="1" horiz-adv-x="841" 
d="M729 1526v-1526h-362v1145l-292 -139v303l389 217h265z" />
    <glyph glyph-name="two" unicode="2" 
d="M117 266l530 531q58 60 90.5 102t49 86t16.5 97q0 191 -215 191q-104 0 -199 -32t-162.5 -69.5t-67.5 -41.5l-89 269q0 4 81.5 42.5t206 70.5t272.5 32q257 0 388.5 -111.5t131.5 -337.5q0 -91 -26 -165t-81 -147t-152 -168l-319 -320h596v-295h-1051v266z" />
    <glyph glyph-name="three" unicode="3" 
d="M351 12q-124 32 -203.5 69.5t-79.5 42.5l91 290q0 -4 70.5 -41.5t170.5 -69t209 -31.5q112 0 161 45t49 145q0 94 -48 137.5t-143 43.5h-199v271h182q81 0 126 43.5t45 129.5q0 94 -45 134.5t-148 40.5q-102 0 -194.5 -30.5t-156.5 -66.5t-64 -40l-86 281q0 4 74 40.5
t190.5 67t259.5 30.5q172 0 285.5 -41t172 -133t58.5 -245q0 -111 -45 -183.5t-101.5 -112t-56.5 -32.5q0 8 66.5 -24t120 -107.5t53.5 -208.5q0 -243 -136 -360t-402 -117q-152 0 -276 32z" />
    <glyph glyph-name="four" unicode="4" 
d="M1205 265h-134v-265h-338v265h-677v266l548 995h467v-990h134v-271zM733 536v618l-334 -618h334z" />
    <glyph glyph-name="five" unicode="5" 
d="M1060 895.5q121 -117.5 121 -393.5q0 -268 -142 -395t-419 -127q-149 0 -270.5 32t-199.5 69.5t-78 42.5l91 269q0 -3 69 -41t164.5 -69.5t195.5 -31.5q127 0 185 64t58 196q0 123 -51 177t-160 54q-85 0 -134 -37.5t-74 -103.5h-284l93 925h890v-280h-619l-31 -295
q0 2 32.5 18t86.5 30t123 14q232 0 353 -117.5z" />
    <glyph glyph-name="six" unicode="6" 
d="M1079.5 873.5q102.5 -119.5 102.5 -366.5q0 -268 -139.5 -397.5t-400.5 -129.5q-186 0 -310 73t-188 235.5t-64 428.5q0 295 69 477t213 267t373 85q112 0 193 -20t126.5 -43.5t45.5 -27.5l-76 -243q0 2 -34.5 18t-93 30t-135.5 14q-107 0 -173.5 -34t-105.5 -121.5
t-50 -247.5q50 43 134 82.5t191 39.5q220 0 322.5 -119.5zM788.5 307.5q46.5 56.5 46.5 188.5q0 84 -18 133.5t-57.5 71t-106.5 21.5q-74 0 -131 -31.5t-93 -67.5q5 -135 28.5 -216t68.5 -118.5t117 -37.5q99 0 145.5 56.5z" />
    <glyph glyph-name="seven" unicode="7" 
d="M783 1246h-682v280h1050v-274l-513 -1252h-363z" />
    <glyph glyph-name="eight" unicode="8" 
d="M346 26.5q-125 50.5 -198.5 153t-73.5 252.5q0 117 48.5 196.5t109.5 123.5t61 37t-51 35t-92 115t-41 179q0 140 69.5 235.5t186.5 142.5t262 47q146 0 261.5 -46.5t183 -142t67.5 -236.5q0 -104 -40.5 -175.5t-91 -112t-50.5 -34.5q0 8 60.5 -35t109 -123t48.5 -201
q0 -150 -73.5 -254t-198 -155.5t-278.5 -51.5t-279 50.5zM710.5 943.5q41.5 19.5 66.5 59t25 95.5q0 78 -49 122t-128 44t-128.5 -43.5t-49.5 -122.5q0 -84 49.5 -129t123.5 -45q49 0 90.5 19.5zM778 307q59 51 59 146q0 94 -56.5 147.5t-154.5 53.5q-100 0 -156.5 -54.5
t-56.5 -146.5q0 -95 59 -146t153 -51t153 51z" />
    <glyph glyph-name="nine" unicode="9" 
d="M919 1473.5q124 -72.5 188.5 -235t64.5 -428.5q0 -295 -68.5 -477t-212 -267t-372.5 -85q-112 0 -193 20t-126.5 43t-45.5 27l76 244q0 -2 44 -18.5t105 -30.5t126 -14q95 0 159 34t103.5 121.5t51.5 245.5q-53 -43 -136.5 -81t-188.5 -38q-212 0 -318.5 120.5
t-106.5 365.5q0 266 142 396t397 130q187 0 311 -72.5zM434.5 897q18.5 -49 59 -70.5t108.5 -21.5q73 0 129.5 31t91.5 66q-5 135 -27.5 216.5t-67 119t-117.5 37.5q-101 0 -148 -56t-47 -188q0 -85 18.5 -134z" />
    <glyph glyph-name="colon" unicode=":" horiz-adv-x="520" 
d="M130.5 818q-51.5 45 -51.5 138q0 92 51 136t128 44q80 0 131.5 -43.5t51.5 -136.5t-52 -138t-131 -45q-76 0 -127.5 45zM130.5 25q-51.5 45 -51.5 138q0 92 51 136t128 44q80 0 131.5 -43.5t51.5 -136.5t-52 -138t-131 -45q-76 0 -127.5 45z" />
    <glyph glyph-name="semicolon" unicode=";" horiz-adv-x="522" 
d="M153.5 818q-51.5 45 -51.5 138q0 92 51 136t128 44q80 0 131.5 -43.5t51.5 -136.5t-52 -138t-131 -45q-76 0 -127.5 45zM272 -209h-255l107 526h336z" />
    <glyph glyph-name="less" unicode="&#x3c;" 
d="M1107 960l-603 -195l603 -191v-294l-968 349v278l968 350v-297z" />
    <glyph glyph-name="equal" unicode="=" 
d="M140 1087h970v-266h-970v266zM140 694h970v-266h-970v266z" />
    <glyph glyph-name="greater" unicode="&#x3e;" 
d="M1107 907v-278l-968 -349v294l603 191l-603 195v297z" />
    <glyph glyph-name="question" unicode="?" horiz-adv-x="875" 
d="M216 596q0 86 24 146.5t57.5 98.5t88.5 85q45 39 70.5 66.5t43 66.5t17.5 90q0 61 -36.5 93.5t-96.5 32.5q-72 0 -139 -15.5t-114 -34t-47 -20.5l-59 256q0 2 57 24.5t141 41.5t179 19q212 0 324.5 -96t112.5 -289q0 -85 -24.5 -147.5t-58.5 -103t-90 -92.5
q-44 -40 -69 -68.5t-42 -66.5t-17 -85v-138h-322v136zM249.5 22.5q-51.5 42.5 -51.5 130.5t51 129.5t129 41.5q79 0 130.5 -41.5t51.5 -129.5t-52 -130.5t-130 -42.5q-77 0 -128.5 42.5z" />
    <glyph glyph-name="at" unicode="@" horiz-adv-x="1931" 
d="M1328 1015v-518q0 -41 17.5 -60.5t46.5 -19.5q54 0 86 72t32 207q0 147 -67 259.5t-185 174.5t-268 62q-174 0 -300 -69.5t-192 -196.5t-66 -297q0 -176 67 -302t198 -193t320 -67q116 0 224.5 26.5t186.5 58t78 34.5l66 -212q0 -4 -84.5 -38.5t-207.5 -63.5t-263 -29
q-259 0 -446 95.5t-286 272.5t-99 419q0 228 103.5 406t287 276.5t415.5 98.5q221 0 392 -90t265.5 -248.5t94.5 -357.5q0 -150 -52 -261.5t-141 -171t-196 -59.5q-75 0 -130 24t-89 66q-48 -37 -118 -69t-152 -32q-160 0 -236 97t-76 311t76 311t236 97q72 0 136.5 -26
t113.5 -60l14 73h198zM1087 449v4v338q-70 45 -135 45q-54 0 -85 -18.5t-46.5 -65t-15.5 -132.5t15.5 -132.5t46.5 -65t85 -18.5q65 0 135 45z" />
    <glyph glyph-name="A" unicode="A" horiz-adv-x="1501" 
d="M1007 259h-526l-72 -259h-375l493 1526h460l480 -1526h-389zM927 551l-180 658l-184 -658h364z" />
    <glyph glyph-name="B" unicode="B" horiz-adv-x="1345" 
d="M102 1526h678q208 0 324.5 -94.5t116.5 -299.5q0 -108 -40.5 -181t-91.5 -114t-51 -34q0 8 63.5 -31.5t114 -119t50.5 -207.5q0 -148 -58.5 -248t-159.5 -148.5t-229 -48.5h-717v1526zM480 922h216q150 0 150 162q0 75 -34.5 110.5t-112.5 35.5h-219v-308zM849.5 337.5
q37.5 42.5 37.5 124.5q0 87 -39.5 130t-119.5 43h-248v-340h256q76 0 113.5 42.5z" />
    <glyph glyph-name="C" unicode="C" horiz-adv-x="1213" 
d="M379 56q-148 76 -221 247.5t-73 458.5t73 458.5t221 247.5t382 76q122 0 209 -20.5t135 -44t48 -27.5l-76 -278q0 2 -34.5 17.5t-94 28.5t-139.5 13q-123 0 -194 -38t-106.5 -139.5t-35.5 -293.5t35.5 -293.5t106.5 -139.5t194 -38q80 0 139.5 13t94 28.5t34.5 17.5
l76 -278q0 -4 -48 -27.5t-135 -44t-209 -20.5q-234 0 -382 76z" />
    <glyph glyph-name="D" unicode="D" horiz-adv-x="1372" 
d="M102 1526h527q230 0 373.5 -72.5t214 -239.5t70.5 -452q0 -286 -71 -452.5t-214 -238t-373 -71.5h-527v1526zM633 295q98 0 154.5 38t83.5 138.5t27 290.5q0 192 -26.5 292.5t-83.5 138t-159 37.5h-149v-935h153z" />
    <glyph glyph-name="E" unicode="E" horiz-adv-x="1197" 
d="M1104 295v-295h-1002v1526h997v-296h-619v-303h532v-295h-532v-337h624z" />
    <glyph glyph-name="F" unicode="F" horiz-adv-x="1161" 
d="M480 1230v-330h530v-295h-530v-605h-378v1526h981v-296h-603z" />
    <glyph glyph-name="G" unicode="G" horiz-adv-x="1395" 
d="M1295 112q0 -5 -71.5 -39t-190.5 -63.5t-275 -29.5q-235 0 -382 76t-219 247.5t-72 458.5q0 284 76.5 455.5t233 249t405.5 77.5q148 0 251.5 -23t159.5 -49.5t56 -30.5l-76 -288q0 3 -42.5 20.5t-119 33t-181.5 15.5q-139 0 -218.5 -37t-118 -136t-38.5 -287
q0 -189 34.5 -291.5t105.5 -142.5t193 -40q32 0 60 3.5t45 7.5t21 5v307h-174v295h537v-794z" />
    <glyph glyph-name="H" unicode="H" horiz-adv-x="1397" 
d="M1295 1526v-1526h-379v632h-435v-632h-379v1526h379v-599h435v599h379z" />
    <glyph glyph-name="I" unicode="I" horiz-adv-x="582" 
d="M102 1526h378v-1526h-378v1526z" />
    <glyph glyph-name="J" unicode="J" horiz-adv-x="900" 
d="M174 -10.5q-50 9.5 -82 20.5t-32 12l18 289q5 -3 26.5 -11t58 -15.5t79.5 -7.5q89 0 133 49t44 140v1060h379v-1062q0 -248 -130.5 -366t-381.5 -118q-62 0 -112 9.5z" />
    <glyph glyph-name="K" unicode="K" horiz-adv-x="1428" 
d="M714 679l-234 -311v-368h-378v1526h378v-699l445 699h426l-382 -508l399 -1018h-399z" />
    <glyph glyph-name="L" unicode="L" horiz-adv-x="1160" 
d="M1084 295v-295h-982v1526h378v-1231h604z" />
    <glyph glyph-name="M" unicode="M" horiz-adv-x="1664" 
d="M102 1526h475l257 -985l267 985h462v-1526h-330v926l-264 -926h-285l-252 920v-920h-330v1526z" />
    <glyph glyph-name="N" unicode="N" horiz-adv-x="1397" 
d="M1295 1526v-1526h-380l-475 912v-912h-338v1526h404l451 -902v902h338z" />
    <glyph glyph-name="O" unicode="O" horiz-adv-x="1488" 
d="M370.5 56q-144.5 76 -215 247.5t-70.5 459.5q0 287 70.5 458.5t214.5 248t374 76.5q226 0 370.5 -76.5t216.5 -248.5t72 -458t-72 -458t-216 -248.5t-369 -76.5q-231 0 -375.5 76zM901 329.5q57 38.5 85 140.5t28 293t-28 292.5t-85 140t-157 38.5t-157.5 -39
t-85.5 -140.5t-28 -291.5q0 -192 28 -293.5t86 -140t159 -38.5q98 0 155 38.5z" />
    <glyph glyph-name="P" unicode="P" horiz-adv-x="1306" 
d="M1019.5 1471q101.5 -53 156 -157t54.5 -255q0 -149 -57 -257.5t-160 -166.5t-238 -58h-295v-577h-378v1524h676q140 0 241.5 -53zM831 914.5q44 49.5 44 140.5q0 182 -166 182h-229v-372h222q85 0 129 49.5z" />
    <glyph glyph-name="Q" unicode="Q" horiz-adv-x="1489" 
d="M1329.5 312q-74.5 -171 -228.5 -246l248 -373h-395l-180 307h-26q-229 0 -374.5 75.5t-217 245t-71.5 452.5q0 281 71.5 450.5t216.5 245t374 75.5q228 0 372 -75.5t214.5 -244.5t70.5 -451q0 -290 -74.5 -461zM501.5 486.5q28.5 -99.5 87 -137t161.5 -37.5
q99 0 155.5 37.5t83.5 137t27 286.5t-27 286t-84.5 136.5t-161.5 37.5q-98 0 -155.5 -38t-86 -137.5t-28.5 -284.5q0 -187 28.5 -286.5z" />
    <glyph glyph-name="R" unicode="R" horiz-adv-x="1318" 
d="M1179.5 788q-69.5 -108 -197.5 -150l255 -638h-376l-210 584h-171v-584h-378v1526h700q218 0 332.5 -118t114.5 -344q0 -168 -69.5 -276zM480 863h242q84 0 128 49t44 135q0 92 -40.5 137.5t-125.5 45.5h-248v-367z" />
    <glyph glyph-name="S" unicode="S" horiz-adv-x="1255" 
d="M351.5 13.5q-123.5 33.5 -202 72.5t-78.5 44l91 309q0 -4 73.5 -43t179.5 -71.5t225 -32.5q196 0 196 139q0 54 -26 86.5t-75 51.5t-130 35l-83 16q-131 25 -222 70t-147 140.5t-56 255.5q0 141 63.5 244t186 159t293.5 56q145 0 261 -27t189 -58.5t73 -35.5l-75 -301
q0 4 -60.5 32.5t-157 53t-217.5 24.5q-97 0 -147 -34t-50 -101q0 -51 24.5 -81.5t74.5 -49.5t144 -39l78 -17q123 -24 211 -71t142 -139.5t54 -242.5q0 -142 -65.5 -250t-191 -168t-299.5 -60q-153 0 -276.5 33.5z" />
    <glyph glyph-name="T" unicode="T" horiz-adv-x="1209" 
d="M1157 1230h-366v-1230h-378v1230h-361v296h1105v-296z" />
    <glyph glyph-name="U" unicode="U" horiz-adv-x="1397" 
d="M381.5 50q-134.5 70 -207 203t-72.5 318v955h378v-970q0 -265 220 -265q105 0 161 67t56 198v970h378v-955q0 -185 -72.5 -318t-206.5 -203t-316 -70q-184 0 -318.5 70z" />
    <glyph glyph-name="V" unicode="V" horiz-adv-x="1422" 
d="M1388 1526l-468 -1526h-427l-459 1526h395l285 -1109l296 1109h378z" />
    <glyph glyph-name="W" unicode="W" horiz-adv-x="2077" 
d="M2017 1526l-282 -1526h-468l-229 1102l-237 -1102h-488l-253 1526h391l148 -1121l252 1121h389l246 -1121l153 1121h378z" />
    <glyph glyph-name="X" unicode="X" horiz-adv-x="1459" 
d="M992 0l-260 561l-268 -561h-412l436 781l-413 745h417l250 -510l239 510h404l-409 -745l431 -781h-415z" />
    <glyph glyph-name="Y" unicode="Y" horiz-adv-x="1422" 
d="M1372 1526l-476 -874v-652h-362v645l-484 881h413l254 -560l252 560h403z" />
    <glyph glyph-name="Z" unicode="Z" horiz-adv-x="1347" 
d="M93 285l712 945h-696v296h1116v-285l-695 -946h724v-295h-1161v285z" />
    <glyph glyph-name="a" unicode="a" horiz-adv-x="1116" 
d="M917 1045q118 -93 118 -301v-744h-274l-17 105q-48 -42 -134 -83.5t-199 -41.5q-108 0 -185.5 41.5t-118 118.5t-40.5 182q0 123 64 204t172.5 119t244.5 38h165v46q0 79 -45 116.5t-144 37.5q-80 0 -157.5 -20t-135 -43.5t-57.5 -25.5l-67 236q0 3 70.5 31.5t175.5 52.5
t225 24q221 0 339 -93zM405 254q32 -32 90 -32q61 0 117.5 26t100.5 62v166h-133q-109 0 -158 -39.5t-49 -93.5q0 -57 32 -89z" />
    <glyph glyph-name="b" unicode="b" horiz-adv-x="1173" 
d="M923.5 1075.5q88.5 -59.5 132 -187t43.5 -331.5t-43.5 -331t-132 -186.5t-225.5 -59.5q-105 0 -186.5 43t-126.5 84l-20 -107h-266v1526h322v-489q52 39 123 68.5t154 29.5q137 0 225.5 -59.5zM699 261.5q40 26.5 58.5 95.5t18.5 200t-18.5 200.5t-59 96t-111.5 26.5
q-86 0 -166 -67v-511q80 -67 166 -67q72 0 112 26.5z" />
    <glyph glyph-name="c" unicode="c" horiz-adv-x="957" 
d="M293 39.5q-111 59.5 -164.5 186t-53.5 331.5t53.5 332t164.5 186.5t289 59.5q95 0 164 -19t108 -41t39 -25l-65 -227q0 2 -27.5 17t-72.5 27.5t-102 12.5q-80 0 -130 -29t-74.5 -99.5t-24.5 -194.5t24.5 -194t74.5 -99t130 -29q57 0 102 12.5t72.5 27t27.5 16.5l65 -226
q0 -3 -39 -25t-108 -41t-164 -19q-178 0 -289 59.5z" />
    <glyph glyph-name="d" unicode="d" horiz-adv-x="1173" 
d="M1074 1526v-1527h-265l-20 108q-45 -42 -126 -84.5t-188 -42.5q-137 0 -225 59.5t-131.5 186.5t-43.5 331t43.5 331.5t131.5 187t225 59.5q84 0 154 -29t123 -68v488h322zM752 301v512q-33 28 -74.5 47.5t-88.5 19.5q-72 0 -112.5 -26.5t-60 -96.5t-19.5 -200
t19.5 -199.5t60 -96t112.5 -26.5q84 0 163 66z" />
    <glyph glyph-name="e" unicode="e" horiz-adv-x="1128" 
d="M1053 453h-649q11 -84 42 -131.5t81 -67t124 -19.5q77 0 145.5 19t115.5 41.5t47 24.5l78 -223q0 -4 -58 -34.5t-150 -56.5t-206 -26q-177 0 -298 56t-185.5 184t-64.5 339t58 338t169.5 182t280.5 55q161 0 263 -50t154.5 -171.5t52.5 -334.5v-125zM737 655
q-1 122 -38.5 173t-121.5 51q-54 0 -89.5 -19.5t-58 -68.5t-29.5 -136h337z" />
    <glyph glyph-name="f" unicode="f" horiz-adv-x="745" 
d="M521 1261.5q-22 -27.5 -22 -79.5v-64h221v-246h-221v-872h-322v872h-143v246h143v100q0 159 94 242.5t260 83.5q58 0 110 -6t84 -13t40 -9l-37 -245q-5 1 -23.5 5.5t-47.5 8.5t-59 4q-55 0 -77 -27.5z" />
    <glyph glyph-name="g" unicode="g" horiz-adv-x="1252" 
d="M1192 922h-177q0 3 16.5 -18.5t29.5 -57.5t13 -85q0 -170 -120 -253t-373 -83q-60 0 -103 4q-27 -44 -27 -86q0 -31 17 -46.5t52 -17.5l271 -14q196 -10 288 -83.5t92 -222.5q0 -179 -142 -273t-410 -94q-267 0 -395 79.5t-128 247.5q0 94 44.5 154.5t94.5 92.5
q-53 55 -53 134q0 60 32.5 103t67.5 65q-103 39 -148 113t-45 181q0 115 47 193.5t156 120.5t291 42h609v-196zM686.5 642.5q38.5 12.5 56 40t17.5 75.5q0 75 -40 106.5t-139 31.5q-69 0 -107.5 -13.5t-54.5 -43.5t-16 -81q0 -50 16.5 -77.5t55 -39t106.5 -11.5
q67 0 105.5 12.5zM823 25.5q-34 24.5 -97 30.5l-279 24q-37 -63 -37 -125q0 -50 19.5 -80.5t65 -45t124.5 -14.5q124 0 181 32.5t57 103.5q0 50 -34 74.5z" />
    <glyph glyph-name="h" unicode="h" horiz-adv-x="1137" 
d="M871.5 1097q77.5 -41 121.5 -124.5t44 -206.5v-766h-322v733q0 69 -33.5 105.5t-100.5 36.5q-80 0 -160 -65v-810h-322v1526h322v-482q54 38 123.5 66t149.5 28q100 0 177.5 -41z" />
    <glyph glyph-name="i" unicode="i" horiz-adv-x="521" 
d="M130.5 1265q-51.5 41 -51.5 121q0 81 51 120.5t128 39.5q79 0 131.5 -39.5t52.5 -120.5q0 -80 -53 -121t-131 -41q-76 0 -127.5 41zM99 1118h322v-1118h-322v1118z" />
    <glyph glyph-name="j" unicode="j" horiz-adv-x="521" 
d="M130.5 1265q-51.5 41 -51.5 121q0 81 51 120.5t128 39.5q79 0 131.5 -39.5t52.5 -120.5q0 -80 -53 -121t-131 -41q-76 0 -127.5 41zM21.5 -401.5q-41.5 6.5 -67 13.5t-32.5 9l34 243q0 -1 26.5 -8t48.5 -7q35 0 51.5 25t16.5 65v1179h322v-1212q0 -156 -82 -235t-230 -79
q-46 0 -87.5 6.5z" />
    <glyph glyph-name="k" unicode="k" horiz-adv-x="1142" 
d="M561 473l-140 -175v-298h-322v1526h322v-833l299 421h351l-283 -355l310 -759h-344z" />
    <glyph glyph-name="l" unicode="l" horiz-adv-x="521" 
d="M99 1526h322v-1526h-322v1526z" />
    <glyph glyph-name="m" unicode="m" horiz-adv-x="1677" 
d="M1434 1096q73 -42 113.5 -125t40.5 -202v-769h-322v742q0 67 -27 100t-87 33q-74 0 -146 -56q1 -11 1 -33v-786h-322v742q0 67 -27 100t-87 33q-79 0 -151 -61l1 -3v-811h-322v1118h266l19 -104q44 41 122 82.5t179 41.5q91 0 160 -33t110 -100q44 45 123.5 89t186.5 44
q96 0 169 -42z" />
    <glyph glyph-name="n" unicode="n" horiz-adv-x="1134" 
d="M870.5 1096.5q77.5 -41.5 122 -125.5t44.5 -207v-764h-322v733q0 69 -33.5 105.5t-100.5 36.5q-79 0 -161 -64v-811h-321v1118h265l19 -104q48 41 128 82.5t181 41.5t178.5 -41.5z" />
    <glyph glyph-name="o" unicode="o" horiz-adv-x="1171" 
d="M301 36.5q-112 55.5 -169 182.5t-57 340q0 212 57 338.5t169 181.5t285 55q174 0 285.5 -55t168 -181.5t56.5 -338.5q0 -213 -56.5 -340t-168 -182.5t-285.5 -55.5q-173 0 -285 55.5zM696 264q39 28 58.5 98t19.5 197q0 128 -19 197t-59 96t-110 27q-66 0 -107 -27.5
t-61.5 -97t-20.5 -195.5q0 -127 20.5 -197t62 -98t111.5 -28q66 0 105 28z" />
    <glyph glyph-name="p" unicode="p" horiz-adv-x="1175" 
d="M925 1078.5q88 -59.5 131.5 -188t43.5 -334.5q0 -203 -43.5 -330t-131.5 -186.5t-225 -59.5q-84 0 -155 29t-124 68v-466h-322v1507h266l20 -107q45 42 126.5 84.5t188.5 42.5q137 0 225 -59.5zM699.5 261.5q40.5 26.5 59.5 96t19 198.5q0 133 -19 203t-59.5 97
t-110.5 27q-48 0 -91 -20t-77 -48v-512q34 -28 77 -48t91 -20q70 0 110.5 26.5z" />
    <glyph glyph-name="q" unicode="q" horiz-adv-x="1175" 
d="M1075 1118v-1507h-321v464q-54 -38 -125 -66.5t-154 -28.5q-137 0 -225 59.5t-131.5 186t-43.5 330.5t43.5 331.5t131.5 187t225 59.5q105 0 185.5 -41.5t129.5 -83.5l20 109h265zM754 302v510q-81 66 -163 66q-71 0 -112.5 -26.5t-61.5 -96t-20 -199.5q0 -129 20 -198.5
t61.5 -96t112.5 -26.5q83 0 163 67z" />
    <glyph glyph-name="r" unicode="r" horiz-adv-x="850" 
d="M757 1134.5q27 -3.5 35 -5.5v-285q-11 2 -44 6t-56 4q-83 0 -152 -42.5t-119 -98.5v-713h-322v1118h265l29 -165q47 63 127.5 124t181.5 61q28 0 55 -3.5z" />
    <glyph glyph-name="s" unicode="s" horiz-adv-x="990" 
d="M266 5.5q-91 24.5 -144 53.5t-53 33l76 251q0 -3 49.5 -31t124 -52t161.5 -24q136 0 136 93q0 56 -39.5 80t-123.5 37l-61 9q-94 14 -160.5 46t-107 99.5t-40.5 179.5q0 111 52.5 191.5t151 123.5t234.5 43q115 0 201 -22t136 -47t50 -29l-71 -247q0 3 -43.5 26.5
t-113.5 43.5t-158 20q-68 0 -100.5 -22t-32.5 -67q0 -33 19.5 -53.5t57 -33t103.5 -25.5l56 -11q139 -28 217.5 -100.5t78.5 -225.5q0 -110 -53.5 -192t-153 -127t-235.5 -45q-123 0 -214 24.5z" />
    <glyph glyph-name="t" unicode="t" horiz-adv-x="830" 
d="M774 10q-8 -2 -40.5 -9t-85 -13t-110.5 -6q-168 0 -265 82t-97 240v568h-137v246h137v219l322 35v-254h251v-246h-251v-528q0 -107 108 -107q30 0 59 4t48 8.5t24 5.5z" />
    <glyph glyph-name="u" unicode="u" horiz-adv-x="1140" 
d="M222.5 89q-125.5 109 -125.5 325v704h322v-723q0 -79 38.5 -119.5t111.5 -40.5q74 0 113 40.5t39 119.5v723h322v-704q0 -217 -126 -325.5t-348 -108.5q-221 0 -346.5 109z" />
    <glyph glyph-name="v" unicode="v" horiz-adv-x="1086" 
d="M1055 1118l-328 -1118h-371l-325 1118h333l184 -775l185 775h322z" />
    <glyph glyph-name="w" unicode="w" horiz-adv-x="1618" 
d="M1585 1118l-219 -1118h-380l-178 761l-183 -761h-397l-195 1118h321l108 -775l196 775h317l190 -777l109 777h311z" />
    <glyph glyph-name="x" unicode="x" horiz-adv-x="1145" 
d="M751 0l-178 369l-181 -369h-356l338 570l-324 548h363l167 -333l160 333h352l-321 -547l339 -571h-359z" />
    <glyph glyph-name="y" unicode="y" horiz-adv-x="1063" 
d="M1033 1118l-345 -1221q-28 -102 -79 -164.5t-133 -92t-206 -29.5h-80v255h53q43 0 71.5 19.5t44.5 60.5l28 76l-356 1096h337l189 -735l158 735h318z" />
    <glyph glyph-name="z" unicode="z" horiz-adv-x="1073" 
d="M999 246v-246h-914v241l498 631h-494v246h887v-236l-495 -636h518z" />
    <glyph glyph-name="braceleft" unicode="{" horiz-adv-x="705" 
d="M264 -118.5q-67 33.5 -104.5 95.5t-37.5 144q0 54 16 103.5t47 115.5q22 48 33.5 80t11.5 61q0 46 -36.5 69.5t-100.5 23.5v224q63 1 100 25.5t37 67.5q0 29 -11.5 61t-33.5 80q-31 66 -47 115.5t-16 103.5q0 82 37.5 144t104.5 95.5t154 33.5h216v-295h-78
q-56 0 -87.5 -32.5t-31.5 -93.5q0 -34 10 -66t30 -79t30.5 -79.5t10.5 -67.5q0 -39 -16.5 -67t-37 -44.5t-20.5 -14.5t20.5 -14t37 -43.5t16.5 -66.5q0 -35 -10.5 -67.5t-30.5 -79.5t-30 -79t-10 -66q0 -60 31.5 -92.5t87.5 -32.5h78v-296h-216q-87 0 -154 33.5z" />
    <glyph glyph-name="braceright" unicode="}" horiz-adv-x="705" 
d="M71 -152v296h78q56 0 87.5 32.5t31.5 92.5q0 34 -10 66t-30 79t-30.5 79.5t-10.5 67.5q0 39 16.5 66.5t37 43.5t20.5 14t-20.5 14.5t-37 44.5t-16.5 67q0 35 10.5 67.5t30.5 79.5t30 79t10 66q0 61 -31.5 93.5t-87.5 32.5h-78v295h216q87 0 154 -33.5t104.5 -95.5
t37.5 -144q0 -54 -16 -103.5t-47 -115.5q-22 -48 -33.5 -80t-11.5 -61q0 -43 37 -67.5t100 -25.5v-224q-64 0 -100.5 -23.5t-36.5 -69.5q0 -29 11.5 -61t33.5 -80q31 -66 47 -115.5t16 -103.5q0 -82 -37.5 -144t-104.5 -95.5t-154 -33.5h-216z" />
    <glyph glyph-name="bracketleft" unicode="[" horiz-adv-x="705" 
d="M91 1524h543v-296h-197v-1084h197v-296h-543v1676z" />
    <glyph glyph-name="bracketright" unicode="]" horiz-adv-x="705" 
d="M614 -152h-543v296h197v1084h-197v296h543v-1676z" />
    <glyph glyph-name="parenleft" unicode="(" horiz-adv-x="705" 
d="M91 686q0 594 353 858l234 -57q-72 -76 -121.5 -175t-78 -252t-28.5 -374q0 -214 33 -367.5t81 -249.5t114 -184l-234 -57q-353 264 -353 858z" />
    <glyph glyph-name="parenright" unicode=")" horiz-adv-x="705" 
d="M27 -115q66 88 114 184t81 249.5t33 367.5q0 221 -28.5 374t-78 252t-121.5 175l234 57q353 -264 353 -858t-353 -858z" />
    <glyph glyph-name="bar" unicode="|" horiz-adv-x="555" 
d="M111 1951h332v-2458h-332v2458z" />
    <glyph glyph-name="brokenbar" unicode="&#xa6;" horiz-adv-x="555" 
d="M111 1966h332v-1056h-332v1056zM111 565h332v-1057h-332v1057z" />
    <glyph glyph-name="asciitilde" unicode="~" 
d="M1103 810.5q-21 -88.5 -89 -173t-196 -84.5q-59 0 -102.5 17t-97.5 49q-43 25 -70.5 36.5t-58.5 11.5q-40 0 -61 -25t-26.5 -50.5t-5.5 -37.5h-270q0 34 21 122.5t89 173t196 84.5q60 0 103.5 -17t97.5 -49q42 -24 69 -35.5t59 -11.5q40 0 61 25t27 50.5t6 36.5h269
q0 -34 -21 -122.5z" />
    <glyph glyph-name="exclamdown" unicode="&#xa1;" horiz-adv-x="533" 
d="M395.5 1110q51.5 -43 51.5 -131t-51 -129.5t-131 -41.5q-77 0 -128 41.5t-51 129.5t51 131t128 43q79 0 130.5 -43zM421 686l15 -1075h-337l15 1075h307z" />
    <glyph glyph-name="florin" unicode="&#x192;" 
d="M796 1263q-23 -28 -23 -79v-66h223v-246h-223v-968q0 -155 -83 -234.5t-231 -79.5q-46 0 -87.5 6t-67 13t-32.5 9l32 242q0 -1 26.5 -7.5t48.5 -6.5q37 0 54.5 24.5t17.5 64.5v937h-144v246h144v102q0 159 94 242.5t260 83.5q58 0 110.5 -6t85 -13t40.5 -9l-37 -245
q-5 1 -24 5.5t-48 8.5t-59 4q-54 0 -77 -28z" />
    <glyph glyph-name="Euro" unicode="&#x20ac;" 
d="M996 296q46 13 74 28.5t28 17.5l66 -276q0 -3 -39.5 -25.5t-110.5 -41.5t-169 -19q-172 0 -294 49.5t-200 166t-107 312.5h-189v198h174q-1 18 -1 54q0 35 1 52h-174v197h189q28 199 106 317.5t200 169t295 50.5q98 0 169 -19.5t110.5 -42t39.5 -25.5l-66 -275
q0 2 -30.5 17t-76.5 28t-100 13q-74 0 -124.5 -19t-86 -70t-53.5 -144h380v-197h-398q-1 -17 -1 -52q0 -37 1 -54h398v-198h-381q18 -90 52 -139t85 -67.5t128 -18.5q59 0 105 13z" />
    <glyph glyph-name="cent" unicode="&#xa2;" 
d="M1011 65q0 -2 -24.5 -17t-67.5 -32t-101 -27v-255h-305v267q-166 41 -243 175.5t-77 380.5t77 380.5t243 176.5v270h305v-258q58 -10 101 -27t67.5 -32t24.5 -17l-65 -227q0 2 -27.5 17t-72.5 27.5t-102 12.5q-80 0 -130 -29t-74.5 -99.5t-24.5 -194.5t24.5 -194
t74.5 -99t130 -29q57 0 102 12.5t72.5 27t27.5 16.5z" />
    <glyph glyph-name="sterling" unicode="&#xa3;" 
d="M1199 125q0 -5 -67 -37t-181 -60t-265 -28h-621v280q127 1 197.5 24.5t96.5 62.5t26 94q0 52 -19 104h-269v212h149q-56 87 -87 165.5t-31 172.5q0 131 66 229t184 151t270 53q119 0 230 -27.5t190 -60.5t79 -36l-75 -291q0 3 -60.5 31t-144.5 52t-173 24
q-106 0 -161.5 -40.5t-55.5 -121.5q0 -58 25 -110t77 -132q21 -31 38 -59h337v-212h-250q5 -35 5 -66q0 -61 -15 -103.5t-31 -63t-35 -38.5h98q108 0 194.5 28t141.5 61.5t55 37.5z" />
    <glyph glyph-name="yen" unicode="&#xa5;" 
d="M888 834h257v-198h-339v-100h339v-198h-339v-338h-354v338h-351v198h351v100h-351v198h267l-323 692h400l187 -608l185 608h387z" />
    <glyph glyph-name="section" unicode="&#xa7;" 
d="M769.5 99.5q-33.5 30.5 -84 48t-143.5 39.5q-141 33 -232.5 71t-157.5 124t-66 235q0 76 26 138t58.5 104t32.5 37q0 -4 -26 28.5t-47 83.5t-21 118q0 124 61 217t178 144t278 51q138 0 255 -25.5t194 -56t77 -33.5l-90 -294q0 3 -69 31t-163.5 51.5t-193.5 23.5
q-90 0 -138.5 -31.5t-48.5 -93.5q0 -51 34 -83t85.5 -49.5t144.5 -39.5q142 -34 232.5 -71.5t156.5 -123t66 -234.5q0 -72 -27.5 -132t-62 -101t-34.5 -37t28 -26t50 -80t22 -119q0 -128 -62 -220.5t-181.5 -141.5t-287.5 -49q-140 0 -262.5 30t-206.5 66t-84 40l106 296
q0 -3 78 -40t177.5 -67.5t192.5 -30.5q189 0 189 122q0 50 -33.5 80.5zM808.5 407q15.5 19 28 47t12.5 63q0 56 -31.5 88.5t-77.5 48.5t-126 34q-53 12 -90 22t-68 25q0 2 -13 -15t-23 -44.5t-10 -64.5q0 -59 32.5 -93.5t80 -51.5t129.5 -36q51 -11 82 -19.5t59 -20.5
q0 -2 15.5 17z" />
    <glyph glyph-name="copyright" unicode="&#xa9;" horiz-adv-x="1931" 
d="M1659 345.5q-108 -184.5 -292 -291t-401 -106.5q-219 0 -403 106.5t-291.5 291t-107.5 406.5q0 224 107.5 406.5t291.5 287t403 104.5q218 0 401.5 -103.5t291.5 -286t108 -408.5q0 -222 -108 -406.5zM1457.5 1055.5q-72.5 132.5 -201 206t-290.5 73.5q-163 0 -292 -74.5
t-202 -207t-73 -301.5q0 -167 73 -300.5t202 -209.5t292 -76q161 0 289.5 76t201.5 210t73 300q0 171 -72.5 303.5zM640 988.5q53 93.5 140.5 136.5t194.5 43q148 0 226.5 -66t102.5 -134.5t24 -95.5l-219 -45q0 12 -9.5 45.5t-38.5 65.5t-83 32q-147 0 -147 -220
q0 -217 144 -217q53 0 82.5 28t40 58t10.5 40l221 -51q0 -22 -27.5 -87.5t-107.5 -127t-225 -61.5q-107 0 -193 43t-137.5 137t-51.5 238q0 145 53 238.5z" />
    <glyph glyph-name="registered" unicode="&#xae;" horiz-adv-x="1931" 
d="M1659 345.5q-108 -184.5 -292 -291t-401 -106.5q-219 0 -403 106.5t-291.5 291t-107.5 406.5q0 224 107.5 406.5t291.5 287t403 104.5q218 0 401.5 -103.5t291.5 -286t108 -408.5q0 -222 -108 -406.5zM1457.5 1055.5q-72.5 132.5 -201 206t-290.5 73.5q-163 0 -292 -74.5
t-202 -207t-73 -301.5q0 -167 73 -300.5t202 -209.5t292 -76q161 0 289.5 76t201.5 210t73 300q0 171 -72.5 303.5zM1293.5 762q-35.5 -61 -97.5 -93l136 -305h-231l-108 262h-129v-262h-215v792h404q78 0 140.5 -28.5t99 -85t36.5 -138.5q0 -81 -35.5 -142zM866 804h157
q42 0 69.5 24.5t27.5 67.5q0 42 -25.5 63.5t-66.5 21.5h-162v-177z" />
    <glyph glyph-name="backslash" unicode="\" horiz-adv-x="860" 
d="M19 1524h351l471 -1524h-357z" />
    <glyph glyph-name="underscore" unicode="_" horiz-adv-x="1024" 
d="M-4 -127h1032v-246h-1032v246z" />
    <glyph glyph-name="logicalnot" unicode="&#xac;" 
d="M844 634h-705v266h971v-619h-266v353z" />
    <glyph glyph-name="degree" unicode="&#xb0;" horiz-adv-x="997" 
d="M282 712q-97 46 -156 146t-59 255t59 254.5t156 145t217 45.5q119 0 216 -45.5t155.5 -145t58.5 -254.5t-58.5 -255t-155.5 -146t-216 -46q-120 0 -217 46zM619 1269.5q-42 48.5 -120 48.5q-77 0 -120.5 -49t-43.5 -156q0 -210 166 -210q160 0 160 210q0 108 -42 156.5z
" />
    <glyph glyph-name="paragraph" unicode="&#xb6;" horiz-adv-x="1331" 
d="M285.5 536.5q-99.5 58.5 -158.5 172.5t-59 284q0 186 69 305t183.5 172.5t256.5 53.5h653v-1908h-265v1651h-187v-1651h-265v850q-128 12 -227.5 70.5z" />
    <glyph glyph-name="periodcentered" unicode="&#xb7;" horiz-adv-x="829" 
d="M283.5 494q-51.5 45 -51.5 138q0 92 51 136t128 44q80 0 131.5 -43.5t51.5 -136.5t-52 -138t-131 -45q-76 0 -127.5 45z" />
    <glyph glyph-name="uni00B9" unicode="&#xb9;" horiz-adv-x="799" 
d="M130 1023l234 117h181v-595h189v-179h-648v179h208v351l-164 -69v196z" />
    <glyph glyph-name="uni00B2" unicode="&#xb2;" horiz-adv-x="799" 
d="M80 525l304 263q48 41 63 63t15 53q0 38 -21.5 54.5t-68.5 16.5q-57 0 -110.5 -15t-92 -32.5t-38.5 -19.5l-64 178q0 2 45 22t116 36.5t158 16.5q156 0 239.5 -63t83.5 -181q0 -72 -32.5 -126.5t-119.5 -123.5l-147 -122h309v-179h-639v159z" />
    <glyph glyph-name="uni00B3" unicode="&#xb3;" horiz-adv-x="799" 
d="M223 362.5q-72 16.5 -117.5 36t-45.5 21.5l68 182q0 -2 38 -20.5t91 -34t109 -15.5q51 0 74.5 17t23.5 58q0 38 -20 55t-62 17h-135v166h128q34 0 53 17t19 51q0 38 -18.5 52.5t-65.5 14.5q-52 0 -103.5 -14.5t-89 -31.5t-37.5 -19l-63 175q0 2 43 20.5t111 34.5t152 16
q162 0 239.5 -56t77.5 -173q0 -47 -21 -81t-47 -55t-26 -18q0 4 31 -16.5t55.5 -59t24.5 -98.5q0 -127 -83 -192.5t-243 -65.5q-89 0 -161 16.5z" />
    <glyph glyph-name="ordfeminine" unicode="&#xaa;" horiz-adv-x="860" 
d="M673 1478q78 -65 78 -208v-544h-185l-11 73q-38 -31 -96.5 -58.5t-136.5 -27.5q-118 0 -183.5 66.5t-65.5 180.5q0 89 46.5 147t124.5 85t175 27h113v33q0 52 -26 74t-84 22q-66 0 -127 -14t-104.5 -30t-43.5 -18l-45 178q0 2 51 23t126 38.5t161 17.5q155 0 233 -65z
M318 914.5q21 -21.5 62 -21.5q42 0 81.5 17t70.5 41v120h-91q-74 0 -109 -28t-35 -68q0 -39 21 -60.5z" />
    <glyph glyph-name="ordmasculine" unicode="&#xba;" horiz-adv-x="870" 
d="M230 758q-81 41 -121 132t-40 242q0 150 40 240.5t121 131t207 40.5q125 0 205 -40.5t119.5 -131t39.5 -240.5q0 -151 -39.5 -242t-119.5 -132t-205 -41q-126 0 -207 41zM514 914.5q28 20.5 41 72t13 145.5t-13 144.5t-41.5 71t-78.5 20.5q-48 0 -77 -20.5t-43 -72
t-14 -143.5q0 -94 14 -145.5t43 -72t79 -20.5q49 0 77 20.5z" />
    <glyph glyph-name="onequarter" unicode="&#xbc;" horiz-adv-x="1799" 
d="M1539 1524l-824 -1524h-269l200 366h-560v179h208v351l-164 -69v196l234 117h181v-595h189v-17l543 996h262zM1732 300v-178h-78v-122h-234v122h-384v156l314 496h304v-474h78zM1420 492l-135 -192h135v192z" />
    <glyph glyph-name="onehalf" unicode="&#xbd;" horiz-adv-x="1805" 
d="M1469 1524l-825 -1524h-269l200 366h-489v179h208v351l-164 -69v196l234 117h181v-595h127l534 979h263zM1732 179v-179h-639v159l304 263q48 41 63 63t15 53q0 38 -21.5 54.5t-68.5 16.5q-57 0 -110.5 -15t-92 -32.5t-38.5 -19.5l-64 178q0 2 45 22t116 36.5t158 16.5
q156 0 239.5 -63t83.5 -181q0 -72 -32.5 -126.5t-119.5 -123.5l-147 -122h309z" />
    <glyph glyph-name="threequarters" unicode="&#xbe;" horiz-adv-x="1799" 
d="M1497 1524l-824 -1524h-269l226 414q-83 -68 -246 -68q-89 0 -161 16.5t-117.5 36t-45.5 21.5l68 182q0 -2 38 -20.5t91 -34t109 -15.5q51 0 74.5 17t23.5 58q0 38 -20 55t-62 17h-135v166h128q34 0 53 17t19 51q0 38 -18.5 52.5t-65.5 14.5q-52 0 -103.5 -14.5
t-89 -31.5t-37.5 -19l-63 175q0 2 43 20.5t111 34.5t152 16q162 0 239.5 -56t77.5 -173q0 -47 -21 -81t-47 -55t-26 -18q0 4 31 -16.5t55.5 -59t24.5 -98.5q0 -29 -4 -49l529 969h262zM1732 300v-178h-78v-122h-234v122h-384v156l314 496h304v-474h78zM1420 492l-135 -192
h135v192z" />
    <glyph glyph-name="questiondown" unicode="&#xbf;" horiz-adv-x="875" 
d="M625.5 1114.5q51.5 -42.5 51.5 -130.5t-51 -129.5t-129 -41.5q-79 0 -130.5 41.5t-51.5 129.5t52 130.5t130 42.5q77 0 128.5 -42.5zM659 541q0 -86 -24 -146.5t-57.5 -98.5t-88.5 -85q-45 -39 -70.5 -66.5t-43 -66.5t-17.5 -90q0 -61 36.5 -93.5t96.5 -32.5
q72 0 139 15.5t114 34t47 20.5l59 -256q0 -2 -57 -24.5t-141 -41.5t-179 -19q-212 0 -324.5 96t-112.5 289q0 85 24.5 147.5t58.5 103t90 92.5q44 40 69 68.5t42 66.5t17 85v138h322v-136z" />
    <glyph glyph-name="Agrave" unicode="&#xc0;" horiz-adv-x="1501" 
d="M1007 259h-526l-72 -259h-375l493 1526h460l480 -1526h-389zM927 551l-180 658l-184 -658h364zM966 1611h-264l-286 310h359z" />
    <glyph glyph-name="Aacute" unicode="&#xc1;" horiz-adv-x="1501" 
d="M1007 259h-526l-72 -259h-375l493 1526h460l480 -1526h-389zM927 551l-180 658l-184 -658h364zM824 1611h-264l191 310h360z" />
    <glyph glyph-name="Acircumflex" unicode="&#xc2;" horiz-adv-x="1501" 
d="M1007 259h-526l-72 -259h-375l493 1526h460l480 -1526h-389zM927 551l-180 658l-184 -658h364zM627 1921h271l243 -311h-278l-103 149l-101 -149h-278z" />
    <glyph glyph-name="Atilde" unicode="&#xc3;" horiz-adv-x="1501" 
d="M1007 259h-526l-72 -259h-375l493 1526h460l480 -1526h-389zM927 551l-180 658l-184 -658h364zM1155.5 1816.5q-16.5 -72.5 -74 -142.5t-168.5 -70q-49 0 -85 14.5t-79 41.5q-35 21 -57 30.5t-48 9.5q-47 0 -61 -35.5t-14 -60.5h-219q0 30 16.5 102.5t74 142.5t167.5 70
q51 0 88 -15t83 -43q34 -21 55 -30.5t45 -9.5q47 0 61 37t14 61h218q0 -30 -16.5 -102.5z" />
    <glyph glyph-name="Adieresis" unicode="&#xc4;" horiz-adv-x="1501" 
d="M1007 259h-526l-72 -259h-375l493 1526h460l480 -1526h-389zM927 551l-180 658l-184 -658h364zM452.5 1660.5q-45.5 37.5 -45.5 111.5q0 76 45.5 112.5t115.5 36.5q71 0 118.5 -37t47.5 -112q0 -74 -48 -111.5t-118 -37.5t-115.5 37.5zM837 1660.5q-46 37.5 -46 111.5
q0 75 46 112t115 37q71 0 118.5 -37t47.5 -112q0 -74 -48 -111.5t-118 -37.5q-69 0 -115 37.5z" />
    <glyph glyph-name="Aring" unicode="&#xc5;" horiz-adv-x="1501" 
d="M1007 259h-526l-72 -259h-375l493 1526h460l480 -1526h-389zM927 551l-180 658l-184 -658h364zM618 1597.5q-63 26.5 -98 77t-35 118.5q0 103 75.5 161.5t201.5 58.5q82 0 144.5 -26t97 -76t34.5 -118q0 -105 -76 -163.5t-200 -58.5q-81 0 -144 26.5zM693.5 1853
q-26.5 -24 -26.5 -60q0 -38 27 -62.5t68 -24.5q40 0 67.5 25t27.5 62t-24.5 60.5t-70.5 23.5q-42 0 -68.5 -24z" />
    <glyph glyph-name="AE" unicode="&#xc6;" horiz-adv-x="2016" 
d="M1923 295v-295h-989v258h-443l-83 -258h-384l561 1526h1334v-296h-607v-303h519v-295h-519v-337h611zM934 554v676h-129l-218 -676h347z" />
    <glyph glyph-name="Ccedilla" unicode="&#xc7;" horiz-adv-x="1213" 
d="M1110.5 47q-42.5 -22 -120 -42t-185.5 -24l-35 -62q73 -6 122.5 -42.5t49.5 -109.5q0 -86 -63 -135t-183 -49q-87 0 -146 23t-85 40l57 128q0 -1 26.5 -14.5t65.5 -25t83 -11.5q29 0 46.5 12.5t17.5 33.5q0 32 -41 44t-129 12h-31l85 160q-193 17 -315.5 101t-183.5 249
t-61 427q0 287 73 458.5t221 247.5t382 76q122 0 209 -20.5t135 -44t48 -27.5l-76 -278q0 2 -34.5 17.5t-94 28.5t-139.5 13q-123 0 -194 -38t-106.5 -139.5t-35.5 -293.5t35.5 -293.5t106.5 -139.5t194 -38q80 0 139.5 13t94 28.5t34.5 17.5l76 -278q0 -3 -42.5 -25z" />
    <glyph glyph-name="Egrave" unicode="&#xc8;" horiz-adv-x="1197" 
d="M1104 295v-295h-1002v1526h997v-296h-619v-303h532v-295h-532v-337h624zM813 1611h-264l-286 310h359z" />
    <glyph glyph-name="Eacute" unicode="&#xc9;" horiz-adv-x="1197" 
d="M1104 295v-295h-1002v1526h997v-296h-619v-303h532v-295h-532v-337h624zM671 1611h-264l191 310h360z" />
    <glyph glyph-name="Ecircumflex" unicode="&#xca;" horiz-adv-x="1197" 
d="M1104 295v-295h-1002v1526h997v-296h-619v-303h532v-295h-532v-337h624zM474 1921h271l243 -311h-278l-103 149l-101 -149h-278z" />
    <glyph glyph-name="Edieresis" unicode="&#xcb;" horiz-adv-x="1197" 
d="M1104 295v-295h-1002v1526h997v-296h-619v-303h532v-295h-532v-337h624zM299.5 1660.5q-45.5 37.5 -45.5 111.5q0 76 45.5 112.5t115.5 36.5q71 0 118.5 -37t47.5 -112q0 -74 -48 -111.5t-118 -37.5t-115.5 37.5zM684 1660.5q-46 37.5 -46 111.5q0 75 46 112t115 37
q71 0 118.5 -37t47.5 -112q0 -74 -48 -111.5t-118 -37.5q-69 0 -115 37.5z" />
    <glyph glyph-name="Igrave" unicode="&#xcc;" horiz-adv-x="582" 
d="M102 1526h378v-1526h-378v1526zM505 1611h-264l-286 310h359z" />
    <glyph glyph-name="Iacute" unicode="&#xcd;" horiz-adv-x="582" 
d="M102 1526h378v-1526h-378v1526zM363 1611h-264l191 310h360z" />
    <glyph glyph-name="Icircumflex" unicode="&#xce;" horiz-adv-x="582" 
d="M102 1526h378v-1526h-378v1526zM166 1921h271l243 -311h-278l-103 149l-101 -149h-278z" />
    <glyph glyph-name="Idieresis" unicode="&#xcf;" horiz-adv-x="582" 
d="M102 1526h378v-1526h-378v1526zM-8.5 1660.5q-45.5 37.5 -45.5 111.5q0 76 45.5 112.5t115.5 36.5q71 0 118.5 -37t47.5 -112q0 -74 -48 -111.5t-118 -37.5t-115.5 37.5zM376 1660.5q-46 37.5 -46 111.5q0 75 46 112t115 37q71 0 118.5 -37t47.5 -112q0 -74 -48 -111.5
t-118 -37.5q-69 0 -115 37.5z" />
    <glyph glyph-name="Eth" unicode="&#xd0;" horiz-adv-x="1372" 
d="M1002.5 1453.5q143.5 -72.5 214 -239.5t70.5 -452q0 -286 -71 -452.5t-214 -238t-373 -71.5h-527v632h-82v295h82v599h527q230 0 373.5 -72.5zM787.5 333q56.5 38 83.5 138.5t27 290.5q0 192 -26.5 292.5t-83.5 138t-159 37.5h-149v-303h248v-295h-248v-337h153
q98 0 154.5 38z" />
    <glyph glyph-name="Ntilde" unicode="&#xd1;" horiz-adv-x="1397" 
d="M1295 1526v-1526h-380l-475 912v-912h-338v1526h404l451 -902v902h338zM1111.5 1816.5q-16.5 -72.5 -74 -142.5t-168.5 -70q-49 0 -85 14.5t-79 41.5q-35 21 -57 30.5t-48 9.5q-47 0 -61 -35.5t-14 -60.5h-219q0 30 16.5 102.5t74 142.5t167.5 70q51 0 88 -15t83 -43
q34 -21 55 -30.5t45 -9.5q47 0 61 37t14 61h218q0 -30 -16.5 -102.5z" />
    <glyph glyph-name="Ograve" unicode="&#xd2;" horiz-adv-x="1488" 
d="M370.5 56q-144.5 76 -215 247.5t-70.5 459.5q0 287 70.5 458.5t214.5 248t374 76.5q226 0 370.5 -76.5t216.5 -248.5t72 -458t-72 -458t-216 -248.5t-369 -76.5q-231 0 -375.5 76zM901 329.5q57 38.5 85 140.5t28 293t-28 292.5t-85 140t-157 38.5t-157.5 -39
t-85.5 -140.5t-28 -291.5q0 -192 28 -293.5t86 -140t159 -38.5q98 0 155 38.5zM952 1611h-264l-286 310h359z" />
    <glyph glyph-name="Oacute" unicode="&#xd3;" horiz-adv-x="1488" 
d="M370.5 56q-144.5 76 -215 247.5t-70.5 459.5q0 287 70.5 458.5t214.5 248t374 76.5q226 0 370.5 -76.5t216.5 -248.5t72 -458t-72 -458t-216 -248.5t-369 -76.5q-231 0 -375.5 76zM901 329.5q57 38.5 85 140.5t28 293t-28 292.5t-85 140t-157 38.5t-157.5 -39
t-85.5 -140.5t-28 -291.5q0 -192 28 -293.5t86 -140t159 -38.5q98 0 155 38.5zM810 1611h-264l191 310h360z" />
    <glyph glyph-name="Ocircumflex" unicode="&#xd4;" horiz-adv-x="1488" 
d="M370.5 56q-144.5 76 -215 247.5t-70.5 459.5q0 287 70.5 458.5t214.5 248t374 76.5q226 0 370.5 -76.5t216.5 -248.5t72 -458t-72 -458t-216 -248.5t-369 -76.5q-231 0 -375.5 76zM901 329.5q57 38.5 85 140.5t28 293t-28 292.5t-85 140t-157 38.5t-157.5 -39
t-85.5 -140.5t-28 -291.5q0 -192 28 -293.5t86 -140t159 -38.5q98 0 155 38.5zM613 1921h271l243 -311h-278l-103 149l-101 -149h-278z" />
    <glyph glyph-name="Otilde" unicode="&#xd5;" horiz-adv-x="1488" 
d="M370.5 56q-144.5 76 -215 247.5t-70.5 459.5q0 287 70.5 458.5t214.5 248t374 76.5q226 0 370.5 -76.5t216.5 -248.5t72 -458t-72 -458t-216 -248.5t-369 -76.5q-231 0 -375.5 76zM901 329.5q57 38.5 85 140.5t28 293t-28 292.5t-85 140t-157 38.5t-157.5 -39
t-85.5 -140.5t-28 -291.5q0 -192 28 -293.5t86 -140t159 -38.5q98 0 155 38.5zM1141.5 1816.5q-16.5 -72.5 -74 -142.5t-168.5 -70q-49 0 -85 14.5t-79 41.5q-35 21 -57 30.5t-48 9.5q-47 0 -61 -35.5t-14 -60.5h-219q0 30 16.5 102.5t74 142.5t167.5 70q51 0 88 -15t83 -43
q34 -21 55 -30.5t45 -9.5q47 0 61 37t14 61h218q0 -30 -16.5 -102.5z" />
    <glyph glyph-name="Odieresis" unicode="&#xd6;" horiz-adv-x="1488" 
d="M370.5 56q-144.5 76 -215 247.5t-70.5 459.5q0 287 70.5 458.5t214.5 248t374 76.5q226 0 370.5 -76.5t216.5 -248.5t72 -458t-72 -458t-216 -248.5t-369 -76.5q-231 0 -375.5 76zM901 329.5q57 38.5 85 140.5t28 293t-28 292.5t-85 140t-157 38.5t-157.5 -39
t-85.5 -140.5t-28 -291.5q0 -192 28 -293.5t86 -140t159 -38.5q98 0 155 38.5zM438.5 1660.5q-45.5 37.5 -45.5 111.5q0 76 45.5 112.5t115.5 36.5q71 0 118.5 -37t47.5 -112q0 -74 -48 -111.5t-118 -37.5t-115.5 37.5zM823 1660.5q-46 37.5 -46 111.5q0 75 46 112t115 37
q71 0 118.5 -37t47.5 -112q0 -74 -48 -111.5t-118 -37.5q-69 0 -115 37.5z" />
    <glyph glyph-name="multiply" unicode="&#xd7;" 
d="M827 763l248 -249l-188 -189l-249 249l-249 -249l-188 188l249 249l-249 250l188 188l250 -249l248 248l188 -188z" />
    <glyph glyph-name="Oslash" unicode="&#xd8;" horiz-adv-x="1488" 
d="M1361.5 1130.5q41.5 -150.5 41.5 -367.5q0 -286 -72 -458t-216 -248.5t-369 -76.5q-132 0 -230 23l-57 -109h-315l125 237q-93 91 -138.5 246t-45.5 386q0 287 70.5 458.5t214.5 248t374 76.5q142 0 253 -30l52 98h313l-126 -240q84 -93 125.5 -243.5zM486 544l357 678
q-39 12 -99 12q-100 0 -157.5 -39t-85.5 -140.5t-28 -291.5q0 -134 13 -219zM901 329.5q57 38.5 85 140.5t28 293q0 104 -7 174l-337 -640q34 -6 76 -6q98 0 155 38.5z" />
    <glyph glyph-name="Ugrave" unicode="&#xd9;" horiz-adv-x="1397" 
d="M381.5 50q-134.5 70 -207 203t-72.5 318v955h378v-970q0 -265 220 -265q105 0 161 67t56 198v970h378v-955q0 -185 -72.5 -318t-206.5 -203t-316 -70q-184 0 -318.5 70zM910 1611h-264l-286 310h359z" />
    <glyph glyph-name="Uacute" unicode="&#xda;" horiz-adv-x="1397" 
d="M381.5 50q-134.5 70 -207 203t-72.5 318v955h378v-970q0 -265 220 -265q105 0 161 67t56 198v970h378v-955q0 -185 -72.5 -318t-206.5 -203t-316 -70q-184 0 -318.5 70zM768 1611h-264l191 310h360z" />
    <glyph glyph-name="Ucircumflex" unicode="&#xdb;" horiz-adv-x="1397" 
d="M381.5 50q-134.5 70 -207 203t-72.5 318v955h378v-970q0 -265 220 -265q105 0 161 67t56 198v970h378v-955q0 -185 -72.5 -318t-206.5 -203t-316 -70q-184 0 -318.5 70zM571 1921h271l243 -311h-278l-103 149l-101 -149h-278z" />
    <glyph glyph-name="Udieresis" unicode="&#xdc;" horiz-adv-x="1397" 
d="M381.5 50q-134.5 70 -207 203t-72.5 318v955h378v-970q0 -265 220 -265q105 0 161 67t56 198v970h378v-955q0 -185 -72.5 -318t-206.5 -203t-316 -70q-184 0 -318.5 70zM396.5 1660.5q-45.5 37.5 -45.5 111.5q0 76 45.5 112.5t115.5 36.5q71 0 118.5 -37t47.5 -112
q0 -74 -48 -111.5t-118 -37.5t-115.5 37.5zM781 1660.5q-46 37.5 -46 111.5q0 75 46 112t115 37q71 0 118.5 -37t47.5 -112q0 -74 -48 -111.5t-118 -37.5q-69 0 -115 37.5z" />
    <glyph glyph-name="Yacute" unicode="&#xdd;" horiz-adv-x="1422" 
d="M1372 1526l-476 -874v-652h-362v645l-484 881h413l254 -560l252 560h403zM773 1611h-264l191 310h360z" />
    <glyph glyph-name="Thorn" unicode="&#xde;" horiz-adv-x="1306" 
d="M1010.5 1199q101.5 -53 156 -157t54.5 -255q0 -149 -57 -257.5t-159.5 -166t-237.5 -57.5h-287v-306h-378v1526h378v-274h289q140 0 241.5 -53zM819 643.5q48 50.5 48 139.5t-44.5 135.5t-129.5 46.5h-213v-372h206q85 0 133 50.5z" />
    <glyph glyph-name="agrave" unicode="&#xe0;" horiz-adv-x="1116" 
d="M917 1045q118 -93 118 -301v-744h-274l-17 105q-48 -42 -134 -83.5t-199 -41.5q-108 0 -185.5 41.5t-118 118.5t-40.5 182q0 123 64 204t172.5 119t244.5 38h165v46q0 79 -45 116.5t-144 37.5q-80 0 -157.5 -20t-135 -43.5t-57.5 -25.5l-67 236q0 3 70.5 31.5t175.5 52.5
t225 24q221 0 339 -93zM405 254q32 -32 90 -32q61 0 117.5 26t100.5 62v166h-133q-109 0 -158 -39.5t-49 -93.5q0 -57 32 -89zM783 1214h-264l-286 310h359z" />
    <glyph glyph-name="aacute" unicode="&#xe1;" horiz-adv-x="1116" 
d="M917 1045q118 -93 118 -301v-744h-274l-17 105q-48 -42 -134 -83.5t-199 -41.5q-108 0 -185.5 41.5t-118 118.5t-40.5 182q0 123 64 204t172.5 119t244.5 38h165v46q0 79 -45 116.5t-144 37.5q-80 0 -157.5 -20t-135 -43.5t-57.5 -25.5l-67 236q0 3 70.5 31.5t175.5 52.5
t225 24q221 0 339 -93zM405 254q32 -32 90 -32q61 0 117.5 26t100.5 62v166h-133q-109 0 -158 -39.5t-49 -93.5q0 -57 32 -89zM641 1214h-264l191 310h360z" />
    <glyph glyph-name="acircumflex" unicode="&#xe2;" horiz-adv-x="1116" 
d="M917 1045q118 -93 118 -301v-744h-274l-17 105q-48 -42 -134 -83.5t-199 -41.5q-108 0 -185.5 41.5t-118 118.5t-40.5 182q0 123 64 204t172.5 119t244.5 38h165v46q0 79 -45 116.5t-144 37.5q-80 0 -157.5 -20t-135 -43.5t-57.5 -25.5l-67 236q0 3 70.5 31.5t175.5 52.5
t225 24q221 0 339 -93zM405 254q32 -32 90 -32q61 0 117.5 26t100.5 62v166h-133q-109 0 -158 -39.5t-49 -93.5q0 -57 32 -89zM444 1524h271l243 -311h-278l-103 149l-101 -149h-278z" />
    <glyph glyph-name="atilde" unicode="&#xe3;" horiz-adv-x="1116" 
d="M917 1045q118 -93 118 -301v-744h-274l-17 105q-48 -42 -134 -83.5t-199 -41.5q-108 0 -185.5 41.5t-118 118.5t-40.5 182q0 123 64 204t172.5 119t244.5 38h165v46q0 79 -45 116.5t-144 37.5q-80 0 -157.5 -20t-135 -43.5t-57.5 -25.5l-67 236q0 3 70.5 31.5t175.5 52.5
t225 24q221 0 339 -93zM405 254q32 -32 90 -32q61 0 117.5 26t100.5 62v166h-133q-109 0 -158 -39.5t-49 -93.5q0 -57 32 -89zM972.5 1419.5q-16.5 -72.5 -74 -142.5t-168.5 -70q-49 0 -85 14.5t-79 41.5q-35 21 -57 30.5t-48 9.5q-47 0 -61 -35.5t-14 -60.5h-219
q0 30 16.5 102.5t74 142.5t167.5 70q51 0 88 -15t83 -43q34 -21 55 -30.5t45 -9.5q47 0 61 37t14 61h218q0 -30 -16.5 -102.5z" />
    <glyph glyph-name="adieresis" unicode="&#xe4;" horiz-adv-x="1116" 
d="M917 1045q118 -93 118 -301v-744h-274l-17 105q-48 -42 -134 -83.5t-199 -41.5q-108 0 -185.5 41.5t-118 118.5t-40.5 182q0 123 64 204t172.5 119t244.5 38h165v46q0 79 -45 116.5t-144 37.5q-80 0 -157.5 -20t-135 -43.5t-57.5 -25.5l-67 236q0 3 70.5 31.5t175.5 52.5
t225 24q221 0 339 -93zM405 254q32 -32 90 -32q61 0 117.5 26t100.5 62v166h-133q-109 0 -158 -39.5t-49 -93.5q0 -57 32 -89zM269.5 1263.5q-45.5 37.5 -45.5 111.5q0 76 45.5 112.5t115.5 36.5q71 0 118.5 -37t47.5 -112q0 -74 -48 -111.5t-118 -37.5t-115.5 37.5z
M654 1263.5q-46 37.5 -46 111.5q0 75 46 112t115 37q71 0 118.5 -37t47.5 -112q0 -74 -48 -111.5t-118 -37.5q-69 0 -115 37.5z" />
    <glyph glyph-name="aring" unicode="&#xe5;" horiz-adv-x="1116" 
d="M917 1045q118 -93 118 -301v-744h-274l-17 105q-48 -42 -134 -83.5t-199 -41.5q-108 0 -185.5 41.5t-118 118.5t-40.5 182q0 123 64 204t172.5 119t244.5 38h165v46q0 79 -45 116.5t-144 37.5q-80 0 -157.5 -20t-135 -43.5t-57.5 -25.5l-67 236q0 3 70.5 31.5t175.5 52.5
t225 24q221 0 339 -93zM405 254q32 -32 90 -32q61 0 117.5 26t100.5 62v166h-133q-109 0 -158 -39.5t-49 -93.5q0 -57 32 -89zM435 1200.5q-63 26.5 -98 77t-35 118.5q0 103 75.5 161.5t201.5 58.5q82 0 144.5 -26t97 -76t34.5 -118q0 -105 -76 -163.5t-200 -58.5
q-81 0 -144 26.5zM510.5 1456q-26.5 -24 -26.5 -60q0 -38 27 -62.5t68 -24.5q40 0 67.5 25t27.5 62t-24.5 60.5t-70.5 23.5q-42 0 -68.5 -24z" />
    <glyph glyph-name="ae" unicode="&#xe6;" horiz-adv-x="1761" 
d="M1686 453h-649q11 -84 42 -131.5t81 -67t124 -19.5q77 0 145.5 19t115.5 41.5t47 24.5l78 -223q0 -4 -58 -34.5t-150 -56.5t-206 -26q-141 0 -246 35t-174 111q-57 -51 -159 -98.5t-242 -47.5q-177 0 -272.5 91t-95.5 251q0 123 64 204t172.5 119t244.5 38h160v55
q0 71 -45 108t-129 37q-90 0 -170 -19.5t-135 -42.5t-55 -25l-67 234q0 3 70.5 31.5t175.5 52.5t225 24q105 0 183 -21t130 -65q116 82 325 82q161 0 263 -50t154.5 -171.5t52.5 -334.5v-125zM1370 655q-1 122 -38.5 173t-121.5 51q-54 0 -89.5 -19.5t-58 -68.5t-29.5 -136
h337zM744 291q-26 81 -33 185h-131q-109 0 -158 -39.5t-49 -93.5q0 -57 36.5 -89t102.5 -32q114 0 232 69z" />
    <glyph glyph-name="ccedilla" unicode="&#xe7;" horiz-adv-x="957" 
d="M863.5 45q-29.5 -18 -82 -36t-123.5 -25l-37 -65q73 -6 122.5 -42.5t49.5 -109.5q0 -86 -63 -135t-183 -49q-87 0 -146 23t-85 40l57 128q0 -1 26.5 -14.5t65.5 -25t83 -11.5q29 0 46.5 12.5t17.5 33.5q0 32 -41 44t-129 12h-31l84 159q-147 14 -239 78t-136.5 185.5
t-44.5 309.5q0 205 53.5 332t164.5 186.5t289 59.5q95 0 164 -19t108 -41t39 -25l-65 -227q0 2 -27.5 17t-72.5 27.5t-102 12.5q-80 0 -130 -29t-74.5 -99.5t-24.5 -194.5t24.5 -194t74.5 -99t130 -29q57 0 102 12.5t72.5 27t27.5 16.5l65 -226q0 -2 -29.5 -20z" />
    <glyph glyph-name="egrave" unicode="&#xe8;" horiz-adv-x="1128" 
d="M1053 453h-649q11 -84 42 -131.5t81 -67t124 -19.5q77 0 145.5 19t115.5 41.5t47 24.5l78 -223q0 -4 -58 -34.5t-150 -56.5t-206 -26q-177 0 -298 56t-185.5 184t-64.5 339t58 338t169.5 182t280.5 55q161 0 263 -50t154.5 -171.5t52.5 -334.5v-125zM737 655
q-1 122 -38.5 173t-121.5 51q-54 0 -89.5 -19.5t-58 -68.5t-29.5 -136h337zM790 1214h-264l-286 310h359z" />
    <glyph glyph-name="eacute" unicode="&#xe9;" horiz-adv-x="1128" 
d="M1053 453h-649q11 -84 42 -131.5t81 -67t124 -19.5q77 0 145.5 19t115.5 41.5t47 24.5l78 -223q0 -4 -58 -34.5t-150 -56.5t-206 -26q-177 0 -298 56t-185.5 184t-64.5 339t58 338t169.5 182t280.5 55q161 0 263 -50t154.5 -171.5t52.5 -334.5v-125zM737 655
q-1 122 -38.5 173t-121.5 51q-54 0 -89.5 -19.5t-58 -68.5t-29.5 -136h337zM648 1214h-264l191 310h360z" />
    <glyph glyph-name="ecircumflex" unicode="&#xea;" horiz-adv-x="1128" 
d="M1053 453h-649q11 -84 42 -131.5t81 -67t124 -19.5q77 0 145.5 19t115.5 41.5t47 24.5l78 -223q0 -4 -58 -34.5t-150 -56.5t-206 -26q-177 0 -298 56t-185.5 184t-64.5 339t58 338t169.5 182t280.5 55q161 0 263 -50t154.5 -171.5t52.5 -334.5v-125zM737 655
q-1 122 -38.5 173t-121.5 51q-54 0 -89.5 -19.5t-58 -68.5t-29.5 -136h337zM451 1524h271l243 -311h-278l-103 149l-101 -149h-278z" />
    <glyph glyph-name="edieresis" unicode="&#xeb;" horiz-adv-x="1128" 
d="M1053 453h-649q11 -84 42 -131.5t81 -67t124 -19.5q77 0 145.5 19t115.5 41.5t47 24.5l78 -223q0 -4 -58 -34.5t-150 -56.5t-206 -26q-177 0 -298 56t-185.5 184t-64.5 339t58 338t169.5 182t280.5 55q161 0 263 -50t154.5 -171.5t52.5 -334.5v-125zM737 655
q-1 122 -38.5 173t-121.5 51q-54 0 -89.5 -19.5t-58 -68.5t-29.5 -136h337zM276.5 1263.5q-45.5 37.5 -45.5 111.5q0 76 45.5 112.5t115.5 36.5q71 0 118.5 -37t47.5 -112q0 -74 -48 -111.5t-118 -37.5t-115.5 37.5zM661 1263.5q-46 37.5 -46 111.5q0 75 46 112t115 37
q71 0 118.5 -37t47.5 -112q0 -74 -48 -111.5t-118 -37.5q-69 0 -115 37.5z" />
    <glyph glyph-name="igrave" unicode="&#xec;" horiz-adv-x="521" 
d="M99 1118h322v-1118h-322v1118zM464 1218h-264l-286 310h359z" />
    <glyph glyph-name="iacute" unicode="&#xed;" horiz-adv-x="521" 
d="M99 1118h322v-1118h-322v1118zM322 1218h-264l191 310h360z" />
    <glyph glyph-name="icircumflex" unicode="&#xee;" horiz-adv-x="521" 
d="M99 1118h322v-1118h-322v1118zM125 1528h271l243 -311h-278l-103 149l-101 -149h-278z" />
    <glyph glyph-name="idieresis" unicode="&#xef;" horiz-adv-x="521" 
d="M99 1118h322v-1118h-322v1118zM-49.5 1267.5q-45.5 37.5 -45.5 111.5q0 76 45.5 112.5t115.5 36.5q71 0 118.5 -37t47.5 -112q0 -74 -48 -111.5t-118 -37.5t-115.5 37.5zM335 1267.5q-46 37.5 -46 111.5q0 75 46 112t115 37q71 0 118.5 -37t47.5 -112q0 -74 -48 -111.5
t-118 -37.5q-69 0 -115 37.5z" />
    <glyph glyph-name="eth" unicode="&#xf0;" horiz-adv-x="1169" 
d="M1042.5 915.5q52.5 -180.5 52.5 -373.5q0 -206 -56.5 -329.5t-168 -178t-284.5 -54.5t-285 52.5t-169 173t-57 322.5q0 193 43.5 312.5t131.5 175.5t225 56q109 0 209 -50q-32 81 -77 162l-241 -65v215l120 32q-63 83 -133 160h344q41 -46 71 -84l307 83v-216l-182 -49
q97 -164 149.5 -344.5zM694.5 262.5q39.5 27.5 58.5 94.5t19 185q0 112 -15 211q-82 64 -168 64q-69 0 -110 -24t-61.5 -86.5t-20.5 -178.5q0 -115 20.5 -178.5t61.5 -89t110 -25.5q66 0 105.5 27.5z" />
    <glyph glyph-name="ntilde" unicode="&#xf1;" horiz-adv-x="1134" 
d="M870.5 1096.5q77.5 -41.5 122 -125.5t44.5 -207v-764h-322v733q0 69 -33.5 105.5t-100.5 36.5q-79 0 -161 -64v-811h-321v1118h265l19 -104q48 41 128 82.5t181 41.5t178.5 -41.5zM967.5 1419.5q-16.5 -72.5 -74 -142.5t-168.5 -70q-49 0 -85 14.5t-79 41.5
q-35 21 -57 30.5t-48 9.5q-47 0 -61 -35.5t-14 -60.5h-219q0 30 16.5 102.5t74 142.5t167.5 70q51 0 88 -15t83 -43q34 -21 55 -30.5t45 -9.5q47 0 61 37t14 61h218q0 -30 -16.5 -102.5z" />
    <glyph glyph-name="ograve" unicode="&#xf2;" horiz-adv-x="1171" 
d="M301 36.5q-112 55.5 -169 182.5t-57 340q0 212 57 338.5t169 181.5t285 55q174 0 285.5 -55t168 -181.5t56.5 -338.5q0 -213 -56.5 -340t-168 -182.5t-285.5 -55.5q-173 0 -285 55.5zM696 264q39 28 58.5 98t19.5 197q0 128 -19 197t-59 96t-110 27q-66 0 -107 -27.5
t-61.5 -97t-20.5 -195.5q0 -127 20.5 -197t62 -98t111.5 -28q66 0 105 28zM790 1214h-264l-286 310h359z" />
    <glyph glyph-name="oacute" unicode="&#xf3;" horiz-adv-x="1171" 
d="M301 36.5q-112 55.5 -169 182.5t-57 340q0 212 57 338.5t169 181.5t285 55q174 0 285.5 -55t168 -181.5t56.5 -338.5q0 -213 -56.5 -340t-168 -182.5t-285.5 -55.5q-173 0 -285 55.5zM696 264q39 28 58.5 98t19.5 197q0 128 -19 197t-59 96t-110 27q-66 0 -107 -27.5
t-61.5 -97t-20.5 -195.5q0 -127 20.5 -197t62 -98t111.5 -28q66 0 105 28zM648 1214h-264l191 310h360z" />
    <glyph glyph-name="ocircumflex" unicode="&#xf4;" horiz-adv-x="1171" 
d="M301 36.5q-112 55.5 -169 182.5t-57 340q0 212 57 338.5t169 181.5t285 55q174 0 285.5 -55t168 -181.5t56.5 -338.5q0 -213 -56.5 -340t-168 -182.5t-285.5 -55.5q-173 0 -285 55.5zM696 264q39 28 58.5 98t19.5 197q0 128 -19 197t-59 96t-110 27q-66 0 -107 -27.5
t-61.5 -97t-20.5 -195.5q0 -127 20.5 -197t62 -98t111.5 -28q66 0 105 28zM451 1524h271l243 -311h-278l-103 149l-101 -149h-278z" />
    <glyph glyph-name="otilde" unicode="&#xf5;" horiz-adv-x="1171" 
d="M301 36.5q-112 55.5 -169 182.5t-57 340q0 212 57 338.5t169 181.5t285 55q174 0 285.5 -55t168 -181.5t56.5 -338.5q0 -213 -56.5 -340t-168 -182.5t-285.5 -55.5q-173 0 -285 55.5zM696 264q39 28 58.5 98t19.5 197q0 128 -19 197t-59 96t-110 27q-66 0 -107 -27.5
t-61.5 -97t-20.5 -195.5q0 -127 20.5 -197t62 -98t111.5 -28q66 0 105 28zM979.5 1419.5q-16.5 -72.5 -74 -142.5t-168.5 -70q-49 0 -85 14.5t-79 41.5q-35 21 -57 30.5t-48 9.5q-47 0 -61 -35.5t-14 -60.5h-219q0 30 16.5 102.5t74 142.5t167.5 70q51 0 88 -15t83 -43
q34 -21 55 -30.5t45 -9.5q47 0 61 37t14 61h218q0 -30 -16.5 -102.5z" />
    <glyph glyph-name="odieresis" unicode="&#xf6;" horiz-adv-x="1171" 
d="M301 36.5q-112 55.5 -169 182.5t-57 340q0 212 57 338.5t169 181.5t285 55q174 0 285.5 -55t168 -181.5t56.5 -338.5q0 -213 -56.5 -340t-168 -182.5t-285.5 -55.5q-173 0 -285 55.5zM696 264q39 28 58.5 98t19.5 197q0 128 -19 197t-59 96t-110 27q-66 0 -107 -27.5
t-61.5 -97t-20.5 -195.5q0 -127 20.5 -197t62 -98t111.5 -28q66 0 105 28zM276.5 1263.5q-45.5 37.5 -45.5 111.5q0 76 45.5 112.5t115.5 36.5q71 0 118.5 -37t47.5 -112q0 -74 -48 -111.5t-118 -37.5t-115.5 37.5zM661 1263.5q-46 37.5 -46 111.5q0 75 46 112t115 37
q71 0 118.5 -37t47.5 -112q0 -74 -48 -111.5t-118 -37.5q-69 0 -115 37.5z" />
    <glyph glyph-name="divide" unicode="&#xf7;" 
d="M512 1025.5q-44 40.5 -44 124.5q0 83 43.5 122t111.5 39q69 0 113 -39t44 -122q0 -84 -44 -124.5t-113 -40.5q-67 0 -111 40.5zM141 898h969v-266h-969v266zM512 260.5q-44 40.5 -44 123.5q0 84 43.5 122.5t111.5 38.5q70 0 113.5 -38.5t43.5 -122.5q0 -83 -44 -123.5
t-113 -40.5q-67 0 -111 40.5z" />
    <glyph glyph-name="oslash" unicode="&#xf8;" horiz-adv-x="1171" 
d="M1063.5 830q32.5 -111 32.5 -271q0 -213 -56.5 -340t-168 -182.5t-285.5 -55.5q-95 0 -171 16l-57 -105h-242l108 197q-75 67 -112 182.5t-37 287.5q0 212 57 338.5t169 181.5t285 55q112 0 196 -22l40 73h241l-96 -177q64 -67 96.5 -178zM405 421l246 451q-27 7 -65 7
q-66 0 -107 -27.5t-61.5 -97t-20.5 -195.5q0 -76 8 -138zM696 264q39 28 58.5 98t19.5 197q0 51 -3 91l-224 -411q21 -3 44 -3q66 0 105 28z" />
    <glyph glyph-name="ugrave" unicode="&#xf9;" horiz-adv-x="1140" 
d="M222.5 89q-125.5 109 -125.5 325v704h322v-723q0 -79 38.5 -119.5t111.5 -40.5q74 0 113 40.5t39 119.5v723h322v-704q0 -217 -126 -325.5t-348 -108.5q-221 0 -346.5 109zM771 1214h-264l-286 310h359z" />
    <glyph glyph-name="uacute" unicode="&#xfa;" horiz-adv-x="1140" 
d="M222.5 89q-125.5 109 -125.5 325v704h322v-723q0 -79 38.5 -119.5t111.5 -40.5q74 0 113 40.5t39 119.5v723h322v-704q0 -217 -126 -325.5t-348 -108.5q-221 0 -346.5 109zM629 1214h-264l191 310h360z" />
    <glyph glyph-name="ucircumflex" unicode="&#xfb;" horiz-adv-x="1140" 
d="M222.5 89q-125.5 109 -125.5 325v704h322v-723q0 -79 38.5 -119.5t111.5 -40.5q74 0 113 40.5t39 119.5v723h322v-704q0 -217 -126 -325.5t-348 -108.5q-221 0 -346.5 109zM432 1524h271l243 -311h-278l-103 149l-101 -149h-278z" />
    <glyph glyph-name="udieresis" unicode="&#xfc;" horiz-adv-x="1140" 
d="M222.5 89q-125.5 109 -125.5 325v704h322v-723q0 -79 38.5 -119.5t111.5 -40.5q74 0 113 40.5t39 119.5v723h322v-704q0 -217 -126 -325.5t-348 -108.5q-221 0 -346.5 109zM257.5 1263.5q-45.5 37.5 -45.5 111.5q0 76 45.5 112.5t115.5 36.5q71 0 118.5 -37t47.5 -112
q0 -74 -48 -111.5t-118 -37.5t-115.5 37.5zM642 1263.5q-46 37.5 -46 111.5q0 75 46 112t115 37q71 0 118.5 -37t47.5 -112q0 -74 -48 -111.5t-118 -37.5q-69 0 -115 37.5z" />
    <glyph glyph-name="yacute" unicode="&#xfd;" horiz-adv-x="1063" 
d="M1033 1118l-345 -1221q-28 -102 -79 -164.5t-133 -92t-206 -29.5h-80v255h53q43 0 71.5 19.5t44.5 60.5l28 76l-356 1096h337l189 -735l158 735h318zM608 1214h-264l191 310h360z" />
    <glyph glyph-name="thorn" unicode="&#xfe;" horiz-adv-x="1175" 
d="M925 1078.5q88 -59.5 131.5 -188t43.5 -334.5q0 -203 -43.5 -330t-131.5 -186.5t-225 -59.5q-84 0 -155 29t-124 68v-466h-322v1915h322v-485q53 39 124 68t155 29q137 0 225 -59.5zM698.5 261.5q40.5 26.5 60 95.5t19.5 199q0 133 -19.5 203.5t-60 97t-112.5 26.5
q-86 0 -165 -66v-515q80 -67 165 -67q72 0 112.5 26.5z" />
    <glyph glyph-name="ydieresis" unicode="&#xff;" horiz-adv-x="1063" 
d="M1033 1118l-345 -1221q-28 -102 -79 -164.5t-133 -92t-206 -29.5h-80v255h53q43 0 71.5 19.5t44.5 60.5l28 76l-356 1096h337l189 -735l158 735h318zM236.5 1263.5q-45.5 37.5 -45.5 111.5q0 76 45.5 112.5t115.5 36.5q71 0 118.5 -37t47.5 -112q0 -74 -48 -111.5
t-118 -37.5t-115.5 37.5zM621 1263.5q-46 37.5 -46 111.5q0 75 46 112t115 37q71 0 118.5 -37t47.5 -112q0 -74 -48 -111.5t-118 -37.5q-69 0 -115 37.5z" />
    <glyph glyph-name="dotlessi" unicode="&#x131;" horiz-adv-x="521" 
d="M99 1118h322v-1118h-322v1118z" />
    <glyph glyph-name="Lslash" unicode="&#x141;" horiz-adv-x="1160" 
d="M1084 295v-295h-982v542l-96 -41v299l96 41v685h378v-523l287 123v-300l-287 -123v-408h604z" />
    <glyph glyph-name="lslash" unicode="&#x142;" horiz-adv-x="521" 
d="M525 829l-104 -58v-771h-322v593l-103 -57v294l103 58v638h322v-458l104 58v-297z" />
    <glyph glyph-name="OE" unicode="&#x152;" horiz-adv-x="1976" 
d="M1884 295v-295h-1141q-230 0 -373 70.5t-214 235.5t-71 451t71 454.5t214 241.5t373 73h1136v-296h-606v-303h518v-295h-518v-337h611zM894 1230h-150q-102 0 -159.5 -38t-84.5 -138.5t-27 -291.5q0 -190 27.5 -290t84 -138t154.5 -39h155v935z" />
    <glyph glyph-name="oe" unicode="&#x153;" horiz-adv-x="1833" 
d="M1758 453h-649q11 -84 42 -131.5t81 -67t124 -19.5q77 0 145.5 19t115.5 41.5t47 24.5l78 -223q0 -4 -58 -34.5t-150 -56.5t-206 -26q-251 0 -381 108q-62 -56 -151.5 -81.5t-209.5 -25.5q-173 0 -285 55.5t-169 182.5t-57 340q0 212 57 338.5t169 181.5t285 55
q116 0 203.5 -24t149.5 -76q62 52 149 76t200 24q161 0 263 -50t154.5 -171.5t52.5 -334.5v-125zM696 264q39 28 58.5 98t19.5 197q0 128 -19 197t-59 96t-110 27q-66 0 -107 -27.5t-61.5 -97t-20.5 -195.5q0 -127 20.5 -197t62 -98t111.5 -28q66 0 105 28zM1442 655
q-1 122 -38.5 173t-121.5 51q-54 0 -89.5 -19.5t-58 -68.5t-29.5 -136h337z" />
    <glyph glyph-name="Scaron" unicode="&#x160;" horiz-adv-x="1255" 
d="M351.5 13.5q-123.5 33.5 -202 72.5t-78.5 44l91 309q0 -4 73.5 -43t179.5 -71.5t225 -32.5q196 0 196 139q0 54 -26 86.5t-75 51.5t-130 35l-83 16q-131 25 -222 70t-147 140.5t-56 255.5q0 141 63.5 244t186 159t293.5 56q145 0 261 -27t189 -58.5t73 -35.5l-75 -301
q0 4 -60.5 32.5t-157 53t-217.5 24.5q-97 0 -147 -34t-50 -101q0 -51 24.5 -81.5t74.5 -49.5t144 -39l78 -17q123 -24 211 -71t142 -139.5t54 -242.5q0 -142 -65.5 -250t-191 -168t-299.5 -60q-153 0 -276.5 33.5zM654 1771l103 148h278l-243 -310h-271l-246 310h278z" />
    <glyph glyph-name="scaron" unicode="&#x161;" horiz-adv-x="990" 
d="M266 5.5q-91 24.5 -144 53.5t-53 33l76 251q0 -3 49.5 -31t124 -52t161.5 -24q136 0 136 93q0 56 -39.5 80t-123.5 37l-61 9q-94 14 -160.5 46t-107 99.5t-40.5 179.5q0 111 52.5 191.5t151 123.5t234.5 43q115 0 201 -22t136 -47t50 -29l-71 -247q0 3 -43.5 26.5
t-113.5 43.5t-158 20q-68 0 -100.5 -22t-32.5 -67q0 -33 19.5 -53.5t57 -33t103.5 -25.5l56 -11q139 -28 217.5 -100.5t78.5 -225.5q0 -110 -53.5 -192t-153 -127t-235.5 -45q-123 0 -214 24.5zM510 1374l103 148h278l-243 -310h-271l-246 310h278z" />
    <glyph glyph-name="Ydieresis" unicode="&#x178;" horiz-adv-x="1422" 
d="M1372 1526l-476 -874v-652h-362v645l-484 881h413l254 -560l252 560h403zM401.5 1660.5q-45.5 37.5 -45.5 111.5q0 76 45.5 112.5t115.5 36.5q71 0 118.5 -37t47.5 -112q0 -74 -48 -111.5t-118 -37.5t-115.5 37.5zM786 1660.5q-46 37.5 -46 111.5q0 75 46 112t115 37
q71 0 118.5 -37t47.5 -112q0 -74 -48 -111.5t-118 -37.5q-69 0 -115 37.5z" />
    <glyph glyph-name="Zcaron" unicode="&#x17d;" horiz-adv-x="1347" 
d="M93 285l712 945h-696v296h1116v-285l-695 -946h724v-295h-1161v285zM671 1771l103 148h278l-243 -310h-271l-246 310h278z" />
    <glyph glyph-name="zcaron" unicode="&#x17e;" horiz-adv-x="1073" 
d="M999 246v-246h-914v241l498 631h-494v246h887v-236l-495 -636h518zM535 1374l103 148h278l-243 -310h-271l-246 310h278z" />
    <glyph glyph-name="endash" unicode="&#x2013;" horiz-adv-x="1134" 
d="M102 791h930v-264h-930v264z" />
    <glyph glyph-name="emdash" unicode="&#x2014;" horiz-adv-x="1677" 
d="M102 791h1473v-272h-1473v272z" />
    <glyph glyph-name="quoteleft" unicode="&#x2018;" horiz-adv-x="491" 
d="M241 1526h196l-106 -434h-277z" />
    <glyph glyph-name="quoteright" unicode="&#x2019;" horiz-adv-x="491" 
d="M250 1092h-196l106 434h277z" />
    <glyph glyph-name="quotesinglbase" unicode="&#x201a;" horiz-adv-x="491" 
d="M161 228h276l-187 -437h-196z" />
    <glyph glyph-name="quotedblleft" unicode="&#x201c;" horiz-adv-x="839" 
d="M589 1526h196l-106 -434h-277zM241 1526h196l-106 -434h-277z" />
    <glyph glyph-name="quotedblright" unicode="&#x201d;" horiz-adv-x="839" 
d="M598 1092h-196l106 434h277zM250 1092h-196l106 434h277z" />
    <glyph glyph-name="quotedblbase" unicode="&#x201e;" horiz-adv-x="839" 
d="M509 228h276l-187 -437h-196zM161 228h276l-187 -437h-196z" />
    <glyph glyph-name="dagger" unicode="&#x2020;" 
d="M479 789l-371 -35v336l365 -36l-29 470h363l-31 -470l363 37v-337l-369 35l35 -1174h-361z" />
    <glyph glyph-name="daggerdbl" unicode="&#x2021;" 
d="M1140 45l-369 40l38 -469h-365l34 469l-370 -38v339l379 -35l-40 222l40 231l-379 -36v335l370 -37l-34 458h363l-36 -458l369 38v-336l-377 36l41 -231l-40 -222l376 35v-341z" />
    <glyph glyph-name="bullet" unicode="&#x2022;" horiz-adv-x="907" 
d="M298.5 325.5q-70.5 35.5 -114 111t-43.5 187.5t43.5 185.5t113.5 107.5t153 34q84 0 154.5 -34t113.5 -107.5t43 -185.5q0 -113 -43 -188t-113.5 -110.5t-154.5 -35.5q-82 0 -152.5 35.5z" />
    <glyph glyph-name="ellipsis" unicode="&#x2026;" horiz-adv-x="1509" 
d="M1119.5 25q-51.5 45 -51.5 138q0 92 51 136t128 44q80 0 131.5 -43.5t51.5 -136.5t-52 -138t-131 -45q-76 0 -127.5 45zM624.5 25q-51.5 45 -51.5 138q0 92 51 136t128 44q80 0 131.5 -43.5t51.5 -136.5t-52 -138t-131 -45q-76 0 -127.5 45zM130.5 25q-51.5 45 -51.5 138
q0 92 51 136t128 44q80 0 131.5 -43.5t51.5 -136.5t-52 -138t-131 -45q-76 0 -127.5 45z" />
    <glyph glyph-name="perthousand" unicode="&#x2030;" horiz-adv-x="2395" 
d="M204 770q-74 41 -108 130t-34 237t34 236.5t108 129.5t197 41t196 -40.5t106.5 -129t33.5 -237.5q0 -148 -33.5 -237t-107 -130t-195.5 -41q-123 0 -197 41zM1116 1524h262l-826 -1524h-269zM455.5 925q18.5 18 26.5 67t8 145q0 99 -8 147.5t-26.5 66t-54.5 17.5
q-35 0 -54 -19t-28 -68.5t-9 -143.5q0 -95 9 -144t28.5 -67.5t55.5 -18.5q34 0 52.5 18zM1068 21q-74 41 -108 130t-34 237t34 236.5t108 129.5t197 41t196 -41t106 -129.5t33 -236.5q0 -149 -33.5 -237.5t-106.5 -129.5t-195 -41q-123 0 -197 41zM1800.5 21
q-74.5 41 -108.5 130t-34 237t34 236.5t108.5 129.5t197.5 41t195.5 -41t106 -129.5t33.5 -236.5t-33.5 -237t-106.5 -130t-195 -41q-123 0 -197.5 41zM1319 175.5q18 18.5 26.5 68t8.5 144.5q0 98 -8 146.5t-26.5 66t-54.5 17.5q-35 0 -54 -19t-28 -68t-9 -143
q0 -95 9 -144.5t28.5 -68t55.5 -18.5q34 0 52 18.5zM2051.5 175.5q18.5 18.5 26.5 67.5t8 145q0 98 -8 146.5t-26.5 66t-54.5 17.5q-35 0 -54 -19t-28 -68t-9 -143q0 -95 9 -144.5t28.5 -68t55.5 -18.5q34 0 52.5 18.5z" />
    <glyph glyph-name="fraction" unicode="&#x2044;" horiz-adv-x="61" 
d="M-516 0l831 1524h262l-824 -1524h-269z" />
    <glyph glyph-name="trademark" unicode="&#x2122;" horiz-adv-x="1800" 
d="M532 1356v-672h-215v672h-208v168h635v-168h-212zM838 684v840h269l139 -534l147 534h260v-840h-190v496l-139 -496h-164l-134 493v-493h-188z" />
    <glyph glyph-name="guilsinglleft" unicode="&#x2039;" horiz-adv-x="721" 
d="M362 256l-312 367l312 364h309l-320 -364l320 -367h-309z" />
    <glyph glyph-name="guillemotleft" unicode="&#xab;" horiz-adv-x="1163" 
d="M804 256l-312 367l312 364h309l-320 -364l320 -367h-309zM362 256l-312 367l312 364h309l-320 -364l320 -367h-309z" />
    <glyph glyph-name="guillemotright" unicode="&#xbb;" horiz-adv-x="1163" 
d="M492 987h309l312 -364l-312 -367h-309l320 367zM50 987h309l312 -364l-312 -367h-309l320 367z" />
    <glyph glyph-name="guilsinglright" unicode="&#x203a;" horiz-adv-x="721" 
d="M50 987h309l312 -364l-312 -367h-309l320 367z" />
    <glyph glyph-name="Abreve" unicode="&#x102;" horiz-adv-x="1501" 
d="M1007 259h-526l-72 -259h-375l493 1526h460l480 -1526h-389zM927 551l-180 658l-184 -658h364zM1123 1813.5q-24 -74.5 -110 -147t-254 -72.5q-169 0 -254.5 72.5t-107.5 146t-22 108.5h234q0 -39 27.5 -95t123.5 -56q70 0 106 33.5t45.5 67.5t9.5 50h226
q0 -33 -24 -107.5z" />
    <glyph glyph-name="Amacron" unicode="&#x100;" horiz-adv-x="1501" 
d="M1007 259h-526l-72 -259h-375l493 1526h460l480 -1526h-389zM927 551l-180 658l-184 -658h364zM427 1891h668v-216h-668v216z" />
    <glyph glyph-name="Aogonek" unicode="&#x104;" horiz-adv-x="1501" 
d="M1574 -341q0 -2 -28 -14t-77 -22t-115 -10q-118 0 -183 46t-65 136q0 67 45 116t132 89h-205l-71 259h-526l-72 -259h-375l493 1526h460l480 -1526q-68 -26 -110.5 -68t-42.5 -84q0 -27 19.5 -42t54.5 -15q45 0 78.5 7t53 15.5t19.5 9.5zM927 551l-180 658l-184 -658h364
z" />
    <glyph glyph-name="Cacute" unicode="&#x106;" horiz-adv-x="1213" 
d="M379 56q-148 76 -221 247.5t-73 458.5t73 458.5t221 247.5t382 76q122 0 209 -20.5t135 -44t48 -27.5l-76 -278q0 2 -34.5 17.5t-94 28.5t-139.5 13q-123 0 -194 -38t-106.5 -139.5t-35.5 -293.5t35.5 -293.5t106.5 -139.5t194 -38q80 0 139.5 13t94 28.5t34.5 17.5
l76 -278q0 -4 -48 -27.5t-135 -44t-209 -20.5q-234 0 -382 76zM794 1611h-264l191 310h360z" />
    <glyph glyph-name="Ccaron" unicode="&#x10c;" horiz-adv-x="1213" 
d="M379 56q-148 76 -221 247.5t-73 458.5t73 458.5t221 247.5t382 76q122 0 209 -20.5t135 -44t48 -27.5l-76 -278q0 2 -34.5 17.5t-94 28.5t-139.5 13q-123 0 -194 -38t-106.5 -139.5t-35.5 -293.5t35.5 -293.5t106.5 -139.5t194 -38q80 0 139.5 13t94 28.5t34.5 17.5
l76 -278q0 -4 -48 -27.5t-135 -44t-209 -20.5q-234 0 -382 76zM730 1771l103 148h278l-243 -310h-271l-246 310h278z" />
    <glyph glyph-name="Ccircumflex" unicode="&#x108;" horiz-adv-x="1213" 
d="M379 56q-148 76 -221 247.5t-73 458.5t73 458.5t221 247.5t382 76q122 0 209 -20.5t135 -44t48 -27.5l-76 -278q0 2 -34.5 17.5t-94 28.5t-139.5 13q-123 0 -194 -38t-106.5 -139.5t-35.5 -293.5t35.5 -293.5t106.5 -139.5t194 -38q80 0 139.5 13t94 28.5t34.5 17.5
l76 -278q0 -4 -48 -27.5t-135 -44t-209 -20.5q-234 0 -382 76zM597 1921h271l243 -311h-278l-103 149l-101 -149h-278z" />
    <glyph glyph-name="Cdotaccent" unicode="&#x10a;" horiz-adv-x="1213" 
d="M379 56q-148 76 -221 247.5t-73 458.5t73 458.5t221 247.5t382 76q122 0 209 -20.5t135 -44t48 -27.5l-76 -278q0 2 -34.5 17.5t-94 28.5t-139.5 13q-123 0 -194 -38t-106.5 -139.5t-35.5 -293.5t35.5 -293.5t106.5 -139.5t194 -38q80 0 139.5 13t94 28.5t34.5 17.5
l76 -278q0 -4 -48 -27.5t-135 -44t-209 -20.5q-234 0 -382 76zM612 1657q-47 39 -47 113q0 77 46.5 114t117.5 37q73 0 121 -37t48 -114q0 -74 -49 -113t-120 -39q-70 0 -117 39z" />
    <glyph glyph-name="Dcaron" unicode="&#x10e;" horiz-adv-x="1372" 
d="M102 1526h527q230 0 373.5 -72.5t214 -239.5t70.5 -452q0 -286 -71 -452.5t-214 -238t-373 -71.5h-527v1526zM633 295q98 0 154.5 38t83.5 138.5t27 290.5q0 192 -26.5 292.5t-83.5 138t-159 37.5h-149v-935h153zM659 1771l103 148h278l-243 -310h-271l-246 310h278z" />
    <glyph glyph-name="Dcroat" unicode="&#x110;" horiz-adv-x="1372" 
d="M1002.5 1453.5q143.5 -72.5 214 -239.5t70.5 -452q0 -286 -71 -452.5t-214 -238t-373 -71.5h-527v632h-82v295h82v599h527q230 0 373.5 -72.5zM787.5 333q56.5 38 83.5 138.5t27 290.5q0 192 -26.5 292.5t-83.5 138t-159 37.5h-149v-303h248v-295h-248v-337h153
q98 0 154.5 38z" />
    <glyph glyph-name="Ebreve" unicode="&#x114;" horiz-adv-x="1197" 
d="M1104 295v-295h-1002v1526h997v-296h-619v-303h532v-295h-532v-337h624zM970 1813.5q-24 -74.5 -110 -147t-254 -72.5q-169 0 -254.5 72.5t-107.5 146t-22 108.5h234q0 -39 27.5 -95t123.5 -56q70 0 106 33.5t45.5 67.5t9.5 50h226q0 -33 -24 -107.5z" />
    <glyph glyph-name="Ecaron" unicode="&#x11a;" horiz-adv-x="1197" 
d="M1104 295v-295h-1002v1526h997v-296h-619v-303h532v-295h-532v-337h624zM607 1771l103 148h278l-243 -310h-271l-246 310h278z" />
    <glyph glyph-name="Edotaccent" unicode="&#x116;" horiz-adv-x="1197" 
d="M1104 295v-295h-1002v1526h997v-296h-619v-303h532v-295h-532v-337h624zM489 1657q-47 39 -47 113q0 77 46.5 114t117.5 37q73 0 121 -37t48 -114q0 -74 -49 -113t-120 -39q-70 0 -117 39z" />
    <glyph glyph-name="Emacron" unicode="&#x112;" horiz-adv-x="1197" 
d="M1104 295v-295h-1002v1526h997v-296h-619v-303h532v-295h-532v-337h624zM274 1891h668v-216h-668v216z" />
    <glyph glyph-name="Eogonek" unicode="&#x118;" horiz-adv-x="1197" 
d="M1211 -341q0 -2 -28 -14t-77 -22t-115 -10q-118 0 -183 46t-65 136q0 67 45 116t132 89h-818v1526h997v-296h-619v-303h532v-295h-532v-337h624v-295q-68 -26 -110.5 -68t-42.5 -84q0 -27 19.5 -42t54.5 -15q45 0 78.5 7t53 15.5t19.5 9.5z" />
    <glyph glyph-name="Gbreve" unicode="&#x11e;" horiz-adv-x="1395" 
d="M1295 112q0 -5 -71.5 -39t-190.5 -63.5t-275 -29.5q-235 0 -382 76t-219 247.5t-72 458.5q0 284 76.5 455.5t233 249t405.5 77.5q148 0 251.5 -23t159.5 -49.5t56 -30.5l-76 -288q0 3 -42.5 20.5t-119 33t-181.5 15.5q-139 0 -218.5 -37t-118 -136t-38.5 -287
q0 -189 34.5 -291.5t105.5 -142.5t193 -40q32 0 60 3.5t45 7.5t21 5v307h-174v295h537v-794zM1107 1813.5q-24 -74.5 -110 -147t-254 -72.5q-169 0 -254.5 72.5t-107.5 146t-22 108.5h234q0 -39 27.5 -95t123.5 -56q70 0 106 33.5t45.5 67.5t9.5 50h226q0 -33 -24 -107.5z
" />
    <glyph glyph-name="Gcircumflex" unicode="&#x11c;" horiz-adv-x="1395" 
d="M1295 112q0 -5 -71.5 -39t-190.5 -63.5t-275 -29.5q-235 0 -382 76t-219 247.5t-72 458.5q0 284 76.5 455.5t233 249t405.5 77.5q148 0 251.5 -23t159.5 -49.5t56 -30.5l-76 -288q0 3 -42.5 20.5t-119 33t-181.5 15.5q-139 0 -218.5 -37t-118 -136t-38.5 -287
q0 -189 34.5 -291.5t105.5 -142.5t193 -40q32 0 60 3.5t45 7.5t21 5v307h-174v295h537v-794zM611 1921h271l243 -311h-278l-103 149l-101 -149h-278z" />
    <glyph glyph-name="Gcommaaccent" unicode="&#x122;" horiz-adv-x="1395" 
d="M1295 112q0 -5 -71.5 -39t-190.5 -63.5t-275 -29.5q-235 0 -382 76t-219 247.5t-72 458.5q0 284 76.5 455.5t233 249t405.5 77.5q148 0 251.5 -23t159.5 -49.5t56 -30.5l-76 -288q0 3 -42.5 20.5t-119 33t-181.5 15.5q-139 0 -218.5 -37t-118 -136t-38.5 -287
q0 -189 34.5 -291.5t105.5 -142.5t193 -40q32 0 60 3.5t45 7.5t21 5v307h-174v295h537v-794zM809 -457h-255l61 352h335z" />
    <glyph glyph-name="Gdotaccent" unicode="&#x120;" horiz-adv-x="1395" 
d="M1295 112q0 -5 -71.5 -39t-190.5 -63.5t-275 -29.5q-235 0 -382 76t-219 247.5t-72 458.5q0 284 76.5 455.5t233 249t405.5 77.5q148 0 251.5 -23t159.5 -49.5t56 -30.5l-76 -288q0 3 -42.5 20.5t-119 33t-181.5 15.5q-139 0 -218.5 -37t-118 -136t-38.5 -287
q0 -189 34.5 -291.5t105.5 -142.5t193 -40q32 0 60 3.5t45 7.5t21 5v307h-174v295h537v-794zM626 1657q-47 39 -47 113q0 77 46.5 114t117.5 37q73 0 121 -37t48 -114q0 -74 -49 -113t-120 -39q-70 0 -117 39z" />
    <glyph glyph-name="Hbar" unicode="&#x126;" horiz-adv-x="1397" 
d="M1390 1080h-95v-1080h-379v632h-435v-632h-379v1080h-95v214h95v232h379v-232h435v232h379v-232h95v-214zM916 1080h-435v-153h435v153z" />
    <glyph glyph-name="Hcircumflex" unicode="&#x124;" horiz-adv-x="1397" 
d="M1295 1526v-1526h-379v632h-435v-632h-379v1526h379v-599h435v599h379zM566 1921h271l243 -311h-278l-103 149l-101 -149h-278z" />
    <glyph glyph-name="IJ" unicode="&#x132;" horiz-adv-x="1482" 
d="M102 1526h378v-1526h-378v1526zM756 -10.5q-50 9.5 -82 20.5t-32 12l18 289q5 -3 26.5 -11t58 -15.5t79.5 -7.5q89 0 133 49t44 140v1060h379v-1062q0 -248 -130.5 -366t-381.5 -118q-62 0 -112 9.5z" />
    <glyph glyph-name="Ibreve" unicode="&#x12c;" horiz-adv-x="582" 
d="M102 1526h378v-1526h-378v1526zM662 1813.5q-24 -74.5 -110 -147t-254 -72.5q-169 0 -254.5 72.5t-107.5 146t-22 108.5h234q0 -39 27.5 -95t123.5 -56q70 0 106 33.5t45.5 67.5t9.5 50h226q0 -33 -24 -107.5z" />
    <glyph glyph-name="Idotaccent" unicode="&#x130;" horiz-adv-x="582" 
d="M102 1526h378v-1526h-378v1526zM181 1657q-47 39 -47 113q0 77 46.5 114t117.5 37q73 0 121 -37t48 -114q0 -74 -49 -113t-120 -39q-70 0 -117 39z" />
    <glyph glyph-name="Imacron" unicode="&#x12a;" horiz-adv-x="582" 
d="M102 1526h378v-1526h-378v1526zM-34 1891h668v-216h-668v216z" />
    <glyph glyph-name="Iogonek" unicode="&#x12e;" horiz-adv-x="582" 
d="M595 -341q0 -2 -28 -14t-77 -22t-115 -10q-118 0 -183 46t-65 136q0 67 45 116t132 89h-202v1526h378v-1510l8 -16q-68 -26 -110.5 -68t-42.5 -84q0 -27 19.5 -42t54.5 -15q45 0 78.5 7t53 15.5t19.5 9.5z" />
    <glyph glyph-name="Itilde" unicode="&#x128;" horiz-adv-x="582" 
d="M102 1526h378v-1526h-378v1526zM694.5 1816.5q-16.5 -72.5 -74 -142.5t-168.5 -70q-49 0 -85 14.5t-79 41.5q-35 21 -57 30.5t-48 9.5q-47 0 -61 -35.5t-14 -60.5h-219q0 30 16.5 102.5t74 142.5t167.5 70q51 0 88 -15t83 -43q34 -21 55 -30.5t45 -9.5q47 0 61 37t14 61
h218q0 -30 -16.5 -102.5z" />
    <glyph glyph-name="Jcircumflex" unicode="&#x134;" horiz-adv-x="900" 
d="M174 -10.5q-50 9.5 -82 20.5t-32 12l18 289q5 -3 26.5 -11t58 -15.5t79.5 -7.5q89 0 133 49t44 140v1060h379v-1062q0 -248 -130.5 -366t-381.5 -118q-62 0 -112 9.5zM478 1921h271l243 -311h-278l-103 149l-101 -149h-278z" />
    <glyph glyph-name="Kcommaaccent" unicode="&#x136;" horiz-adv-x="1428" 
d="M714 679l-234 -311v-368h-378v1526h378v-699l445 699h426l-382 -508l399 -1018h-399zM758 -457h-255l61 352h335z" />
    <glyph glyph-name="Lacute" unicode="&#x139;" horiz-adv-x="1160" 
d="M1084 295v-295h-982v1526h378v-1231h604zM667 1611h-264l191 310h360z" />
    <glyph glyph-name="Lcaron" unicode="&#x13d;" horiz-adv-x="1160" 
d="M810 1131h-196l68 424h277zM1084 295v-295h-982v1526h378v-1231h604z" />
    <glyph glyph-name="Lcommaaccent" unicode="&#x13b;" horiz-adv-x="1160" 
d="M1084 295v-295h-982v1526h378v-1231h604zM624 -457h-255l61 352h335z" />
    <glyph glyph-name="Ldot" unicode="&#x13f;" horiz-adv-x="1160" 
d="M1084 295v-295h-982v1526h378v-1231h604zM677 534q-47 42 -47 126q0 85 46.5 125t116.5 40q73 0 121 -40t48 -125t-48.5 -126.5t-120.5 -41.5q-69 0 -116 42z" />
    <glyph glyph-name="Nacute" unicode="&#x143;" horiz-adv-x="1397" 
d="M1295 1526v-1526h-380l-475 912v-912h-338v1526h404l451 -902v902h338zM780 1611h-264l191 310h360z" />
    <glyph glyph-name="Ncaron" unicode="&#x147;" horiz-adv-x="1397" 
d="M1295 1526v-1526h-380l-475 912v-912h-338v1526h404l451 -902v902h338zM716 1771l103 148h278l-243 -310h-271l-246 310h278z" />
    <glyph glyph-name="Ncommaaccent" unicode="&#x145;" horiz-adv-x="1397" 
d="M1295 1526v-1526h-380l-475 912v-912h-338v1526h404l451 -902v902h338zM759 -457h-255l61 352h335z" />
    <glyph glyph-name="Eng" unicode="&#x14a;" horiz-adv-x="1395" 
d="M1294 1526v-1622q0 -155 -83 -234.5t-230 -79.5q-46 0 -87.5 6t-67 13t-32.5 9l33 242q0 -1 27 -7.5t49 -6.5q37 0 54 24.5t17 64.5v65l-534 909v-909h-338v1526h399l454 -822v822h339z" />
    <glyph glyph-name="Obreve" unicode="&#x14e;" horiz-adv-x="1488" 
d="M370.5 56q-144.5 76 -215 247.5t-70.5 459.5q0 287 70.5 458.5t214.5 248t374 76.5q226 0 370.5 -76.5t216.5 -248.5t72 -458t-72 -458t-216 -248.5t-369 -76.5q-231 0 -375.5 76zM901 329.5q57 38.5 85 140.5t28 293t-28 292.5t-85 140t-157 38.5t-157.5 -39
t-85.5 -140.5t-28 -291.5q0 -192 28 -293.5t86 -140t159 -38.5q98 0 155 38.5zM1109 1813.5q-24 -74.5 -110 -147t-254 -72.5q-169 0 -254.5 72.5t-107.5 146t-22 108.5h234q0 -39 27.5 -95t123.5 -56q70 0 106 33.5t45.5 67.5t9.5 50h226q0 -33 -24 -107.5z" />
    <glyph glyph-name="Ohungarumlaut" unicode="&#x150;" horiz-adv-x="1488" 
d="M370.5 56q-144.5 76 -215 247.5t-70.5 459.5q0 287 70.5 458.5t214.5 248t374 76.5q226 0 370.5 -76.5t216.5 -248.5t72 -458t-72 -458t-216 -248.5t-369 -76.5q-231 0 -375.5 76zM901 329.5q57 38.5 85 140.5t28 293t-28 292.5t-85 140t-157 38.5t-157.5 -39
t-85.5 -140.5t-28 -291.5q0 -192 28 -293.5t86 -140t159 -38.5q98 0 155 38.5zM699 1609h-204l165 312h285zM1031 1609h-204l198 312h286z" />
    <glyph glyph-name="Omacron" unicode="&#x14c;" horiz-adv-x="1488" 
d="M370.5 56q-144.5 76 -215 247.5t-70.5 459.5q0 287 70.5 458.5t214.5 248t374 76.5q226 0 370.5 -76.5t216.5 -248.5t72 -458t-72 -458t-216 -248.5t-369 -76.5q-231 0 -375.5 76zM901 329.5q57 38.5 85 140.5t28 293t-28 292.5t-85 140t-157 38.5t-157.5 -39
t-85.5 -140.5t-28 -291.5q0 -192 28 -293.5t86 -140t159 -38.5q98 0 155 38.5zM413 1891h668v-216h-668v216z" />
    <glyph glyph-name="Racute" unicode="&#x154;" horiz-adv-x="1318" 
d="M1179.5 788q-69.5 -108 -197.5 -150l255 -638h-376l-210 584h-171v-584h-378v1526h700q218 0 332.5 -118t114.5 -344q0 -168 -69.5 -276zM480 863h242q84 0 128 49t44 135q0 92 -40.5 137.5t-125.5 45.5h-248v-367zM723 1611h-264l191 310h360z" />
    <glyph glyph-name="Rcaron" unicode="&#x158;" horiz-adv-x="1318" 
d="M1179.5 788q-69.5 -108 -197.5 -150l255 -638h-376l-210 584h-171v-584h-378v1526h700q218 0 332.5 -118t114.5 -344q0 -168 -69.5 -276zM480 863h242q84 0 128 49t44 135q0 92 -40.5 137.5t-125.5 45.5h-248v-367zM659 1771l103 148h278l-243 -310h-271l-246 310h278z
" />
    <glyph glyph-name="Rcommaaccent" unicode="&#x156;" horiz-adv-x="1318" 
d="M1179.5 788q-69.5 -108 -197.5 -150l255 -638h-376l-210 584h-171v-584h-378v1526h700q218 0 332.5 -118t114.5 -344q0 -168 -69.5 -276zM480 863h242q84 0 128 49t44 135q0 92 -40.5 137.5t-125.5 45.5h-248v-367zM704 -457h-255l61 352h335z" />
    <glyph glyph-name="Sacute" unicode="&#x15a;" horiz-adv-x="1255" 
d="M351.5 13.5q-123.5 33.5 -202 72.5t-78.5 44l91 309q0 -4 73.5 -43t179.5 -71.5t225 -32.5q196 0 196 139q0 54 -26 86.5t-75 51.5t-130 35l-83 16q-131 25 -222 70t-147 140.5t-56 255.5q0 141 63.5 244t186 159t293.5 56q145 0 261 -27t189 -58.5t73 -35.5l-75 -301
q0 4 -60.5 32.5t-157 53t-217.5 24.5q-97 0 -147 -34t-50 -101q0 -51 24.5 -81.5t74.5 -49.5t144 -39l78 -17q123 -24 211 -71t142 -139.5t54 -242.5q0 -142 -65.5 -250t-191 -168t-299.5 -60q-153 0 -276.5 33.5zM718 1611h-264l191 310h360z" />
    <glyph glyph-name="Scedilla" unicode="&#x15e;" horiz-adv-x="1255" 
d="M1131 230q-53 -101 -155.5 -164t-245.5 -80l-38 -67q73 -6 122.5 -42.5t49.5 -109.5q0 -86 -63 -135t-183 -49q-87 0 -146 23t-85 40l57 128q0 -1 26.5 -14.5t65.5 -25t83 -11.5q29 0 46.5 12.5t17.5 33.5q0 32 -41 44t-129 12h-31l83 157q-136 7 -246 40t-179 68.5
t-69 39.5l91 309q0 -4 73.5 -43t179.5 -71.5t225 -32.5q196 0 196 139q0 54 -26 86.5t-75 51.5t-130 35l-83 16q-131 25 -222 70t-147 140.5t-56 255.5q0 141 63.5 244t186 159t293.5 56q145 0 261 -27t189 -58.5t73 -35.5l-75 -301q0 4 -60.5 32.5t-157 53t-217.5 24.5
q-97 0 -147 -34t-50 -101q0 -51 24.5 -81.5t74.5 -49.5t144 -39l78 -17q123 -24 211 -71t142 -139.5t54 -242.5q0 -127 -53 -228z" />
    <glyph glyph-name="Scircumflex" unicode="&#x15c;" horiz-adv-x="1255" 
d="M351.5 13.5q-123.5 33.5 -202 72.5t-78.5 44l91 309q0 -4 73.5 -43t179.5 -71.5t225 -32.5q196 0 196 139q0 54 -26 86.5t-75 51.5t-130 35l-83 16q-131 25 -222 70t-147 140.5t-56 255.5q0 141 63.5 244t186 159t293.5 56q145 0 261 -27t189 -58.5t73 -35.5l-75 -301
q0 4 -60.5 32.5t-157 53t-217.5 24.5q-97 0 -147 -34t-50 -101q0 -51 24.5 -81.5t74.5 -49.5t144 -39l78 -17q123 -24 211 -71t142 -139.5t54 -242.5q0 -142 -65.5 -250t-191 -168t-299.5 -60q-153 0 -276.5 33.5zM521 1921h271l243 -311h-278l-103 149l-101 -149h-278z" />
    <glyph glyph-name="Scommaaccent" unicode="&#x218;" horiz-adv-x="1255" 
d="M351.5 13.5q-123.5 33.5 -202 72.5t-78.5 44l91 309q0 -4 73.5 -43t179.5 -71.5t225 -32.5q196 0 196 139q0 54 -26 86.5t-75 51.5t-130 35l-83 16q-131 25 -222 70t-147 140.5t-56 255.5q0 141 63.5 244t186 159t293.5 56q145 0 261 -27t189 -58.5t73 -35.5l-75 -301
q0 4 -60.5 32.5t-157 53t-217.5 24.5q-97 0 -147 -34t-50 -101q0 -51 24.5 -81.5t74.5 -49.5t144 -39l78 -17q123 -24 211 -71t142 -139.5t54 -242.5q0 -142 -65.5 -250t-191 -168t-299.5 -60q-153 0 -276.5 33.5zM693 -457h-255l61 352h335z" />
    <glyph glyph-name="Tbar" unicode="&#x166;" horiz-adv-x="1209" 
d="M791 1230v-353h244v-256h-244v-621h-378v621h-232v256h232v353h-361v296h1105v-296h-366z" />
    <glyph glyph-name="Tcaron" unicode="&#x164;" horiz-adv-x="1209" 
d="M1157 1230h-366v-1230h-378v1230h-361v296h1105v-296zM603 1771l103 148h278l-243 -310h-271l-246 310h278z" />
    <glyph glyph-name="uni0162" unicode="&#x162;" horiz-adv-x="1209" 
d="M1157 1230h-366v-1230h-378v1230h-361v296h1105v-296zM648 -457h-255l61 352h335z" />
    <glyph glyph-name="uni021A" unicode="&#x21a;" horiz-adv-x="1209" 
d="M1157 1230h-366v-1230h-378v1230h-361v296h1105v-296zM648 -457h-255l61 352h335z" />
    <glyph glyph-name="Ubreve" unicode="&#x16c;" horiz-adv-x="1397" 
d="M381.5 50q-134.5 70 -207 203t-72.5 318v955h378v-970q0 -265 220 -265q105 0 161 67t56 198v970h378v-955q0 -185 -72.5 -318t-206.5 -203t-316 -70q-184 0 -318.5 70zM1067 1813.5q-24 -74.5 -110 -147t-254 -72.5q-169 0 -254.5 72.5t-107.5 146t-22 108.5h234
q0 -39 27.5 -95t123.5 -56q70 0 106 33.5t45.5 67.5t9.5 50h226q0 -33 -24 -107.5z" />
    <glyph glyph-name="Uhungarumlaut" unicode="&#x170;" horiz-adv-x="1397" 
d="M381.5 50q-134.5 70 -207 203t-72.5 318v955h378v-970q0 -265 220 -265q105 0 161 67t56 198v970h378v-955q0 -185 -72.5 -318t-206.5 -203t-316 -70q-184 0 -318.5 70zM657 1609h-204l165 312h285zM989 1609h-204l198 312h286z" />
    <glyph glyph-name="Umacron" unicode="&#x16a;" horiz-adv-x="1397" 
d="M381.5 50q-134.5 70 -207 203t-72.5 318v955h378v-970q0 -265 220 -265q105 0 161 67t56 198v970h378v-955q0 -185 -72.5 -318t-206.5 -203t-316 -70q-184 0 -318.5 70zM371 1891h668v-216h-668v216z" />
    <glyph glyph-name="Uogonek" unicode="&#x172;" horiz-adv-x="1397" 
d="M1295 1526v-955q0 -228 -109 -376t-305 -195q-68 -26 -110.5 -68t-42.5 -84q0 -27 19.5 -42t54.5 -15q45 0 78.5 7t53 15.5t19.5 9.5l35 -164q0 -2 -28 -14t-77 -22t-115 -10q-118 0 -183 46t-65 136q0 59 35 104t103 82q-172 8 -297 80t-192 202t-67 308v955h378v-970
q0 -265 220 -265q105 0 161 67t56 198v970h378z" />
    <glyph glyph-name="Uring" unicode="&#x16e;" horiz-adv-x="1397" 
d="M381.5 50q-134.5 70 -207 203t-72.5 318v955h378v-970q0 -265 220 -265q105 0 161 67t56 198v970h378v-955q0 -185 -72.5 -318t-206.5 -203t-316 -70q-184 0 -318.5 70zM562 1597.5q-63 26.5 -98 77t-35 118.5q0 103 75.5 161.5t201.5 58.5q82 0 144.5 -26t97 -76
t34.5 -118q0 -105 -76 -163.5t-200 -58.5q-81 0 -144 26.5zM637.5 1853q-26.5 -24 -26.5 -60q0 -38 27 -62.5t68 -24.5q40 0 67.5 25t27.5 62t-24.5 60.5t-70.5 23.5q-42 0 -68.5 -24z" />
    <glyph glyph-name="Utilde" unicode="&#x168;" horiz-adv-x="1397" 
d="M381.5 50q-134.5 70 -207 203t-72.5 318v955h378v-970q0 -265 220 -265q105 0 161 67t56 198v970h378v-955q0 -185 -72.5 -318t-206.5 -203t-316 -70q-184 0 -318.5 70zM1099.5 1816.5q-16.5 -72.5 -74 -142.5t-168.5 -70q-49 0 -85 14.5t-79 41.5q-35 21 -57 30.5
t-48 9.5q-47 0 -61 -35.5t-14 -60.5h-219q0 30 16.5 102.5t74 142.5t167.5 70q51 0 88 -15t83 -43q34 -21 55 -30.5t45 -9.5q47 0 61 37t14 61h218q0 -30 -16.5 -102.5z" />
    <glyph glyph-name="Wacute" unicode="&#x1e82;" horiz-adv-x="2077" 
d="M2017 1526l-282 -1526h-468l-229 1102l-237 -1102h-488l-253 1526h391l148 -1121l252 1121h389l246 -1121l153 1121h378zM1104 1611h-264l191 310h360z" />
    <glyph glyph-name="Wcircumflex" unicode="&#x174;" horiz-adv-x="2077" 
d="M2017 1526l-282 -1526h-468l-229 1102l-237 -1102h-488l-253 1526h391l148 -1121l252 1121h389l246 -1121l153 1121h378zM907 1921h271l243 -311h-278l-103 149l-101 -149h-278z" />
    <glyph glyph-name="Wdieresis" unicode="&#x1e84;" horiz-adv-x="2077" 
d="M2017 1526l-282 -1526h-468l-229 1102l-237 -1102h-488l-253 1526h391l148 -1121l252 1121h389l246 -1121l153 1121h378zM732.5 1660.5q-45.5 37.5 -45.5 111.5q0 76 45.5 112.5t115.5 36.5q71 0 118.5 -37t47.5 -112q0 -74 -48 -111.5t-118 -37.5t-115.5 37.5z
M1117 1660.5q-46 37.5 -46 111.5q0 75 46 112t115 37q71 0 118.5 -37t47.5 -112q0 -74 -48 -111.5t-118 -37.5q-69 0 -115 37.5z" />
    <glyph glyph-name="Wgrave" unicode="&#x1e80;" horiz-adv-x="2077" 
d="M2017 1526l-282 -1526h-468l-229 1102l-237 -1102h-488l-253 1526h391l148 -1121l252 1121h389l246 -1121l153 1121h378zM1246 1611h-264l-286 310h359z" />
    <glyph glyph-name="Ycircumflex" unicode="&#x176;" horiz-adv-x="1422" 
d="M1372 1526l-476 -874v-652h-362v645l-484 881h413l254 -560l252 560h403zM576 1921h271l243 -311h-278l-103 149l-101 -149h-278z" />
    <glyph glyph-name="Ygrave" unicode="&#x1ef2;" horiz-adv-x="1422" 
d="M1372 1526l-476 -874v-652h-362v645l-484 881h413l254 -560l252 560h403zM915 1611h-264l-286 310h359z" />
    <glyph glyph-name="Zacute" unicode="&#x179;" horiz-adv-x="1347" 
d="M93 285l712 945h-696v296h1116v-285l-695 -946h724v-295h-1161v285zM735 1611h-264l191 310h360z" />
    <glyph glyph-name="Zdotaccent" unicode="&#x17b;" horiz-adv-x="1347" 
d="M93 285l712 945h-696v296h1116v-285l-695 -946h724v-295h-1161v285zM553 1657q-47 39 -47 113q0 77 46.5 114t117.5 37q73 0 121 -37t48 -114q0 -74 -49 -113t-120 -39q-70 0 -117 39z" />
    <glyph glyph-name="abreve" unicode="&#x103;" horiz-adv-x="1116" 
d="M917 1045q118 -93 118 -301v-744h-274l-17 105q-48 -42 -134 -83.5t-199 -41.5q-108 0 -185.5 41.5t-118 118.5t-40.5 182q0 123 64 204t172.5 119t244.5 38h165v46q0 79 -45 116.5t-144 37.5q-80 0 -157.5 -20t-135 -43.5t-57.5 -25.5l-67 236q0 3 70.5 31.5t175.5 52.5
t225 24q221 0 339 -93zM405 254q32 -32 90 -32q61 0 117.5 26t100.5 62v166h-133q-109 0 -158 -39.5t-49 -93.5q0 -57 32 -89zM940 1416.5q-24 -74.5 -110 -147t-254 -72.5q-169 0 -254.5 72.5t-107.5 146t-22 108.5h234q0 -39 27.5 -95t123.5 -56q70 0 106 33.5t45.5 67.5
t9.5 50h226q0 -33 -24 -107.5z" />
    <glyph glyph-name="amacron" unicode="&#x101;" horiz-adv-x="1116" 
d="M917 1045q118 -93 118 -301v-744h-274l-17 105q-48 -42 -134 -83.5t-199 -41.5q-108 0 -185.5 41.5t-118 118.5t-40.5 182q0 123 64 204t172.5 119t244.5 38h165v46q0 79 -45 116.5t-144 37.5q-80 0 -157.5 -20t-135 -43.5t-57.5 -25.5l-67 236q0 3 70.5 31.5t175.5 52.5
t225 24q221 0 339 -93zM405 254q32 -32 90 -32q61 0 117.5 26t100.5 62v166h-133q-109 0 -158 -39.5t-49 -93.5q0 -57 32 -89zM244 1494h668v-216h-668v216z" />
    <glyph glyph-name="aogonek" unicode="&#x105;" horiz-adv-x="1116" 
d="M1142 -341q0 -2 -28 -14t-77 -22t-115 -10q-118 0 -183 46t-65 136q0 67 45 116t132 89h-90l-17 105q-48 -42 -134 -83.5t-199 -41.5q-108 0 -185.5 41.5t-118 118.5t-40.5 182q0 123 64 204t172.5 119t244.5 38h165v46q0 79 -45 116.5t-144 37.5q-80 0 -157.5 -20
t-135 -43.5t-57.5 -25.5l-67 236q0 3 70.5 31.5t175.5 52.5t225 24q221 0 339 -93t118 -301v-744q-68 -26 -110.5 -68t-42.5 -84q0 -27 19.5 -42t54.5 -15q45 0 78.5 7t53 15.5t19.5 9.5zM405 254q32 -32 90 -32q61 0 117.5 26t100.5 62v166h-133q-109 0 -158 -39.5
t-49 -93.5q0 -57 32 -89z" />
    <glyph glyph-name="cacute" unicode="&#x107;" horiz-adv-x="957" 
d="M293 39.5q-111 59.5 -164.5 186t-53.5 331.5t53.5 332t164.5 186.5t289 59.5q95 0 164 -19t108 -41t39 -25l-65 -227q0 2 -27.5 17t-72.5 27.5t-102 12.5q-80 0 -130 -29t-74.5 -99.5t-24.5 -194.5t24.5 -194t74.5 -99t130 -29q57 0 102 12.5t72.5 27t27.5 16.5l65 -226
q0 -3 -39 -25t-108 -41t-164 -19q-178 0 -289 59.5zM624 1214h-264l191 310h360z" />
    <glyph glyph-name="ccaron" unicode="&#x10d;" horiz-adv-x="957" 
d="M293 39.5q-111 59.5 -164.5 186t-53.5 331.5t53.5 332t164.5 186.5t289 59.5q95 0 164 -19t108 -41t39 -25l-65 -227q0 2 -27.5 17t-72.5 27.5t-102 12.5q-80 0 -130 -29t-74.5 -99.5t-24.5 -194.5t24.5 -194t74.5 -99t130 -29q57 0 102 12.5t72.5 27t27.5 16.5l65 -226
q0 -3 -39 -25t-108 -41t-164 -19q-178 0 -289 59.5zM560 1374l103 148h278l-243 -310h-271l-246 310h278z" />
    <glyph glyph-name="ccircumflex" unicode="&#x109;" horiz-adv-x="957" 
d="M293 39.5q-111 59.5 -164.5 186t-53.5 331.5t53.5 332t164.5 186.5t289 59.5q95 0 164 -19t108 -41t39 -25l-65 -227q0 2 -27.5 17t-72.5 27.5t-102 12.5q-80 0 -130 -29t-74.5 -99.5t-24.5 -194.5t24.5 -194t74.5 -99t130 -29q57 0 102 12.5t72.5 27t27.5 16.5l65 -226
q0 -3 -39 -25t-108 -41t-164 -19q-178 0 -289 59.5zM427 1524h271l243 -311h-278l-103 149l-101 -149h-278z" />
    <glyph glyph-name="cdotaccent" unicode="&#x10b;" horiz-adv-x="957" 
d="M293 39.5q-111 59.5 -164.5 186t-53.5 331.5t53.5 332t164.5 186.5t289 59.5q95 0 164 -19t108 -41t39 -25l-65 -227q0 2 -27.5 17t-72.5 27.5t-102 12.5q-80 0 -130 -29t-74.5 -99.5t-24.5 -194.5t24.5 -194t74.5 -99t130 -29q57 0 102 12.5t72.5 27t27.5 16.5l65 -226
q0 -3 -39 -25t-108 -41t-164 -19q-178 0 -289 59.5zM442 1260q-47 39 -47 113q0 77 46.5 114t117.5 37q73 0 121 -37t48 -114q0 -74 -49 -113t-120 -39q-70 0 -117 39z" />
    <glyph glyph-name="dcaron" unicode="&#x10f;" horiz-adv-x="1460" 
d="M1452 1556l-116 -385h-164l45 385h235zM752 1526h322v-1527h-265l-20 108q-45 -42 -126 -84.5t-188 -42.5q-137 0 -225 59.5t-131.5 186.5t-43.5 331t43.5 331.5t131.5 187t225 59.5q84 0 154 -29t123 -68v488zM752 301v512q-33 28 -74.5 47.5t-88.5 19.5
q-72 0 -112.5 -26.5t-60 -96.5t-19.5 -200t19.5 -199.5t60 -96t112.5 -26.5q84 0 163 66z" />
    <glyph glyph-name="dcroat" unicode="&#x111;" horiz-adv-x="1173" 
d="M1154 1189h-80v-1190h-265l-20 108q-45 -42 -126 -84.5t-188 -42.5q-137 0 -225 59.5t-131.5 186.5t-43.5 331t43.5 331.5t131.5 187t225 59.5q84 0 154 -29t123 -68v151h-245v205h245v132h322v-132h80v-205zM752 301v512q-33 28 -74.5 47.5t-88.5 19.5
q-72 0 -112.5 -26.5t-60 -96.5t-19.5 -200t19.5 -199.5t60 -96t112.5 -26.5q84 0 163 66z" />
    <glyph glyph-name="ebreve" unicode="&#x115;" horiz-adv-x="1128" 
d="M1053 453h-649q11 -84 42 -131.5t81 -67t124 -19.5q77 0 145.5 19t115.5 41.5t47 24.5l78 -223q0 -4 -58 -34.5t-150 -56.5t-206 -26q-177 0 -298 56t-185.5 184t-64.5 339t58 338t169.5 182t280.5 55q161 0 263 -50t154.5 -171.5t52.5 -334.5v-125zM737 655
q-1 122 -38.5 173t-121.5 51q-54 0 -89.5 -19.5t-58 -68.5t-29.5 -136h337zM947 1416.5q-24 -74.5 -110 -147t-254 -72.5q-169 0 -254.5 72.5t-107.5 146t-22 108.5h234q0 -39 27.5 -95t123.5 -56q70 0 106 33.5t45.5 67.5t9.5 50h226q0 -33 -24 -107.5z" />
    <glyph glyph-name="ecaron" unicode="&#x11b;" horiz-adv-x="1128" 
d="M1053 453h-649q11 -84 42 -131.5t81 -67t124 -19.5q77 0 145.5 19t115.5 41.5t47 24.5l78 -223q0 -4 -58 -34.5t-150 -56.5t-206 -26q-177 0 -298 56t-185.5 184t-64.5 339t58 338t169.5 182t280.5 55q161 0 263 -50t154.5 -171.5t52.5 -334.5v-125zM737 655
q-1 122 -38.5 173t-121.5 51q-54 0 -89.5 -19.5t-58 -68.5t-29.5 -136h337zM584 1374l103 148h278l-243 -310h-271l-246 310h278z" />
    <glyph glyph-name="edotaccent" unicode="&#x117;" horiz-adv-x="1128" 
d="M1053 453h-649q11 -84 42 -131.5t81 -67t124 -19.5q77 0 145.5 19t115.5 41.5t47 24.5l78 -223q0 -4 -58 -34.5t-150 -56.5t-206 -26q-177 0 -298 56t-185.5 184t-64.5 339t58 338t169.5 182t280.5 55q161 0 263 -50t154.5 -171.5t52.5 -334.5v-125zM737 655
q-1 122 -38.5 173t-121.5 51q-54 0 -89.5 -19.5t-58 -68.5t-29.5 -136h337zM466 1260q-47 39 -47 113q0 77 46.5 114t117.5 37q73 0 121 -37t48 -114q0 -74 -49 -113t-120 -39q-70 0 -117 39z" />
    <glyph glyph-name="emacron" unicode="&#x113;" horiz-adv-x="1128" 
d="M1053 453h-649q11 -84 42 -131.5t81 -67t124 -19.5q77 0 145.5 19t115.5 41.5t47 24.5l78 -223q0 -4 -58 -34.5t-150 -56.5t-206 -26q-177 0 -298 56t-185.5 184t-64.5 339t58 338t169.5 182t280.5 55q161 0 263 -50t154.5 -171.5t52.5 -334.5v-125zM737 655
q-1 122 -38.5 173t-121.5 51q-54 0 -89.5 -19.5t-58 -68.5t-29.5 -136h337zM251 1494h668v-216h-668v216z" />
    <glyph glyph-name="eogonek" unicode="&#x119;" horiz-adv-x="1128" 
d="M1053 453h-649q11 -84 42 -131.5t81 -67t124 -19.5q77 0 145.5 19t115.5 41.5t47 24.5l78 -223q0 -2 -33 -21t-86 -40.5t-120 -36.5q-66 -26 -108 -68t-42 -83q0 -27 19.5 -42t54.5 -15q45 0 78.5 7t53 15.5t19.5 9.5l35 -164q0 -2 -28 -14t-77 -22t-115 -10
q-118 0 -183 46t-65 136q0 59 35 104t103 82q-247 10 -375 145t-128 433q0 211 58 338t169.5 182t280.5 55q161 0 263 -50t154.5 -171.5t52.5 -334.5v-125zM737 655q-1 122 -38.5 173t-121.5 51q-54 0 -89.5 -19.5t-58 -68.5t-29.5 -136h337z" />
    <glyph glyph-name="gbreve" unicode="&#x11f;" horiz-adv-x="1252" 
d="M1192 922h-177q0 3 16.5 -18.5t29.5 -57.5t13 -85q0 -170 -120 -253t-373 -83q-60 0 -103 4q-27 -44 -27 -86q0 -31 17 -46.5t52 -17.5l271 -14q196 -10 288 -83.5t92 -222.5q0 -179 -142 -273t-410 -94q-267 0 -395 79.5t-128 247.5q0 94 44.5 154.5t94.5 92.5
q-53 55 -53 134q0 60 32.5 103t67.5 65q-103 39 -148 113t-45 181q0 115 47 193.5t156 120.5t291 42h609v-196zM686.5 642.5q38.5 12.5 56 40t17.5 75.5q0 75 -40 106.5t-139 31.5q-69 0 -107.5 -13.5t-54.5 -43.5t-16 -81q0 -50 16.5 -77.5t55 -39t106.5 -11.5
q67 0 105.5 12.5zM823 25.5q-34 24.5 -97 30.5l-279 24q-37 -63 -37 -125q0 -50 19.5 -80.5t65 -45t124.5 -14.5q124 0 181 32.5t57 103.5q0 50 -34 74.5zM991 1416.5q-24 -74.5 -110 -147t-254 -72.5q-169 0 -254.5 72.5t-107.5 146t-22 108.5h234q0 -39 27.5 -95
t123.5 -56q70 0 106 33.5t45.5 67.5t9.5 50h226q0 -33 -24 -107.5z" />
    <glyph glyph-name="gcircumflex" unicode="&#x11d;" horiz-adv-x="1252" 
d="M1192 922h-177q0 3 16.5 -18.5t29.5 -57.5t13 -85q0 -170 -120 -253t-373 -83q-60 0 -103 4q-27 -44 -27 -86q0 -31 17 -46.5t52 -17.5l271 -14q196 -10 288 -83.5t92 -222.5q0 -179 -142 -273t-410 -94q-267 0 -395 79.5t-128 247.5q0 94 44.5 154.5t94.5 92.5
q-53 55 -53 134q0 60 32.5 103t67.5 65q-103 39 -148 113t-45 181q0 115 47 193.5t156 120.5t291 42h609v-196zM686.5 642.5q38.5 12.5 56 40t17.5 75.5q0 75 -40 106.5t-139 31.5q-69 0 -107.5 -13.5t-54.5 -43.5t-16 -81q0 -50 16.5 -77.5t55 -39t106.5 -11.5
q67 0 105.5 12.5zM823 25.5q-34 24.5 -97 30.5l-279 24q-37 -63 -37 -125q0 -50 19.5 -80.5t65 -45t124.5 -14.5q124 0 181 32.5t57 103.5q0 50 -34 74.5zM495 1524h271l243 -311h-278l-103 149l-101 -149h-278z" />
    <glyph glyph-name="gcommaaccent" unicode="&#x123;" horiz-adv-x="1252" 
d="M774 1196h-336l168 352h256zM1192 922h-177q0 3 16.5 -18.5t29.5 -57.5t13 -85q0 -170 -120 -253t-373 -83q-60 0 -103 4q-27 -44 -27 -86q0 -31 17 -46.5t52 -17.5l271 -14q196 -10 288 -83.5t92 -222.5q0 -179 -142 -273t-410 -94q-267 0 -395 79.5t-128 247.5
q0 94 44.5 154.5t94.5 92.5q-53 55 -53 134q0 60 32.5 103t67.5 65q-103 39 -148 113t-45 181q0 115 47 193.5t156 120.5t291 42h609v-196zM686.5 642.5q38.5 12.5 56 40t17.5 75.5q0 75 -40 106.5t-139 31.5q-69 0 -107.5 -13.5t-54.5 -43.5t-16 -81q0 -50 16.5 -77.5
t55 -39t106.5 -11.5q67 0 105.5 12.5zM823 25.5q-34 24.5 -97 30.5l-279 24q-37 -63 -37 -125q0 -50 19.5 -80.5t65 -45t124.5 -14.5q124 0 181 32.5t57 103.5q0 50 -34 74.5z" />
    <glyph glyph-name="gdotaccent" unicode="&#x121;" horiz-adv-x="1252" 
d="M1192 922h-177q0 3 16.5 -18.5t29.5 -57.5t13 -85q0 -170 -120 -253t-373 -83q-60 0 -103 4q-27 -44 -27 -86q0 -31 17 -46.5t52 -17.5l271 -14q196 -10 288 -83.5t92 -222.5q0 -179 -142 -273t-410 -94q-267 0 -395 79.5t-128 247.5q0 94 44.5 154.5t94.5 92.5
q-53 55 -53 134q0 60 32.5 103t67.5 65q-103 39 -148 113t-45 181q0 115 47 193.5t156 120.5t291 42h609v-196zM686.5 642.5q38.5 12.5 56 40t17.5 75.5q0 75 -40 106.5t-139 31.5q-69 0 -107.5 -13.5t-54.5 -43.5t-16 -81q0 -50 16.5 -77.5t55 -39t106.5 -11.5
q67 0 105.5 12.5zM823 25.5q-34 24.5 -97 30.5l-279 24q-37 -63 -37 -125q0 -50 19.5 -80.5t65 -45t124.5 -14.5q124 0 181 32.5t57 103.5q0 50 -34 74.5zM510 1260q-47 39 -47 113q0 77 46.5 114t117.5 37q73 0 121 -37t48 -114q0 -74 -49 -113t-120 -39q-70 0 -117 39z
" />
    <glyph glyph-name="hbar" unicode="&#x127;" horiz-adv-x="1151" 
d="M887.5 1097q77.5 -41 121.5 -124.5t44 -206.5v-766h-322v733q0 69 -33.5 105.5t-100.5 36.5q-80 0 -160 -65v-810h-322v1189h-84v205h84v132h322v-132h241v-205h-241v-145q54 38 123.5 66t149.5 28q100 0 177.5 -41z" />
    <glyph glyph-name="hcircumflex" unicode="&#x125;" horiz-adv-x="1137" 
d="M871.5 1097q77.5 -41 121.5 -124.5t44 -206.5v-766h-322v733q0 69 -33.5 105.5t-100.5 36.5q-80 0 -160 -65v-810h-322v1526h322v-482q54 38 123.5 66t149.5 28q100 0 177.5 -41zM434 1921h271l243 -311h-278l-103 149l-101 -149h-278z" />
    <glyph glyph-name="ibreve" unicode="&#x12d;" horiz-adv-x="521" 
d="M99 1118h322v-1118h-322v1118zM621 1420.5q-24 -74.5 -110 -147t-254 -72.5q-169 0 -254.5 72.5t-107.5 146t-22 108.5h234q0 -39 27.5 -95t123.5 -56q70 0 106 33.5t45.5 67.5t9.5 50h226q0 -33 -24 -107.5z" />
    <glyph glyph-name="ij" unicode="&#x133;" horiz-adv-x="1042" 
d="M130.5 1265q-51.5 41 -51.5 121q0 81 51 120.5t128 39.5q79 0 131.5 -39.5t52.5 -120.5q0 -80 -53 -121t-131 -41q-76 0 -127.5 41zM99 1118h322v-1118h-322v1118zM651.5 1265q-51.5 41 -51.5 121q0 81 51 120.5t128 39.5q79 0 131.5 -39.5t52.5 -120.5q0 -80 -53 -121
t-131 -41q-76 0 -127.5 41zM542.5 -401.5q-41.5 6.5 -67 13.5t-32.5 9l34 243q0 -1 26.5 -8t48.5 -7q35 0 51.5 25t16.5 65v1179h322v-1212q0 -156 -82 -235t-230 -79q-46 0 -87.5 6.5z" />
    <glyph glyph-name="imacron" unicode="&#x12b;" horiz-adv-x="521" 
d="M-7 1494h535v-216h-535v216zM99 1118h322v-1118h-322v1118z" />
    <glyph glyph-name="iogonek" unicode="&#x12f;" horiz-adv-x="521" 
d="M140 1264q-47 39 -47 113q0 77 46.5 114t117.5 37q73 0 121 -37t48 -114q0 -74 -49 -113t-120 -39q-70 0 -117 39zM528 -341q0 -2 -28 -14t-77 -22t-115 -10q-118 0 -183 46t-65 136q0 67 45 116t132 89h-138v1118h322v-1118q-68 -26 -110.5 -68t-42.5 -84
q0 -27 19.5 -42t54.5 -15q45 0 78.5 7t53 15.5t19.5 9.5z" />
    <glyph glyph-name="itilde" unicode="&#x129;" horiz-adv-x="521" 
d="M653.5 1419.5q-16.5 -72.5 -74 -142.5t-168.5 -70q-49 0 -85 14.5t-79 41.5q-35 21 -57 30.5t-48 9.5q-47 0 -61 -35.5t-14 -60.5h-219q0 30 16.5 102.5t74 142.5t167.5 70q51 0 88 -15t83 -43q34 -21 55 -30.5t45 -9.5q47 0 61 37t14 61h218q0 -30 -16.5 -102.5z
M99 1118h322v-1118h-322v1118z" />
    <glyph glyph-name="uni0237" unicode="&#x237;" horiz-adv-x="521" 
d="M21.5 -401.5q-41.5 6.5 -67 13.5t-32.5 9l34 243q0 -1 26.5 -8t48.5 -7q35 0 51.5 25t16.5 65v1179h322v-1212q0 -156 -82 -235t-230 -79q-46 0 -87.5 6.5z" />
    <glyph glyph-name="jcircumflex" unicode="&#x135;" horiz-adv-x="521" 
d="M21.5 -401.5q-41.5 6.5 -67 13.5t-32.5 9l34 243q0 -1 26.5 -8t48.5 -7q35 0 51.5 25t16.5 65v1179h322v-1212q0 -156 -82 -235t-230 -79q-46 0 -87.5 6.5zM128 1528h271l243 -311h-278l-103 149l-101 -149h-278z" />
    <glyph glyph-name="kcommaaccent" unicode="&#x137;" horiz-adv-x="1142" 
d="M561 473l-140 -175v-298h-322v1526h322v-833l299 421h351l-283 -355l310 -759h-344zM606 -457h-255l61 352h335z" />
    <glyph glyph-name="kgreenlandic" unicode="&#x138;" horiz-adv-x="1142" 
d="M99 1118h322v-484q33 8 60.5 33t49.5 57t58 91q60 100 112 163.5t138.5 110t210.5 46.5v-314q-73 0 -129 -41.5t-114 -119.5l297 -660h-350l-183 394q-36 -36 -72 -59.5t-78 -31.5v-303h-322v1118z" />
    <glyph glyph-name="lacute" unicode="&#x13a;" horiz-adv-x="521" 
d="M99 1526h322v-1526h-322v1526zM322 1611h-264l191 310h360z" />
    <glyph glyph-name="lcaron" unicode="&#x13e;" horiz-adv-x="521" 
d="M99 1526h322v-1526h-322v1526zM474 1526h200l-80 -386h-129z" />
    <glyph glyph-name="lcommaaccent" unicode="&#x13c;" horiz-adv-x="521" 
d="M99 1526h322v-1526h-322v1526zM303 -457h-255l61 352h335z" />
    <glyph glyph-name="ldot" unicode="&#x140;" horiz-adv-x="864" 
d="M99 1526h322v-1526h-322v1526zM562.5 489.5q-44.5 39.5 -44.5 120.5q0 80 44.5 118.5t110.5 38.5q69 0 114 -38t45 -119t-45 -120.5t-114 -39.5q-66 0 -110.5 39.5z" />
    <glyph glyph-name="nacute" unicode="&#x144;" horiz-adv-x="1134" 
d="M870.5 1096.5q77.5 -41.5 122 -125.5t44.5 -207v-764h-322v733q0 69 -33.5 105.5t-100.5 36.5q-79 0 -161 -64v-811h-321v1118h265l19 -104q48 41 128 82.5t181 41.5t178.5 -41.5zM636 1214h-264l191 310h360z" />
    <glyph glyph-name="napostrophe" unicode="&#x149;" horiz-adv-x="1133" 
d="M339 1190h-255l86 366h336zM870.5 1096.5q77.5 -41.5 122 -125.5t44.5 -207v-764h-322v733q0 69 -33.5 105.5t-100.5 36.5q-79 0 -161 -64v-811h-321v1118h265l19 -104q48 41 128 82.5t181 41.5t178.5 -41.5z" />
    <glyph glyph-name="ncaron" unicode="&#x148;" horiz-adv-x="1134" 
d="M870.5 1096.5q77.5 -41.5 122 -125.5t44.5 -207v-764h-322v733q0 69 -33.5 105.5t-100.5 36.5q-79 0 -161 -64v-811h-321v1118h265l19 -104q48 41 128 82.5t181 41.5t178.5 -41.5zM572 1374l103 148h278l-243 -310h-271l-246 310h278z" />
    <glyph glyph-name="ncommaaccent" unicode="&#x146;" horiz-adv-x="1134" 
d="M870.5 1096.5q77.5 -41.5 122 -125.5t44.5 -207v-764h-322v733q0 69 -33.5 105.5t-100.5 36.5q-79 0 -161 -64v-811h-321v1118h265l19 -104q48 41 128 82.5t181 41.5t178.5 -41.5zM611 -457h-255l61 352h335z" />
    <glyph glyph-name="eng" unicode="&#x14b;" horiz-adv-x="1137" 
d="M872 1097q77 -41 121 -124.5t44 -206.5v-862q0 -156 -82 -235t-229 -79q-46 0 -87.5 6t-66.5 13t-32 9l31 242q0 -1 26 -7.5t48 -6.5q36 0 53 24.5t17 64.5v798q0 69 -33.5 105.5t-100.5 36.5q-82 0 -160 -65v-810h-322v1118h266l19 -105q45 40 127 82.5t185 42.5
q99 0 176 -41z" />
    <glyph glyph-name="obreve" unicode="&#x14f;" horiz-adv-x="1171" 
d="M301 36.5q-112 55.5 -169 182.5t-57 340q0 212 57 338.5t169 181.5t285 55q174 0 285.5 -55t168 -181.5t56.5 -338.5q0 -213 -56.5 -340t-168 -182.5t-285.5 -55.5q-173 0 -285 55.5zM696 264q39 28 58.5 98t19.5 197q0 128 -19 197t-59 96t-110 27q-66 0 -107 -27.5
t-61.5 -97t-20.5 -195.5q0 -127 20.5 -197t62 -98t111.5 -28q66 0 105 28zM947 1416.5q-24 -74.5 -110 -147t-254 -72.5q-169 0 -254.5 72.5t-107.5 146t-22 108.5h234q0 -39 27.5 -95t123.5 -56q70 0 106 33.5t45.5 67.5t9.5 50h226q0 -33 -24 -107.5z" />
    <glyph glyph-name="ohungarumlaut" unicode="&#x151;" horiz-adv-x="1171" 
d="M301 36.5q-112 55.5 -169 182.5t-57 340q0 212 57 338.5t169 181.5t285 55q174 0 285.5 -55t168 -181.5t56.5 -338.5q0 -213 -56.5 -340t-168 -182.5t-285.5 -55.5q-173 0 -285 55.5zM696 264q39 28 58.5 98t19.5 197q0 128 -19 197t-59 96t-110 27q-66 0 -107 -27.5
t-61.5 -97t-20.5 -195.5q0 -127 20.5 -197t62 -98t111.5 -28q66 0 105 28zM537 1212h-204l165 312h285zM869 1212h-204l198 312h286z" />
    <glyph glyph-name="omacron" unicode="&#x14d;" horiz-adv-x="1171" 
d="M301 36.5q-112 55.5 -169 182.5t-57 340q0 212 57 338.5t169 181.5t285 55q174 0 285.5 -55t168 -181.5t56.5 -338.5q0 -213 -56.5 -340t-168 -182.5t-285.5 -55.5q-173 0 -285 55.5zM696 264q39 28 58.5 98t19.5 197q0 128 -19 197t-59 96t-110 27q-66 0 -107 -27.5
t-61.5 -97t-20.5 -195.5q0 -127 20.5 -197t62 -98t111.5 -28q66 0 105 28zM251 1494h668v-216h-668v216z" />
    <glyph glyph-name="racute" unicode="&#x155;" horiz-adv-x="850" 
d="M757 1134.5q27 -3.5 35 -5.5v-285q-11 2 -44 6t-56 4q-83 0 -152 -42.5t-119 -98.5v-713h-322v1118h265l29 -165q47 63 127.5 124t181.5 61q28 0 55 -3.5zM503 1214h-264l191 310h360z" />
    <glyph glyph-name="rcaron" unicode="&#x159;" horiz-adv-x="850" 
d="M757 1134.5q27 -3.5 35 -5.5v-285q-11 2 -44 6t-56 4q-83 0 -152 -42.5t-119 -98.5v-713h-322v1118h265l29 -165q47 63 127.5 124t181.5 61q28 0 55 -3.5zM439 1374l103 148h278l-243 -310h-271l-246 310h278z" />
    <glyph glyph-name="rcommaaccent" unicode="&#x157;" horiz-adv-x="850" 
d="M757 1134.5q27 -3.5 35 -5.5v-285q-11 2 -44 6t-56 4q-83 0 -152 -42.5t-119 -98.5v-713h-322v1118h265l29 -165q47 63 127.5 124t181.5 61q28 0 55 -3.5zM301 -457h-255l61 352h335z" />
    <glyph glyph-name="sacute" unicode="&#x15b;" horiz-adv-x="990" 
d="M266 5.5q-91 24.5 -144 53.5t-53 33l76 251q0 -3 49.5 -31t124 -52t161.5 -24q136 0 136 93q0 56 -39.5 80t-123.5 37l-61 9q-94 14 -160.5 46t-107 99.5t-40.5 179.5q0 111 52.5 191.5t151 123.5t234.5 43q115 0 201 -22t136 -47t50 -29l-71 -247q0 3 -43.5 26.5
t-113.5 43.5t-158 20q-68 0 -100.5 -22t-32.5 -67q0 -33 19.5 -53.5t57 -33t103.5 -25.5l56 -11q139 -28 217.5 -100.5t78.5 -225.5q0 -110 -53.5 -192t-153 -127t-235.5 -45q-123 0 -214 24.5zM574 1214h-264l191 310h360z" />
    <glyph glyph-name="scedilla" unicode="&#x15f;" horiz-adv-x="990" 
d="M880.5 172q-41.5 -76 -120.5 -123.5t-188 -61.5l-39 -68q73 -6 122.5 -42.5t49.5 -109.5q0 -86 -63 -135t-183 -49q-87 0 -146 23t-85 40l57 128q0 -1 26.5 -14.5t65.5 -25t83 -11.5q29 0 46.5 12.5t17.5 33.5q0 32 -41 44t-129 12h-31l84 159q-101 8 -176 32
t-118.5 48.5t-43.5 27.5l76 251q0 -3 49.5 -31t124 -52t161.5 -24q136 0 136 93q0 56 -39.5 80t-123.5 37l-61 9q-94 14 -160.5 46t-107 99.5t-40.5 179.5q0 111 52.5 191.5t151 123.5t234.5 43q115 0 201 -22t136 -47t50 -29l-71 -247q0 3 -43.5 26.5t-113.5 43.5t-158 20
q-68 0 -100.5 -22t-32.5 -67q0 -33 19.5 -53.5t57 -33t103.5 -25.5l56 -11q139 -28 217.5 -100.5t78.5 -225.5q0 -97 -41.5 -173z" />
    <glyph glyph-name="scircumflex" unicode="&#x15d;" horiz-adv-x="990" 
d="M266 5.5q-91 24.5 -144 53.5t-53 33l76 251q0 -3 49.5 -31t124 -52t161.5 -24q136 0 136 93q0 56 -39.5 80t-123.5 37l-61 9q-94 14 -160.5 46t-107 99.5t-40.5 179.5q0 111 52.5 191.5t151 123.5t234.5 43q115 0 201 -22t136 -47t50 -29l-71 -247q0 3 -43.5 26.5
t-113.5 43.5t-158 20q-68 0 -100.5 -22t-32.5 -67q0 -33 19.5 -53.5t57 -33t103.5 -25.5l56 -11q139 -28 217.5 -100.5t78.5 -225.5q0 -110 -53.5 -192t-153 -127t-235.5 -45q-123 0 -214 24.5zM377 1524h271l243 -311h-278l-103 149l-101 -149h-278z" />
    <glyph glyph-name="scommaaccent" unicode="&#x219;" horiz-adv-x="990" 
d="M266 5.5q-91 24.5 -144 53.5t-53 33l76 251q0 -3 49.5 -31t124 -52t161.5 -24q136 0 136 93q0 56 -39.5 80t-123.5 37l-61 9q-94 14 -160.5 46t-107 99.5t-40.5 179.5q0 111 52.5 191.5t151 123.5t234.5 43q115 0 201 -22t136 -47t50 -29l-71 -247q0 3 -43.5 26.5
t-113.5 43.5t-158 20q-68 0 -100.5 -22t-32.5 -67q0 -33 19.5 -53.5t57 -33t103.5 -25.5l56 -11q139 -28 217.5 -100.5t78.5 -225.5q0 -110 -53.5 -192t-153 -127t-235.5 -45q-123 0 -214 24.5zM534 -457h-255l61 352h335z" />
    <glyph glyph-name="germandbls" unicode="&#xdf;" horiz-adv-x="1139" 
d="M99 1093q0 142 59.5 243.5t176 155.5t285.5 54q215 0 330.5 -100.5t115.5 -297.5q0 -81 -21.5 -141.5t-50 -98t-70.5 -80.5q-32 -33 -45.5 -51.5t-13.5 -39.5q0 -18 13.5 -34t43.5 -42q43 -37 71.5 -70.5t50 -88.5t21.5 -131q0 -114 -50 -197.5t-145.5 -128.5t-230.5 -45
h-121v268h69q79 0 121 32t42 115q0 37 -13.5 67t-32.5 52.5t-52 54.5q-43 42 -64 72t-21 69q0 37 18.5 69.5t59.5 82.5q34 42 56 73.5t37 74t15 92.5q0 89 -37 129t-116 40q-89 0 -134 -49t-45 -152v-1090h-322v1093z" />
    <glyph glyph-name="tbar" unicode="&#x167;" horiz-adv-x="830" 
d="M774 10q-8 -2 -40.5 -9t-85 -13t-110.5 -6q-168 0 -265 82t-97 240v182h-136v230h136v156h-137v246h137v219l322 35v-254h251v-246h-251v-156h249v-230h-249v-142q0 -107 108 -107q30 0 59 4t48 8.5t24 5.5z" />
    <glyph glyph-name="tcaron" unicode="&#x165;" horiz-adv-x="830" 
d="M723 1176h-164l59 380h235zM665 241q29 4 48 8.5t24 5.5l37 -245q-8 -2 -40.5 -9t-85 -13t-110.5 -6q-168 0 -265 82t-97 240v568h-137v246h137v219l322 35v-254h251v-246h-251v-528q0 -107 108 -107q30 0 59 4z" />
    <glyph glyph-name="uni0163" unicode="&#x163;" horiz-adv-x="830" 
d="M647.5 -123.5q49.5 -36.5 49.5 -109.5q0 -86 -63 -135t-183 -49q-87 0 -146 23t-85 40l57 128q0 -1 26.5 -14.5t65.5 -25t83 -11.5q29 0 46.5 12.5t17.5 33.5q0 32 -41 44t-129 12h-31l91 172q-109 29 -169.5 106t-60.5 201v568h-137v246h137v219l322 35v-254h251v-246
h-251v-528q0 -107 108 -107q30 0 59 4t48 8.5t24 5.5l37 -245q-7 -2 -36 -8t-76.5 -12.5t-100.5 -7.5l-36 -63q73 -6 122.5 -42.5z" />
    <glyph glyph-name="uni021B" unicode="&#x21b;" horiz-adv-x="830" 
d="M774 10q-8 -2 -40.5 -9t-85 -13t-110.5 -6q-168 0 -265 82t-97 240v568h-137v246h137v219l322 35v-254h251v-246h-251v-528q0 -107 108 -107q30 0 59 4t48 8.5t24 5.5zM526 -457h-255l61 352h335z" />
    <glyph glyph-name="ubreve" unicode="&#x16d;" horiz-adv-x="1140" 
d="M222.5 89q-125.5 109 -125.5 325v704h322v-723q0 -79 38.5 -119.5t111.5 -40.5q74 0 113 40.5t39 119.5v723h322v-704q0 -217 -126 -325.5t-348 -108.5q-221 0 -346.5 109zM928 1416.5q-24 -74.5 -110 -147t-254 -72.5q-169 0 -254.5 72.5t-107.5 146t-22 108.5h234
q0 -39 27.5 -95t123.5 -56q70 0 106 33.5t45.5 67.5t9.5 50h226q0 -33 -24 -107.5z" />
    <glyph glyph-name="uhungarumlaut" unicode="&#x171;" horiz-adv-x="1140" 
d="M222.5 89q-125.5 109 -125.5 325v704h322v-723q0 -79 38.5 -119.5t111.5 -40.5q74 0 113 40.5t39 119.5v723h322v-704q0 -217 -126 -325.5t-348 -108.5q-221 0 -346.5 109zM518 1212h-204l165 312h285zM850 1212h-204l198 312h286z" />
    <glyph glyph-name="umacron" unicode="&#x16b;" horiz-adv-x="1140" 
d="M222.5 89q-125.5 109 -125.5 325v704h322v-723q0 -79 38.5 -119.5t111.5 -40.5q74 0 113 40.5t39 119.5v723h322v-704q0 -217 -126 -325.5t-348 -108.5q-221 0 -346.5 109zM232 1494h668v-216h-668v216z" />
    <glyph glyph-name="uogonek" unicode="&#x173;" horiz-adv-x="1140" 
d="M1043 1118v-704q0 -172 -80 -276t-227 -140q-66 -26 -107.5 -67.5t-41.5 -82.5q0 -27 19.5 -42t54.5 -15q45 0 78.5 7t53 15.5t19.5 9.5l35 -164q0 -2 -28 -14t-77 -22t-115 -10q-118 0 -183 46t-65 136q0 59 35.5 104.5t103.5 82.5q-198 12 -309.5 120t-111.5 312v704
h322v-723q0 -79 38.5 -119.5t111.5 -40.5q74 0 113 40.5t39 119.5v723h322z" />
    <glyph glyph-name="uring" unicode="&#x16f;" horiz-adv-x="1140" 
d="M222.5 89q-125.5 109 -125.5 325v704h322v-723q0 -79 38.5 -119.5t111.5 -40.5q74 0 113 40.5t39 119.5v723h322v-704q0 -217 -126 -325.5t-348 -108.5q-221 0 -346.5 109zM423 1200.5q-63 26.5 -98 77t-35 118.5q0 103 75.5 161.5t201.5 58.5q82 0 144.5 -26t97 -76
t34.5 -118q0 -105 -76 -163.5t-200 -58.5q-81 0 -144 26.5zM498.5 1456q-26.5 -24 -26.5 -60q0 -38 27 -62.5t68 -24.5q40 0 67.5 25t27.5 62t-24.5 60.5t-70.5 23.5q-42 0 -68.5 -24z" />
    <glyph glyph-name="utilde" unicode="&#x169;" horiz-adv-x="1140" 
d="M222.5 89q-125.5 109 -125.5 325v704h322v-723q0 -79 38.5 -119.5t111.5 -40.5q74 0 113 40.5t39 119.5v723h322v-704q0 -217 -126 -325.5t-348 -108.5q-221 0 -346.5 109zM960.5 1419.5q-16.5 -72.5 -74 -142.5t-168.5 -70q-49 0 -85 14.5t-79 41.5q-35 21 -57 30.5
t-48 9.5q-47 0 -61 -35.5t-14 -60.5h-219q0 30 16.5 102.5t74 142.5t167.5 70q51 0 88 -15t83 -43q34 -21 55 -30.5t45 -9.5q47 0 61 37t14 61h218q0 -30 -16.5 -102.5z" />
    <glyph glyph-name="wacute" unicode="&#x1e83;" horiz-adv-x="1618" 
d="M1585 1118l-219 -1118h-380l-178 761l-183 -761h-397l-195 1118h321l108 -775l196 775h317l190 -777l109 777h311zM879 1214h-264l191 310h360z" />
    <glyph glyph-name="wcircumflex" unicode="&#x175;" horiz-adv-x="1618" 
d="M1585 1118l-219 -1118h-380l-178 761l-183 -761h-397l-195 1118h321l108 -775l196 775h317l190 -777l109 777h311zM682 1524h271l243 -311h-278l-103 149l-101 -149h-278z" />
    <glyph glyph-name="wdieresis" unicode="&#x1e85;" horiz-adv-x="1618" 
d="M1585 1118l-219 -1118h-380l-178 761l-183 -761h-397l-195 1118h321l108 -775l196 775h317l190 -777l109 777h311zM507.5 1263.5q-45.5 37.5 -45.5 111.5q0 76 45.5 112.5t115.5 36.5q71 0 118.5 -37t47.5 -112q0 -74 -48 -111.5t-118 -37.5t-115.5 37.5zM892 1263.5
q-46 37.5 -46 111.5q0 75 46 112t115 37q71 0 118.5 -37t47.5 -112q0 -74 -48 -111.5t-118 -37.5q-69 0 -115 37.5z" />
    <glyph glyph-name="wgrave" unicode="&#x1e81;" horiz-adv-x="1618" 
d="M1585 1118l-219 -1118h-380l-178 761l-183 -761h-397l-195 1118h321l108 -775l196 775h317l190 -777l109 777h311zM1021 1214h-264l-286 310h359z" />
    <glyph glyph-name="ycircumflex" unicode="&#x177;" horiz-adv-x="1063" 
d="M1033 1118l-345 -1221q-28 -102 -79 -164.5t-133 -92t-206 -29.5h-80v255h53q43 0 71.5 19.5t44.5 60.5l28 76l-356 1096h337l189 -735l158 735h318zM411 1524h271l243 -311h-278l-103 149l-101 -149h-278z" />
    <glyph glyph-name="ygrave" unicode="&#x1ef3;" horiz-adv-x="1063" 
d="M1033 1118l-345 -1221q-28 -102 -79 -164.5t-133 -92t-206 -29.5h-80v255h53q43 0 71.5 19.5t44.5 60.5l28 76l-356 1096h337l189 -735l158 735h318zM750 1214h-264l-286 310h359z" />
    <glyph glyph-name="zacute" unicode="&#x17a;" horiz-adv-x="1073" 
d="M999 246v-246h-914v241l498 631h-494v246h887v-236l-495 -636h518zM599 1214h-264l191 310h360z" />
    <glyph glyph-name="zdotaccent" unicode="&#x17c;" horiz-adv-x="1073" 
d="M999 246v-246h-914v241l498 631h-494v246h887v-236l-495 -636h518zM417 1260q-47 39 -47 113q0 77 46.5 114t117.5 37q73 0 121 -37t48 -114q0 -74 -49 -113t-120 -39q-70 0 -117 39z" />
    <glyph glyph-name="zero.tf" 
d="M309.5 51q-121.5 71 -182 242t-60.5 471q0 298 60.5 468t182 241t317.5 71q195 0 315.5 -71t180.5 -241t60 -468q0 -300 -60 -471t-180.5 -242t-315.5 -71q-196 0 -317.5 71zM751 290.5q43 39.5 63.5 149.5t20.5 324q0 216 -20 324t-63.5 146.5t-126.5 38.5
q-78 0 -122 -38.5t-66 -148t-22 -322.5q0 -214 21.5 -324t66.5 -149.5t127 -39.5q78 0 121 39.5z" />
    <glyph glyph-name="one.tf" 
d="M112 279h373v867l-294 -140v304l389 216h251v-1247h347v-279h-1066v279z" />
    <glyph glyph-name="two.tf" 
d="M117 266l530 531q58 60 90.5 102t49 86t16.5 97q0 191 -215 191q-104 0 -199 -32t-162.5 -69.5t-67.5 -41.5l-89 269q0 4 81.5 42.5t206 70.5t272.5 32q257 0 388.5 -111.5t131.5 -337.5q0 -91 -26 -165t-81 -147t-152 -168l-319 -320h596v-295h-1051v266z" />
    <glyph glyph-name="three.tf" 
d="M351 12q-124 32 -203.5 69.5t-79.5 42.5l91 290q0 -4 70.5 -41.5t170.5 -69t209 -31.5q112 0 161 45t49 145q0 94 -48 137.5t-143 43.5h-199v271h182q81 0 126 43.5t45 129.5q0 94 -45 134.5t-148 40.5q-102 0 -194.5 -30.5t-156.5 -66.5t-64 -40l-86 281q0 4 74 40.5
t190.5 67t259.5 30.5q172 0 285.5 -41t172 -133t58.5 -245q0 -111 -45 -183.5t-101.5 -112t-56.5 -32.5q0 8 66.5 -24t120 -107.5t53.5 -208.5q0 -243 -136 -360t-402 -117q-152 0 -276 32z" />
    <glyph glyph-name="four.tf" 
d="M1205 265h-134v-265h-338v265h-677v266l548 995h467v-990h134v-271zM733 536v618l-334 -618h334z" />
    <glyph glyph-name="five.tf" 
d="M1060 895.5q121 -117.5 121 -393.5q0 -268 -142 -395t-419 -127q-149 0 -270.5 32t-199.5 69.5t-78 42.5l91 269q0 -3 69 -41t164.5 -69.5t195.5 -31.5q127 0 185 64t58 196q0 123 -51 177t-160 54q-85 0 -134 -37.5t-74 -103.5h-284l93 925h890v-280h-619l-31 -295
q0 2 32.5 18t86.5 30t123 14q232 0 353 -117.5z" />
    <glyph glyph-name="six.tf" 
d="M1079.5 873.5q102.5 -119.5 102.5 -366.5q0 -268 -139.5 -397.5t-400.5 -129.5q-186 0 -310 73t-188 235.5t-64 428.5q0 295 69 477t213 267t373 85q112 0 193 -20t126.5 -43.5t45.5 -27.5l-76 -243q0 2 -34.5 18t-93 30t-135.5 14q-107 0 -173.5 -34t-105.5 -121.5
t-50 -247.5q50 43 134 82.5t191 39.5q220 0 322.5 -119.5zM788.5 307.5q46.5 56.5 46.5 188.5q0 84 -18 133.5t-57.5 71t-106.5 21.5q-74 0 -131 -31.5t-93 -67.5q5 -135 28.5 -216t68.5 -118.5t117 -37.5q99 0 145.5 56.5z" />
    <glyph glyph-name="seven.tf" 
d="M783 1246h-682v280h1050v-274l-513 -1252h-363z" />
    <glyph glyph-name="eight.tf" 
d="M346 26.5q-125 50.5 -198.5 153t-73.5 252.5q0 117 48.5 196.5t109.5 123.5t61 37t-51 35t-92 115t-41 179q0 140 69.5 235.5t186.5 142.5t262 47q146 0 261.5 -46.5t183 -142t67.5 -236.5q0 -104 -40.5 -175.5t-91 -112t-50.5 -34.5q0 8 60.5 -35t109 -123t48.5 -201
q0 -150 -73.5 -254t-198 -155.5t-278.5 -51.5t-279 50.5zM710.5 943.5q41.5 19.5 66.5 59t25 95.5q0 78 -49 122t-128 44t-128.5 -43.5t-49.5 -122.5q0 -84 49.5 -129t123.5 -45q49 0 90.5 19.5zM778 307q59 51 59 146q0 94 -56.5 147.5t-154.5 53.5q-100 0 -156.5 -54.5
t-56.5 -146.5q0 -95 59 -146t153 -51t153 51z" />
    <glyph glyph-name="nine.tf" 
d="M919 1473.5q124 -72.5 188.5 -235t64.5 -428.5q0 -295 -68.5 -477t-212 -267t-372.5 -85q-112 0 -193 20t-126.5 43t-45.5 27l76 244q0 -2 44 -18.5t105 -30.5t126 -14q95 0 159 34t103.5 121.5t51.5 245.5q-53 -43 -136.5 -81t-188.5 -38q-212 0 -318.5 120.5
t-106.5 365.5q0 266 142 396t397 130q187 0 311 -72.5zM434.5 897q18.5 -49 59 -70.5t108.5 -21.5q73 0 129.5 31t91.5 66q-5 135 -27.5 216.5t-67 119t-117.5 37.5q-101 0 -148 -56t-47 -188q0 -85 18.5 -134z" />
    <glyph glyph-name="zero.dnom" horiz-adv-x="799" 
d="M204 22q-74 41 -108 130t-34 237t34 236.5t108 129.5t197 41t196 -40.5t106.5 -129t33.5 -237.5q0 -148 -33.5 -237t-107 -130t-195.5 -41q-123 0 -197 41zM455.5 177q18.5 18 26.5 67t8 145q0 99 -8 147.5t-26.5 66t-54.5 17.5q-35 0 -54 -19t-28 -68.5t-9 -143.5
q0 -95 9 -144t28.5 -67.5t55.5 -18.5q34 0 52.5 18z" />
    <glyph glyph-name="one.dnom" horiz-adv-x="799" 
d="M130 657l234 117h181v-595h189v-179h-648v179h208v351l-164 -69v196z" />
    <glyph glyph-name="two.dnom" horiz-adv-x="799" 
d="M80 159l304 263q48 41 63 63t15 53q0 38 -21.5 54.5t-68.5 16.5q-57 0 -110.5 -15t-92 -32.5t-38.5 -19.5l-64 178q0 2 45 22t116 36.5t158 16.5q156 0 239.5 -63t83.5 -181q0 -72 -32.5 -126.5t-119.5 -123.5l-147 -122h309v-179h-639v159z" />
    <glyph glyph-name="three.dnom" horiz-adv-x="799" 
d="M223 -3.5q-72 16.5 -117.5 36t-45.5 21.5l68 182q0 -2 38 -20.5t91 -34t109 -15.5q51 0 74.5 17t23.5 58q0 38 -20 55t-62 17h-135v166h128q34 0 53 17t19 51q0 38 -18.5 52.5t-65.5 14.5q-52 0 -103.5 -14.5t-89 -31.5t-37.5 -19l-63 175q0 2 43 20.5t111 34.5t152 16
q162 0 239.5 -56t77.5 -173q0 -47 -21 -81t-47 -55t-26 -18q0 4 31 -16.5t55.5 -59t24.5 -98.5q0 -127 -83 -192.5t-243 -65.5q-89 0 -161 16.5z" />
    <glyph glyph-name="four.dnom" horiz-adv-x="799" 
d="M751 122h-78v-122h-234v122h-384v156l314 496h304v-474h78v-178zM439 300v192l-135 -192h135z" />
    <glyph glyph-name="five.dnom" horiz-adv-x="799" 
d="M228.5 -3.5q-70.5 16.5 -116 36t-45.5 21.5l63 174q0 -1 40 -18.5t93.5 -32t107.5 -14.5q59 0 84 21.5t25 77.5q0 53 -21 74.5t-71 21.5q-40 0 -60.5 -16t-31.5 -55h-210l55 487h547v-174h-346l-11 -89q53 16 101 16q148 0 220 -65t72 -203q0 -137 -86 -208t-252 -71
q-87 0 -157.5 16.5z" />
    <glyph glyph-name="six.dnom" horiz-adv-x="799" 
d="M668 454.5q64 -62.5 64 -194.5q0 -136 -83.5 -209.5t-238.5 -73.5q-175 0 -257 92.5t-82 290.5q0 151 41 246.5t126.5 141t222.5 45.5q67 0 115.5 -11t76 -23.5t27.5 -14.5l-56 -158q0 1 -18.5 8.5t-50.5 14t-76 6.5q-73 0 -108 -31t-47 -112q61 45 151 45
q129 0 193 -62.5zM472 173q19 22 19 77q0 53 -17 73t-60 20q-48 0 -95 -31q4 -87 26 -124t65 -37t62 22z" />
    <glyph glyph-name="seven.dnom" horiz-adv-x="799" 
d="M450 595h-370v179h639v-158l-293 -616h-260z" />
    <glyph glyph-name="eight.dnom" horiz-adv-x="799" 
d="M220 9.5q-75 29.5 -115 84t-40 129.5q0 66 32 111t72 69q-85 68 -85 164q0 71 38 122.5t109.5 79.5t168.5 28q146 0 229 -61t83 -169q0 -56 -25 -95.5t-59 -62.5q104 -66 104 -182q0 -75 -41 -131t-116.5 -86t-176.5 -30q-103 0 -178 29.5zM449 506.5q19 17.5 19 50.5
q0 32 -18 48.5t-52 16.5t-52.5 -16.5t-18.5 -48.5t18.5 -50t49.5 -18q35 0 54 17.5zM465 176.5q23 20.5 23 59.5t-23 60t-66 21q-44 0 -67.5 -21t-23.5 -60q0 -38 23.5 -59t66.5 -21q44 0 67 20.5z" />
    <glyph glyph-name="nine.dnom" horiz-adv-x="799" 
d="M649 702.5q82 -92.5 82 -290.5q0 -152 -41 -247t-127 -140.5t-224 -45.5q-66 0 -114 11t-75.5 23.5t-27.5 14.5l56 158q0 -1 18.5 -8.5t50 -14t74.5 -6.5q73 0 109 31t48 113q-61 -46 -153 -46q-128 0 -191 63t-63 194q0 136 83 209.5t238 73.5q175 0 257 -92.5z
M328 449.5q17 -20.5 61 -20.5q47 0 95 32q-4 87 -25.5 123.5t-65.5 36.5t-63 -22t-19 -77q0 -52 17 -72.5z" />
    <glyph glyph-name="minus" unicode="&#x2212;" 
d="M139 900h971v-266h-971v266z" />
    <glyph glyph-name="plusminus" unicode="&#xb1;" 
d="M1110 948v-266h-352v-304h-266v304h-353v266h353v304h266v-304h352zM143 266h965v-266h-965v266z" />
    <glyph glyph-name="notequal" unicode="&#x2260;" 
d="M788 821l-57 -127h379v-266h-498l-95 -211h-253l95 211h-219v266h339l58 127h-397v266h517l97 215h250l-97 -215h203v-266h-322z" />
    <glyph glyph-name="greaterequal" unicode="&#x2265;" 
d="M139 266h971v-266h-971v266zM1107 955v-278l-968 -349v294l603 191l-603 195v297z" />
    <glyph glyph-name="lessequal" unicode="&#x2264;" 
d="M1107 328l-968 349v278l968 350v-297l-603 -195l603 -191v-294zM1110 266v-266h-971v266h971z" />
    <glyph glyph-name="approxequal" unicode="&#x2248;" 
d="M1105 960q-21 -76 -89 -149t-196 -73q-58 0 -101.5 13.5t-99.5 39.5q-45 20 -72.5 29.5t-59.5 9.5q-40 0 -60.5 -20.5t-26.5 -41.5t-6 -30h-270q0 29 21.5 105.5t89.5 149.5t196 73q58 0 102 -13.5t100 -39.5q41 -19 69.5 -28.5t60.5 -9.5q40 0 60.5 20t26.5 41t6 30h270
q0 -30 -21 -106zM1105 573.5q-21 -76.5 -89 -149t-196 -72.5q-58 0 -101.5 13.5t-99.5 39.5q-45 20 -72.5 29.5t-59.5 9.5q-40 0 -60.5 -20.5t-26.5 -41.5t-6 -30h-270q0 29 21.5 105.5t89.5 149t196 72.5q58 0 102 -13.5t100 -39.5q41 -19 69.5 -28.5t60.5 -9.5
q40 0 60.5 20t26.5 41t6 30h270q0 -29 -21 -105.5z" />
    <glyph glyph-name="infinity" unicode="&#x221e;" horiz-adv-x="1661" 
d="M293 347q-95 62 -142 165.5t-47 227.5q0 125 47 228.5t141.5 164.5t232.5 61q94 0 162 -34.5t105.5 -74.5t37.5 -46q0 7 36.5 46.5t104.5 74t165 34.5q138 0 232 -61t140.5 -164t46.5 -229q0 -124 -46.5 -227.5t-141 -165.5t-231.5 -62q-96 0 -164 31.5t-105 68t-37 42.5
q0 -6 -37.5 -42.5t-105 -68t-162.5 -31.5q-137 0 -232 62zM657.5 594.5q44.5 54.5 44.5 139.5q0 87 -44.5 144.5t-127.5 57.5q-76 0 -118 -54t-42 -144t41.5 -144t118.5 -54q83 0 127.5 54.5zM1249.5 594q41.5 54 41.5 144t-42 144t-118 54q-83 0 -127.5 -57.5t-44.5 -144.5
q0 -85 44.5 -139.5t127.5 -54.5q77 0 118.5 54z" />
    <glyph glyph-name="integral" unicode="&#x222b;" 
d="M384.5 -404q-41.5 6 -67 13t-32.5 9l32 244q0 -1 27 -7.5t49 -6.5q37 0 54 24.5t17 65.5v1281q0 159 94.5 242.5t259.5 83.5q59 0 111.5 -6t84.5 -13t40 -9l-37 -248q-5 1 -24 5.5t-48 8.5t-59 4q-102 0 -102 -106v-1277q0 -156 -82 -235t-230 -79q-46 0 -87.5 6z" />
    <glyph glyph-name="uni2126" unicode="&#x2126;" horiz-adv-x="1493" 
d="M85 254h210q0 -10 -58.5 64t-105 190.5t-46.5 271.5q0 278 71.5 445.5t216.5 243t374 75.5t373.5 -75.5t216 -243t71.5 -445.5q0 -155 -46.5 -271.5t-105 -190.5t-58.5 -64h210v-254h-623q0 -13 65.5 104t117.5 290.5t52 385.5q0 180 -29.5 278t-87.5 135.5t-156 37.5
t-156.5 -37.5t-87.5 -135.5t-29 -278q0 -212 52 -385.5t117 -290.5t65 -104h-623v254z" />
    <glyph glyph-name="uni2206" unicode="&#x2206;" horiz-adv-x="1454" 
d="M970 1524l445 -1524h-1377l437 1524h495zM469 257h511l-261 943z" />
    <glyph glyph-name="product" unicode="&#x220f;" horiz-adv-x="1380" 
d="M1325 1524v-295h-158v-1229h-369v1229h-220v-1229h-369v1229h-158v295h1274z" />
    <glyph glyph-name="summation" unicode="&#x2211;" horiz-adv-x="1413" 
d="M86 1524h1223v-527h-332v249h-484l489 -676l-484 -677h498v266h331v-544h-1241v285l488 668l-488 667v289z" />
    <glyph glyph-name="radical" unicode="&#x221a;" horiz-adv-x="1333" 
d="M31 1114h422l174 -756l257 1166h439v-246h-179l-336 -1278h-373l-243 868h-161v246z" />
    <glyph glyph-name="partialdiff" unicode="&#x2202;" 
d="M896 1461q143 -85 211 -267t68 -477q0 -266 -63 -428.5t-186 -235.5t-310 -73q-255 0 -392 126t-137 392q0 248 100.5 371.5t310.5 123.5q107 0 192 -39.5t137 -82.5q-11 157 -50 243.5t-106 120t-173 33.5q-77 0 -135.5 -14t-93 -30.5t-34.5 -18.5l-76 250
q0 4 45.5 27.5t126.5 43.5t193 20q229 0 372 -85zM733 296.5q45 36.5 68 116t29 210.5q-35 35 -92.5 66.5t-131.5 31.5q-68 0 -108.5 -21.5t-59.5 -70.5t-19 -133q0 -126 48 -181t149 -55q72 0 117 36.5z" />
    <glyph glyph-name="lozenge" unicode="&#x25ca;" horiz-adv-x="1350" 
d="M494 0l-454 762l454 762h368l449 -762l-449 -762h-368zM420 762l262 -437l254 437l-254 435z" />
    <glyph glyph-name="pi" unicode="&#x3c0;" horiz-adv-x="1446" 
d="M230 0v868h-177v246h1334v-246h-253v-513q0 -106 109 -106q30 0 59 4t48 8.5t24 5.5l37 -248q-8 -2 -40.5 -9t-85 -13t-110.5 -6q-168 0 -264.5 82.5t-96.5 240.5v554h-261v-868h-323z" />
    <glyph glyph-name="uni00B5" unicode="&#xb5;" horiz-adv-x="1135" 
d="M1036 1113v-761q0 -122 -47.5 -206t-127.5 -125t-180 -41q-135 0 -263 91v-456h-319v1498h319v-789q33 -27 75 -45.5t88 -18.5q68 0 102 36.5t34 105.5v711h319z" />
    <glyph glyph-name="asciicircum" unicode="^" 
d="M474 1526h298l354 -1001h-304l-201 640l-198 -640h-299z" />
    <glyph glyph-name="periodcentered.case" horiz-adv-x="829" 
d="M283.5 641q-51.5 45 -51.5 138q0 92 51 136t128 44q80 0 131.5 -43.5t51.5 -136.5t-52 -138t-131 -45q-76 0 -127.5 45z" />
    <glyph glyph-name="bullet.case" horiz-adv-x="907" 
d="M298.5 473.5q-70.5 35.5 -114 111t-43.5 187.5t43.5 185.5t113.5 107.5t153 34q84 0 154.5 -34t113.5 -107.5t43 -185.5q0 -113 -43 -188t-113.5 -110.5t-154.5 -35.5q-82 0 -152.5 35.5z" />
    <glyph glyph-name="exclamdown.case" horiz-adv-x="533" 
d="M395.5 1499q51.5 -43 51.5 -131t-51 -129.5t-131 -41.5q-77 0 -128 41.5t-51 129.5t51 131t128 43q79 0 130.5 -43zM421 1075l15 -1075h-337l15 1075h307z" />
    <glyph glyph-name="questiondown.case" horiz-adv-x="875" 
d="M625.5 1503.5q51.5 -42.5 51.5 -130.5t-51 -129.5t-129 -41.5q-79 0 -130.5 41.5t-51.5 129.5t52 130.5t130 42.5q77 0 128.5 -42.5zM659 930q0 -86 -24 -146.5t-57.5 -98.5t-88.5 -85q-45 -39 -70.5 -66.5t-43 -66.5t-17.5 -90q0 -61 36.5 -93.5t96.5 -32.5
q72 0 139 15.5t114 34t47 20.5l59 -256q0 -2 -57 -24.5t-141 -41.5t-179 -19q-212 0 -324.5 96t-112.5 289q0 85 24.5 147.5t58.5 103t90 92.5q44 40 69 68.5t42 66.5t17 85v138h322v-136z" />
    <glyph glyph-name="braceleft.case" horiz-adv-x="705" 
d="M264 -349q-67 34 -104.5 96t-37.5 144q0 67 12.5 133t37.5 161q29 113 43.5 192t14.5 168q0 46 -36 69.5t-101 24.5v223q63 1 100 25.5t37 67.5q0 57 -12.5 125t-40.5 194q-27 112 -41 190t-14 139q0 82 37.5 143.5t104.5 95t154 33.5h216v-295h-78q-56 0 -87.5 -32.5
t-31.5 -92.5q0 -34 7 -73.5t23 -115.5q24 -114 37.5 -202.5t13.5 -188.5q0 -39 -16.5 -67t-37 -44.5t-20.5 -14.5t20.5 -14t37 -43t16.5 -66q0 -110 -15 -210t-40 -219q-13 -60 -19.5 -97t-6.5 -62q0 -60 31.5 -92.5t87.5 -32.5h78v-296h-216q-87 0 -154 34z" />
    <glyph glyph-name="braceright.case" horiz-adv-x="705" 
d="M92 -383v296h78q56 0 87.5 32.5t31.5 92.5q0 25 -6.5 62t-19.5 97q-25 119 -40 219t-15 210q0 39 16.5 66t37 43t20.5 14t-20.5 14.5t-37 44.5t-16.5 67q0 100 13.5 188.5t37.5 202.5q16 76 23 115.5t7 73.5q0 60 -31.5 92.5t-87.5 32.5h-78v295h216q87 0 154 -33.5
t104.5 -95t37.5 -143.5q0 -61 -14 -139t-41 -190q-28 -126 -40.5 -194t-12.5 -125q0 -43 37 -67.5t100 -25.5v-223q-65 -1 -101 -24.5t-36 -69.5q0 -89 14.5 -168t43.5 -192q25 -95 37.5 -161t12.5 -133q0 -82 -37.5 -144t-104.5 -96t-154 -34h-216z" />
    <glyph glyph-name="bracketleft.case" horiz-adv-x="705" 
d="M91 1875h543v-296h-197v-1666h197v-295h-543v2257z" />
    <glyph glyph-name="bracketright.case" horiz-adv-x="705" 
d="M71 -382v295h197v1666h-197v296h543v-2257h-543z" />
    <glyph glyph-name="parenleft.case" horiz-adv-x="705" 
d="M346 -220q-98 173 -176.5 410t-78.5 498q0 275 78.5 511t176.5 401.5t98 148.5l234 -57q0 16 -63.5 -142.5t-114 -381.5t-50.5 -480q0 -243 50.5 -467t114 -390t63.5 -151l-234 -57q0 -16 -98 157z" />
    <glyph glyph-name="parenright.case" horiz-adv-x="705" 
d="M27 -320q0 -15 63.5 151t114 390t50.5 467q0 257 -50.5 480t-114 381.5t-63.5 142.5l234 57q0 17 98 -148.5t176.5 -401.5t78.5 -511q0 -261 -78.5 -498t-176.5 -410t-98 -157z" />
    <glyph glyph-name="guillemotleft.case" horiz-adv-x="1163" 
d="M804 404l-312 367l312 364h309l-320 -364l320 -367h-309zM362 404l-312 367l312 364h309l-320 -364l320 -367h-309z" />
    <glyph glyph-name="guillemotright.case" horiz-adv-x="1163" 
d="M492 1135h309l312 -364l-312 -367h-309l320 367zM50 1135h309l312 -364l-312 -367h-309l320 367z" />
    <glyph glyph-name="guilsinglleft.case" horiz-adv-x="721" 
d="M362 404l-312 367l312 364h309l-320 -364l320 -367h-309z" />
    <glyph glyph-name="guilsinglright.case" horiz-adv-x="721" 
d="M50 1135h309l312 -364l-312 -367h-309l320 367z" />
    <glyph glyph-name="at.case" horiz-adv-x="1931" 
d="M1328 1150v-518q0 -41 17.5 -60.5t46.5 -19.5q54 0 86 72t32 207q0 147 -67 259.5t-185 174.5t-268 62q-174 0 -300 -69.5t-192 -196.5t-66 -297q0 -176 67 -302t198 -193t320 -67q116 0 224.5 26.5t186.5 58t78 34.5l66 -212q0 -4 -84.5 -38.5t-207.5 -63.5t-263 -29
q-259 0 -446 95.5t-286 272.5t-99 419q0 228 103.5 406t287 276.5t415.5 98.5q221 0 392 -90t265.5 -248.5t94.5 -357.5q0 -150 -52 -261.5t-141 -171t-196 -59.5q-75 0 -130 24t-89 66q-48 -37 -118 -69t-152 -32q-160 0 -236 97t-76 311t76 311t236 97q72 0 136.5 -26
t113.5 -60l14 73h198zM1087 584v4v338q-70 45 -135 45q-54 0 -85 -18.5t-46.5 -65t-15.5 -132.5t15.5 -132.5t46.5 -65t85 -18.5q65 0 135 45z" />
    <glyph glyph-name="grave" unicode="`" horiz-adv-x="755" 
d="M653 1214h-264l-286 310h359z" />
    <glyph glyph-name="macron" unicode="&#xaf;" horiz-adv-x="872" 
d="M102 1494h668v-216h-668v216z" />
    <glyph glyph-name="acute" unicode="&#xb4;" horiz-adv-x="755" 
d="M366 1214h-264l191 310h360z" />
    <glyph glyph-name="dieresis" unicode="&#xa8;" horiz-adv-x="916" 
d="M147.5 1263.5q-45.5 37.5 -45.5 111.5q0 76 45.5 112.5t115.5 36.5q71 0 118.5 -37t47.5 -112q0 -74 -48 -111.5t-118 -37.5t-115.5 37.5zM532 1263.5q-46 37.5 -46 111.5q0 75 46 112t115 37q71 0 118.5 -37t47.5 -112q0 -74 -48 -111.5t-118 -37.5q-69 0 -115 37.5z
" />
    <glyph glyph-name="cedilla" unicode="&#xb8;" horiz-adv-x="682" 
d="M381.5 -264.5q17.5 12.5 17.5 33.5q0 32 -41 44t-129 12h-31l98 185h164l-52 -91q73 -6 122.5 -42.5t49.5 -109.5q0 -86 -63 -135t-183 -49q-87 0 -146 23t-85 40l57 128q0 -1 26.5 -14.5t65.5 -25t83 -11.5q29 0 46.5 12.5z" />
    <glyph glyph-name="circumflex" unicode="&#x2c6;" horiz-adv-x="965" 
d="M348 1524h271l243 -311h-278l-103 149l-101 -149h-278z" />
    <glyph glyph-name="caron" unicode="&#x2c7;" horiz-adv-x="965" 
d="M481 1374l103 148h278l-243 -310h-271l-246 310h278z" />
    <glyph glyph-name="breve" unicode="&#x2d8;" horiz-adv-x="977" 
d="M850 1416.5q-24 -74.5 -110 -147t-254 -72.5q-169 0 -254.5 72.5t-107.5 146t-22 108.5h234q0 -39 27.5 -95t123.5 -56q70 0 106 33.5t45.5 67.5t9.5 50h226q0 -33 -24 -107.5z" />
    <glyph glyph-name="dotaccent" unicode="&#x2d9;" horiz-adv-x="538" 
d="M149 1260q-47 39 -47 113q0 77 46.5 114t117.5 37q73 0 121 -37t48 -114q0 -74 -49 -113t-120 -39q-70 0 -117 39z" />
    <glyph glyph-name="ring" unicode="&#x2da;" horiz-adv-x="758" 
d="M236 1200.5q-63 26.5 -98 77t-35 118.5q0 103 75.5 161.5t201.5 58.5q82 0 144.5 -26t97 -76t34.5 -118q0 -105 -76 -163.5t-200 -58.5q-81 0 -144 26.5zM311.5 1456q-26.5 -24 -26.5 -60q0 -38 27 -62.5t68 -24.5q40 0 67.5 25t27.5 62t-24.5 60.5t-70.5 23.5
q-42 0 -68.5 -24z" />
    <glyph glyph-name="ogonek" unicode="&#x2db;" horiz-adv-x="673" 
d="M168 -341q-65 46 -65 136q0 78 59.5 132t175.5 97h114l12 -24q-68 -26 -110.5 -68t-42.5 -84q0 -27 19.5 -42t54.5 -15q45 0 78.5 7t53 15.5t19.5 9.5l35 -164q0 -2 -28 -14t-77 -22t-115 -10q-118 0 -183 46z" />
    <glyph glyph-name="tilde" unicode="&#x2dc;" horiz-adv-x="1026" 
d="M907.5 1419.5q-16.5 -72.5 -74 -142.5t-168.5 -70q-49 0 -85 14.5t-79 41.5q-35 21 -57 30.5t-48 9.5q-47 0 -61 -35.5t-14 -60.5h-219q0 30 16.5 102.5t74 142.5t167.5 70q51 0 88 -15t83 -43q34 -21 55 -30.5t45 -9.5q47 0 61 37t14 61h218q0 -30 -16.5 -102.5z" />
    <glyph glyph-name="hungarumlaut" unicode="&#x2dd;" horiz-adv-x="1021" 
d="M306 1212h-204l165 312h285zM638 1212h-204l198 312h286z" />
    <glyph glyph-name="uni0308" unicode="&#x308;" horiz-adv-x="0" 
d="M-883.5 1263.5q-45.5 37.5 -45.5 111.5q0 76 45.5 112.5t115.5 36.5q71 0 118.5 -37t47.5 -112q0 -74 -48 -111.5t-118 -37.5t-115.5 37.5zM-499 1263.5q-46 37.5 -46 111.5q0 75 46 112t115 37q71 0 118.5 -37t47.5 -112q0 -74 -48 -111.5t-118 -37.5q-69 0 -115 37.5z
" />
    <glyph glyph-name="uni0307" unicode="&#x307;" horiz-adv-x="0" 
d="M-693 1260q-47 39 -47 113q0 77 46.5 114t117.5 37q73 0 121 -37t48 -114q0 -74 -49 -113t-120 -39q-70 0 -117 39z" />
    <glyph glyph-name="gravecomb" unicode="&#x300;" horiz-adv-x="0" 
d="M-370 1214h-264l-286 310h359z" />
    <glyph glyph-name="acutecomb" unicode="&#x301;" horiz-adv-x="0" 
d="M-512 1214h-264l191 310h360z" />
    <glyph glyph-name="uni030B" unicode="&#x30b;" horiz-adv-x="0" 
d="M-629 1212h-204l165 312h285zM-297 1212h-204l198 312h286z" />
    <glyph glyph-name="uni0302" unicode="&#x302;" horiz-adv-x="0" 
d="M-707 1524h271l243 -311h-278l-103 149l-101 -149h-278z" />
    <glyph glyph-name="uni030C" unicode="&#x30c;" horiz-adv-x="0" 
d="M-574 1374l103 148h278l-243 -310h-271l-246 310h278z" />
    <glyph glyph-name="uni0306" unicode="&#x306;" horiz-adv-x="0" 
d="M-211 1416.5q-24 -74.5 -110 -147t-254 -72.5q-169 0 -254.5 72.5t-107.5 146t-22 108.5h234q0 -39 27.5 -95t123.5 -56q70 0 106 33.5t45.5 67.5t9.5 50h226q0 -33 -24 -107.5z" />
    <glyph glyph-name="uni030A" unicode="&#x30a;" horiz-adv-x="0" 
d="M-716 1200.5q-63 26.5 -98 77t-35 118.5q0 103 75.5 161.5t201.5 58.5q82 0 144.5 -26t97 -76t34.5 -118q0 -105 -76 -163.5t-200 -58.5q-81 0 -144 26.5zM-640.5 1456q-26.5 -24 -26.5 -60q0 -38 27 -62.5t68 -24.5q40 0 67.5 25t27.5 62t-24.5 60.5t-70.5 23.5
q-42 0 -68.5 -24z" />
    <glyph glyph-name="tildecomb" unicode="&#x303;" horiz-adv-x="0" 
d="M-178.5 1419.5q-16.5 -72.5 -74 -142.5t-168.5 -70q-49 0 -85 14.5t-79 41.5q-35 21 -57 30.5t-48 9.5q-47 0 -61 -35.5t-14 -60.5h-219q0 30 16.5 102.5t74 142.5t167.5 70q51 0 88 -15t83 -43q34 -21 55 -30.5t45 -9.5q47 0 61 37t14 61h218q0 -30 -16.5 -102.5z" />
    <glyph glyph-name="uni0304" unicode="&#x304;" horiz-adv-x="0" 
d="M-908 1494h668v-216h-668v216z" />
    <glyph glyph-name="uni0326" unicode="&#x326;" horiz-adv-x="0" 
d="M-531 -457h-255l61 352h335z" />
    <glyph glyph-name="uni0327" unicode="&#x327;" horiz-adv-x="0" 
d="M-556.5 -264.5q17.5 12.5 17.5 33.5q0 32 -41 44t-129 12h-31l98 185h164l-52 -91q73 -6 122.5 -42.5t49.5 -109.5q0 -86 -63 -135t-183 -49q-87 0 -146 23t-85 40l57 128q0 -1 26.5 -14.5t65.5 -25t83 -11.5q29 0 46.5 12.5z" />
    <glyph glyph-name="uni0328" unicode="&#x328;" horiz-adv-x="0" 
d="M-790 -341q-65 46 -65 136q0 78 59.5 132t175.5 97h114l12 -24q-68 -26 -110.5 -68t-42.5 -84q0 -27 19.5 -42t54.5 -15q45 0 78.5 7t53 15.5t19.5 9.5l35 -164q0 -2 -28 -14t-77 -22t-115 -10q-118 0 -183 46z" />
    <glyph glyph-name="uni00A0" unicode="&#xa0;" horiz-adv-x="614" 
 />
    <glyph glyph-name="uni2003" unicode="&#x2003;" horiz-adv-x="1677" 
 />
    <glyph glyph-name="uni2002" unicode="&#x2002;" horiz-adv-x="1134" 
 />
    <glyph glyph-name="uni2007" unicode="&#x2007;" 
 />
    <glyph glyph-name="uni200A" unicode="&#x200a;" horiz-adv-x="205" 
 />
    <glyph glyph-name="uni2008" unicode="&#x2008;" horiz-adv-x="520" 
 />
    <glyph glyph-name="uni2009" unicode="&#x2009;" horiz-adv-x="410" 
 />
    <glyph glyph-name="uni200C" unicode="&#x200c;" horiz-adv-x="0" 
 />
    </font>
</defs>
</svg>
