<?xml version="1.0" standalone="no"?>
<!DOCTYPE svg PUBLIC "-//W3C//DTD SVG 1.1//EN" "http://www.w3.org/Graphics/SVG/1.1/DTD/svg11.dtd" >
<svg xmlns="http://www.w3.org/2000/svg" width="100%" height="100%">
<metadata>
Created by Ingo Preuss | PreussType at Tue Mar  7 13:04:03 2017
Copyright (c) 2017 by Hubert Jocham. All rights reserved.
</metadata>
<defs>
<font id="Carloschi-SemiBold" horiz-adv-x="1249" >
  <font-face 
    font-family="Carloschi"
    font-weight="600"
    font-stretch="normal"
    units-per-em="2048"
    panose-1="2 11 7 3 4 0 0 2 0 3"
    ascent="1659"
    descent="-389"
    x-height="1112"
    cap-height="1526"
    bbox="-976 -517 2289 2008"
    underline-thickness="50"
    underline-position="-50"
    unicode-range="U+0020-FB02"
  />
<missing-glyph horiz-adv-x="1034" 
d="M848 -389h-656v2068h656v-2068zM347 1540v-68h135v-76h-137v-69h344v69h-137v76h137v68h-342zM345 1274v-215h344v70h-137v145h-207zM482 1129h-68v74h68v-74zM345 1003v-68h137v-77h-137v-68h207v145h137v68h-344zM620 879v-137h-275v-70h344v207h-69zM482 626v-115h70
v47h68v-97h-206v165h-69v-233h344v233h-207zM345 269v-234h344v234h-344zM620 103h-206v97h206v-97zM345 -13v-68h145l-145 -97v-68h344v68h-211l144 97h67v68h-344z" />
    <glyph glyph-name="fi" unicode="fi" horiz-adv-x="1250" 
d="M502.5 1286.5q-26.5 -30.5 -26.5 -90.5v-84h239v-219h-239v-893h-284v893h-150v219h150v116q0 154 91 235t251 81q55 0 104.5 -6t79.5 -12t38 -8l-32 -219q-5 1 -24.5 5.5t-49 8.5t-59.5 4q-62 0 -88.5 -30.5zM880 1288.5q-46 37.5 -46 111.5t45.5 110t115.5 36
q71 0 118 -36t47 -110t-47.5 -111.5t-117.5 -37.5q-69 0 -115 37.5zM855 1112h284v-1112h-284v1112z" />
    <glyph glyph-name="fl" unicode="fl" horiz-adv-x="1250" 
d="M502.5 1286.5q-26.5 -30.5 -26.5 -90.5v-84h239v-219h-239v-893h-284v893h-150v219h150v116q0 154 91 235t251 81q55 0 104.5 -6t79.5 -12t38 -8l-32 -219q-5 1 -24.5 5.5t-49 8.5t-59.5 4q-62 0 -88.5 -30.5zM855 1526h284v-1526h-284v1526z" />
    <glyph glyph-name=".notdef" horiz-adv-x="1034" 
d="M848 -389h-656v2068h656v-2068zM347 1540v-68h135v-76h-137v-69h344v69h-137v76h137v68h-342zM345 1274v-215h344v70h-137v145h-207zM482 1129h-68v74h68v-74zM345 1003v-68h137v-77h-137v-68h207v145h137v68h-344zM620 879v-137h-275v-70h344v207h-69zM482 626v-115h70
v47h68v-97h-206v165h-69v-233h344v233h-207zM345 269v-234h344v234h-344zM620 103h-206v97h206v-97zM345 -13v-68h145l-145 -97v-68h344v68h-211l144 97h67v68h-344z" />
    <glyph glyph-name="space" unicode=" " horiz-adv-x="614" 
 />
    <glyph glyph-name="exclam" unicode="!" horiz-adv-x="528" 
d="M115 1526h298l-13 -1075h-271zM148 22q-46 39 -46 119t45.5 118t114.5 38q72 0 118 -37.5t46 -118.5q0 -80 -46.5 -119t-117.5 -39q-68 0 -114 39z" />
    <glyph glyph-name="quotedbl" unicode="&#x22;" horiz-adv-x="802" 
d="M459 1526h245l-27 -430h-192zM98 1526h245l-27 -430h-192z" />
    <glyph glyph-name="numbersign" unicode="#" horiz-adv-x="1438" 
d="M1095 891l-50 -266h259l-38 -221h-262l-76 -404h-251l76 404h-204l-76 -404h-250l76 404h-247l38 221h251l50 266h-257l38 221h260l78 414h250l-78 -414h205l78 414h249l-78 -414h250l-39 -221h-252zM845 891h-204l-50 -266h204z" />
    <glyph glyph-name="dollar" unicode="$" 
d="M1126 237.5q-45 -92.5 -131.5 -155t-208.5 -86.5v-262h-284v254q-117 13 -210.5 44t-152 62t-58.5 34l82 271q0 -4 72 -42t177.5 -70t224.5 -32q226 0 226 168q0 62 -27.5 100t-80.5 60t-143 39l-81 16q-133 25 -224 69t-147 137.5t-56 251.5q0 178 103.5 293t294.5 145
v248h284v-247q103 -12 183.5 -37t130 -49t49.5 -26l-68 -263q0 4 -60.5 32.5t-157.5 53t-218 24.5q-112 0 -168 -42.5t-56 -121.5q0 -60 25.5 -96t79 -57.5t153.5 -42.5l77 -17q128 -25 217.5 -71t143.5 -137t54 -239q0 -116 -45 -208.5z" />
    <glyph glyph-name="percent" unicode="%" horiz-adv-x="1638" 
d="M209.5 770.5q-72.5 41.5 -106.5 130.5t-34 236t34 235.5t106.5 130t191.5 41.5t190.5 -41t104.5 -130t33 -236t-33 -236t-105 -130.5t-190 -41.5q-119 0 -191.5 41.5zM1118 1524h234l-827 -1524h-240zM467 910.5q23 20.5 33 73.5t10 153q0 102 -10 154.5t-33 72.5t-66 20
q-42 0 -65.5 -21t-34.5 -74.5t-11 -151.5q0 -99 11 -152t35 -74t67 -21q41 0 64 20.5zM1048.5 21.5q-72.5 41.5 -106.5 130.5t-34 236q0 146 34 235t106.5 130.5t191.5 41.5t190.5 -41t104.5 -130t33 -236t-33 -236t-104.5 -130.5t-190.5 -41.5t-191.5 41.5zM1306 161.5
q23 20.5 33 73.5t10 153q0 102 -10 154.5t-33 72t-66 19.5q-42 0 -65.5 -21t-34.5 -74t-11 -151q0 -100 11 -152.5t35 -73.5t67 -21q41 0 64 20.5z" />
    <glyph glyph-name="ampersand" unicode="&#x26;" horiz-adv-x="1638" 
d="M1508 257v-257h-97q-116 0 -205.5 25t-169.5 87q-184 -132 -421 -132q-162 0 -273 55t-166 151t-55 220q0 156 74.5 249t204.5 157q-65 80 -98 157.5t-33 175.5q0 113 54 199t151 133t223 47q122 0 214 -44t142 -124t50 -187q0 -114 -41.5 -193.5t-107.5 -130t-160 -93.5
l250 -262q77 121 124 268.5t61 268.5h270q-22 -160 -86 -357t-181 -359q88 -54 199 -54h77zM561.5 1028q23.5 -50 76.5 -111q98 46 150 101.5t52 142.5q0 56 -39 94.5t-104 38.5q-78 0 -118.5 -44.5t-40.5 -109.5q0 -62 23.5 -112zM441.5 318q26.5 -45 75 -70.5t111.5 -25.5
q125 0 231 71l-306 344q-67 -41 -102.5 -92.5t-35.5 -125.5q0 -56 26.5 -101z" />
    <glyph glyph-name="quotesingle" unicode="'" horiz-adv-x="441" 
d="M98 1526h245l-27 -430h-192z" />
    <glyph glyph-name="asterisk" unicode="*" horiz-adv-x="1060" 
d="M167 788l204 238l-302 71l71 234l292 -123l-23 316h242l-23 -316l292 120l71 -233l-298 -70l202 -238l-198 -146l-166 271l-166 -267z" />
    <glyph glyph-name="plus" unicode="+" 
d="M1110 644h-366v-366h-239v366h-366v239h366v366h239v-366h366v-239z" />
    <glyph glyph-name="comma" unicode="," horiz-adv-x="507" 
d="M261 -209h-227l107 505h301z" />
    <glyph glyph-name="hyphen" unicode="-" horiz-adv-x="799" 
d="M83 771h633v-234h-633v234z" />
    <glyph glyph-name="period" unicode="." horiz-adv-x="506" 
d="M136.5 20.5q-45.5 40.5 -45.5 124.5t45.5 124t114.5 40q72 0 118.5 -40t46.5 -124t-46.5 -124.5t-118.5 -40.5q-69 0 -114.5 40.5z" />
    <glyph glyph-name="slash" unicode="/" horiz-adv-x="860" 
d="M526 1524h309l-496 -1524h-313z" />
    <glyph glyph-name="zero" unicode="0" 
d="M317.5 51q-119.5 71 -180 242.5t-60.5 470.5q0 297 60.5 467.5t180 241.5t309.5 71q189 0 307.5 -71t178 -241.5t59.5 -467.5q0 -299 -59.5 -470.5t-178 -242.5t-307.5 -71q-190 0 -309.5 71zM767 263q50 43 74 160.5t24 340.5q0 225 -23.5 340.5t-74 157.5t-142.5 42
q-88 0 -139 -42.5t-76.5 -159t-25.5 -338.5q0 -224 25 -341t77 -160t144 -43q87 0 137 43z" />
    <glyph glyph-name="one" unicode="1" horiz-adv-x="827" 
d="M702 1526v-1526h-317v1191l-302 -145v267l383 213h236z" />
    <glyph glyph-name="two" unicode="2" 
d="M129 236l540 549q62 65 96.5 110.5t51.5 92.5t17 105q0 105 -58.5 158t-181.5 53q-106 0 -202 -31.5t-163 -68.5t-67 -41l-80 238q0 4 79.5 41.5t201 69.5t266.5 32q250 0 380 -109.5t130 -331.5q0 -91 -26 -165.5t-80.5 -147.5t-149.5 -167l-355 -363h629v-260h-1028
v236z" />
    <glyph glyph-name="three" unicode="3" 
d="M355.5 12q-121.5 32 -198.5 69t-77 42l81 255q0 -4 69.5 -41t169.5 -68.5t211 -31.5q125 0 183 51.5t58 166.5q0 204 -220 204h-200v241h185q92 0 145 49.5t53 146.5q0 107 -51.5 152.5t-166.5 45.5q-104 0 -196 -30t-155.5 -65t-63.5 -39l-78 248q0 4 72 40t186 66
t254 30q251 0 377 -97t126 -320q0 -113 -47 -186.5t-106 -113t-59 -32.5q0 8 69 -24t124.5 -108t55.5 -212q0 -239 -135.5 -355t-394.5 -116q-149 0 -270.5 32z" />
    <glyph glyph-name="four" unicode="4" 
d="M1197 280h-139v-280h-298v280h-694v236l583 1010h409v-1005h139v-241zM760 521v676l-387 -676h387z" />
    <glyph glyph-name="five" unicode="5" 
d="M1050 887.5q120 -117.5 120 -389.5q0 -518 -548 -518q-146 0 -265 32t-195 69.5t-76 41.5l81 237q0 -3 68.5 -40.5t164.5 -68.5t199 -31q138 0 202 69t64 215q0 140 -57.5 200t-178.5 60q-171 0 -235 -151h-249l92 913h866v-247h-629l-36 -350q0 3 34 22.5t92.5 36.5
t136.5 17q229 0 349 -117.5z" />
    <glyph glyph-name="six" unicode="6" 
d="M1067 869.5q104 -118.5 104 -368.5q0 -264 -137 -392.5t-389 -128.5q-182 0 -304 73t-185 235.5t-63 428.5q0 296 68.5 478.5t208.5 266.5t361 84q109 0 189 -20t126 -43.5t46 -26.5l-68 -217q0 2 -36 19.5t-96 32t-138 14.5q-114 0 -186.5 -39t-113.5 -136.5t-52 -271.5
q54 46 141.5 88t201.5 42q218 0 322 -118.5zM811.5 283.5q54.5 63.5 54.5 208.5q0 96 -21.5 151.5t-66.5 79.5t-121 24q-85 0 -151 -37t-107 -78q6 -150 32.5 -240t79 -131t136.5 -41q110 0 164.5 63.5z" />
    <glyph glyph-name="seven" unicode="7" 
d="M816 1279h-704v247h1028v-241l-520 -1285h-320z" />
    <glyph glyph-name="eight" unicode="8" 
d="M351.5 26.5q-122.5 49.5 -195 151t-72.5 250.5q0 121 51 201t115 124t64 36q0 -7 -54 34.5t-97 116t-43 183.5q0 138 68 233t183 141.5t256 46.5q142 0 255.5 -46t180 -140.5t66.5 -233.5q0 -107 -43 -180t-97 -114t-54 -34q0 8 64 -34.5t115.5 -123.5t51.5 -206
q0 -148 -73 -250.5t-195.5 -153.5t-272.5 -51q-151 0 -273.5 49.5zM725.5 930q48.5 23 77.5 68t29 108q0 91 -57 140.5t-150 49.5t-150 -49t-57 -141q0 -64 27 -109t73 -67.5t102 -22.5q57 0 105.5 23zM800 281q67 57 67 164q0 105 -64.5 165t-176.5 60q-115 0 -179.5 -61
t-64.5 -164q0 -107 67.5 -164t175.5 -57t175 57z" />
    <glyph glyph-name="nine" unicode="9" 
d="M913 1473.5q122 -72.5 185.5 -235t63.5 -428.5q0 -296 -68.5 -478t-208.5 -266t-361 -84q-108 0 -188 20t-126 43t-46 26l68 217q0 -2 43.5 -19.5t106 -32t130.5 -14.5q104 0 174 39t112.5 137t54.5 271q-53 -45 -141 -87t-202 -42q-213 0 -320.5 119t-107.5 367
q0 263 139.5 391.5t386.5 128.5q183 0 305 -72.5zM408.5 884.5q21.5 -55.5 68 -80t123.5 -24.5q85 0 150 37t106 78q-6 150 -32.5 239.5t-78.5 130.5t-136 41q-113 0 -167.5 -63t-54.5 -207q0 -96 21.5 -151.5z" />
    <glyph glyph-name="colon" unicode=":" horiz-adv-x="506" 
d="M136.5 843.5q-45.5 40.5 -45.5 124.5t45.5 124t114.5 40q72 0 118.5 -40t46.5 -124t-46.5 -124.5t-118.5 -40.5q-69 0 -114.5 40.5zM136.5 20.5q-45.5 40.5 -45.5 124.5t45.5 124t114.5 40q72 0 118.5 -40t46.5 -124t-46.5 -124.5t-118.5 -40.5q-69 0 -114.5 40.5z" />
    <glyph glyph-name="semicolon" unicode=";" horiz-adv-x="508" 
d="M160.5 841.5q-45.5 40.5 -45.5 124.5t45.5 124t114.5 40q72 0 118.5 -40t46.5 -124t-46.5 -124.5t-118.5 -40.5q-69 0 -114.5 40.5zM254 -209h-227l107 505h301z" />
    <glyph glyph-name="less" unicode="&#x3c;" 
d="M1108 983l-652 -221l652 -218v-262l-968 359v248l968 360v-266z" />
    <glyph glyph-name="equal" unicode="=" 
d="M140 1066h970v-239h-970v239zM140 683h970v-239h-970v239z" />
    <glyph glyph-name="greater" unicode="&#x3e;" 
d="M1107 889v-248l-968 -359v262l652 218l-652 221v266z" />
    <glyph glyph-name="question" unicode="?" horiz-adv-x="865" 
d="M225 595q0 86 24 146t58.5 97.5t90.5 85.5q47 40 74 68.5t45.5 69.5t18.5 96q0 72 -43 110t-117 38q-72 0 -137.5 -15.5t-111.5 -34t-46 -20.5l-53 227q0 2 55 24t135.5 40.5t172.5 18.5q206 0 317 -94.5t111 -284.5q0 -85 -24.5 -147t-59.5 -102t-92 -92
q-45 -40 -72 -69t-44.5 -68t-17.5 -89v-142h-284v137zM253.5 19q-45.5 39 -45.5 118q0 80 45.5 118t114.5 38q72 0 118.5 -37.5t46.5 -118.5q0 -79 -47 -118t-118 -39q-69 0 -114.5 39z" />
    <glyph glyph-name="at" unicode="@" horiz-adv-x="1931" 
d="M1326 1019v-541q0 -87 74 -87q39 0 69.5 34.5t48 103t17.5 166.5q0 154 -70.5 272t-194.5 182t-279 64q-181 0 -313 -72.5t-202 -204.5t-70 -307q0 -183 70.5 -314t208 -201t333.5 -70q117 0 225.5 26.5t185.5 58.5t77 35l60 -191q0 -4 -83.5 -38t-205 -63t-259.5 -29
q-259 0 -446.5 95t-286.5 272t-99 419q0 229 103 406.5t286.5 276.5t416.5 99q220 0 391 -90t266 -249.5t95 -360.5q0 -151 -50.5 -263.5t-136.5 -172.5t-191 -60q-75 0 -129 26t-85 70q-50 -38 -121.5 -71.5t-156.5 -33.5q-162 0 -241.5 98.5t-79.5 315.5t79.5 315.5
t241.5 98.5q77 0 144.5 -28.5t117.5 -65.5l14 79h176zM1111 440v4v356q-86 59 -164 59q-60 0 -96.5 -21t-54.5 -72.5t-18 -145.5t18 -146t54.5 -73t96.5 -21q78 0 164 60z" />
    <glyph glyph-name="A" unicode="A" horiz-adv-x="1488" 
d="M1024 277h-571l-82 -277h-329l507 1526h401l496 -1526h-341zM949 534l-207 711l-212 -711h419z" />
    <glyph glyph-name="B" unicode="B" horiz-adv-x="1341" 
d="M115 1526h661q202 0 314.5 -94t112.5 -298q0 -110 -41 -184t-92 -115t-51 -34q0 8 64 -31t115.5 -119.5t51.5 -211.5q0 -145 -56.5 -244t-154.5 -147t-223 -48h-701v1526zM445 907h256q174 0 174 187q0 89 -40.5 130t-130.5 41h-259v-358zM919 452q0 201 -184 201h-290
v-393h300q174 0 174 192z" />
    <glyph glyph-name="C" unicode="C" horiz-adv-x="1216" 
d="M386.5 56.5q-146.5 76.5 -219.5 248t-73 457.5t73 457.5t219.5 248t376.5 76.5q119 0 205 -20t134.5 -42.5t48.5 -26.5l-69 -244q0 2 -36.5 17.5t-98 29t-141.5 13.5q-134 0 -213.5 -42.5t-119 -153t-39.5 -313.5q0 -204 39.5 -314t119 -152.5t213.5 -42.5
q80 0 141.5 13.5t98 29t36.5 17.5l69 -245q0 -3 -48.5 -26t-134.5 -42.5t-205 -19.5q-230 0 -376.5 76.5z" />
    <glyph glyph-name="D" unicode="D" horiz-adv-x="1378" 
d="M115 1526h517q227 0 369 -72t212.5 -239t70.5 -452q0 -286 -71 -453t-212.5 -238.5t-368.5 -71.5h-517v1526zM635 260q113 0 178.5 41.5t98 150.5t32.5 311q0 204 -31.5 311.5t-98 149t-183.5 41.5h-186v-1005h190z" />
    <glyph glyph-name="E" unicode="E" horiz-adv-x="1202" 
d="M1102 260v-260h-987v1526h982v-261h-652v-354h565v-261h-565v-390h657z" />
    <glyph glyph-name="F" unicode="F" horiz-adv-x="1164" 
d="M445 1265v-382h565v-260h-565v-623h-330v1526h966v-261h-636z" />
    <glyph glyph-name="G" unicode="G" horiz-adv-x="1396" 
d="M1285 105q0 -4 -70.5 -36.5t-187.5 -60.5t-267 -28q-230 0 -376 76t-218 247.5t-72 458.5q0 285 76 456.5t230 248.5t398 77q143 0 244 -22t156.5 -48t55.5 -30l-68 -254q0 3 -44 21t-121 33.5t-183 15.5q-148 0 -234 -41t-128 -148.5t-42 -308.5t38.5 -311.5t118 -154.5
t212.5 -44q42 0 78.5 5t58 10.5t27.5 7.5v358h-210v261h528v-789z" />
    <glyph glyph-name="H" unicode="H" horiz-adv-x="1400" 
d="M1285 1526v-1526h-331v650h-508v-650h-331v1526h331v-615h508v615h331z" />
    <glyph glyph-name="I" unicode="I" horiz-adv-x="560" 
d="M115 1526h330v-1526h-330v1526z" />
    <glyph glyph-name="J" unicode="J" horiz-adv-x="885" 
d="M177.5 -10.5q-48.5 9.5 -80 21t-31.5 12.5l17 256q0 -1 24.5 -11t62 -18.5t81.5 -8.5q94 0 141.5 52t47.5 150v1083h330v-1086q0 -460 -484 -460q-60 0 -108.5 9.5z" />
    <glyph glyph-name="K" unicode="K" horiz-adv-x="1417" 
d="M718 727l-273 -357v-370h-330v1526h330v-754l508 754h375l-387 -507l410 -1019h-349z" />
    <glyph glyph-name="L" unicode="L" horiz-adv-x="1157" 
d="M1078 260v-260h-963v1526h330v-1266h633z" />
    <glyph glyph-name="M" unicode="M" horiz-adv-x="1654" 
d="M115 1526h422l292 -1057l299 1057h412v-1526h-291v1010l-298 -1010h-258l-288 1005v-1005h-290v1526z" />
    <glyph glyph-name="N" unicode="N" horiz-adv-x="1400" 
d="M1285 1526v-1526h-340l-532 997v-997h-298v1526h360l512 -989v989h298z" />
    <glyph glyph-name="O" unicode="O" horiz-adv-x="1497" 
d="M380 56q-144 76 -215 248t-71 459q0 286 70.5 458t214 248.5t370.5 76.5q224 0 367 -76.5t215 -249t72 -457.5q0 -286 -71.5 -458t-214 -248.5t-365.5 -76.5q-228 0 -372 76zM931.5 296q66.5 43 99 153.5t32.5 313.5t-32.5 313t-99.5 153t-182 43t-182 -43t-100 -153
t-33 -313t32.5 -313.5t100.5 -153.5t185 -43q113 0 179.5 43z" />
    <glyph glyph-name="P" unicode="P" horiz-adv-x="1303" 
d="M1011 1472q98 -52 151.5 -154.5t53.5 -250.5q0 -146 -56 -252.5t-156 -163t-230 -56.5h-329v-595h-330v1524h663q135 0 233 -52zM856 905q50 56 50 159q0 207 -188 207h-273v-422h266q95 0 145 56z" />
    <glyph glyph-name="Q" unicode="Q" horiz-adv-x="1496" 
d="M1323.5 299.5q-79.5 -173.5 -244.5 -243.5l255 -363h-350l-197 307h-34q-227 0 -371 75.5t-216 245.5t-72 452q0 281 71.5 450.5t215 245t369.5 75.5q225 0 368 -75.5t214 -244.5t71 -451q0 -300 -79.5 -473.5zM467 465.5q33 -107.5 101 -149.5t186 -42q113 0 179 42
t97.5 149.5t31.5 307.5t-31.5 307t-98.5 149t-185 42q-113 0 -180 -42.5t-100 -150t-33 -305.5q0 -200 33 -307.5z" />
    <glyph glyph-name="R" unicode="R" horiz-adv-x="1313" 
d="M1158 791q-74 -109 -207 -147l270 -644h-332l-231 600h-213v-600h-330v1526h683q209 0 321.5 -116.5t112.5 -338.5q0 -171 -74 -280zM445 847h281q95 0 145 55.5t50 154.5q0 208 -187 208h-289v-418z" />
    <glyph glyph-name="S" unicode="S" horiz-adv-x="1259" 
d="M359.5 13.5q-121.5 32.5 -198 71t-76.5 43.5l82 271q0 -4 72 -42t177.5 -70t224.5 -32q226 0 226 168q0 62 -27.5 100t-80.5 60t-143 39l-81 16q-133 25 -224 69t-147 137.5t-56 251.5q0 137 62 238t181.5 155.5t286.5 54.5q144 0 258.5 -27t185.5 -58.5t71 -35.5
l-68 -263q0 4 -60.5 32.5t-157.5 53t-218 24.5q-112 0 -168 -42.5t-56 -121.5q0 -60 25.5 -96t79 -57.5t153.5 -42.5l77 -17q128 -25 217.5 -71t143.5 -137t54 -239q0 -138 -64 -243.5t-186.5 -163.5t-292.5 -58q-151 0 -272.5 32.5z" />
    <glyph glyph-name="T" unicode="T" horiz-adv-x="1211" 
d="M1152 1265h-384v-1265h-330v1265h-379v261h1093v-261z" />
    <glyph glyph-name="U" unicode="U" horiz-adv-x="1400" 
d="M389.5 49.5q-132.5 69.5 -203.5 202t-71 315.5v959h330v-973q0 -149 65 -224.5t193 -75.5q122 0 187 76.5t65 223.5v973h330v-959q0 -183 -71 -315t-202 -202t-309 -70q-181 0 -313.5 69.5z" />
    <glyph glyph-name="V" unicode="V" horiz-adv-x="1408" 
d="M1366 1526l-478 -1526h-375l-471 1526h347l318 -1163l327 1163h332z" />
    <glyph glyph-name="W" unicode="W" horiz-adv-x="2042" 
d="M1976 1526l-288 -1526h-410l-257 1156l-265 -1156h-427l-263 1526h342l171 -1174l276 1174h344l271 -1171l176 1171h330z" />
    <glyph glyph-name="X" unicode="X" horiz-adv-x="1430" 
d="M1007 0l-290 589l-296 -589h-362l446 779l-425 747h367l279 -545l270 545h355l-421 -747l441 -779h-364z" />
    <glyph glyph-name="Y" unicode="Y" horiz-adv-x="1392" 
d="M1337 1526l-478 -864v-662h-318v657l-485 869h364l282 -592l281 592h354z" />
    <glyph glyph-name="Z" unicode="Z" horiz-adv-x="1344" 
d="M101 251l744 1014h-732v261h1101v-251l-729 -1015h759v-260h-1143v251z" />
    <glyph glyph-name="a" unicode="a" horiz-adv-x="1110" 
d="M901.5 1040.5q113.5 -91.5 113.5 -293.5v-746h-239l-17 110q-50 -44 -136.5 -87.5t-201.5 -43.5q-106 0 -184 40.5t-119 116.5t-41 179q0 118 61 198t167.5 118.5t242.5 38.5h183v61q0 91 -48 132t-154 41q-82 0 -160 -20t-135 -43.5t-57 -25.5l-60 209q0 3 68.5 31
t170 52t217.5 24q215 0 328.5 -91.5zM387 232.5q38 -36.5 105 -36.5q69 0 131 31t108 71v185h-156q-120 0 -173 -43t-53 -106q0 -65 38 -101.5z" />
    <glyph glyph-name="b" unicode="b" horiz-adv-x="1172" 
d="M910 1071q89 -59 134 -185.5t45 -330.5t-45 -331t-133.5 -185.5t-224.5 -58.5q-109 0 -193 45.5t-129 88.5l-20 -113h-233v1525h284v-504q54 43 128.5 75.5t162.5 32.5q135 0 224 -59zM714 236q45 29 67 104.5t22 214.5t-22 214t-67 104t-121 29q-59 0 -109.5 -25.5
t-88.5 -60.5v-523q38 -35 88.5 -60.5t109.5 -25.5q76 0 121 29z" />
    <glyph glyph-name="c" unicode="c" horiz-adv-x="964" 
d="M300.5 38.5q-109.5 58.5 -163.5 185t-54 331.5t54 331.5t163.5 185t281.5 58.5q92 0 160.5 -18.5t108 -40t39.5 -24.5l-59 -202q0 2 -29 17t-76 27.5t-106 12.5q-87 0 -141.5 -31t-82 -107t-27.5 -209q0 -134 27.5 -210t82 -107t141.5 -31q59 0 106 12.5t76 27.5t29 17
l59 -202q0 -3 -39.5 -24.5t-108 -39.5t-160.5 -18q-172 0 -281.5 58.5z" />
    <glyph glyph-name="d" unicode="d" horiz-adv-x="1172" 
d="M1061 1526v-1527h-233l-20 114q-45 -43 -128.5 -88t-193.5 -45q-136 0 -224.5 58.5t-133.5 185.5t-45 331t45 330.5t134 185.5t224 59q89 0 163 -32.5t128 -74.5v503h284zM689 232.5q50 25.5 88 60.5v522q-38 36 -88 61.5t-107 25.5q-77 0 -122.5 -29t-68 -104.5
t-22.5 -213.5q0 -139 22.5 -214.5t68 -104.5t122.5 -29q57 0 107 25.5z" />
    <glyph glyph-name="e" unicode="e" horiz-adv-x="1130" 
d="M1047 461h-673q11 -98 45 -153.5t90 -78t139 -22.5q78 0 147.5 19.5t117 42.5t47.5 25l70 -199q0 -4 -57.5 -34t-148 -55.5t-201.5 -25.5q-263 0 -401.5 133.5t-138.5 442.5q0 210 57.5 336t167 181t275.5 55q158 0 259 -50.5t153 -172t52 -332.5v-112zM766 644
q-1 140 -46 198.5t-142 58.5q-64 0 -106 -22.5t-67.5 -79t-32.5 -155.5h394z" />
    <glyph glyph-name="f" unicode="f" horiz-adv-x="744" 
d="M502.5 1286.5q-26.5 -30.5 -26.5 -90.5v-84h239v-219h-239v-893h-284v893h-150v219h150v116q0 154 91 235t251 81q55 0 104.5 -6t79.5 -12t38 -8l-32 -219q-5 1 -24.5 5.5t-49 8.5t-59.5 4q-62 0 -88.5 -30.5z" />
    <glyph glyph-name="g" unicode="g" horiz-adv-x="1246" 
d="M1180 934h-190q0 3 19.5 -19.5t35 -60.5t15.5 -92q0 -168 -117 -250t-363 -82q-57 0 -117 5q-31 -46 -31 -92q0 -35 19.5 -52t59.5 -21l277 -16q191 -11 280.5 -83.5t89.5 -218.5q0 -176 -138.5 -268t-401.5 -92q-260 0 -385 79.5t-125 245.5q0 94 45 156.5t95 94.5
q-56 56 -56 138q0 60 31.5 101.5t66.5 65.5q-99 39 -144 112t-45 178q0 171 111 260t369 89h599v-178zM699 630q44 14 64 45t20 84q0 84 -46.5 119.5t-156.5 35.5q-77 0 -121 -15.5t-62.5 -48.5t-18.5 -90q0 -55 19 -86t62.5 -44.5t120.5 -13.5q75 0 119 14zM441 91
q-5 0 -8 1q-48 -72 -48 -145q0 -55 22.5 -88.5t73 -49.5t137.5 -16q137 0 199.5 36t62.5 116q0 58 -38 86t-109 35z" />
    <glyph glyph-name="h" unicode="h" horiz-adv-x="1137" 
d="M860 1092q77 -40 121 -122.5t44 -205.5v-764h-283v735q0 80 -38.5 121.5t-116.5 41.5q-96 0 -192 -84v-814h-284v1526h284v-498q54 41 128 72.5t160 31.5q100 0 177 -40z" />
    <glyph glyph-name="i" unicode="i" horiz-adv-x="506" 
d="M136 1288.5q-46 37.5 -46 111.5t45.5 110t115.5 36q71 0 118 -36t47 -110t-47.5 -111.5t-117.5 -37.5q-69 0 -115 37.5zM111 1112h284v-1112h-284v1112z" />
    <glyph glyph-name="j" unicode="j" horiz-adv-x="506" 
d="M136 1288.5q-46 37.5 -46 111.5t45.5 110t115.5 36q71 0 118 -36t47 -110t-47.5 -111.5t-117.5 -37.5q-69 0 -115 37.5zM17.5 -402q-38.5 6 -62.5 12.5t-30 8.5l30 217q0 -1 27.5 -8t50.5 -7q40 0 59 26.5t19 72.5v1192h284v-1220q0 -147 -78 -223.5t-217 -76.5
q-44 0 -82.5 6z" />
    <glyph glyph-name="k" unicode="k" horiz-adv-x="1138" 
d="M562 506l-167 -204v-302h-284v1526h284v-875l346 458h315l-290 -354l319 -755h-304z" />
    <glyph glyph-name="l" unicode="l" horiz-adv-x="506" 
d="M111 1526h284v-1526h-284v1526z" />
    <glyph glyph-name="m" unicode="m" horiz-adv-x="1676" 
d="M1422.5 1090.5q71.5 -41.5 112 -123t40.5 -197.5v-770h-284v746q0 77 -30.5 114.5t-99.5 37.5q-50 0 -94.5 -21t-79.5 -53q1 -13 1 -39v-785h-284v746q0 77 -30.5 114.5t-98.5 37.5q-95 0 -181 -81l1 -3v-814h-284v1112h233l19 -112q45 44 124.5 88t183.5 44
q90 0 159.5 -35t109.5 -104q45 47 126 93t191 46q94 0 165.5 -41.5z" />
    <glyph glyph-name="n" unicode="n" horiz-adv-x="1133" 
d="M859.5 1092q77.5 -40 121.5 -123t44 -206v-763h-283v735q0 80 -38.5 121.5t-116.5 41.5q-54 0 -104 -24.5t-89 -57.5v-816h-283v1112h232l19 -111q51 44 133.5 87.5t186.5 43.5q100 0 177.5 -40z" />
    <glyph glyph-name="o" unicode="o" horiz-adv-x="1169" 
d="M307 36q-110 55 -167 181.5t-57 338.5q0 211 57 336.5t167 180.5t279 55q168 0 277.5 -55t166 -180.5t56.5 -336.5q0 -212 -56.5 -338.5t-166 -181.5t-277.5 -55q-169 0 -279 55zM709.5 238.5q45.5 30.5 68 106.5t22.5 211q0 136 -22 211t-68 104.5t-124 29.5
q-75 0 -122 -30t-71 -105.5t-24 -209.5q0 -136 23.5 -211.5t71 -106t126.5 -30.5q74 0 119.5 30.5z" />
    <glyph glyph-name="p" unicode="p" horiz-adv-x="1173" 
d="M912 1073.5q89 -58.5 133.5 -186t44.5 -333.5q0 -203 -44.5 -330t-133.5 -185.5t-225 -58.5q-89 0 -163 32.5t-129 74.5v-476h-284v1501h233l20 -114q48 45 130.5 89.5t192.5 44.5q136 0 225 -58.5zM715 237q45 29 67.5 104t22.5 213q0 141 -22.5 217t-67.5 105t-121 29
q-58 0 -108.5 -25.5t-90.5 -61.5v-524q39 -35 90 -60.5t109 -25.5q76 0 121 29z" />
    <glyph glyph-name="q" unicode="q" horiz-adv-x="1173" 
d="M1062 1112v-1501h-284v474q-53 -41 -128 -73t-164 -32q-136 0 -224.5 58.5t-133.5 185t-45 330.5t45 330.5t134 185.5t224 59q109 0 194 -45t129 -87l20 115h233zM778 293v524q-39 35 -88.5 60t-106.5 25q-76 0 -122 -29.5t-69 -105t-23 -213.5t23 -213t69 -104t122 -29
q98 0 195 85z" />
    <glyph glyph-name="r" unicode="r" horiz-adv-x="836" 
d="M740 1128.5q26 -3.5 34 -5.5v-255q-10 2 -42 6t-53 4q-88 0 -160.5 -48t-123.5 -109v-721h-284v1112h232l28 -171q49 64 131.5 127.5t184.5 63.5q27 0 53 -3.5z" />
    <glyph glyph-name="s" unicode="s" horiz-adv-x="993" 
d="M276 6q-90 24 -143 52t-53 32l68 223q0 -3 50.5 -30.5t125.5 -50.5t162 -23q157 0 157 112q0 62 -43 89.5t-134 42.5l-59 10q-95 15 -162.5 47t-108.5 98t-41 176q0 108 50.5 186.5t145.5 120t227 41.5q113 0 197.5 -21t134 -45.5t49.5 -27.5l-63 -220q0 3 -43.5 25.5
t-114 42t-159.5 19.5q-152 0 -152 -108q0 -39 21 -63t60.5 -39t109.5 -29l55 -10q92 -19 157.5 -53.5t105 -100t39.5 -168.5q0 -106 -52 -185.5t-149 -123t-228 -43.5q-120 0 -210 24z" />
    <glyph glyph-name="t" unicode="t" horiz-adv-x="823" 
d="M762 10q-8 -2 -38.5 -8.5t-80.5 -12.5t-105 -6q-162 0 -255.5 80t-93.5 234v596h-144v219h144v225l284 31v-256h263v-219h-263v-562q0 -59 29 -89.5t93 -30.5q30 0 59.5 4t49.5 8l25 5z" />
    <glyph glyph-name="u" unicode="u" horiz-adv-x="1136" 
d="M230.5 88q-122.5 108 -122.5 327v697h283v-712q0 -96 44.5 -144.5t131.5 -48.5q88 0 133 48.5t45 144.5v712h283v-697q0 -220 -122.5 -327.5t-338.5 -107.5q-214 0 -336.5 108z" />
    <glyph glyph-name="v" unicode="v" horiz-adv-x="1075" 
d="M1038 1112l-338 -1112h-326l-337 1112h295l210 -815l211 815h285z" />
    <glyph glyph-name="w" unicode="w" horiz-adv-x="1607" 
d="M1566 1112l-224 -1112h-336l-203 802l-210 -802h-349l-203 1112h285l124 -813l219 813h281l215 -817l126 817h275z" />
    <glyph glyph-name="x" unicode="x" horiz-adv-x="1129" 
d="M767 0l-202 393l-204 -393h-314l343 566l-331 546h321l192 -360l184 360h312l-328 -545l345 -567h-318z" />
    <glyph glyph-name="y" unicode="y" horiz-adv-x="1057" 
d="M1020 1112l-363 -1229q-41 -143 -133.5 -207.5t-262.5 -64.5h-70v227h46q51 0 83 21.5t50 69.5l34 94l-366 1089h299l217 -773l185 773h281z" />
    <glyph glyph-name="z" unicode="z" horiz-adv-x="1073" 
d="M990 219v-219h-896v213l528 680h-522v219h868v-210l-524 -683h546z" />
    <glyph glyph-name="braceleft" unicode="{" horiz-adv-x="684" 
d="M270 -118.5q-66 33.5 -103 95.5t-37 145q0 53 15.5 100.5t46.5 118.5q24 52 35.5 86t11.5 65q0 47 -37 71t-102 26v194q64 2 101.5 27.5t37.5 69.5q0 31 -11.5 65t-35.5 86q-31 70 -46.5 118t-15.5 102q0 82 37 144t103 95.5t152 33.5h190v-260h-77q-60 0 -93.5 -34.5
t-33.5 -100.5q0 -36 11 -71.5t32 -84.5q22 -53 32.5 -87.5t10.5 -70.5q0 -41 -18 -70t-40 -46t-22 -14t22 -13.5t40 -45t18 -69.5q0 -36 -10.5 -69t-32.5 -89q-21 -49 -32 -84t-11 -71q0 -67 33.5 -101.5t93.5 -34.5h77v-260h-190q-86 0 -152 33.5z" />
    <glyph glyph-name="braceright" unicode="}" horiz-adv-x="684" 
d="M72 -152v260h77q60 0 93.5 34.5t33.5 101.5q0 36 -11 71t-32 84q-22 56 -32.5 89t-10.5 69q0 41 18 69.5t40 45t22 13.5t-22 14t-40 46t-18 70q0 36 10.5 70.5t32.5 87.5q21 49 32 84.5t11 71.5q0 66 -33.5 100.5t-93.5 34.5h-77v260h190q86 0 152 -33.5t103 -95.5
t37 -144q0 -54 -15.5 -102t-46.5 -118q-24 -52 -35.5 -86t-11.5 -65q0 -44 37.5 -69.5t101.5 -27.5v-194q-65 -2 -102 -26t-37 -71q0 -31 11.5 -65t35.5 -86q31 -71 46.5 -118.5t15.5 -100.5q0 -83 -37 -145t-103 -95.5t-152 -33.5h-190z" />
    <glyph glyph-name="bracketleft" unicode="[" horiz-adv-x="684" 
d="M105 1524h507v-261h-205v-1154h205v-261h-507v1676z" />
    <glyph glyph-name="bracketright" unicode="]" horiz-adv-x="684" 
d="M579 -152h-507v261h205v1154h-205v261h507v-1676z" />
    <glyph glyph-name="parenleft" unicode="(" horiz-adv-x="684" 
d="M97 686q0 600 346 858l209 -54q-75 -77 -127 -176t-82.5 -252.5t-30.5 -375.5q0 -217 34 -371t85 -251t121 -182l-209 -54q-346 258 -346 858z" />
    <glyph glyph-name="parenright" unicode=")" horiz-adv-x="684" 
d="M32 -118q70 85 121 182t85 251t34 371q0 222 -30.5 375.5t-82.5 252.5t-127 176l209 54q346 -258 346 -858t-346 -858z" />
    <glyph glyph-name="bar" unicode="|" horiz-adv-x="540" 
d="M124 1940h291v-2457h-291v2457z" />
    <glyph glyph-name="brokenbar" unicode="&#xa6;" horiz-adv-x="540" 
d="M124 1966h291v-1050h-291v1050zM124 559h291v-1051h-291v1051z" />
    <glyph glyph-name="asciitilde" unicode="~" 
d="M1093.5 807q-21.5 -84 -87.5 -163t-188 -79q-60 0 -104 18t-98 51q-45 27 -73 39t-62 12q-44 0 -67 -26t-29.5 -53.5t-6.5 -38.5h-243q0 30 21.5 113.5t87.5 162.5t190 79q60 0 104 -17.5t98 -49.5q44 -26 72.5 -38t61.5 -12q43 0 65.5 26t30 53t7.5 37h242
q0 -30 -21.5 -114z" />
    <glyph glyph-name="exclamdown" unicode="&#xa1;" horiz-adv-x="528" 
d="M379.5 1115q46.5 -39 46.5 -119q0 -81 -46 -118.5t-118 -37.5q-69 0 -114.5 38t-45.5 118t46 119t114 39q71 0 117.5 -39zM400 686l13 -1075h-298l14 1075h271z" />
    <glyph glyph-name="florin" unicode="&#x192;" 
d="M769.5 1288.5q-27.5 -30.5 -27.5 -90.5v-86h240v-219h-240v-1003q0 -147 -78.5 -223.5t-217.5 -76.5q-44 0 -82.5 6t-62.5 12.5t-30 8.5l28 216q0 -1 27.5 -8t50.5 -7q42 0 61.5 26.5t19.5 72.5v976h-151v219h151v118q0 154 91 235t251 81q55 0 105 -6t80.5 -12t38.5 -8
l-33 -219q-5 1 -25 5.5t-49.5 8.5t-59.5 4q-60 0 -87.5 -30.5z" />
    <glyph glyph-name="Euro" unicode="&#x20ac;" 
d="M991 259.5q48 13.5 77.5 29t29.5 17.5l60 -242q0 -3 -40 -25t-110 -40.5t-165 -18.5q-168 0 -287 50.5t-194.5 168.5t-102.5 318h-199v179h185q-1 21 -1 65q0 41 1 61h-185v179h198q26 202 102 322t195.5 171.5t287.5 51.5q95 0 165 -19t110 -41t40 -25l-60 -242
q0 2 -31.5 17.5t-79.5 29t-104 13.5q-83 0 -139.5 -23.5t-94.5 -84t-56 -170.5h405v-179h-420q-1 -20 -1 -61q0 -44 1 -65h420v-179h-405q17 -107 54 -166t94 -82t142 -23q60 0 108 13.5z" />
    <glyph glyph-name="cent" unicode="&#xa2;" 
d="M1006 62q0 -2 -26.5 -17.5t-72 -32t-106.5 -25.5v-253h-270v263q-170 38 -251 172.5t-81 385.5q0 250 81 384.5t251 173.5v265h270v-255q61 -9 106.5 -26t72 -32.5t26.5 -17.5l-59 -202q0 2 -29 17t-76 27.5t-106 12.5q-87 0 -141.5 -31t-82 -107t-27.5 -209
q0 -134 27.5 -210t82 -107t141.5 -31q59 0 106 12.5t76 27.5t29 17z" />
    <glyph glyph-name="sterling" unicode="&#xa3;" 
d="M1195 122q0 -4 -66.5 -36t-179 -59t-260.5 -27h-618v245q186 2 257.5 58t71.5 149q0 57 -22 115h-270v191h164q-64 100 -98.5 182t-34.5 181q0 129 65 226t181 149t265 52q117 0 226.5 -28t187.5 -61t78 -36l-69 -256q0 3 -60.5 32t-146 53t-177.5 24q-119 0 -181 -46.5
t-62 -138.5q0 -64 27 -122t83 -143l43 -68h346v-191h-266q8 -42 8 -82q0 -87 -28 -139t-66 -87h128q110 0 199 27.5t145.5 60t56.5 36.5z" />
    <glyph glyph-name="yen" unicode="&#xa5;" 
d="M862 831h278v-179h-356v-118h356v-180h-356v-354h-311v354h-365v180h365v118h-365v179h286l-338 695h351l224 -629l222 629h341z" />
    <glyph glyph-name="section" unicode="&#xa7;" 
d="M798.5 100q-36.5 35 -91 53.5t-154.5 42.5q-143 34 -233.5 71t-156 121t-65.5 230q0 76 27 138.5t61 105t34 37.5q0 -4 -27 29t-49 85.5t-22 121.5q0 120 60.5 211.5t174.5 141.5t271 50q135 0 249 -25.5t189 -55.5t75 -33l-80 -260q0 3 -68.5 31t-162.5 51.5t-194 23.5
q-104 0 -159.5 -38t-55.5 -111q0 -60 37.5 -96t93.5 -55t156 -43q143 -34 232.5 -70.5t154 -120t64.5 -228.5q0 -73 -28.5 -134t-64.5 -103t-36 -37q0 4 29 -26.5t52 -81t23 -121.5q0 -124 -61 -214.5t-178 -139t-280 -48.5q-136 0 -256 29.5t-202 64.5t-82 39l94 262
q0 -3 77 -39t176 -66t193 -30q220 0 220 145q0 57 -36.5 92zM829.5 387q18.5 22 33.5 54t15 72q0 63 -35.5 100t-87.5 55.5t-140 37.5q-58 12 -99 23.5t-75 27.5q0 3 -16 -17t-29 -51.5t-13 -74.5q0 -67 37 -106.5t90.5 -58.5t144.5 -39q56 -12 90.5 -21t65.5 -22
q0 -2 18.5 20z" />
    <glyph glyph-name="copyright" unicode="&#xa9;" horiz-adv-x="1931" 
d="M1659 346.5q-108 -184.5 -292 -291.5t-401 -107q-218 0 -402.5 107t-292 291t-107.5 406q0 223 107.5 406t291.5 287.5t403 104.5q218 0 401.5 -103.5t291.5 -286t108 -408.5q0 -221 -108 -405.5zM1478.5 1066q-76.5 138 -211 214.5t-301.5 76.5q-169 0 -303.5 -77.5
t-211 -215.5t-76.5 -312q0 -172 76.5 -311t211.5 -218t303 -79q166 0 300.5 79.5t211.5 218t77 310.5q0 176 -76.5 314zM642 990q53 94 140 137t193 43q144 0 221.5 -63.5t102.5 -131t25 -91.5l-197 -42q0 11 -12 47t-45 69.5t-93 33.5q-73 0 -121.5 -54.5t-48.5 -186.5
q0 -131 47.5 -185t121.5 -54q59 0 92.5 30t46 62t12.5 42l197 -46q0 -21 -27.5 -85.5t-106.5 -124.5t-221 -60q-105 0 -190.5 44t-137.5 138t-52 239t53 239z" />
    <glyph glyph-name="registered" unicode="&#xae;" horiz-adv-x="1931" 
d="M1659 346.5q-108 -184.5 -292 -291.5t-401 -107q-218 0 -402.5 107t-292 291t-107.5 406q0 223 107.5 406t291.5 287.5t403 104.5q218 0 401.5 -103.5t291.5 -286t108 -408.5q0 -221 -108 -405.5zM1478.5 1066q-76.5 138 -211 214.5t-301.5 76.5q-169 0 -303.5 -77.5
t-211 -215.5t-76.5 -312q0 -172 76.5 -311t211.5 -218t303 -79q166 0 300.5 79.5t211.5 218t77 310.5q0 176 -76.5 314zM1285.5 769q-37.5 -61 -102.5 -93l148 -317h-209l-122 280h-152v-280h-194v802h399q75 0 136.5 -28t97.5 -84t36 -137q0 -82 -37.5 -143zM849 800h176
q47 0 78 28t31 77q0 48 -28.5 72.5t-74.5 24.5h-182v-202z" />
    <glyph glyph-name="backslash" unicode="\" horiz-adv-x="860" 
d="M26 1524h308l501 -1524h-314z" />
    <glyph glyph-name="underscore" unicode="_" horiz-adv-x="1024" 
d="M-4 -144h1032v-219h-1032v219z" />
    <glyph glyph-name="logicalnot" unicode="&#xac;" 
d="M872 644h-733v239h971v-605h-238v366z" />
    <glyph glyph-name="degree" unicode="&#xb0;" horiz-adv-x="997" 
d="M287 733q-95 45 -152 142.5t-57 248.5t57 248.5t152 142t212 44.5q116 0 210.5 -44.5t151.5 -142t57 -248.5t-57 -248.5t-151.5 -142.5t-210.5 -45q-117 0 -212 45zM499 1346q-84 0 -133 -53t-49 -169q0 -117 49 -171.5t135 -54.5q83 0 130.5 54.5t47.5 171.5
q0 222 -180 222z" />
    <glyph glyph-name="paragraph" unicode="&#xb6;" horiz-adv-x="1316" 
d="M295.5 542.5q-102.5 57.5 -163 171t-60.5 284.5q0 184 68.5 302t182 171t253.5 53h633v-1908h-235v1681h-210v-1681h-236v859q-130 10 -232.5 67.5z" />
    <glyph glyph-name="periodcentered" unicode="&#xb7;" horiz-adv-x="830" 
d="M296.5 505.5q-45.5 40.5 -45.5 124.5t45.5 124t114.5 40q72 0 118.5 -40t46.5 -124t-46.5 -124.5t-118.5 -40.5q-69 0 -114.5 40.5z" />
    <glyph glyph-name="uni00B9" unicode="&#xb9;" horiz-adv-x="799" 
d="M144 1025l230 115h162v-612h195v-162h-632v162h213v392l-168 -70v175z" />
    <glyph glyph-name="uni00B2" unicode="&#xb2;" horiz-adv-x="799" 
d="M90 510l309 271q51 44 67.5 69t16.5 61q0 44 -25 63t-82 19q-58 0 -111.5 -14.5t-91.5 -32t-38 -19.5l-58 160q0 2 44 21.5t113 36t155 16.5q152 0 233 -62t81 -177q0 -71 -33 -126t-117 -124l-168 -144h328v-162h-623v144z" />
    <glyph glyph-name="uni00B3" unicode="&#xb3;" horiz-adv-x="799" 
d="M229 362q-70 16 -114.5 35.5t-44.5 21.5l63 164q0 -2 37 -20t90 -33.5t111 -15.5q60 0 88 20.5t28 68.5q0 43 -25 63.5t-75 20.5h-133v150h127q41 0 64.5 21t23.5 60q0 45 -22 62t-77 17q-54 0 -105 -14t-87.5 -30.5t-36.5 -18.5l-58 157q0 2 42 20.5t108 34t147 15.5
q156 0 231.5 -56t75.5 -171q0 -49 -21 -84t-47.5 -56t-26.5 -18q0 4 31.5 -16.5t56.5 -60t25 -99.5q0 -124 -81.5 -189t-237.5 -65q-87 0 -157 16z" />
    <glyph glyph-name="ordfeminine" unicode="&#xaa;" horiz-adv-x="860" 
d="M668 1478.5q76 -64.5 76 -204.5v-545h-165l-11 75q-37 -32 -97 -60.5t-140 -28.5q-117 0 -183 65.5t-66 177.5q0 128 95 192t245 64h125v42q0 60 -28.5 85t-93.5 25q-66 0 -126.5 -14t-103.5 -30t-43 -18l-41 161q0 2 49.5 22.5t122.5 38t157 17.5q152 0 228 -64.5z
M309 903.5q25 -24.5 72 -24.5t89.5 19.5t76.5 46.5v132h-107q-80 0 -118 -30t-38 -76q0 -43 25 -67.5z" />
    <glyph glyph-name="ordmasculine" unicode="&#xba;" horiz-adv-x="868" 
d="M232.5 760.5q-79.5 41.5 -119 132.5t-39.5 240q0 148 39.5 238.5t119 131.5t203.5 41t202.5 -41t117.5 -131.5t39 -238.5q0 -149 -39 -240t-118 -132.5t-202 -41.5q-124 0 -203.5 41.5zM524 901.5q32 22.5 47 77.5t15 154q0 98 -15 152t-47.5 76.5t-88.5 22.5
q-55 0 -88 -22.5t-49 -77t-16 -151.5q0 -99 15.5 -154t49 -77.5t90.5 -22.5q55 0 87 22.5z" />
    <glyph glyph-name="onequarter" unicode="&#xbc;" horiz-adv-x="1773" 
d="M1514 1524l-825 -1524h-241l200 366h-549v162h213v392l-168 -70v175l230 115h162v-612h195v-10l549 1006h234zM1703 291v-161h-80v-130h-209v130h-392v140l333 504h268v-483h80zM1414 518l-167 -227h167v227z" />
    <glyph glyph-name="onehalf" unicode="&#xbd;" horiz-adv-x="1779" 
d="M1443 1524l-826 -1524h-240l200 366h-478v162h213v392l-168 -70v175l230 115h162v-612h129l544 996h234zM1698 162v-162h-623v144l309 271q51 44 67.5 69t16.5 61q0 44 -25 63t-82 19q-58 0 -111.5 -14.5t-91.5 -32t-38 -19.5l-58 160q0 2 44 21.5t113 36t155 16.5
q152 0 233 -62t81 -177q0 -71 -33 -126t-117 -124l-168 -144h328z" />
    <glyph glyph-name="threequarters" unicode="&#xbe;" horiz-adv-x="1773" 
d="M1480 1524l-826 -1524h-240l241 442q-78 -96 -269 -96q-87 0 -157 16t-114.5 35.5t-44.5 21.5l63 164q0 -2 37 -20t90 -33.5t111 -15.5q60 0 88 20.5t28 68.5q0 43 -25 63.5t-75 20.5h-133v150h127q41 0 64.5 21t23.5 60q0 45 -22 62t-77 17q-54 0 -105 -14t-87.5 -30.5
t-36.5 -18.5l-58 157q0 2 42 20.5t108 34t147 15.5q156 0 231.5 -56t75.5 -171q0 -49 -21 -84t-47.5 -56t-26.5 -18q0 4 31.5 -16.5t56.5 -60t25 -99.5q0 -49 -14 -93l555 1017h234zM1703 291v-161h-80v-130h-209v130h-392v140l333 504h268v-483h80zM1414 518l-167 -227h167
v227z" />
    <glyph glyph-name="questiondown" unicode="&#xbf;" horiz-adv-x="865" 
d="M611.5 1118q45.5 -39 45.5 -118q0 -80 -45.5 -118t-114.5 -38q-72 0 -118.5 37.5t-46.5 118.5q0 79 47 118t118 39q69 0 114.5 -39zM640 542q0 -86 -24 -146t-58.5 -97.5t-90.5 -85.5q-47 -40 -74 -68.5t-45.5 -69.5t-18.5 -96q0 -72 43 -110t117 -38q72 0 137.5 15.5
t111.5 34t46 20.5l53 -227q0 -2 -55 -24t-135.5 -40.5t-172.5 -18.5q-206 0 -317 94.5t-111 284.5q0 85 24.5 147t59.5 102t92 92q45 40 72 69t44.5 68t17.5 89v142h284v-137z" />
    <glyph glyph-name="Agrave" unicode="&#xc0;" horiz-adv-x="1488" 
d="M1024 277h-571l-82 -277h-329l507 1526h401l496 -1526h-341zM949 534l-207 711l-212 -711h419zM944 1611h-236l-275 306h324z" />
    <glyph glyph-name="Aacute" unicode="&#xc1;" horiz-adv-x="1488" 
d="M1024 277h-571l-82 -277h-329l507 1526h401l496 -1526h-341zM949 534l-207 711l-212 -711h419zM802 1611h-236l187 306h324z" />
    <glyph glyph-name="Acircumflex" unicode="&#xc2;" horiz-adv-x="1488" 
d="M1024 277h-571l-82 -277h-329l507 1526h401l496 -1526h-341zM949 534l-207 711l-212 -711h419zM633 1917h242l245 -304h-254l-114 155l-113 -155h-254z" />
    <glyph glyph-name="Atilde" unicode="&#xc3;" horiz-adv-x="1488" 
d="M1024 277h-571l-82 -277h-329l507 1526h401l496 -1526h-341zM949 534l-207 711l-212 -711h419zM1139.5 1816q-16.5 -70 -72.5 -137t-163 -67q-50 0 -84.5 15t-80.5 45q-33 23 -57 34t-52 11q-36 0 -54.5 -23t-23.5 -46.5t-5 -34.5h-197q0 28 16.5 97.5t72 136.5t161.5 67
q54 0 92.5 -16.5t83.5 -47.5q33 -22 54.5 -32.5t45.5 -10.5q36 0 54.5 24t23.5 48t5 35h197q0 -28 -16.5 -98z" />
    <glyph glyph-name="Adieresis" unicode="&#xc4;" horiz-adv-x="1488" 
d="M1024 277h-571l-82 -277h-329l507 1526h401l496 -1526h-341zM949 534l-207 711l-212 -711h419zM465.5 1675.5q-41.5 34.5 -41.5 103.5q0 70 41.5 104t104.5 34q64 0 107.5 -34t43.5 -104q0 -68 -43.5 -103t-107.5 -35q-63 0 -104.5 34.5zM830 1676q-42 35 -42 103
q0 70 41.5 104t104.5 34q64 0 107.5 -34t43.5 -104q0 -68 -43.5 -103t-107.5 -35q-62 0 -104 35z" />
    <glyph glyph-name="Aring" unicode="&#xc5;" horiz-adv-x="1488" 
d="M1024 277h-571l-82 -277h-329l507 1526h401l496 -1526h-341zM949 534l-207 711l-212 -711h419zM616 1601.5q-60 26.5 -94 75.5t-34 115q0 101 72.5 158.5t193.5 57.5q79 0 138.5 -26t92.5 -74.5t33 -115.5q0 -102 -73 -159.5t-191 -57.5q-78 0 -138 26.5zM681 1857
q-28 -26 -28 -65q0 -40 28.5 -66t72.5 -26q43 0 71.5 26t28.5 66t-26 65.5t-74 25.5q-45 0 -73 -26z" />
    <glyph glyph-name="AE" unicode="&#xc6;" horiz-adv-x="2027" 
d="M1927 260v-260h-976v275h-494l-95 -275h-336l584 1526h1312v-261h-640v-354h553v-261h-553v-390h645zM951 536v729h-151l-252 -729h403z" />
    <glyph glyph-name="Ccedilla" unicode="&#xc7;" horiz-adv-x="1216" 
d="M1107.5 44q-43.5 -21 -121 -40t-184.5 -23l-37 -66q73 -5 122.5 -41.5t49.5 -107.5q0 -84 -61 -131.5t-177 -47.5q-82 0 -137 20.5t-85 38.5l54 120q0 -1 26.5 -14t64 -23.5t78.5 -10.5q33 0 51.5 13t18.5 37q0 33 -40 45t-125 12h-34l85 159q-192 16 -315.5 99.5
t-185 249.5t-61.5 429q0 286 73 457.5t219.5 248t376.5 76.5q119 0 205 -20t134.5 -42.5t48.5 -26.5l-69 -244q0 2 -36.5 17.5t-98 29t-141.5 13.5q-134 0 -213.5 -42.5t-119 -153t-39.5 -313.5q0 -204 39.5 -314t119 -152.5t213.5 -42.5q80 0 141.5 13.5t98 29t36.5 17.5
l69 -245q0 -3 -43.5 -24z" />
    <glyph glyph-name="Egrave" unicode="&#xc8;" horiz-adv-x="1202" 
d="M1102 260v-260h-987v1526h982v-261h-652v-354h565v-261h-565v-390h657zM806 1611h-236l-275 306h324z" />
    <glyph glyph-name="Eacute" unicode="&#xc9;" horiz-adv-x="1202" 
d="M1102 260v-260h-987v1526h982v-261h-652v-354h565v-261h-565v-390h657zM664 1611h-236l187 306h324z" />
    <glyph glyph-name="Ecircumflex" unicode="&#xca;" horiz-adv-x="1202" 
d="M1102 260v-260h-987v1526h982v-261h-652v-354h565v-261h-565v-390h657zM495 1917h242l245 -304h-254l-114 155l-113 -155h-254z" />
    <glyph glyph-name="Edieresis" unicode="&#xcb;" horiz-adv-x="1202" 
d="M1102 260v-260h-987v1526h982v-261h-652v-354h565v-261h-565v-390h657zM327.5 1675.5q-41.5 34.5 -41.5 103.5q0 70 41.5 104t104.5 34q64 0 107.5 -34t43.5 -104q0 -68 -43.5 -103t-107.5 -35q-63 0 -104.5 34.5zM692 1676q-42 35 -42 103q0 70 41.5 104t104.5 34
q64 0 107.5 -34t43.5 -104q0 -68 -43.5 -103t-107.5 -35q-62 0 -104 35z" />
    <glyph glyph-name="Igrave" unicode="&#xcc;" horiz-adv-x="560" 
d="M115 1526h330v-1526h-330v1526zM478 1611h-236l-275 306h324z" />
    <glyph glyph-name="Iacute" unicode="&#xcd;" horiz-adv-x="560" 
d="M115 1526h330v-1526h-330v1526zM336 1611h-236l187 306h324z" />
    <glyph glyph-name="Icircumflex" unicode="&#xce;" horiz-adv-x="560" 
d="M115 1526h330v-1526h-330v1526zM167 1917h242l245 -304h-254l-114 155l-113 -155h-254z" />
    <glyph glyph-name="Idieresis" unicode="&#xcf;" horiz-adv-x="560" 
d="M115 1526h330v-1526h-330v1526zM-0.5 1675.5q-41.5 34.5 -41.5 103.5q0 70 41.5 104t104.5 34q64 0 107.5 -34t43.5 -104q0 -68 -43.5 -103t-107.5 -35q-63 0 -104.5 34.5zM364 1676q-42 35 -42 103q0 70 41.5 104t104.5 34q64 0 107.5 -34t43.5 -104q0 -68 -43.5 -103
t-107.5 -35q-62 0 -104 35z" />
    <glyph glyph-name="Eth" unicode="&#xd0;" horiz-adv-x="1378" 
d="M1001 1454q142 -72 212.5 -239t70.5 -452q0 -286 -71 -453t-212.5 -238.5t-368.5 -71.5h-517v650h-95v261h95v615h517q227 0 369 -72zM813.5 301.5q65.5 41.5 98 150.5t32.5 311q0 204 -31.5 311.5t-98 149t-183.5 41.5h-186v-354h277v-261h-277v-390h190
q113 0 178.5 41.5z" />
    <glyph glyph-name="Ntilde" unicode="&#xd1;" horiz-adv-x="1400" 
d="M1285 1526v-1526h-340l-532 997v-997h-298v1526h360l512 -989v989h298zM1101.5 1816q-16.5 -70 -72.5 -137t-163 -67q-50 0 -84.5 15t-80.5 45q-33 23 -57 34t-52 11q-36 0 -54.5 -23t-23.5 -46.5t-5 -34.5h-197q0 28 16.5 97.5t72 136.5t161.5 67q54 0 92.5 -16.5
t83.5 -47.5q33 -22 54.5 -32.5t45.5 -10.5q36 0 54.5 24t23.5 48t5 35h197q0 -28 -16.5 -98z" />
    <glyph glyph-name="Ograve" unicode="&#xd2;" horiz-adv-x="1497" 
d="M380 56q-144 76 -215 248t-71 459q0 286 70.5 458t214 248.5t370.5 76.5q224 0 367 -76.5t215 -249t72 -457.5q0 -286 -71.5 -458t-214 -248.5t-365.5 -76.5q-228 0 -372 76zM931.5 296q66.5 43 99 153.5t32.5 313.5t-32.5 313t-99.5 153t-182 43t-182 -43t-100 -153
t-33 -313t32.5 -313.5t100.5 -153.5t185 -43q113 0 179.5 43zM941 1611h-236l-275 306h324z" />
    <glyph glyph-name="Oacute" unicode="&#xd3;" horiz-adv-x="1497" 
d="M380 56q-144 76 -215 248t-71 459q0 286 70.5 458t214 248.5t370.5 76.5q224 0 367 -76.5t215 -249t72 -457.5q0 -286 -71.5 -458t-214 -248.5t-365.5 -76.5q-228 0 -372 76zM931.5 296q66.5 43 99 153.5t32.5 313.5t-32.5 313t-99.5 153t-182 43t-182 -43t-100 -153
t-33 -313t32.5 -313.5t100.5 -153.5t185 -43q113 0 179.5 43zM799 1611h-236l187 306h324z" />
    <glyph glyph-name="Ocircumflex" unicode="&#xd4;" horiz-adv-x="1497" 
d="M380 56q-144 76 -215 248t-71 459q0 286 70.5 458t214 248.5t370.5 76.5q224 0 367 -76.5t215 -249t72 -457.5q0 -286 -71.5 -458t-214 -248.5t-365.5 -76.5q-228 0 -372 76zM931.5 296q66.5 43 99 153.5t32.5 313.5t-32.5 313t-99.5 153t-182 43t-182 -43t-100 -153
t-33 -313t32.5 -313.5t100.5 -153.5t185 -43q113 0 179.5 43zM630 1917h242l245 -304h-254l-114 155l-113 -155h-254z" />
    <glyph glyph-name="Otilde" unicode="&#xd5;" horiz-adv-x="1497" 
d="M380 56q-144 76 -215 248t-71 459q0 286 70.5 458t214 248.5t370.5 76.5q224 0 367 -76.5t215 -249t72 -457.5q0 -286 -71.5 -458t-214 -248.5t-365.5 -76.5q-228 0 -372 76zM931.5 296q66.5 43 99 153.5t32.5 313.5t-32.5 313t-99.5 153t-182 43t-182 -43t-100 -153
t-33 -313t32.5 -313.5t100.5 -153.5t185 -43q113 0 179.5 43zM1136.5 1816q-16.5 -70 -72.5 -137t-163 -67q-50 0 -84.5 15t-80.5 45q-33 23 -57 34t-52 11q-36 0 -54.5 -23t-23.5 -46.5t-5 -34.5h-197q0 28 16.5 97.5t72 136.5t161.5 67q54 0 92.5 -16.5t83.5 -47.5
q33 -22 54.5 -32.5t45.5 -10.5q36 0 54.5 24t23.5 48t5 35h197q0 -28 -16.5 -98z" />
    <glyph glyph-name="Odieresis" unicode="&#xd6;" horiz-adv-x="1497" 
d="M380 56q-144 76 -215 248t-71 459q0 286 70.5 458t214 248.5t370.5 76.5q224 0 367 -76.5t215 -249t72 -457.5q0 -286 -71.5 -458t-214 -248.5t-365.5 -76.5q-228 0 -372 76zM931.5 296q66.5 43 99 153.5t32.5 313.5t-32.5 313t-99.5 153t-182 43t-182 -43t-100 -153
t-33 -313t32.5 -313.5t100.5 -153.5t185 -43q113 0 179.5 43zM462.5 1675.5q-41.5 34.5 -41.5 103.5q0 70 41.5 104t104.5 34q64 0 107.5 -34t43.5 -104q0 -68 -43.5 -103t-107.5 -35q-63 0 -104.5 34.5zM827 1676q-42 35 -42 103q0 70 41.5 104t104.5 34q64 0 107.5 -34
t43.5 -104q0 -68 -43.5 -103t-107.5 -35q-62 0 -104 35z" />
    <glyph glyph-name="multiply" unicode="&#xd7;" 
d="M804 760l259 -259l-169 -169l-258 259l-259 -259l-169 169l259 259l-259 259l169 169l259 -259l258 259l169 -169z" />
    <glyph glyph-name="Oslash" unicode="&#xd8;" horiz-adv-x="1497" 
d="M1360 1136q43 -152 43 -373q0 -286 -71.5 -458t-214 -248.5t-365.5 -76.5q-140 0 -248 28l-60 -114h-279l121 229q-97 91 -144.5 248t-47.5 392q0 286 70.5 458t214 248.5t370.5 76.5q159 0 271 -36l55 104h278l-123 -233q87 -93 130 -245zM464 459l420 794
q-52 19 -135 19q-115 0 -182 -43t-100 -153t-33 -313q0 -191 30 -304zM931.5 296q66.5 43 99 153.5t32.5 313.5q0 158 -20 264l-403 -762q44 -12 112 -12q113 0 179.5 43z" />
    <glyph glyph-name="Ugrave" unicode="&#xd9;" horiz-adv-x="1400" 
d="M389.5 49.5q-132.5 69.5 -203.5 202t-71 315.5v959h330v-973q0 -149 65 -224.5t193 -75.5q122 0 187 76.5t65 223.5v973h330v-959q0 -183 -71 -315t-202 -202t-309 -70q-181 0 -313.5 69.5zM897 1611h-236l-275 306h324z" />
    <glyph glyph-name="Uacute" unicode="&#xda;" horiz-adv-x="1400" 
d="M389.5 49.5q-132.5 69.5 -203.5 202t-71 315.5v959h330v-973q0 -149 65 -224.5t193 -75.5q122 0 187 76.5t65 223.5v973h330v-959q0 -183 -71 -315t-202 -202t-309 -70q-181 0 -313.5 69.5zM755 1611h-236l187 306h324z" />
    <glyph glyph-name="Ucircumflex" unicode="&#xdb;" horiz-adv-x="1400" 
d="M389.5 49.5q-132.5 69.5 -203.5 202t-71 315.5v959h330v-973q0 -149 65 -224.5t193 -75.5q122 0 187 76.5t65 223.5v973h330v-959q0 -183 -71 -315t-202 -202t-309 -70q-181 0 -313.5 69.5zM586 1917h242l245 -304h-254l-114 155l-113 -155h-254z" />
    <glyph glyph-name="Udieresis" unicode="&#xdc;" horiz-adv-x="1400" 
d="M389.5 49.5q-132.5 69.5 -203.5 202t-71 315.5v959h330v-973q0 -149 65 -224.5t193 -75.5q122 0 187 76.5t65 223.5v973h330v-959q0 -183 -71 -315t-202 -202t-309 -70q-181 0 -313.5 69.5zM418.5 1675.5q-41.5 34.5 -41.5 103.5q0 70 41.5 104t104.5 34q64 0 107.5 -34
t43.5 -104q0 -68 -43.5 -103t-107.5 -35q-63 0 -104.5 34.5zM783 1676q-42 35 -42 103q0 70 41.5 104t104.5 34q64 0 107.5 -34t43.5 -104q0 -68 -43.5 -103t-107.5 -35q-62 0 -104 35z" />
    <glyph glyph-name="Yacute" unicode="&#xdd;" horiz-adv-x="1392" 
d="M1337 1526l-478 -864v-662h-318v657l-485 869h364l282 -592l281 592h354zM745 1611h-236l187 306h324z" />
    <glyph glyph-name="Thorn" unicode="&#xde;" horiz-adv-x="1303" 
d="M1005 1191q98 -52 151.5 -154.5t53.5 -250.5q0 -146 -56 -252.5t-156.5 -163t-230.5 -56.5h-322v-314h-330v1526h330v-283h327q135 0 233 -52zM846 624q53 56 53 158t-49.5 154.5t-144.5 52.5h-260v-421h252q96 0 149 56z" />
    <glyph glyph-name="agrave" unicode="&#xe0;" horiz-adv-x="1110" 
d="M901.5 1040.5q113.5 -91.5 113.5 -293.5v-746h-239l-17 110q-50 -44 -136.5 -87.5t-201.5 -43.5q-106 0 -184 40.5t-119 116.5t-41 179q0 118 61 198t167.5 118.5t242.5 38.5h183v61q0 91 -48 132t-154 41q-82 0 -160 -20t-135 -43.5t-57 -25.5l-60 209q0 3 68.5 31
t170 52t217.5 24q215 0 328.5 -91.5zM387 232.5q38 -36.5 105 -36.5q69 0 131 31t108 71v185h-156q-120 0 -173 -43t-53 -106q0 -65 38 -101.5zM767 1218h-236l-275 306h324z" />
    <glyph glyph-name="aacute" unicode="&#xe1;" horiz-adv-x="1110" 
d="M901.5 1040.5q113.5 -91.5 113.5 -293.5v-746h-239l-17 110q-50 -44 -136.5 -87.5t-201.5 -43.5q-106 0 -184 40.5t-119 116.5t-41 179q0 118 61 198t167.5 118.5t242.5 38.5h183v61q0 91 -48 132t-154 41q-82 0 -160 -20t-135 -43.5t-57 -25.5l-60 209q0 3 68.5 31
t170 52t217.5 24q215 0 328.5 -91.5zM387 232.5q38 -36.5 105 -36.5q69 0 131 31t108 71v185h-156q-120 0 -173 -43t-53 -106q0 -65 38 -101.5zM625 1218h-236l187 306h324z" />
    <glyph glyph-name="acircumflex" unicode="&#xe2;" horiz-adv-x="1110" 
d="M901.5 1040.5q113.5 -91.5 113.5 -293.5v-746h-239l-17 110q-50 -44 -136.5 -87.5t-201.5 -43.5q-106 0 -184 40.5t-119 116.5t-41 179q0 118 61 198t167.5 118.5t242.5 38.5h183v61q0 91 -48 132t-154 41q-82 0 -160 -20t-135 -43.5t-57 -25.5l-60 209q0 3 68.5 31
t170 52t217.5 24q215 0 328.5 -91.5zM387 232.5q38 -36.5 105 -36.5q69 0 131 31t108 71v185h-156q-120 0 -173 -43t-53 -106q0 -65 38 -101.5zM456 1524h242l245 -304h-254l-114 155l-113 -155h-254z" />
    <glyph glyph-name="atilde" unicode="&#xe3;" horiz-adv-x="1110" 
d="M901.5 1040.5q113.5 -91.5 113.5 -293.5v-746h-239l-17 110q-50 -44 -136.5 -87.5t-201.5 -43.5q-106 0 -184 40.5t-119 116.5t-41 179q0 118 61 198t167.5 118.5t242.5 38.5h183v61q0 91 -48 132t-154 41q-82 0 -160 -20t-135 -43.5t-57 -25.5l-60 209q0 3 68.5 31
t170 52t217.5 24q215 0 328.5 -91.5zM387 232.5q38 -36.5 105 -36.5q69 0 131 31t108 71v185h-156q-120 0 -173 -43t-53 -106q0 -65 38 -101.5zM962.5 1423q-16.5 -70 -72.5 -137t-163 -67q-50 0 -84.5 15t-80.5 45q-33 23 -57 34t-52 11q-36 0 -54.5 -23t-23.5 -46.5
t-5 -34.5h-197q0 28 16.5 97.5t72 136.5t161.5 67q54 0 92.5 -16.5t83.5 -47.5q33 -22 54.5 -32.5t45.5 -10.5q36 0 54.5 24t23.5 48t5 35h197q0 -28 -16.5 -98z" />
    <glyph glyph-name="adieresis" unicode="&#xe4;" horiz-adv-x="1110" 
d="M901.5 1040.5q113.5 -91.5 113.5 -293.5v-746h-239l-17 110q-50 -44 -136.5 -87.5t-201.5 -43.5q-106 0 -184 40.5t-119 116.5t-41 179q0 118 61 198t167.5 118.5t242.5 38.5h183v61q0 91 -48 132t-154 41q-82 0 -160 -20t-135 -43.5t-57 -25.5l-60 209q0 3 68.5 31
t170 52t217.5 24q215 0 328.5 -91.5zM387 232.5q38 -36.5 105 -36.5q69 0 131 31t108 71v185h-156q-120 0 -173 -43t-53 -106q0 -65 38 -101.5zM288.5 1282.5q-41.5 34.5 -41.5 103.5q0 70 41.5 104t104.5 34q64 0 107.5 -34t43.5 -104q0 -68 -43.5 -103t-107.5 -35
q-63 0 -104.5 34.5zM653 1283q-42 35 -42 103q0 70 41.5 104t104.5 34q64 0 107.5 -34t43.5 -104q0 -68 -43.5 -103t-107.5 -35q-62 0 -104 35z" />
    <glyph glyph-name="aring" unicode="&#xe5;" horiz-adv-x="1110" 
d="M901.5 1040.5q113.5 -91.5 113.5 -293.5v-746h-239l-17 110q-50 -44 -136.5 -87.5t-201.5 -43.5q-106 0 -184 40.5t-119 116.5t-41 179q0 118 61 198t167.5 118.5t242.5 38.5h183v61q0 91 -48 132t-154 41q-82 0 -160 -20t-135 -43.5t-57 -25.5l-60 209q0 3 68.5 31
t170 52t217.5 24q215 0 328.5 -91.5zM387 232.5q38 -36.5 105 -36.5q69 0 131 31t108 71v185h-156q-120 0 -173 -43t-53 -106q0 -65 38 -101.5zM439 1208.5q-60 26.5 -94 75.5t-34 115q0 101 72.5 158.5t193.5 57.5q79 0 138.5 -26t92.5 -74.5t33 -115.5q0 -102 -73 -159.5
t-191 -57.5q-78 0 -138 26.5zM504 1464q-28 -26 -28 -65q0 -40 28.5 -66t72.5 -26q43 0 71.5 26t28.5 66t-26 65.5t-74 25.5q-45 0 -73 -26z" />
    <glyph glyph-name="ae" unicode="&#xe6;" horiz-adv-x="1774" 
d="M1691 461h-673q11 -98 45 -153.5t90 -78t139 -22.5q78 0 147.5 19.5t117 42.5t47.5 25l70 -199q0 -4 -57.5 -34t-148 -55.5t-201.5 -25.5q-287 0 -417 150q-61 -53 -164 -101.5t-243 -48.5q-116 0 -198 40.5t-125 116.5t-43 179q0 118 61 198t167.5 118.5t242.5 38.5h179
v69q0 165 -190 165q-90 0 -170 -19.5t-135 -43t-55 -25.5l-60 208q0 3 68.5 31t170 52t217.5 24q220 0 320 -97q61 48 144 70.5t190 22.5q158 0 259 -50.5t153 -172t52 -332.5v-112zM1410 644q-1 140 -46 198.5t-142 58.5q-64 0 -106 -22.5t-67.5 -79t-32.5 -155.5h394z
M766 279q-29 85 -37 204h-154q-120 0 -173 -43t-53 -106q0 -66 42 -102t116 -36q131 0 259 83z" />
    <glyph glyph-name="ccedilla" unicode="&#xe7;" horiz-adv-x="964" 
d="M859.5 42.5q-30.5 -17.5 -84 -35t-125.5 -24.5l-39 -68q73 -5 122.5 -41.5t49.5 -107.5q0 -84 -61 -131.5t-177 -47.5q-82 0 -137 20.5t-85 38.5l54 120q0 -1 26.5 -14t64 -23.5t78.5 -10.5q33 0 51.5 13t18.5 37q0 33 -40 45t-125 12h-34l85 158q-144 13 -236 76.5
t-137.5 185.5t-45.5 310q0 205 54 331.5t163.5 185t281.5 58.5q92 0 160.5 -18.5t108 -40t39.5 -24.5l-59 -202q0 2 -29 17t-76 27.5t-106 12.5q-87 0 -141.5 -31t-82 -107t-27.5 -209q0 -134 27.5 -210t82 -107t141.5 -31q59 0 106 12.5t76 27.5t29 17l59 -202
q0 -2 -30.5 -19.5z" />
    <glyph glyph-name="egrave" unicode="&#xe8;" horiz-adv-x="1130" 
d="M1047 461h-673q11 -98 45 -153.5t90 -78t139 -22.5q78 0 147.5 19.5t117 42.5t47.5 25l70 -199q0 -4 -57.5 -34t-148 -55.5t-201.5 -25.5q-263 0 -401.5 133.5t-138.5 442.5q0 210 57.5 336t167 181t275.5 55q158 0 259 -50.5t153 -172t52 -332.5v-112zM766 644
q-1 140 -46 198.5t-142 58.5q-64 0 -106 -22.5t-67.5 -79t-32.5 -155.5h394zM776 1218h-236l-275 306h324z" />
    <glyph glyph-name="eacute" unicode="&#xe9;" horiz-adv-x="1130" 
d="M1047 461h-673q11 -98 45 -153.5t90 -78t139 -22.5q78 0 147.5 19.5t117 42.5t47.5 25l70 -199q0 -4 -57.5 -34t-148 -55.5t-201.5 -25.5q-263 0 -401.5 133.5t-138.5 442.5q0 210 57.5 336t167 181t275.5 55q158 0 259 -50.5t153 -172t52 -332.5v-112zM766 644
q-1 140 -46 198.5t-142 58.5q-64 0 -106 -22.5t-67.5 -79t-32.5 -155.5h394zM634 1218h-236l187 306h324z" />
    <glyph glyph-name="ecircumflex" unicode="&#xea;" horiz-adv-x="1130" 
d="M1047 461h-673q11 -98 45 -153.5t90 -78t139 -22.5q78 0 147.5 19.5t117 42.5t47.5 25l70 -199q0 -4 -57.5 -34t-148 -55.5t-201.5 -25.5q-263 0 -401.5 133.5t-138.5 442.5q0 210 57.5 336t167 181t275.5 55q158 0 259 -50.5t153 -172t52 -332.5v-112zM766 644
q-1 140 -46 198.5t-142 58.5q-64 0 -106 -22.5t-67.5 -79t-32.5 -155.5h394zM465 1524h242l245 -304h-254l-114 155l-113 -155h-254z" />
    <glyph glyph-name="edieresis" unicode="&#xeb;" horiz-adv-x="1130" 
d="M1047 461h-673q11 -98 45 -153.5t90 -78t139 -22.5q78 0 147.5 19.5t117 42.5t47.5 25l70 -199q0 -4 -57.5 -34t-148 -55.5t-201.5 -25.5q-263 0 -401.5 133.5t-138.5 442.5q0 210 57.5 336t167 181t275.5 55q158 0 259 -50.5t153 -172t52 -332.5v-112zM766 644
q-1 140 -46 198.5t-142 58.5q-64 0 -106 -22.5t-67.5 -79t-32.5 -155.5h394zM297.5 1282.5q-41.5 34.5 -41.5 103.5q0 70 41.5 104t104.5 34q64 0 107.5 -34t43.5 -104q0 -68 -43.5 -103t-107.5 -35q-63 0 -104.5 34.5zM662 1283q-42 35 -42 103q0 70 41.5 104t104.5 34
q64 0 107.5 -34t43.5 -104q0 -68 -43.5 -103t-107.5 -35q-62 0 -104 35z" />
    <glyph glyph-name="igrave" unicode="&#xec;" horiz-adv-x="506" 
d="M111 1112h284v-1112h-284v1112zM444 1221h-236l-275 306h324z" />
    <glyph glyph-name="iacute" unicode="&#xed;" horiz-adv-x="506" 
d="M111 1112h284v-1112h-284v1112zM302 1221h-236l187 306h324z" />
    <glyph glyph-name="icircumflex" unicode="&#xee;" horiz-adv-x="506" 
d="M111 1112h284v-1112h-284v1112zM133 1527h242l245 -304h-254l-114 155l-113 -155h-254z" />
    <glyph glyph-name="idieresis" unicode="&#xef;" horiz-adv-x="506" 
d="M111 1112h284v-1112h-284v1112zM-34.5 1285.5q-41.5 34.5 -41.5 103.5q0 70 41.5 104t104.5 34q64 0 107.5 -34t43.5 -104q0 -68 -43.5 -103t-107.5 -35q-63 0 -104.5 34.5zM330 1286q-42 35 -42 103q0 70 41.5 104t104.5 34q64 0 107.5 -34t43.5 -104q0 -68 -43.5 -103
t-107.5 -35q-62 0 -104 35z" />
    <glyph glyph-name="eth" unicode="&#xf0;" horiz-adv-x="1168" 
d="M1028 922.5q56 -184.5 56 -381.5q0 -205 -56 -328.5t-165 -178t-277 -54.5q-169 0 -279 52.5t-167 173t-57 321.5q0 194 45 314t133.5 175.5t224.5 55.5q115 0 225 -58q-38 94 -90 184l-233 -69v194l123 37q-60 79 -140 166h305q45 -48 81 -94l306 91v-195l-192 -57
q101 -164 157 -348.5zM708 237.5q46 30.5 68.5 103t22.5 200.5q0 117 -18 220q-38 34 -89.5 58.5t-109.5 24.5q-75 0 -121 -27t-69 -95.5t-23 -194.5q0 -125 23.5 -194.5t70.5 -97.5t125 -28q74 0 120 30.5z" />
    <glyph glyph-name="ntilde" unicode="&#xf1;" horiz-adv-x="1133" 
d="M859.5 1092q77.5 -40 121.5 -123t44 -206v-763h-283v735q0 80 -38.5 121.5t-116.5 41.5q-54 0 -104 -24.5t-89 -57.5v-816h-283v1112h232l19 -111q51 44 133.5 87.5t186.5 43.5q100 0 177.5 -40zM959.5 1423q-16.5 -70 -72.5 -137t-163 -67q-50 0 -84.5 15t-80.5 45
q-33 23 -57 34t-52 11q-36 0 -54.5 -23t-23.5 -46.5t-5 -34.5h-197q0 28 16.5 97.5t72 136.5t161.5 67q54 0 92.5 -16.5t83.5 -47.5q33 -22 54.5 -32.5t45.5 -10.5q36 0 54.5 24t23.5 48t5 35h197q0 -28 -16.5 -98z" />
    <glyph glyph-name="ograve" unicode="&#xf2;" horiz-adv-x="1169" 
d="M307 36q-110 55 -167 181.5t-57 338.5q0 211 57 336.5t167 180.5t279 55q168 0 277.5 -55t166 -180.5t56.5 -336.5q0 -212 -56.5 -338.5t-166 -181.5t-277.5 -55q-169 0 -279 55zM709.5 238.5q45.5 30.5 68 106.5t22.5 211q0 136 -22 211t-68 104.5t-124 29.5
q-75 0 -122 -30t-71 -105.5t-24 -209.5q0 -136 23.5 -211.5t71 -106t126.5 -30.5q74 0 119.5 30.5zM776 1218h-236l-275 306h324z" />
    <glyph glyph-name="oacute" unicode="&#xf3;" horiz-adv-x="1169" 
d="M307 36q-110 55 -167 181.5t-57 338.5q0 211 57 336.5t167 180.5t279 55q168 0 277.5 -55t166 -180.5t56.5 -336.5q0 -212 -56.5 -338.5t-166 -181.5t-277.5 -55q-169 0 -279 55zM709.5 238.5q45.5 30.5 68 106.5t22.5 211q0 136 -22 211t-68 104.5t-124 29.5
q-75 0 -122 -30t-71 -105.5t-24 -209.5q0 -136 23.5 -211.5t71 -106t126.5 -30.5q74 0 119.5 30.5zM634 1218h-236l187 306h324z" />
    <glyph glyph-name="ocircumflex" unicode="&#xf4;" horiz-adv-x="1169" 
d="M307 36q-110 55 -167 181.5t-57 338.5q0 211 57 336.5t167 180.5t279 55q168 0 277.5 -55t166 -180.5t56.5 -336.5q0 -212 -56.5 -338.5t-166 -181.5t-277.5 -55q-169 0 -279 55zM709.5 238.5q45.5 30.5 68 106.5t22.5 211q0 136 -22 211t-68 104.5t-124 29.5
q-75 0 -122 -30t-71 -105.5t-24 -209.5q0 -136 23.5 -211.5t71 -106t126.5 -30.5q74 0 119.5 30.5zM465 1524h242l245 -304h-254l-114 155l-113 -155h-254z" />
    <glyph glyph-name="otilde" unicode="&#xf5;" horiz-adv-x="1169" 
d="M307 36q-110 55 -167 181.5t-57 338.5q0 211 57 336.5t167 180.5t279 55q168 0 277.5 -55t166 -180.5t56.5 -336.5q0 -212 -56.5 -338.5t-166 -181.5t-277.5 -55q-169 0 -279 55zM709.5 238.5q45.5 30.5 68 106.5t22.5 211q0 136 -22 211t-68 104.5t-124 29.5
q-75 0 -122 -30t-71 -105.5t-24 -209.5q0 -136 23.5 -211.5t71 -106t126.5 -30.5q74 0 119.5 30.5zM971.5 1423q-16.5 -70 -72.5 -137t-163 -67q-50 0 -84.5 15t-80.5 45q-33 23 -57 34t-52 11q-36 0 -54.5 -23t-23.5 -46.5t-5 -34.5h-197q0 28 16.5 97.5t72 136.5t161.5 67
q54 0 92.5 -16.5t83.5 -47.5q33 -22 54.5 -32.5t45.5 -10.5q36 0 54.5 24t23.5 48t5 35h197q0 -28 -16.5 -98z" />
    <glyph glyph-name="odieresis" unicode="&#xf6;" horiz-adv-x="1169" 
d="M307 36q-110 55 -167 181.5t-57 338.5q0 211 57 336.5t167 180.5t279 55q168 0 277.5 -55t166 -180.5t56.5 -336.5q0 -212 -56.5 -338.5t-166 -181.5t-277.5 -55q-169 0 -279 55zM709.5 238.5q45.5 30.5 68 106.5t22.5 211q0 136 -22 211t-68 104.5t-124 29.5
q-75 0 -122 -30t-71 -105.5t-24 -209.5q0 -136 23.5 -211.5t71 -106t126.5 -30.5q74 0 119.5 30.5zM297.5 1282.5q-41.5 34.5 -41.5 103.5q0 70 41.5 104t104.5 34q64 0 107.5 -34t43.5 -104q0 -68 -43.5 -103t-107.5 -35q-63 0 -104.5 34.5zM662 1283q-42 35 -42 103
q0 70 41.5 104t104.5 34q64 0 107.5 -34t43.5 -104q0 -68 -43.5 -103t-107.5 -35q-62 0 -104 35z" />
    <glyph glyph-name="divide" unicode="&#xf7;" 
d="M522 1042q-40 37 -40 113t40 112t101 36q63 0 103 -35.5t40 -112.5q0 -76 -40 -113t-103 -37q-61 0 -101 37zM141 881h969v-239h-969v239zM522 258.5q-40 37.5 -40 113.5q0 77 39.5 112.5t101.5 35.5q64 0 103.5 -35.5t39.5 -112.5q0 -76 -40 -113.5t-103 -37.5
q-61 0 -101 37.5z" />
    <glyph glyph-name="oslash" unicode="&#xf8;" horiz-adv-x="1169" 
d="M1053 829.5q33 -111.5 33 -273.5q0 -212 -56.5 -338.5t-166 -181.5t-277.5 -55q-97 0 -177 18l-58 -107h-218l104 191q-77 67 -115.5 183t-38.5 290q0 211 57 336.5t167 180.5t279 55q115 0 203 -25l43 80h216l-95 -175q67 -67 100 -178.5zM388 362l285 527
q-33 12 -87 12q-75 0 -122 -30t-71 -105.5t-24 -209.5q0 -121 19 -194zM709.5 238.5q45.5 30.5 68 106.5t22.5 211q0 88 -9 151l-266 -493q30 -6 65 -6q74 0 119.5 30.5z" />
    <glyph glyph-name="ugrave" unicode="&#xf9;" horiz-adv-x="1136" 
d="M230.5 88q-122.5 108 -122.5 327v697h283v-712q0 -96 44.5 -144.5t131.5 -48.5q88 0 133 48.5t45 144.5v712h283v-697q0 -220 -122.5 -327.5t-338.5 -107.5q-214 0 -336.5 108zM756 1218h-236l-275 306h324z" />
    <glyph glyph-name="uacute" unicode="&#xfa;" horiz-adv-x="1136" 
d="M230.5 88q-122.5 108 -122.5 327v697h283v-712q0 -96 44.5 -144.5t131.5 -48.5q88 0 133 48.5t45 144.5v712h283v-697q0 -220 -122.5 -327.5t-338.5 -107.5q-214 0 -336.5 108zM614 1218h-236l187 306h324z" />
    <glyph glyph-name="ucircumflex" unicode="&#xfb;" horiz-adv-x="1136" 
d="M230.5 88q-122.5 108 -122.5 327v697h283v-712q0 -96 44.5 -144.5t131.5 -48.5q88 0 133 48.5t45 144.5v712h283v-697q0 -220 -122.5 -327.5t-338.5 -107.5q-214 0 -336.5 108zM445 1524h242l245 -304h-254l-114 155l-113 -155h-254z" />
    <glyph glyph-name="udieresis" unicode="&#xfc;" horiz-adv-x="1136" 
d="M230.5 88q-122.5 108 -122.5 327v697h283v-712q0 -96 44.5 -144.5t131.5 -48.5q88 0 133 48.5t45 144.5v712h283v-697q0 -220 -122.5 -327.5t-338.5 -107.5q-214 0 -336.5 108zM277.5 1282.5q-41.5 34.5 -41.5 103.5q0 70 41.5 104t104.5 34q64 0 107.5 -34t43.5 -104
q0 -68 -43.5 -103t-107.5 -35q-63 0 -104.5 34.5zM642 1283q-42 35 -42 103q0 70 41.5 104t104.5 34q64 0 107.5 -34t43.5 -104q0 -68 -43.5 -103t-107.5 -35q-62 0 -104 35z" />
    <glyph glyph-name="yacute" unicode="&#xfd;" horiz-adv-x="1057" 
d="M1020 1112l-363 -1229q-41 -143 -133.5 -207.5t-262.5 -64.5h-70v227h46q51 0 83 21.5t50 69.5l34 94l-366 1089h299l217 -773l185 773h281zM589 1218h-236l187 306h324z" />
    <glyph glyph-name="thorn" unicode="&#xfe;" horiz-adv-x="1173" 
d="M912 1073.5q89 -58.5 133.5 -186t44.5 -333.5q0 -203 -44.5 -330t-133.5 -185.5t-225 -58.5q-89 0 -163.5 32.5t-128.5 75.5v-477h-284v1915h284v-500q54 42 128.5 74t163.5 32q136 0 225 -58.5zM714 237q46 29 68.5 104t22.5 213q0 141 -22.5 217t-68.5 105t-123 29
q-58 0 -108 -25t-88 -59v-528q39 -35 88.5 -60t107.5 -25q77 0 123 29z" />
    <glyph glyph-name="ydieresis" unicode="&#xff;" horiz-adv-x="1057" 
d="M1020 1112l-363 -1229q-41 -143 -133.5 -207.5t-262.5 -64.5h-70v227h46q51 0 83 21.5t50 69.5l34 94l-366 1089h299l217 -773l185 773h281zM252.5 1282.5q-41.5 34.5 -41.5 103.5q0 70 41.5 104t104.5 34q64 0 107.5 -34t43.5 -104q0 -68 -43.5 -103t-107.5 -35
q-63 0 -104.5 34.5zM617 1283q-42 35 -42 103q0 70 41.5 104t104.5 34q64 0 107.5 -34t43.5 -104q0 -68 -43.5 -103t-107.5 -35q-62 0 -104 35z" />
    <glyph glyph-name="dotlessi" unicode="&#x131;" horiz-adv-x="506" 
d="M111 1112h284v-1112h-284v1112z" />
    <glyph glyph-name="Lslash" unicode="&#x141;" horiz-adv-x="1157" 
d="M1078 260v-260h-963v577l-105 -46v266l105 46v683h330v-538l302 132v-267l-302 -132v-461h633z" />
    <glyph glyph-name="lslash" unicode="&#x142;" horiz-adv-x="506" 
d="M506 854l-111 -63v-791h-284v628l-111 -63v264l111 64v633h284v-469l111 64v-267z" />
    <glyph glyph-name="OE" unicode="&#x152;" horiz-adv-x="2011" 
d="M1910 260v-260h-1164q-227 0 -369 70.5t-212.5 236.5t-70.5 452t70.5 453.5t212.5 240.5t369 73h1160v-261h-641v-354h553v-261h-553v-390h645zM934 1265h-187q-117 0 -183.5 -41.5t-98 -149.5t-31.5 -311q0 -202 32 -310.5t98 -150t179 -42.5h191v1005z" />
    <glyph glyph-name="oe" unicode="&#x153;" horiz-adv-x="1853" 
d="M1770 461h-673q11 -98 45 -153.5t90 -78t139 -22.5q78 0 147.5 19.5t117 42.5t47.5 25l70 -199q0 -4 -57.5 -34t-148 -55.5t-201.5 -25.5q-261 0 -391 123q-62 -64 -153.5 -93t-215.5 -29q-169 0 -279 55t-167 181.5t-57 338.5q0 211 57 336.5t167 180.5t279 55
q120 0 209.5 -27.5t151.5 -86.5q62 59 151.5 86.5t207.5 27.5q158 0 259 -50.5t153 -172t52 -332.5v-112zM709.5 238.5q45.5 30.5 68 106.5t22.5 211q0 136 -22 211t-68 104.5t-124 29.5q-75 0 -122 -30t-71 -105.5t-24 -209.5q0 -136 23.5 -211.5t71 -106t126.5 -30.5
q74 0 119.5 30.5zM1489 644q-1 140 -46 198.5t-142 58.5q-64 0 -106 -22.5t-67.5 -79t-32.5 -155.5h394z" />
    <glyph glyph-name="Scaron" unicode="&#x160;" horiz-adv-x="1259" 
d="M359.5 13.5q-121.5 32.5 -198 71t-76.5 43.5l82 271q0 -4 72 -42t177.5 -70t224.5 -32q226 0 226 168q0 62 -27.5 100t-80.5 60t-143 39l-81 16q-133 25 -224 69t-147 137.5t-56 251.5q0 137 62 238t181.5 155.5t286.5 54.5q144 0 258.5 -27t185.5 -58.5t71 -35.5
l-68 -263q0 4 -60.5 32.5t-157.5 53t-218 24.5q-112 0 -168 -42.5t-56 -121.5q0 -60 25.5 -96t79 -57.5t153.5 -42.5l77 -17q128 -25 217.5 -71t143.5 -137t54 -239q0 -138 -64 -243.5t-186.5 -163.5t-292.5 -58q-151 0 -272.5 32.5zM652 1758l114 157h254l-245 -305h-242
l-248 305h254z" />
    <glyph glyph-name="scaron" unicode="&#x161;" horiz-adv-x="993" 
d="M276 6q-90 24 -143 52t-53 32l68 223q0 -3 50.5 -30.5t125.5 -50.5t162 -23q157 0 157 112q0 62 -43 89.5t-134 42.5l-59 10q-95 15 -162.5 47t-108.5 98t-41 176q0 108 50.5 186.5t145.5 120t227 41.5q113 0 197.5 -21t134 -45.5t49.5 -27.5l-63 -220q0 3 -43.5 25.5
t-114 42t-159.5 19.5q-152 0 -152 -108q0 -39 21 -63t60.5 -39t109.5 -29l55 -10q92 -19 157.5 -53.5t105 -100t39.5 -168.5q0 -106 -52 -185.5t-149 -123t-228 -43.5q-120 0 -210 24zM511 1365l114 157h254l-245 -305h-242l-248 305h254z" />
    <glyph glyph-name="Ydieresis" unicode="&#x178;" horiz-adv-x="1392" 
d="M1337 1526l-478 -864v-662h-318v657l-485 869h364l282 -592l281 592h354zM408.5 1675.5q-41.5 34.5 -41.5 103.5q0 70 41.5 104t104.5 34q64 0 107.5 -34t43.5 -104q0 -68 -43.5 -103t-107.5 -35q-63 0 -104.5 34.5zM773 1676q-42 35 -42 103q0 70 41.5 104t104.5 34
q64 0 107.5 -34t43.5 -104q0 -68 -43.5 -103t-107.5 -35q-62 0 -104 35z" />
    <glyph glyph-name="Zcaron" unicode="&#x17d;" horiz-adv-x="1344" 
d="M101 251l744 1014h-732v261h1101v-251l-729 -1015h759v-260h-1143v251zM667 1758l114 157h254l-245 -305h-242l-248 305h254z" />
    <glyph glyph-name="zcaron" unicode="&#x17e;" horiz-adv-x="1073" 
d="M990 219v-219h-896v213l528 680h-522v219h868v-210l-524 -683h546zM535 1365l114 157h254l-245 -305h-242l-248 305h254z" />
    <glyph glyph-name="endash" unicode="&#x2013;" horiz-adv-x="1133" 
d="M102 772h929v-234h-929v234z" />
    <glyph glyph-name="emdash" unicode="&#x2014;" horiz-adv-x="1676" 
d="M102 772h1471v-241h-1471v241z" />
    <glyph glyph-name="quoteleft" unicode="&#x2018;" horiz-adv-x="483" 
d="M243 1526h178l-105 -430h-253z" />
    <glyph glyph-name="quoteright" unicode="&#x2019;" horiz-adv-x="483" 
d="M241 1096h-178l105 430h253z" />
    <glyph glyph-name="quotesinglbase" unicode="&#x201a;" horiz-adv-x="483" 
d="M169 224h252l-180 -433h-178z" />
    <glyph glyph-name="quotedblleft" unicode="&#x201c;" horiz-adv-x="832" 
d="M591 1526h178l-105 -430h-253zM243 1526h178l-105 -430h-253z" />
    <glyph glyph-name="quotedblright" unicode="&#x201d;" horiz-adv-x="832" 
d="M589 1096h-178l105 430h253zM241 1096h-178l105 430h253z" />
    <glyph glyph-name="quotedblbase" unicode="&#x201e;" horiz-adv-x="832" 
d="M517 224h252l-180 -433h-178zM169 224h252l-180 -433h-178z" />
    <glyph glyph-name="dagger" unicode="&#x2020;" 
d="M499 811l-383 -34v299l378 -34l-30 482h322l-30 -482l375 36v-301l-381 34l37 -1196h-324z" />
    <glyph glyph-name="daggerdbl" unicode="&#x2021;" 
d="M1132 60l-380 38l36 -482h-324l34 482l-383 -37v303l391 -35l-40 244l40 250l-391 -35v299l383 -36l-34 473h323l-35 -473l380 37v-300l-389 35l42 -250l-41 -244l388 35v-304z" />
    <glyph glyph-name="bullet" unicode="&#x2022;" horiz-adv-x="907" 
d="M304 336q-67 34 -108.5 106.5t-41.5 180.5q0 109 41 179.5t108.5 103.5t147.5 33q82 0 149.5 -33t108.5 -103.5t41 -179.5q0 -108 -41 -180.5t-109 -106.5t-149 -34q-80 0 -147 34z" />
    <glyph glyph-name="ellipsis" unicode="&#x2026;" horiz-adv-x="1472" 
d="M1101.5 20.5q-45.5 40.5 -45.5 124.5t45.5 124t114.5 40q72 0 118.5 -40t46.5 -124t-46.5 -124.5t-118.5 -40.5q-69 0 -114.5 40.5zM619.5 20.5q-45.5 40.5 -45.5 124.5t45.5 124t114.5 40q72 0 118.5 -40t46.5 -124t-46.5 -124.5t-118.5 -40.5q-69 0 -114.5 40.5z
M136.5 20.5q-45.5 40.5 -45.5 124.5t45.5 124t114.5 40q72 0 118.5 -40t46.5 -124t-46.5 -124.5t-118.5 -40.5q-69 0 -114.5 40.5z" />
    <glyph glyph-name="perthousand" unicode="&#x2030;" horiz-adv-x="2359" 
d="M209.5 770.5q-72.5 41.5 -106.5 130.5t-34 236t34 235.5t106.5 130t191.5 41.5t190.5 -41t104.5 -130t33 -236t-33 -236t-105 -130.5t-190 -41.5q-119 0 -191.5 41.5zM1118 1524h234l-827 -1524h-240zM467 910.5q23 20.5 33 73.5t10 153q0 102 -10 154.5t-33 72.5t-66 20
q-42 0 -65.5 -21t-34.5 -74.5t-11 -151.5q0 -99 11 -152t35 -74t67 -21q41 0 64 20.5zM1048.5 21.5q-72.5 41.5 -106.5 130.5t-34 236q0 146 34 235t106.5 130.5t191.5 41.5t190.5 -41t104.5 -130t33 -236t-33 -236t-104.5 -130.5t-190.5 -41.5t-191.5 41.5zM1769.5 21.5
q-72.5 41.5 -106.5 130.5t-34 236q0 146 34 235t106.5 130.5t191.5 41.5t190.5 -41t104.5 -130t33 -236t-33 -236t-104.5 -130.5t-190.5 -41.5t-191.5 41.5zM1306 161.5q23 20.5 33 73.5t10 153q0 102 -10 154.5t-33 72t-66 19.5q-42 0 -65.5 -21t-34.5 -74t-11 -151
q0 -100 11 -152.5t35 -73.5t67 -21q41 0 64 20.5zM2027 161.5q23 20.5 33 73.5t10 153q0 102 -10 154.5t-33 72t-66 19.5q-42 0 -65.5 -21t-34.5 -74t-11 -151q0 -99 11 -152t35 -74t67 -21q41 0 64 20.5z" />
    <glyph glyph-name="fraction" unicode="&#x2044;" horiz-adv-x="61" 
d="M-502 0l831 1524h235l-826 -1524h-240z" />
    <glyph glyph-name="trademark" unicode="&#x2122;" horiz-adv-x="1800" 
d="M524 1371v-687h-194v687h-217v153h630v-153h-219zM850 684v840h246l156 -569l164 569h237v-840h-172v533l-157 -533h-152l-152 531v-531h-170z" />
    <glyph glyph-name="guilsinglleft" unicode="&#x2039;" horiz-adv-x="724" 
d="M381 256l-317 367l317 364h279l-325 -364l325 -367h-279z" />
    <glyph glyph-name="guillemotleft" unicode="&#xab;" horiz-adv-x="1160" 
d="M817 256l-317 367l317 364h279l-325 -364l325 -367h-279zM381 256l-317 367l317 364h279l-325 -364l325 -367h-279z" />
    <glyph glyph-name="guillemotright" unicode="&#xbb;" horiz-adv-x="1160" 
d="M500 987h279l317 -364l-317 -367h-279l325 367zM64 987h279l317 -364l-317 -367h-279l325 367z" />
    <glyph glyph-name="guilsinglright" unicode="&#x203a;" horiz-adv-x="724" 
d="M64 987h279l317 -364l-317 -367h-279l325 367z" />
    <glyph glyph-name="Abreve" unicode="&#x102;" horiz-adv-x="1488" 
d="M1024 277h-571l-82 -277h-329l507 1526h401l496 -1526h-341zM949 534l-207 711l-212 -711h419zM1104.5 1813.5q-23.5 -72.5 -107 -143t-246.5 -70.5q-164 0 -247 70.5t-104.5 141.5t-21.5 105h213q0 -19 8.5 -53t44 -68.5t108.5 -34.5q74 0 112 34.5t48 70t10 51.5h206
q0 -31 -23.5 -103.5z" />
    <glyph glyph-name="Amacron" unicode="&#x100;" horiz-adv-x="1488" 
d="M1024 277h-571l-82 -277h-329l507 1526h401l496 -1526h-341zM949 534l-207 711l-212 -711h419zM427 1881h652v-197h-652v197z" />
    <glyph glyph-name="Aogonek" unicode="&#x104;" horiz-adv-x="1488" 
d="M1552 -334q0 -2 -27 -14t-74 -22t-111 -10q-113 0 -176.5 44.5t-63.5 131.5q0 68 44 117t129 87h-168l-81 277h-571l-82 -277h-329l507 1526h401l496 -1526q-69 -27 -111.5 -69t-42.5 -86q0 -29 21 -44.5t58 -15.5q44 0 77 7t53 15.5t20 9.5zM949 534l-207 711l-212 -711
h419z" />
    <glyph glyph-name="Cacute" unicode="&#x106;" horiz-adv-x="1216" 
d="M386.5 56.5q-146.5 76.5 -219.5 248t-73 457.5t73 457.5t219.5 248t376.5 76.5q119 0 205 -20t134.5 -42.5t48.5 -26.5l-69 -244q0 2 -36.5 17.5t-98 29t-141.5 13.5q-134 0 -213.5 -42.5t-119 -153t-39.5 -313.5q0 -204 39.5 -314t119 -152.5t213.5 -42.5
q80 0 141.5 13.5t98 29t36.5 17.5l69 -245q0 -3 -48.5 -26t-134.5 -42.5t-205 -19.5q-230 0 -376.5 76.5zM784 1611h-236l187 306h324z" />
    <glyph glyph-name="Ccaron" unicode="&#x10c;" horiz-adv-x="1216" 
d="M386.5 56.5q-146.5 76.5 -219.5 248t-73 457.5t73 457.5t219.5 248t376.5 76.5q119 0 205 -20t134.5 -42.5t48.5 -26.5l-69 -244q0 2 -36.5 17.5t-98 29t-141.5 13.5q-134 0 -213.5 -42.5t-119 -153t-39.5 -313.5q0 -204 39.5 -314t119 -152.5t213.5 -42.5
q80 0 141.5 13.5t98 29t36.5 17.5l69 -245q0 -3 -48.5 -26t-134.5 -42.5t-205 -19.5q-230 0 -376.5 76.5zM734 1758l114 157h254l-245 -305h-242l-248 305h254z" />
    <glyph glyph-name="Ccircumflex" unicode="&#x108;" horiz-adv-x="1216" 
d="M386.5 56.5q-146.5 76.5 -219.5 248t-73 457.5t73 457.5t219.5 248t376.5 76.5q119 0 205 -20t134.5 -42.5t48.5 -26.5l-69 -244q0 2 -36.5 17.5t-98 29t-141.5 13.5q-134 0 -213.5 -42.5t-119 -153t-39.5 -313.5q0 -204 39.5 -314t119 -152.5t213.5 -42.5
q80 0 141.5 13.5t98 29t36.5 17.5l69 -245q0 -3 -48.5 -26t-134.5 -42.5t-205 -19.5q-230 0 -376.5 76.5zM615 1917h242l245 -304h-254l-114 155l-113 -155h-254z" />
    <glyph glyph-name="Cdotaccent" unicode="&#x10a;" horiz-adv-x="1216" 
d="M386.5 56.5q-146.5 76.5 -219.5 248t-73 457.5t73 457.5t219.5 248t376.5 76.5q119 0 205 -20t134.5 -42.5t48.5 -26.5l-69 -244q0 2 -36.5 17.5t-98 29t-141.5 13.5q-134 0 -213.5 -42.5t-119 -153t-39.5 -313.5q0 -204 39.5 -314t119 -152.5t213.5 -42.5
q80 0 141.5 13.5t98 29t36.5 17.5l69 -245q0 -3 -48.5 -26t-134.5 -42.5t-205 -19.5q-230 0 -376.5 76.5zM627.5 1673q-42.5 36 -42.5 105q0 70 42 104.5t106 34.5q66 0 109.5 -34.5t43.5 -104.5q0 -69 -44 -105t-109 -36q-63 0 -105.5 36z" />
    <glyph glyph-name="Dcaron" unicode="&#x10e;" horiz-adv-x="1378" 
d="M115 1526h517q227 0 369 -72t212.5 -239t70.5 -452q0 -286 -71 -453t-212.5 -238.5t-368.5 -71.5h-517v1526zM635 260q113 0 178.5 41.5t98 150.5t32.5 311q0 204 -31.5 311.5t-98 149t-183.5 41.5h-186v-1005h190zM664 1758l114 157h254l-245 -305h-242l-248 305h254z
" />
    <glyph glyph-name="Dcroat" unicode="&#x110;" horiz-adv-x="1378" 
d="M1001 1454q142 -72 212.5 -239t70.5 -452q0 -286 -71 -453t-212.5 -238.5t-368.5 -71.5h-517v650h-95v261h95v615h517q227 0 369 -72zM813.5 301.5q65.5 41.5 98 150.5t32.5 311q0 204 -31.5 311.5t-98 149t-183.5 41.5h-186v-354h277v-261h-277v-390h190
q113 0 178.5 41.5z" />
    <glyph glyph-name="Ebreve" unicode="&#x114;" horiz-adv-x="1202" 
d="M1102 260v-260h-987v1526h982v-261h-652v-354h565v-261h-565v-390h657zM966.5 1813.5q-23.5 -72.5 -107 -143t-246.5 -70.5q-164 0 -247 70.5t-104.5 141.5t-21.5 105h213q0 -19 8.5 -53t44 -68.5t108.5 -34.5q74 0 112 34.5t48 70t10 51.5h206q0 -31 -23.5 -103.5z" />
    <glyph glyph-name="Ecaron" unicode="&#x11a;" horiz-adv-x="1202" 
d="M1102 260v-260h-987v1526h982v-261h-652v-354h565v-261h-565v-390h657zM614 1758l114 157h254l-245 -305h-242l-248 305h254z" />
    <glyph glyph-name="Edotaccent" unicode="&#x116;" horiz-adv-x="1202" 
d="M1102 260v-260h-987v1526h982v-261h-652v-354h565v-261h-565v-390h657zM507.5 1673q-42.5 36 -42.5 105q0 70 42 104.5t106 34.5q66 0 109.5 -34.5t43.5 -104.5q0 -69 -44 -105t-109 -36q-63 0 -105.5 36z" />
    <glyph glyph-name="Emacron" unicode="&#x112;" horiz-adv-x="1202" 
d="M1102 260v-260h-987v1526h982v-261h-652v-354h565v-261h-565v-390h657zM289 1881h652v-197h-652v197z" />
    <glyph glyph-name="Eogonek" unicode="&#x118;" horiz-adv-x="1202" 
d="M1208 -334q0 -2 -27 -14t-74 -22t-111 -10q-113 0 -176.5 44.5t-63.5 131.5q0 68 44 117t129 87h-814v1526h982v-261h-652v-354h565v-261h-565v-390h657v-260q-69 -27 -111.5 -69t-42.5 -86q0 -29 21 -44.5t58 -15.5q44 0 77 7t53 15.5t20 9.5z" />
    <glyph glyph-name="Gbreve" unicode="&#x11e;" horiz-adv-x="1396" 
d="M1285 105q0 -4 -70.5 -36.5t-187.5 -60.5t-267 -28q-230 0 -376 76t-218 247.5t-72 458.5q0 285 76 456.5t230 248.5t398 77q143 0 244 -22t156.5 -48t55.5 -30l-68 -254q0 3 -44 21t-121 33.5t-183 15.5q-148 0 -234 -41t-128 -148.5t-42 -308.5t38.5 -311.5t118 -154.5
t212.5 -44q42 0 78.5 5t58 10.5t27.5 7.5v358h-210v261h528v-789zM1099.5 1813.5q-23.5 -72.5 -107 -143t-246.5 -70.5q-164 0 -247 70.5t-104.5 141.5t-21.5 105h213q0 -19 8.5 -53t44 -68.5t108.5 -34.5q74 0 112 34.5t48 70t10 51.5h206q0 -31 -23.5 -103.5z" />
    <glyph glyph-name="Gcircumflex" unicode="&#x11c;" horiz-adv-x="1396" 
d="M1285 105q0 -4 -70.5 -36.5t-187.5 -60.5t-267 -28q-230 0 -376 76t-218 247.5t-72 458.5q0 285 76 456.5t230 248.5t398 77q143 0 244 -22t156.5 -48t55.5 -30l-68 -254q0 3 -44 21t-121 33.5t-183 15.5q-148 0 -234 -41t-128 -148.5t-42 -308.5t38.5 -311.5t118 -154.5
t212.5 -44q42 0 78.5 5t58 10.5t27.5 7.5v358h-210v261h528v-789zM628 1917h242l245 -304h-254l-114 155l-113 -155h-254z" />
    <glyph glyph-name="Gcommaaccent" unicode="&#x122;" horiz-adv-x="1396" 
d="M1285 105q0 -4 -70.5 -36.5t-187.5 -60.5t-267 -28q-230 0 -376 76t-218 247.5t-72 458.5q0 285 76 456.5t230 248.5t398 77q143 0 244 -22t156.5 -48t55.5 -30l-68 -254q0 3 -44 21t-121 33.5t-183 15.5q-148 0 -234 -41t-128 -148.5t-42 -308.5t38.5 -311.5t118 -154.5
t212.5 -44q42 0 78.5 5t58 10.5t27.5 7.5v358h-210v261h528v-789zM797 -448h-226l61 340h298z" />
    <glyph glyph-name="Gdotaccent" unicode="&#x120;" horiz-adv-x="1396" 
d="M1285 105q0 -4 -70.5 -36.5t-187.5 -60.5t-267 -28q-230 0 -376 76t-218 247.5t-72 458.5q0 285 76 456.5t230 248.5t398 77q143 0 244 -22t156.5 -48t55.5 -30l-68 -254q0 3 -44 21t-121 33.5t-183 15.5q-148 0 -234 -41t-128 -148.5t-42 -308.5t38.5 -311.5t118 -154.5
t212.5 -44q42 0 78.5 5t58 10.5t27.5 7.5v358h-210v261h528v-789zM640.5 1673q-42.5 36 -42.5 105q0 70 42 104.5t106 34.5q66 0 109.5 -34.5t43.5 -104.5q0 -69 -44 -105t-109 -36q-63 0 -105.5 36z" />
    <glyph glyph-name="Hbar" unicode="&#x126;" horiz-adv-x="1400" 
d="M1389 1090h-104v-1090h-331v650h-508v-650h-331v1090h-104v194h104v242h331v-242h508v242h331v-242h104v-194zM954 1090h-508v-179h508v179z" />
    <glyph glyph-name="Hcircumflex" unicode="&#x124;" horiz-adv-x="1400" 
d="M1285 1526v-1526h-331v650h-508v-650h-331v1526h331v-615h508v615h331zM581 1917h242l245 -304h-254l-114 155l-113 -155h-254z" />
    <glyph glyph-name="IJ" unicode="&#x132;" horiz-adv-x="1445" 
d="M115 1526h330v-1526h-330v1526zM737.5 -10.5q-48.5 9.5 -80 21t-31.5 12.5l17 256q0 -1 24.5 -11t62 -18.5t81.5 -8.5q94 0 141.5 52t47.5 150v1083h330v-1086q0 -460 -484 -460q-60 0 -108.5 9.5z" />
    <glyph glyph-name="Ibreve" unicode="&#x12c;" horiz-adv-x="560" 
d="M115 1526h330v-1526h-330v1526zM638.5 1813.5q-23.5 -72.5 -107 -143t-246.5 -70.5q-164 0 -247 70.5t-104.5 141.5t-21.5 105h213q0 -19 8.5 -53t44 -68.5t108.5 -34.5q74 0 112 34.5t48 70t10 51.5h206q0 -31 -23.5 -103.5z" />
    <glyph glyph-name="Idotaccent" unicode="&#x130;" horiz-adv-x="560" 
d="M115 1526h330v-1526h-330v1526zM179.5 1673q-42.5 36 -42.5 105q0 70 42 104.5t106 34.5q66 0 109.5 -34.5t43.5 -104.5q0 -69 -44 -105t-109 -36q-63 0 -105.5 36z" />
    <glyph glyph-name="Imacron" unicode="&#x12a;" horiz-adv-x="560" 
d="M115 1526h330v-1526h-330v1526zM-39 1881h652v-197h-652v197z" />
    <glyph glyph-name="Iogonek" unicode="&#x12e;" horiz-adv-x="560" 
d="M558 -334q0 -2 -27 -14t-74 -22t-111 -10q-113 0 -176.5 44.5t-63.5 131.5q0 68 44 117t129 87h-164v1526h330v-1513l7 -13q-69 -27 -111.5 -69t-42.5 -86q0 -29 21 -44.5t58 -15.5q44 0 77 7t53 15.5t20 9.5z" />
    <glyph glyph-name="Itilde" unicode="&#x128;" horiz-adv-x="560" 
d="M115 1526h330v-1526h-330v1526zM673.5 1816q-16.5 -70 -72.5 -137t-163 -67q-50 0 -84.5 15t-80.5 45q-33 23 -57 34t-52 11q-36 0 -54.5 -23t-23.5 -46.5t-5 -34.5h-197q0 28 16.5 97.5t72 136.5t161.5 67q54 0 92.5 -16.5t83.5 -47.5q33 -22 54.5 -32.5t45.5 -10.5
q36 0 54.5 24t23.5 48t5 35h197q0 -28 -16.5 -98z" />
    <glyph glyph-name="Jcircumflex" unicode="&#x134;" horiz-adv-x="885" 
d="M177.5 -10.5q-48.5 9.5 -80 21t-31.5 12.5l17 256q0 -1 24.5 -11t62 -18.5t81.5 -8.5q94 0 141.5 52t47.5 150v1083h330v-1086q0 -460 -484 -460q-60 0 -108.5 9.5zM486 1917h242l245 -304h-254l-114 155l-113 -155h-254z" />
    <glyph glyph-name="Kcommaaccent" unicode="&#x136;" horiz-adv-x="1417" 
d="M718 727l-273 -357v-370h-330v1526h330v-754l508 754h375l-387 -507l410 -1019h-349zM740 -448h-226l61 340h298z" />
    <glyph glyph-name="Lacute" unicode="&#x139;" horiz-adv-x="1157" 
d="M1078 260v-260h-963v1526h330v-1266h633zM662 1611h-236l187 306h324z" />
    <glyph glyph-name="Lcaron" unicode="&#x13d;" horiz-adv-x="1157" 
d="M776 1144h-178l69 411h253zM1078 260v-260h-963v1526h330v-1266h633z" />
    <glyph glyph-name="Lcommaaccent" unicode="&#x13b;" horiz-adv-x="1157" 
d="M1078 260v-260h-963v1526h330v-1266h633zM610 -448h-226l61 340h298z" />
    <glyph glyph-name="Ldot" unicode="&#x13f;" horiz-adv-x="1157" 
d="M1078 260v-260h-963v1526h330v-1266h633zM673.5 534.5q-42.5 38.5 -42.5 115.5t42 114t106 37q65 0 108.5 -37t43.5 -114t-43.5 -115.5t-108.5 -38.5q-63 0 -105.5 38.5z" />
    <glyph glyph-name="Nacute" unicode="&#x143;" horiz-adv-x="1400" 
d="M1285 1526v-1526h-340l-532 997v-997h-298v1526h360l512 -989v989h298zM764 1611h-236l187 306h324z" />
    <glyph glyph-name="Ncaron" unicode="&#x147;" horiz-adv-x="1400" 
d="M1285 1526v-1526h-340l-532 997v-997h-298v1526h360l512 -989v989h298zM714 1758l114 157h254l-245 -305h-242l-248 305h254z" />
    <glyph glyph-name="Ncommaaccent" unicode="&#x145;" horiz-adv-x="1400" 
d="M1285 1526v-1526h-340l-532 997v-997h-298v1526h360l512 -989v989h298zM745 -448h-226l61 340h298z" />
    <glyph glyph-name="Eng" unicode="&#x14a;" horiz-adv-x="1397" 
d="M1282 1526v-1636q0 -147 -78.5 -223.5t-217.5 -76.5q-44 0 -82.5 6t-62.5 12.5t-30 8.5l30 216q0 -1 27.5 -8t50.5 -7q41 0 61 26.5t20 72.5v83l-587 994v-994h-298v1526h356l514 -914v914h297z" />
    <glyph glyph-name="Obreve" unicode="&#x14e;" horiz-adv-x="1497" 
d="M380 56q-144 76 -215 248t-71 459q0 286 70.5 458t214 248.5t370.5 76.5q224 0 367 -76.5t215 -249t72 -457.5q0 -286 -71.5 -458t-214 -248.5t-365.5 -76.5q-228 0 -372 76zM931.5 296q66.5 43 99 153.5t32.5 313.5t-32.5 313t-99.5 153t-182 43t-182 -43t-100 -153
t-33 -313t32.5 -313.5t100.5 -153.5t185 -43q113 0 179.5 43zM1101.5 1813.5q-23.5 -72.5 -107 -143t-246.5 -70.5q-164 0 -247 70.5t-104.5 141.5t-21.5 105h213q0 -19 8.5 -53t44 -68.5t108.5 -34.5q74 0 112 34.5t48 70t10 51.5h206q0 -31 -23.5 -103.5z" />
    <glyph glyph-name="Ohungarumlaut" unicode="&#x150;" horiz-adv-x="1497" 
d="M380 56q-144 76 -215 248t-71 459q0 286 70.5 458t214 248.5t370.5 76.5q224 0 367 -76.5t215 -249t72 -457.5q0 -286 -71.5 -458t-214 -248.5t-365.5 -76.5q-228 0 -372 76zM931.5 296q66.5 43 99 153.5t32.5 313.5t-32.5 313t-99.5 153t-182 43t-182 -43t-100 -153
t-33 -313t32.5 -313.5t100.5 -153.5t185 -43q113 0 179.5 43zM700 1610h-186l161 307h262zM1020 1610h-186l196 307h263z" />
    <glyph glyph-name="Omacron" unicode="&#x14c;" horiz-adv-x="1497" 
d="M380 56q-144 76 -215 248t-71 459q0 286 70.5 458t214 248.5t370.5 76.5q224 0 367 -76.5t215 -249t72 -457.5q0 -286 -71.5 -458t-214 -248.5t-365.5 -76.5q-228 0 -372 76zM931.5 296q66.5 43 99 153.5t32.5 313.5t-32.5 313t-99.5 153t-182 43t-182 -43t-100 -153
t-33 -313t32.5 -313.5t100.5 -153.5t185 -43q113 0 179.5 43zM424 1881h652v-197h-652v197z" />
    <glyph glyph-name="Racute" unicode="&#x154;" horiz-adv-x="1313" 
d="M1158 791q-74 -109 -207 -147l270 -644h-332l-231 600h-213v-600h-330v1526h683q209 0 321.5 -116.5t112.5 -338.5q0 -171 -74 -280zM445 847h281q95 0 145 55.5t50 154.5q0 208 -187 208h-289v-418zM707 1611h-236l187 306h324z" />
    <glyph glyph-name="Rcaron" unicode="&#x158;" horiz-adv-x="1313" 
d="M1158 791q-74 -109 -207 -147l270 -644h-332l-231 600h-213v-600h-330v1526h683q209 0 321.5 -116.5t112.5 -338.5q0 -171 -74 -280zM445 847h281q95 0 145 55.5t50 154.5q0 208 -187 208h-289v-418zM657 1758l114 157h254l-245 -305h-242l-248 305h254z" />
    <glyph glyph-name="Rcommaaccent" unicode="&#x156;" horiz-adv-x="1313" 
d="M1158 791q-74 -109 -207 -147l270 -644h-332l-231 600h-213v-600h-330v1526h683q209 0 321.5 -116.5t112.5 -338.5q0 -171 -74 -280zM445 847h281q95 0 145 55.5t50 154.5q0 208 -187 208h-289v-418zM690 -448h-226l61 340h298z" />
    <glyph glyph-name="Sacute" unicode="&#x15a;" horiz-adv-x="1259" 
d="M359.5 13.5q-121.5 32.5 -198 71t-76.5 43.5l82 271q0 -4 72 -42t177.5 -70t224.5 -32q226 0 226 168q0 62 -27.5 100t-80.5 60t-143 39l-81 16q-133 25 -224 69t-147 137.5t-56 251.5q0 137 62 238t181.5 155.5t286.5 54.5q144 0 258.5 -27t185.5 -58.5t71 -35.5
l-68 -263q0 4 -60.5 32.5t-157.5 53t-218 24.5q-112 0 -168 -42.5t-56 -121.5q0 -60 25.5 -96t79 -57.5t153.5 -42.5l77 -17q128 -25 217.5 -71t143.5 -137t54 -239q0 -138 -64 -243.5t-186.5 -163.5t-292.5 -58q-151 0 -272.5 32.5zM702 1611h-236l187 306h324z" />
    <glyph glyph-name="Scedilla" unicode="&#x15e;" horiz-adv-x="1259" 
d="M1122 221.5q-53 -98.5 -155 -159.5t-245 -76l-40 -71q73 -5 122.5 -41.5t49.5 -107.5q0 -84 -61 -131.5t-177 -47.5q-82 0 -137 20.5t-85 38.5l54 120q0 -1 26.5 -14t64 -23.5t78.5 -10.5q33 0 51.5 13t18.5 37q0 33 -40 45t-125 12h-34l84 158q-135 7 -243 39t-176 67
t-68 39l82 271q0 -4 72 -42t177.5 -70t224.5 -32q226 0 226 168q0 62 -27.5 100t-80.5 60t-143 39l-81 16q-133 25 -224 69t-147 137.5t-56 251.5q0 137 62 238t181.5 155.5t286.5 54.5q144 0 258.5 -27t185.5 -58.5t71 -35.5l-68 -263q0 4 -60.5 32.5t-157.5 53t-218 24.5
q-112 0 -168 -42.5t-56 -121.5q0 -60 25.5 -96t79 -57.5t153.5 -42.5l77 -17q128 -25 217.5 -71t143.5 -137t54 -239q0 -126 -53 -224.5z" />
    <glyph glyph-name="Scircumflex" unicode="&#x15c;" horiz-adv-x="1259" 
d="M359.5 13.5q-121.5 32.5 -198 71t-76.5 43.5l82 271q0 -4 72 -42t177.5 -70t224.5 -32q226 0 226 168q0 62 -27.5 100t-80.5 60t-143 39l-81 16q-133 25 -224 69t-147 137.5t-56 251.5q0 137 62 238t181.5 155.5t286.5 54.5q144 0 258.5 -27t185.5 -58.5t71 -35.5
l-68 -263q0 4 -60.5 32.5t-157.5 53t-218 24.5q-112 0 -168 -42.5t-56 -121.5q0 -60 25.5 -96t79 -57.5t153.5 -42.5l77 -17q128 -25 217.5 -71t143.5 -137t54 -239q0 -138 -64 -243.5t-186.5 -163.5t-292.5 -58q-151 0 -272.5 32.5zM533 1917h242l245 -304h-254l-114 155
l-113 -155h-254z" />
    <glyph glyph-name="Scommaaccent" unicode="&#x218;" horiz-adv-x="1259" 
d="M359.5 13.5q-121.5 32.5 -198 71t-76.5 43.5l82 271q0 -4 72 -42t177.5 -70t224.5 -32q226 0 226 168q0 62 -27.5 100t-80.5 60t-143 39l-81 16q-133 25 -224 69t-147 137.5t-56 251.5q0 137 62 238t181.5 155.5t286.5 54.5q144 0 258.5 -27t185.5 -58.5t71 -35.5
l-68 -263q0 4 -60.5 32.5t-157.5 53t-218 24.5q-112 0 -168 -42.5t-56 -121.5q0 -60 25.5 -96t79 -57.5t153.5 -42.5l77 -17q128 -25 217.5 -71t143.5 -137t54 -239q0 -138 -64 -243.5t-186.5 -163.5t-292.5 -58q-151 0 -272.5 32.5zM681 -448h-226l61 340h298z" />
    <glyph glyph-name="Tbar" unicode="&#x166;" horiz-adv-x="1211" 
d="M768 1265v-397h251v-227h-251v-641h-330v641h-240v227h240v397h-379v261h1093v-261h-384z" />
    <glyph glyph-name="Tcaron" unicode="&#x164;" horiz-adv-x="1211" 
d="M1152 1265h-384v-1265h-330v1265h-379v261h1093v-261zM604 1758l114 157h254l-245 -305h-242l-248 305h254z" />
    <glyph glyph-name="uni0162" unicode="&#x162;" horiz-adv-x="1211" 
d="M1152 1265h-384v-1265h-330v1265h-379v261h1093v-261zM637 -448h-226l61 340h298z" />
    <glyph glyph-name="uni021A" unicode="&#x21a;" horiz-adv-x="1211" 
d="M1152 1265h-384v-1265h-330v1265h-379v261h1093v-261zM637 -448h-226l61 340h298z" />
    <glyph glyph-name="Ubreve" unicode="&#x16c;" horiz-adv-x="1400" 
d="M389.5 49.5q-132.5 69.5 -203.5 202t-71 315.5v959h330v-973q0 -149 65 -224.5t193 -75.5q122 0 187 76.5t65 223.5v973h330v-959q0 -183 -71 -315t-202 -202t-309 -70q-181 0 -313.5 69.5zM1057.5 1813.5q-23.5 -72.5 -107 -143t-246.5 -70.5q-164 0 -247 70.5
t-104.5 141.5t-21.5 105h213q0 -19 8.5 -53t44 -68.5t108.5 -34.5q74 0 112 34.5t48 70t10 51.5h206q0 -31 -23.5 -103.5z" />
    <glyph glyph-name="Uhungarumlaut" unicode="&#x170;" horiz-adv-x="1400" 
d="M389.5 49.5q-132.5 69.5 -203.5 202t-71 315.5v959h330v-973q0 -149 65 -224.5t193 -75.5q122 0 187 76.5t65 223.5v973h330v-959q0 -183 -71 -315t-202 -202t-309 -70q-181 0 -313.5 69.5zM656 1610h-186l161 307h262zM976 1610h-186l196 307h263z" />
    <glyph glyph-name="Umacron" unicode="&#x16a;" horiz-adv-x="1400" 
d="M389.5 49.5q-132.5 69.5 -203.5 202t-71 315.5v959h330v-973q0 -149 65 -224.5t193 -75.5q122 0 187 76.5t65 223.5v973h330v-959q0 -183 -71 -315t-202 -202t-309 -70q-181 0 -313.5 69.5zM380 1881h652v-197h-652v197z" />
    <glyph glyph-name="Uogonek" unicode="&#x172;" horiz-adv-x="1400" 
d="M1285 1526v-959q0 -150 -48.5 -267t-139.5 -193t-217 -107q-69 -27 -111.5 -69t-42.5 -86q0 -29 21 -44.5t58 -15.5q44 0 77 7t53 15.5t20 9.5l31 -151q0 -2 -27 -14t-74 -22t-111 -10q-113 0 -176.5 44.5t-63.5 131.5q0 59 34 104t100 81q-171 6 -295.5 77.5t-191 201.5
t-66.5 307v959h330v-973q0 -149 65 -224.5t193 -75.5q122 0 187 76.5t65 223.5v973h330z" />
    <glyph glyph-name="Uring" unicode="&#x16e;" horiz-adv-x="1400" 
d="M389.5 49.5q-132.5 69.5 -203.5 202t-71 315.5v959h330v-973q0 -149 65 -224.5t193 -75.5q122 0 187 76.5t65 223.5v973h330v-959q0 -183 -71 -315t-202 -202t-309 -70q-181 0 -313.5 69.5zM569 1601.5q-60 26.5 -94 75.5t-34 115q0 101 72.5 158.5t193.5 57.5
q79 0 138.5 -26t92.5 -74.5t33 -115.5q0 -102 -73 -159.5t-191 -57.5q-78 0 -138 26.5zM634 1857q-28 -26 -28 -65q0 -40 28.5 -66t72.5 -26q43 0 71.5 26t28.5 66t-26 65.5t-74 25.5q-45 0 -73 -26z" />
    <glyph glyph-name="Utilde" unicode="&#x168;" horiz-adv-x="1400" 
d="M389.5 49.5q-132.5 69.5 -203.5 202t-71 315.5v959h330v-973q0 -149 65 -224.5t193 -75.5q122 0 187 76.5t65 223.5v973h330v-959q0 -183 -71 -315t-202 -202t-309 -70q-181 0 -313.5 69.5zM1092.5 1816q-16.5 -70 -72.5 -137t-163 -67q-50 0 -84.5 15t-80.5 45
q-33 23 -57 34t-52 11q-36 0 -54.5 -23t-23.5 -46.5t-5 -34.5h-197q0 28 16.5 97.5t72 136.5t161.5 67q54 0 92.5 -16.5t83.5 -47.5q33 -22 54.5 -32.5t45.5 -10.5q36 0 54.5 24t23.5 48t5 35h197q0 -28 -16.5 -98z" />
    <glyph glyph-name="Wacute" unicode="&#x1e82;" horiz-adv-x="2042" 
d="M1976 1526l-288 -1526h-410l-257 1156l-265 -1156h-427l-263 1526h342l171 -1174l276 1174h344l271 -1171l176 1171h330zM1073 1611h-236l187 306h324z" />
    <glyph glyph-name="Wcircumflex" unicode="&#x174;" horiz-adv-x="2042" 
d="M1976 1526l-288 -1526h-410l-257 1156l-265 -1156h-427l-263 1526h342l171 -1174l276 1174h344l271 -1171l176 1171h330zM904 1917h242l245 -304h-254l-114 155l-113 -155h-254z" />
    <glyph glyph-name="Wdieresis" unicode="&#x1e84;" horiz-adv-x="2042" 
d="M1976 1526l-288 -1526h-410l-257 1156l-265 -1156h-427l-263 1526h342l171 -1174l276 1174h344l271 -1171l176 1171h330zM736.5 1675.5q-41.5 34.5 -41.5 103.5q0 70 41.5 104t104.5 34q64 0 107.5 -34t43.5 -104q0 -68 -43.5 -103t-107.5 -35q-63 0 -104.5 34.5z
M1101 1676q-42 35 -42 103q0 70 41.5 104t104.5 34q64 0 107.5 -34t43.5 -104q0 -68 -43.5 -103t-107.5 -35q-62 0 -104 35z" />
    <glyph glyph-name="Wgrave" unicode="&#x1e80;" horiz-adv-x="2042" 
d="M1976 1526l-288 -1526h-410l-257 1156l-265 -1156h-427l-263 1526h342l171 -1174l276 1174h344l271 -1171l176 1171h330zM1215 1611h-236l-275 306h324z" />
    <glyph glyph-name="Ycircumflex" unicode="&#x176;" horiz-adv-x="1392" 
d="M1337 1526l-478 -864v-662h-318v657l-485 869h364l282 -592l281 592h354zM576 1917h242l245 -304h-254l-114 155l-113 -155h-254z" />
    <glyph glyph-name="Ygrave" unicode="&#x1ef2;" horiz-adv-x="1392" 
d="M1337 1526l-478 -864v-662h-318v657l-485 869h364l282 -592l281 592h354zM887 1611h-236l-275 306h324z" />
    <glyph glyph-name="Zacute" unicode="&#x179;" horiz-adv-x="1344" 
d="M101 251l744 1014h-732v261h1101v-251l-729 -1015h759v-260h-1143v251zM717 1611h-236l187 306h324z" />
    <glyph glyph-name="Zdotaccent" unicode="&#x17b;" horiz-adv-x="1344" 
d="M101 251l744 1014h-732v261h1101v-251l-729 -1015h759v-260h-1143v251zM560.5 1673q-42.5 36 -42.5 105q0 70 42 104.5t106 34.5q66 0 109.5 -34.5t43.5 -104.5q0 -69 -44 -105t-109 -36q-63 0 -105.5 36z" />
    <glyph glyph-name="abreve" unicode="&#x103;" horiz-adv-x="1110" 
d="M901.5 1040.5q113.5 -91.5 113.5 -293.5v-746h-239l-17 110q-50 -44 -136.5 -87.5t-201.5 -43.5q-106 0 -184 40.5t-119 116.5t-41 179q0 118 61 198t167.5 118.5t242.5 38.5h183v61q0 91 -48 132t-154 41q-82 0 -160 -20t-135 -43.5t-57 -25.5l-60 209q0 3 68.5 31
t170 52t217.5 24q215 0 328.5 -91.5zM387 232.5q38 -36.5 105 -36.5q69 0 131 31t108 71v185h-156q-120 0 -173 -43t-53 -106q0 -65 38 -101.5zM927.5 1420.5q-23.5 -72.5 -107 -143t-246.5 -70.5q-164 0 -247 70.5t-104.5 141.5t-21.5 105h213q0 -19 8.5 -53t44 -68.5
t108.5 -34.5q74 0 112 34.5t48 70t10 51.5h206q0 -31 -23.5 -103.5z" />
    <glyph glyph-name="amacron" unicode="&#x101;" horiz-adv-x="1110" 
d="M901.5 1040.5q113.5 -91.5 113.5 -293.5v-746h-239l-17 110q-50 -44 -136.5 -87.5t-201.5 -43.5q-106 0 -184 40.5t-119 116.5t-41 179q0 118 61 198t167.5 118.5t242.5 38.5h183v61q0 91 -48 132t-154 41q-82 0 -160 -20t-135 -43.5t-57 -25.5l-60 209q0 3 68.5 31
t170 52t217.5 24q215 0 328.5 -91.5zM387 232.5q38 -36.5 105 -36.5q69 0 131 31t108 71v185h-156q-120 0 -173 -43t-53 -106q0 -65 38 -101.5zM250 1488h652v-197h-652v197z" />
    <glyph glyph-name="aogonek" unicode="&#x105;" horiz-adv-x="1110" 
d="M1121 -333q0 -2 -27 -14t-74 -22t-111 -10q-113 0 -176.5 44.5t-63.5 131.5q0 68 44 117t129 87h-66l-17 110q-50 -44 -136.5 -87.5t-201.5 -43.5q-106 0 -184 40.5t-119 116.5t-41 179q0 118 61 198t167.5 118.5t242.5 38.5h183v61q0 91 -48 132t-154 41q-82 0 -160 -20
t-135 -43.5t-57 -25.5l-60 209q0 3 68.5 31t170 52t217.5 24q215 0 328.5 -91.5t113.5 -293.5v-746q-69 -27 -111.5 -69t-42.5 -86q0 -29 21 -44.5t58 -15.5q44 0 77 7t53 15.5t20 9.5zM387 232.5q38 -36.5 105 -36.5q69 0 131 31t108 71v185h-156q-120 0 -173 -43t-53 -106
q0 -65 38 -101.5z" />
    <glyph glyph-name="cacute" unicode="&#x107;" horiz-adv-x="964" 
d="M300.5 38.5q-109.5 58.5 -163.5 185t-54 331.5t54 331.5t163.5 185t281.5 58.5q92 0 160.5 -18.5t108 -40t39.5 -24.5l-59 -202q0 2 -29 17t-76 27.5t-106 12.5q-87 0 -141.5 -31t-82 -107t-27.5 -209q0 -134 27.5 -210t82 -107t141.5 -31q59 0 106 12.5t76 27.5t29 17
l59 -202q0 -3 -39.5 -24.5t-108 -39.5t-160.5 -18q-172 0 -281.5 58.5zM614 1218h-236l187 306h324z" />
    <glyph glyph-name="ccaron" unicode="&#x10d;" horiz-adv-x="964" 
d="M300.5 38.5q-109.5 58.5 -163.5 185t-54 331.5t54 331.5t163.5 185t281.5 58.5q92 0 160.5 -18.5t108 -40t39.5 -24.5l-59 -202q0 2 -29 17t-76 27.5t-106 12.5q-87 0 -141.5 -31t-82 -107t-27.5 -209q0 -134 27.5 -210t82 -107t141.5 -31q59 0 106 12.5t76 27.5t29 17
l59 -202q0 -3 -39.5 -24.5t-108 -39.5t-160.5 -18q-172 0 -281.5 58.5zM564 1365l114 157h254l-245 -305h-242l-248 305h254z" />
    <glyph glyph-name="ccircumflex" unicode="&#x109;" horiz-adv-x="964" 
d="M300.5 38.5q-109.5 58.5 -163.5 185t-54 331.5t54 331.5t163.5 185t281.5 58.5q92 0 160.5 -18.5t108 -40t39.5 -24.5l-59 -202q0 2 -29 17t-76 27.5t-106 12.5q-87 0 -141.5 -31t-82 -107t-27.5 -209q0 -134 27.5 -210t82 -107t141.5 -31q59 0 106 12.5t76 27.5t29 17
l59 -202q0 -3 -39.5 -24.5t-108 -39.5t-160.5 -18q-172 0 -281.5 58.5zM445 1524h242l245 -304h-254l-114 155l-113 -155h-254z" />
    <glyph glyph-name="cdotaccent" unicode="&#x10b;" horiz-adv-x="964" 
d="M300.5 38.5q-109.5 58.5 -163.5 185t-54 331.5t54 331.5t163.5 185t281.5 58.5q92 0 160.5 -18.5t108 -40t39.5 -24.5l-59 -202q0 2 -29 17t-76 27.5t-106 12.5q-87 0 -141.5 -31t-82 -107t-27.5 -209q0 -134 27.5 -210t82 -107t141.5 -31q59 0 106 12.5t76 27.5t29 17
l59 -202q0 -3 -39.5 -24.5t-108 -39.5t-160.5 -18q-172 0 -281.5 58.5zM457.5 1280q-42.5 36 -42.5 105q0 70 42 104.5t106 34.5q66 0 109.5 -34.5t43.5 -104.5q0 -69 -44 -105t-109 -36q-63 0 -105.5 36z" />
    <glyph glyph-name="dcaron" unicode="&#x10f;" horiz-adv-x="1441" 
d="M1435 1556l-115 -379h-152l48 379h219zM777 1526h284v-1527h-233l-20 114q-45 -43 -128.5 -88t-193.5 -45q-136 0 -224.5 58.5t-133.5 185.5t-45 331t45 330.5t134 185.5t224 59q89 0 163 -32.5t128 -74.5v503zM689 232.5q50 25.5 88 60.5v522q-38 36 -88 61.5t-107 25.5
q-77 0 -122.5 -29t-68 -104.5t-22.5 -213.5q0 -139 22.5 -214.5t68 -104.5t122.5 -29q57 0 107 25.5z" />
    <glyph glyph-name="dcroat" unicode="&#x111;" horiz-adv-x="1172" 
d="M1150 1197h-89v-1198h-233l-20 114q-45 -43 -128.5 -88t-193.5 -45q-136 0 -224.5 58.5t-133.5 185.5t-45 331t45 330.5t134 185.5t224 59q89 0 163 -32.5t128 -74.5v174h-266v187h266v142h284v-142h89v-187zM689 232.5q50 25.5 88 60.5v522q-38 36 -88 61.5t-107 25.5
q-77 0 -122.5 -29t-68 -104.5t-22.5 -213.5q0 -139 22.5 -214.5t68 -104.5t122.5 -29q57 0 107 25.5z" />
    <glyph glyph-name="ebreve" unicode="&#x115;" horiz-adv-x="1130" 
d="M1047 461h-673q11 -98 45 -153.5t90 -78t139 -22.5q78 0 147.5 19.5t117 42.5t47.5 25l70 -199q0 -4 -57.5 -34t-148 -55.5t-201.5 -25.5q-263 0 -401.5 133.5t-138.5 442.5q0 210 57.5 336t167 181t275.5 55q158 0 259 -50.5t153 -172t52 -332.5v-112zM766 644
q-1 140 -46 198.5t-142 58.5q-64 0 -106 -22.5t-67.5 -79t-32.5 -155.5h394zM936.5 1420.5q-23.5 -72.5 -107 -143t-246.5 -70.5q-164 0 -247 70.5t-104.5 141.5t-21.5 105h213q0 -19 8.5 -53t44 -68.5t108.5 -34.5q74 0 112 34.5t48 70t10 51.5h206q0 -31 -23.5 -103.5z
" />
    <glyph glyph-name="ecaron" unicode="&#x11b;" horiz-adv-x="1130" 
d="M1047 461h-673q11 -98 45 -153.5t90 -78t139 -22.5q78 0 147.5 19.5t117 42.5t47.5 25l70 -199q0 -4 -57.5 -34t-148 -55.5t-201.5 -25.5q-263 0 -401.5 133.5t-138.5 442.5q0 210 57.5 336t167 181t275.5 55q158 0 259 -50.5t153 -172t52 -332.5v-112zM766 644
q-1 140 -46 198.5t-142 58.5q-64 0 -106 -22.5t-67.5 -79t-32.5 -155.5h394zM584 1365l114 157h254l-245 -305h-242l-248 305h254z" />
    <glyph glyph-name="edotaccent" unicode="&#x117;" horiz-adv-x="1130" 
d="M1047 461h-673q11 -98 45 -153.5t90 -78t139 -22.5q78 0 147.5 19.5t117 42.5t47.5 25l70 -199q0 -4 -57.5 -34t-148 -55.5t-201.5 -25.5q-263 0 -401.5 133.5t-138.5 442.5q0 210 57.5 336t167 181t275.5 55q158 0 259 -50.5t153 -172t52 -332.5v-112zM766 644
q-1 140 -46 198.5t-142 58.5q-64 0 -106 -22.5t-67.5 -79t-32.5 -155.5h394zM477.5 1280q-42.5 36 -42.5 105q0 70 42 104.5t106 34.5q66 0 109.5 -34.5t43.5 -104.5q0 -69 -44 -105t-109 -36q-63 0 -105.5 36z" />
    <glyph glyph-name="emacron" unicode="&#x113;" horiz-adv-x="1130" 
d="M1047 461h-673q11 -98 45 -153.5t90 -78t139 -22.5q78 0 147.5 19.5t117 42.5t47.5 25l70 -199q0 -4 -57.5 -34t-148 -55.5t-201.5 -25.5q-263 0 -401.5 133.5t-138.5 442.5q0 210 57.5 336t167 181t275.5 55q158 0 259 -50.5t153 -172t52 -332.5v-112zM766 644
q-1 140 -46 198.5t-142 58.5q-64 0 -106 -22.5t-67.5 -79t-32.5 -155.5h394zM259 1488h652v-197h-652v197z" />
    <glyph glyph-name="eogonek" unicode="&#x119;" horiz-adv-x="1130" 
d="M1047 461h-673q11 -98 45 -153.5t90 -78t139 -22.5q78 0 147.5 19.5t117 42.5t47.5 25l70 -199q0 -1 -32.5 -20t-84.5 -40.5t-117 -35.5q-68 -27 -109.5 -69t-41.5 -85q0 -29 21 -44.5t58 -15.5q44 0 77 7t53 15.5t20 9.5l31 -151q0 -2 -27 -14t-74 -22t-111 -10
q-113 0 -176.5 44.5t-63.5 131.5q0 59 34 104t100 81q-246 8 -375 142t-129 433q0 210 57.5 336t167 181t275.5 55q158 0 259 -50.5t153 -172t52 -332.5v-112zM766 644q-1 140 -46 198.5t-142 58.5q-64 0 -106 -22.5t-67.5 -79t-32.5 -155.5h394z" />
    <glyph glyph-name="gbreve" unicode="&#x11f;" horiz-adv-x="1246" 
d="M1180 934h-190q0 3 19.5 -19.5t35 -60.5t15.5 -92q0 -168 -117 -250t-363 -82q-57 0 -117 5q-31 -46 -31 -92q0 -35 19.5 -52t59.5 -21l277 -16q191 -11 280.5 -83.5t89.5 -218.5q0 -176 -138.5 -268t-401.5 -92q-260 0 -385 79.5t-125 245.5q0 94 45 156.5t95 94.5
q-56 56 -56 138q0 60 31.5 101.5t66.5 65.5q-99 39 -144 112t-45 178q0 171 111 260t369 89h599v-178zM699 630q44 14 64 45t20 84q0 84 -46.5 119.5t-156.5 35.5q-77 0 -121 -15.5t-62.5 -48.5t-18.5 -90q0 -55 19 -86t62.5 -44.5t120.5 -13.5q75 0 119 14zM441 91
q-5 0 -8 1q-48 -72 -48 -145q0 -55 22.5 -88.5t73 -49.5t137.5 -16q137 0 199.5 36t62.5 116q0 58 -38 86t-109 35zM976.5 1420.5q-23.5 -72.5 -107 -143t-246.5 -70.5q-164 0 -247 70.5t-104.5 141.5t-21.5 105h213q0 -19 8.5 -53t44 -68.5t108.5 -34.5q74 0 112 34.5
t48 70t10 51.5h206q0 -31 -23.5 -103.5z" />
    <glyph glyph-name="gcircumflex" unicode="&#x11d;" horiz-adv-x="1246" 
d="M1180 934h-190q0 3 19.5 -19.5t35 -60.5t15.5 -92q0 -168 -117 -250t-363 -82q-57 0 -117 5q-31 -46 -31 -92q0 -35 19.5 -52t59.5 -21l277 -16q191 -11 280.5 -83.5t89.5 -218.5q0 -176 -138.5 -268t-401.5 -92q-260 0 -385 79.5t-125 245.5q0 94 45 156.5t95 94.5
q-56 56 -56 138q0 60 31.5 101.5t66.5 65.5q-99 39 -144 112t-45 178q0 171 111 260t369 89h599v-178zM699 630q44 14 64 45t20 84q0 84 -46.5 119.5t-156.5 35.5q-77 0 -121 -15.5t-62.5 -48.5t-18.5 -90q0 -55 19 -86t62.5 -44.5t120.5 -13.5q75 0 119 14zM441 91
q-5 0 -8 1q-48 -72 -48 -145q0 -55 22.5 -88.5t73 -49.5t137.5 -16q137 0 199.5 36t62.5 116q0 58 -38 86t-109 35zM505 1524h242l245 -304h-254l-114 155l-113 -155h-254z" />
    <glyph glyph-name="gcommaaccent" unicode="&#x123;" horiz-adv-x="1246" 
d="M758 1203h-302l161 340h226zM1180 934h-190q0 3 19.5 -19.5t35 -60.5t15.5 -92q0 -168 -117 -250t-363 -82q-57 0 -117 5q-31 -46 -31 -92q0 -35 19.5 -52t59.5 -21l277 -16q191 -11 280.5 -83.5t89.5 -218.5q0 -176 -138.5 -268t-401.5 -92q-260 0 -385 79.5t-125 245.5
q0 94 45 156.5t95 94.5q-56 56 -56 138q0 60 31.5 101.5t66.5 65.5q-99 39 -144 112t-45 178q0 171 111 260t369 89h599v-178zM699 630q44 14 64 45t20 84q0 84 -46.5 119.5t-156.5 35.5q-77 0 -121 -15.5t-62.5 -48.5t-18.5 -90q0 -55 19 -86t62.5 -44.5t120.5 -13.5
q75 0 119 14zM441 91q-5 0 -8 1q-48 -72 -48 -145q0 -55 22.5 -88.5t73 -49.5t137.5 -16q137 0 199.5 36t62.5 116q0 58 -38 86t-109 35z" />
    <glyph glyph-name="gdotaccent" unicode="&#x121;" horiz-adv-x="1246" 
d="M1180 934h-190q0 3 19.5 -19.5t35 -60.5t15.5 -92q0 -168 -117 -250t-363 -82q-57 0 -117 5q-31 -46 -31 -92q0 -35 19.5 -52t59.5 -21l277 -16q191 -11 280.5 -83.5t89.5 -218.5q0 -176 -138.5 -268t-401.5 -92q-260 0 -385 79.5t-125 245.5q0 94 45 156.5t95 94.5
q-56 56 -56 138q0 60 31.5 101.5t66.5 65.5q-99 39 -144 112t-45 178q0 171 111 260t369 89h599v-178zM699 630q44 14 64 45t20 84q0 84 -46.5 119.5t-156.5 35.5q-77 0 -121 -15.5t-62.5 -48.5t-18.5 -90q0 -55 19 -86t62.5 -44.5t120.5 -13.5q75 0 119 14zM441 91
q-5 0 -8 1q-48 -72 -48 -145q0 -55 22.5 -88.5t73 -49.5t137.5 -16q137 0 199.5 36t62.5 116q0 58 -38 86t-109 35zM517.5 1280q-42.5 36 -42.5 105q0 70 42 104.5t106 34.5q66 0 109.5 -34.5t43.5 -104.5q0 -69 -44 -105t-109 -36q-63 0 -105.5 36z" />
    <glyph glyph-name="hbar" unicode="&#x127;" horiz-adv-x="1148" 
d="M873 1092q77 -40 121 -122.5t44 -205.5v-764h-283v735q0 80 -38.5 121.5t-116.5 41.5q-96 0 -192 -84v-814h-284v1197h-93v187h93v142h284v-142h262v-187h-262v-169q54 41 128 72.5t160 31.5q100 0 177 -40z" />
    <glyph glyph-name="hcircumflex" unicode="&#x125;" horiz-adv-x="1137" 
d="M860 1092q77 -40 121 -122.5t44 -205.5v-764h-283v735q0 80 -38.5 121.5t-116.5 41.5q-96 0 -192 -84v-814h-284v1526h284v-498q54 41 128 72.5t160 31.5q100 0 177 -40zM450 1917h242l245 -304h-254l-114 155l-113 -155h-254z" />
    <glyph glyph-name="ibreve" unicode="&#x12d;" horiz-adv-x="506" 
d="M111 1112h284v-1112h-284v1112zM604.5 1423.5q-23.5 -72.5 -107 -143t-246.5 -70.5q-164 0 -247 70.5t-104.5 141.5t-21.5 105h213q0 -19 8.5 -53t44 -68.5t108.5 -34.5q74 0 112 34.5t48 70t10 51.5h206q0 -31 -23.5 -103.5z" />
    <glyph glyph-name="ij" unicode="&#x133;" horiz-adv-x="1012" 
d="M136 1288.5q-46 37.5 -46 111.5t45.5 110t115.5 36q71 0 118 -36t47 -110t-47.5 -111.5t-117.5 -37.5q-69 0 -115 37.5zM111 1112h284v-1112h-284v1112zM642 1288.5q-46 37.5 -46 111.5t45.5 110t115.5 36q71 0 118 -36t47 -110t-47.5 -111.5t-117.5 -37.5
q-69 0 -115 37.5zM523.5 -402q-38.5 6 -62.5 12.5t-30 8.5l30 217q0 -1 27.5 -8t50.5 -7q40 0 59 26.5t19 72.5v1192h284v-1220q0 -147 -78 -223.5t-217 -76.5q-44 0 -82.5 6z" />
    <glyph glyph-name="imacron" unicode="&#x12b;" horiz-adv-x="506" 
d="M-7 1488h521v-197h-521v197zM111 1112h284v-1112h-284v1112z" />
    <glyph glyph-name="iogonek" unicode="&#x12f;" horiz-adv-x="506" 
d="M145.5 1283q-42.5 36 -42.5 105q0 70 42 104.5t106 34.5q66 0 109.5 -34.5t43.5 -104.5q0 -69 -44 -105t-109 -36q-63 0 -105.5 36zM501 -334q0 -2 -27 -14t-74 -22t-111 -10q-113 0 -176.5 44.5t-63.5 131.5q0 68 44 117t129 87h-111v1112h284v-1112q-69 -27 -111.5 -69
t-42.5 -86q0 -29 21 -44.5t58 -15.5q44 0 77 7t53 15.5t20 9.5z" />
    <glyph glyph-name="itilde" unicode="&#x129;" horiz-adv-x="506" 
d="M638.5 1423q-16.5 -70 -72.5 -137t-163 -67q-50 0 -84.5 15t-80.5 45q-33 23 -57 34t-52 11q-36 0 -54.5 -23t-23.5 -46.5t-5 -34.5h-197q0 28 16.5 97.5t72 136.5t161.5 67q54 0 92.5 -16.5t83.5 -47.5q33 -22 54.5 -32.5t45.5 -10.5q36 0 54.5 24t23.5 48t5 35h197
q0 -28 -16.5 -98zM111 1112h284v-1112h-284v1112z" />
    <glyph glyph-name="uni0237" unicode="&#x237;" horiz-adv-x="506" 
d="M17.5 -402q-38.5 6 -62.5 12.5t-30 8.5l30 217q0 -1 27.5 -8t50.5 -7q40 0 59 26.5t19 72.5v1192h284v-1220q0 -147 -78 -223.5t-217 -76.5q-44 0 -82.5 6z" />
    <glyph glyph-name="jcircumflex" unicode="&#x135;" horiz-adv-x="506" 
d="M17.5 -402q-38.5 6 -62.5 12.5t-30 8.5l30 217q0 -1 27.5 -8t50.5 -7q40 0 59 26.5t19 72.5v1192h284v-1220q0 -147 -78 -223.5t-217 -76.5q-44 0 -82.5 6zM135 1527h242l245 -304h-254l-114 155l-113 -155h-254z" />
    <glyph glyph-name="kcommaaccent" unicode="&#x137;" horiz-adv-x="1138" 
d="M562 506l-167 -204v-302h-284v1526h284v-875l346 458h315l-290 -354l319 -755h-304zM594 -448h-226l61 340h298z" />
    <glyph glyph-name="kgreenlandic" unicode="&#x138;" horiz-adv-x="1138" 
d="M111 1112h284v-513q36 9 66.5 36.5t54 63t61.5 98.5q61 104 113.5 170.5t139 114.5t209.5 48v-276q-82 0 -141 -48t-123 -139l316 -667h-310l-211 428q-43 -49 -83.5 -79.5t-91.5 -40.5v-308h-284v1112z" />
    <glyph glyph-name="lacute" unicode="&#x13a;" horiz-adv-x="506" 
d="M111 1526h284v-1526h-284v1526zM302 1611h-236l187 306h324z" />
    <glyph glyph-name="lcaron" unicode="&#x13e;" horiz-adv-x="506" 
d="M111 1526h284v-1526h-284v1526zM459 1526h188l-82 -379h-121z" />
    <glyph glyph-name="lcommaaccent" unicode="&#x13c;" horiz-adv-x="506" 
d="M111 1526h284v-1526h-284v1526zM285 -448h-226l61 340h298z" />
    <glyph glyph-name="ldot" unicode="&#x140;" horiz-adv-x="811" 
d="M111 1526h284v-1526h-284v1526zM539.5 498q-40.5 37 -40.5 111q0 73 40.5 108.5t100.5 35.5q63 0 104 -35t41 -109q0 -75 -41.5 -111.5t-103.5 -36.5q-60 0 -100.5 37z" />
    <glyph glyph-name="nacute" unicode="&#x144;" horiz-adv-x="1133" 
d="M859.5 1092q77.5 -40 121.5 -123t44 -206v-763h-283v735q0 80 -38.5 121.5t-116.5 41.5q-54 0 -104 -24.5t-89 -57.5v-816h-283v1112h232l19 -111q51 44 133.5 87.5t186.5 43.5q100 0 177.5 -40zM622 1218h-236l187 306h324z" />
    <glyph glyph-name="napostrophe" unicode="&#x149;" horiz-adv-x="1132" 
d="M320 1193h-227l84 363h301zM859.5 1092q77.5 -40 121.5 -123t44 -206v-763h-283v735q0 80 -38.5 121.5t-116.5 41.5q-54 0 -104 -24.5t-89 -57.5v-816h-283v1112h232l19 -111q51 44 133.5 87.5t186.5 43.5q100 0 177.5 -40z" />
    <glyph glyph-name="ncaron" unicode="&#x148;" horiz-adv-x="1133" 
d="M859.5 1092q77.5 -40 121.5 -123t44 -206v-763h-283v735q0 80 -38.5 121.5t-116.5 41.5q-54 0 -104 -24.5t-89 -57.5v-816h-283v1112h232l19 -111q51 44 133.5 87.5t186.5 43.5q100 0 177.5 -40zM572 1365l114 157h254l-245 -305h-242l-248 305h254z" />
    <glyph glyph-name="ncommaaccent" unicode="&#x146;" horiz-adv-x="1133" 
d="M859.5 1092q77.5 -40 121.5 -123t44 -206v-763h-283v735q0 80 -38.5 121.5t-116.5 41.5q-54 0 -104 -24.5t-89 -57.5v-816h-283v1112h232l19 -111q51 44 133.5 87.5t186.5 43.5q100 0 177.5 -40zM599 -448h-226l61 340h298z" />
    <glyph glyph-name="eng" unicode="&#x14b;" horiz-adv-x="1137" 
d="M860 1092q77 -40 121 -122.5t44 -205.5v-874q0 -147 -77.5 -223.5t-216.5 -76.5q-44 0 -82.5 6t-62.5 12.5t-30 8.5l29 216q3 -1 14.5 -4.5t28.5 -7t34 -3.5q40 0 60 26.5t20 72.5v818q0 80 -38.5 121.5t-116.5 41.5q-56 0 -105 -24.5t-87 -58.5v-815h-284v1112h233
l19 -112q48 43 132 87.5t189 44.5q99 0 176 -40z" />
    <glyph glyph-name="obreve" unicode="&#x14f;" horiz-adv-x="1169" 
d="M307 36q-110 55 -167 181.5t-57 338.5q0 211 57 336.5t167 180.5t279 55q168 0 277.5 -55t166 -180.5t56.5 -336.5q0 -212 -56.5 -338.5t-166 -181.5t-277.5 -55q-169 0 -279 55zM709.5 238.5q45.5 30.5 68 106.5t22.5 211q0 136 -22 211t-68 104.5t-124 29.5
q-75 0 -122 -30t-71 -105.5t-24 -209.5q0 -136 23.5 -211.5t71 -106t126.5 -30.5q74 0 119.5 30.5zM936.5 1420.5q-23.5 -72.5 -107 -143t-246.5 -70.5q-164 0 -247 70.5t-104.5 141.5t-21.5 105h213q0 -19 8.5 -53t44 -68.5t108.5 -34.5q74 0 112 34.5t48 70t10 51.5h206
q0 -31 -23.5 -103.5z" />
    <glyph glyph-name="ohungarumlaut" unicode="&#x151;" horiz-adv-x="1169" 
d="M307 36q-110 55 -167 181.5t-57 338.5q0 211 57 336.5t167 180.5t279 55q168 0 277.5 -55t166 -180.5t56.5 -336.5q0 -212 -56.5 -338.5t-166 -181.5t-277.5 -55q-169 0 -279 55zM709.5 238.5q45.5 30.5 68 106.5t22.5 211q0 136 -22 211t-68 104.5t-124 29.5
q-75 0 -122 -30t-71 -105.5t-24 -209.5q0 -136 23.5 -211.5t71 -106t126.5 -30.5q74 0 119.5 30.5zM535 1217h-186l161 307h262zM855 1217h-186l196 307h263z" />
    <glyph glyph-name="omacron" unicode="&#x14d;" horiz-adv-x="1169" 
d="M307 36q-110 55 -167 181.5t-57 338.5q0 211 57 336.5t167 180.5t279 55q168 0 277.5 -55t166 -180.5t56.5 -336.5q0 -212 -56.5 -338.5t-166 -181.5t-277.5 -55q-169 0 -279 55zM709.5 238.5q45.5 30.5 68 106.5t22.5 211q0 136 -22 211t-68 104.5t-124 29.5
q-75 0 -122 -30t-71 -105.5t-24 -209.5q0 -136 23.5 -211.5t71 -106t126.5 -30.5q74 0 119.5 30.5zM259 1488h652v-197h-652v197z" />
    <glyph glyph-name="racute" unicode="&#x155;" horiz-adv-x="836" 
d="M740 1128.5q26 -3.5 34 -5.5v-255q-10 2 -42 6t-53 4q-88 0 -160.5 -48t-123.5 -109v-721h-284v1112h232l28 -171q49 64 131.5 127.5t184.5 63.5q27 0 53 -3.5zM486 1218h-236l187 306h324z" />
    <glyph glyph-name="rcaron" unicode="&#x159;" horiz-adv-x="836" 
d="M740 1128.5q26 -3.5 34 -5.5v-255q-10 2 -42 6t-53 4q-88 0 -160.5 -48t-123.5 -109v-721h-284v1112h232l28 -171q49 64 131.5 127.5t184.5 63.5q27 0 53 -3.5zM436 1365l114 157h254l-245 -305h-242l-248 305h254z" />
    <glyph glyph-name="rcommaaccent" unicode="&#x157;" horiz-adv-x="836" 
d="M740 1128.5q26 -3.5 34 -5.5v-255q-10 2 -42 6t-53 4q-88 0 -160.5 -48t-123.5 -109v-721h-284v1112h232l28 -171q49 64 131.5 127.5t184.5 63.5q27 0 53 -3.5zM282 -448h-226l61 340h298z" />
    <glyph glyph-name="sacute" unicode="&#x15b;" horiz-adv-x="993" 
d="M276 6q-90 24 -143 52t-53 32l68 223q0 -3 50.5 -30.5t125.5 -50.5t162 -23q157 0 157 112q0 62 -43 89.5t-134 42.5l-59 10q-95 15 -162.5 47t-108.5 98t-41 176q0 108 50.5 186.5t145.5 120t227 41.5q113 0 197.5 -21t134 -45.5t49.5 -27.5l-63 -220q0 3 -43.5 25.5
t-114 42t-159.5 19.5q-152 0 -152 -108q0 -39 21 -63t60.5 -39t109.5 -29l55 -10q92 -19 157.5 -53.5t105 -100t39.5 -168.5q0 -106 -52 -185.5t-149 -123t-228 -43.5q-120 0 -210 24zM561 1218h-236l187 306h324z" />
    <glyph glyph-name="scedilla" unicode="&#x15f;" horiz-adv-x="993" 
d="M873 165q-42 -74 -120.5 -120.5t-187.5 -58.5l-41 -71q73 -5 122.5 -41.5t49.5 -107.5q0 -84 -61 -131.5t-177 -47.5q-82 0 -137 20.5t-85 38.5l54 120q0 -1 26.5 -14t64 -23.5t78.5 -10.5q33 0 51.5 13t18.5 37q0 33 -40 45t-125 12h-34l85 160q-99 7 -173.5 30.5
t-118 47.5t-43.5 27l68 223q0 -3 50.5 -30.5t125.5 -50.5t162 -23q157 0 157 112q0 62 -43 89.5t-134 42.5l-59 10q-95 15 -162.5 47t-108.5 98t-41 176q0 108 50.5 186.5t145.5 120t227 41.5q113 0 197.5 -21t134 -45.5t49.5 -27.5l-63 -220q0 3 -43.5 25.5t-114 42
t-159.5 19.5q-152 0 -152 -108q0 -39 21 -63t60.5 -39t109.5 -29l55 -10q92 -19 157.5 -53.5t105 -100t39.5 -168.5q0 -95 -42 -169z" />
    <glyph glyph-name="scircumflex" unicode="&#x15d;" horiz-adv-x="993" 
d="M276 6q-90 24 -143 52t-53 32l68 223q0 -3 50.5 -30.5t125.5 -50.5t162 -23q157 0 157 112q0 62 -43 89.5t-134 42.5l-59 10q-95 15 -162.5 47t-108.5 98t-41 176q0 108 50.5 186.5t145.5 120t227 41.5q113 0 197.5 -21t134 -45.5t49.5 -27.5l-63 -220q0 3 -43.5 25.5
t-114 42t-159.5 19.5q-152 0 -152 -108q0 -39 21 -63t60.5 -39t109.5 -29l55 -10q92 -19 157.5 -53.5t105 -100t39.5 -168.5q0 -106 -52 -185.5t-149 -123t-228 -43.5q-120 0 -210 24zM392 1524h242l245 -304h-254l-114 155l-113 -155h-254z" />
    <glyph glyph-name="scommaaccent" unicode="&#x219;" horiz-adv-x="993" 
d="M276 6q-90 24 -143 52t-53 32l68 223q0 -3 50.5 -30.5t125.5 -50.5t162 -23q157 0 157 112q0 62 -43 89.5t-134 42.5l-59 10q-95 15 -162.5 47t-108.5 98t-41 176q0 108 50.5 186.5t145.5 120t227 41.5q113 0 197.5 -21t134 -45.5t49.5 -27.5l-63 -220q0 3 -43.5 25.5
t-114 42t-159.5 19.5q-152 0 -152 -108q0 -39 21 -63t60.5 -39t109.5 -29l55 -10q92 -19 157.5 -53.5t105 -100t39.5 -168.5q0 -106 -52 -185.5t-149 -123t-228 -43.5q-120 0 -210 24zM523 -448h-226l61 340h298z" />
    <glyph glyph-name="germandbls" unicode="&#xdf;" horiz-adv-x="1126" 
d="M111 1099q0 141 57 241t169 153t274 53q210 0 323 -99t113 -294q0 -80 -21.5 -140t-50.5 -98.5t-73 -83.5q-32 -32 -47 -53t-15 -43q0 -18 14.5 -35t45.5 -44q43 -38 72 -71.5t51 -88t22 -129.5q0 -114 -49 -196.5t-143 -126.5t-225 -44h-121v238h78q89 0 135.5 36.5
t46.5 127.5q0 39 -14.5 71t-35 55.5t-54.5 56.5q-45 43 -66.5 73t-21.5 70q0 38 19.5 71.5t61.5 83.5q36 44 58.5 76.5t38.5 76t16 95.5q0 100 -41.5 143.5t-132.5 43.5q-98 0 -149 -52.5t-51 -168.5v-1097h-284v1099z" />
    <glyph glyph-name="tbar" unicode="&#x167;" horiz-adv-x="823" 
d="M762 10q-8 -2 -38.5 -8.5t-80.5 -12.5t-105 -6q-162 0 -255.5 80t-93.5 234v204h-143v206h143v186h-144v219h144v225l284 31v-256h263v-219h-263v-186h262v-206h-262v-170q0 -59 29 -89.5t93 -30.5q30 0 59.5 4t49.5 8l25 5z" />
    <glyph glyph-name="tcaron" unicode="&#x165;" horiz-adv-x="823" 
d="M698 1181h-151l61 375h218zM654.5 215q29.5 4 49.5 8l25 5l33 -218q-8 -2 -38.5 -8.5t-80.5 -12.5t-105 -6q-162 0 -255.5 80t-93.5 234v596h-144v219h144v225l284 31v-256h263v-219h-263v-562q0 -59 29 -89.5t93 -30.5q30 0 59.5 4z" />
    <glyph glyph-name="uni0163" unicode="&#x163;" horiz-adv-x="823" 
d="M637.5 -126.5q49.5 -36.5 49.5 -107.5q0 -84 -61 -131.5t-177 -47.5q-82 0 -137 20.5t-85 38.5l54 120q0 -1 26.5 -14t64 -23.5t78.5 -10.5q33 0 51.5 13t18.5 37q0 33 -40 45t-125 12h-34l92 172q-106 27 -165 102.5t-59 197.5v596h-144v219h144v225l284 31v-256h263
v-219h-263v-562q0 -59 29 -89.5t93 -30.5q30 0 59.5 4t49.5 8l25 5l33 -218q-7 -2 -35.5 -8t-74.5 -12t-98 -7l-39 -68q73 -5 122.5 -41.5z" />
    <glyph glyph-name="uni021B" unicode="&#x21b;" horiz-adv-x="823" 
d="M762 10q-8 -2 -38.5 -8.5t-80.5 -12.5t-105 -6q-162 0 -255.5 80t-93.5 234v596h-144v219h144v225l284 31v-256h263v-219h-263v-562q0 -59 29 -89.5t93 -30.5q30 0 59.5 4t49.5 8l25 5zM514 -448h-226l61 340h298z" />
    <glyph glyph-name="ubreve" unicode="&#x16d;" horiz-adv-x="1136" 
d="M230.5 88q-122.5 108 -122.5 327v697h283v-712q0 -96 44.5 -144.5t131.5 -48.5q88 0 133 48.5t45 144.5v712h283v-697q0 -220 -122.5 -327.5t-338.5 -107.5q-214 0 -336.5 108zM916.5 1420.5q-23.5 -72.5 -107 -143t-246.5 -70.5q-164 0 -247 70.5t-104.5 141.5
t-21.5 105h213q0 -19 8.5 -53t44 -68.5t108.5 -34.5q74 0 112 34.5t48 70t10 51.5h206q0 -31 -23.5 -103.5z" />
    <glyph glyph-name="uhungarumlaut" unicode="&#x171;" horiz-adv-x="1136" 
d="M230.5 88q-122.5 108 -122.5 327v697h283v-712q0 -96 44.5 -144.5t131.5 -48.5q88 0 133 48.5t45 144.5v712h283v-697q0 -220 -122.5 -327.5t-338.5 -107.5q-214 0 -336.5 108zM515 1217h-186l161 307h262zM835 1217h-186l196 307h263z" />
    <glyph glyph-name="umacron" unicode="&#x16b;" horiz-adv-x="1136" 
d="M230.5 88q-122.5 108 -122.5 327v697h283v-712q0 -96 44.5 -144.5t131.5 -48.5q88 0 133 48.5t45 144.5v712h283v-697q0 -220 -122.5 -327.5t-338.5 -107.5q-214 0 -336.5 108zM239 1488h652v-197h-652v197z" />
    <glyph glyph-name="uogonek" unicode="&#x173;" horiz-adv-x="1136" 
d="M1028 1112v-697q0 -174 -78 -277.5t-220 -139.5q-68 -27 -109 -68.5t-41 -84.5q0 -29 21 -44.5t58 -15.5q44 0 77 7t53 15.5t20 9.5l31 -151q0 -2 -27 -14t-74 -22t-111 -10q-113 0 -176.5 44.5t-63.5 131.5q0 60 34.5 105t100.5 80q-194 11 -304.5 119t-110.5 315v697
h283v-712q0 -96 44.5 -144.5t131.5 -48.5q88 0 133 48.5t45 144.5v712h283z" />
    <glyph glyph-name="uring" unicode="&#x16f;" horiz-adv-x="1136" 
d="M230.5 88q-122.5 108 -122.5 327v697h283v-712q0 -96 44.5 -144.5t131.5 -48.5q88 0 133 48.5t45 144.5v712h283v-697q0 -220 -122.5 -327.5t-338.5 -107.5q-214 0 -336.5 108zM428 1208.5q-60 26.5 -94 75.5t-34 115q0 101 72.5 158.5t193.5 57.5q79 0 138.5 -26
t92.5 -74.5t33 -115.5q0 -102 -73 -159.5t-191 -57.5q-78 0 -138 26.5zM493 1464q-28 -26 -28 -65q0 -40 28.5 -66t72.5 -26q43 0 71.5 26t28.5 66t-26 65.5t-74 25.5q-45 0 -73 -26z" />
    <glyph glyph-name="utilde" unicode="&#x169;" horiz-adv-x="1136" 
d="M230.5 88q-122.5 108 -122.5 327v697h283v-712q0 -96 44.5 -144.5t131.5 -48.5q88 0 133 48.5t45 144.5v712h283v-697q0 -220 -122.5 -327.5t-338.5 -107.5q-214 0 -336.5 108zM951.5 1423q-16.5 -70 -72.5 -137t-163 -67q-50 0 -84.5 15t-80.5 45q-33 23 -57 34t-52 11
q-36 0 -54.5 -23t-23.5 -46.5t-5 -34.5h-197q0 28 16.5 97.5t72 136.5t161.5 67q54 0 92.5 -16.5t83.5 -47.5q33 -22 54.5 -32.5t45.5 -10.5q36 0 54.5 24t23.5 48t5 35h197q0 -28 -16.5 -98z" />
    <glyph glyph-name="wacute" unicode="&#x1e83;" horiz-adv-x="1607" 
d="M1566 1112l-224 -1112h-336l-203 802l-210 -802h-349l-203 1112h285l124 -813l219 813h281l215 -817l126 817h275zM859 1218h-236l187 306h324z" />
    <glyph glyph-name="wcircumflex" unicode="&#x175;" horiz-adv-x="1607" 
d="M1566 1112l-224 -1112h-336l-203 802l-210 -802h-349l-203 1112h285l124 -813l219 813h281l215 -817l126 817h275zM690 1524h242l245 -304h-254l-114 155l-113 -155h-254z" />
    <glyph glyph-name="wdieresis" unicode="&#x1e85;" horiz-adv-x="1607" 
d="M1566 1112l-224 -1112h-336l-203 802l-210 -802h-349l-203 1112h285l124 -813l219 813h281l215 -817l126 817h275zM522.5 1282.5q-41.5 34.5 -41.5 103.5q0 70 41.5 104t104.5 34q64 0 107.5 -34t43.5 -104q0 -68 -43.5 -103t-107.5 -35q-63 0 -104.5 34.5zM887 1283
q-42 35 -42 103q0 70 41.5 104t104.5 34q64 0 107.5 -34t43.5 -104q0 -68 -43.5 -103t-107.5 -35q-62 0 -104 35z" />
    <glyph glyph-name="wgrave" unicode="&#x1e81;" horiz-adv-x="1607" 
d="M1566 1112l-224 -1112h-336l-203 802l-210 -802h-349l-203 1112h285l124 -813l219 813h281l215 -817l126 817h275zM1001 1218h-236l-275 306h324z" />
    <glyph glyph-name="ycircumflex" unicode="&#x177;" horiz-adv-x="1057" 
d="M1020 1112l-363 -1229q-41 -143 -133.5 -207.5t-262.5 -64.5h-70v227h46q51 0 83 21.5t50 69.5l34 94l-366 1089h299l217 -773l185 773h281zM420 1524h242l245 -304h-254l-114 155l-113 -155h-254z" />
    <glyph glyph-name="ygrave" unicode="&#x1ef3;" horiz-adv-x="1057" 
d="M1020 1112l-363 -1229q-41 -143 -133.5 -207.5t-262.5 -64.5h-70v227h46q51 0 83 21.5t50 69.5l34 94l-366 1089h299l217 -773l185 773h281zM731 1218h-236l-275 306h324z" />
    <glyph glyph-name="zacute" unicode="&#x17a;" horiz-adv-x="1073" 
d="M990 219v-219h-896v213l528 680h-522v219h868v-210l-524 -683h546zM585 1218h-236l187 306h324z" />
    <glyph glyph-name="zdotaccent" unicode="&#x17c;" horiz-adv-x="1073" 
d="M990 219v-219h-896v213l528 680h-522v219h868v-210l-524 -683h546zM428.5 1280q-42.5 36 -42.5 105q0 70 42 104.5t106 34.5q66 0 109.5 -34.5t43.5 -104.5q0 -69 -44 -105t-109 -36q-63 0 -105.5 36z" />
    <glyph glyph-name="zero.tf" 
d="M317.5 51q-119.5 71 -180 242.5t-60.5 470.5q0 297 60.5 467.5t180 241.5t309.5 71q189 0 307.5 -71t178 -241.5t59.5 -467.5q0 -299 -59.5 -470.5t-178 -242.5t-307.5 -71q-190 0 -309.5 71zM767 263q50 43 74 160.5t24 340.5q0 225 -23.5 340.5t-74 157.5t-142.5 42
q-88 0 -139 -42.5t-76.5 -159t-25.5 -338.5q0 -224 25 -341t77 -160t144 -43q87 0 137 43z" />
    <glyph glyph-name="one.tf" 
d="M123 247h384v944l-303 -145v267l383 213h224v-1279h356v-247h-1044v247z" />
    <glyph glyph-name="two.tf" 
d="M129 236l540 549q62 65 96.5 110.5t51.5 92.5t17 105q0 105 -58.5 158t-181.5 53q-106 0 -202 -31.5t-163 -68.5t-67 -41l-80 238q0 4 79.5 41.5t201 69.5t266.5 32q250 0 380 -109.5t130 -331.5q0 -91 -26 -165.5t-80.5 -147.5t-149.5 -167l-355 -363h629v-260h-1028
v236z" />
    <glyph glyph-name="three.tf" 
d="M355.5 12q-121.5 32 -198.5 69t-77 42l81 255q0 -4 69.5 -41t169.5 -68.5t211 -31.5q125 0 183 51.5t58 166.5q0 204 -220 204h-200v241h185q92 0 145 49.5t53 146.5q0 107 -51.5 152.5t-166.5 45.5q-104 0 -196 -30t-155.5 -65t-63.5 -39l-78 248q0 4 72 40t186 66
t254 30q251 0 377 -97t126 -320q0 -113 -47 -186.5t-106 -113t-59 -32.5q0 8 69 -24t124.5 -108t55.5 -212q0 -239 -135.5 -355t-394.5 -116q-149 0 -270.5 32z" />
    <glyph glyph-name="four.tf" 
d="M1197 280h-139v-280h-298v280h-694v236l583 1010h409v-1005h139v-241zM760 521v676l-387 -676h387z" />
    <glyph glyph-name="five.tf" 
d="M1050 887.5q120 -117.5 120 -389.5q0 -518 -548 -518q-146 0 -265 32t-195 69.5t-76 41.5l81 237q0 -3 68.5 -40.5t164.5 -68.5t199 -31q138 0 202 69t64 215q0 140 -57.5 200t-178.5 60q-171 0 -235 -151h-249l92 913h866v-247h-629l-36 -350q0 3 34 22.5t92.5 36.5
t136.5 17q229 0 349 -117.5z" />
    <glyph glyph-name="six.tf" 
d="M1067 869.5q104 -118.5 104 -368.5q0 -264 -137 -392.5t-389 -128.5q-182 0 -304 73t-185 235.5t-63 428.5q0 296 68.5 478.5t208.5 266.5t361 84q109 0 189 -20t126 -43.5t46 -26.5l-68 -217q0 2 -36 19.5t-96 32t-138 14.5q-114 0 -186.5 -39t-113.5 -136.5t-52 -271.5
q54 46 141.5 88t201.5 42q218 0 322 -118.5zM811.5 283.5q54.5 63.5 54.5 208.5q0 96 -21.5 151.5t-66.5 79.5t-121 24q-85 0 -151 -37t-107 -78q6 -150 32.5 -240t79 -131t136.5 -41q110 0 164.5 63.5z" />
    <glyph glyph-name="seven.tf" 
d="M816 1279h-704v247h1028v-241l-520 -1285h-320z" />
    <glyph glyph-name="eight.tf" 
d="M351.5 26.5q-122.5 49.5 -195 151t-72.5 250.5q0 121 51 201t115 124t64 36q0 -7 -54 34.5t-97 116t-43 183.5q0 138 68 233t183 141.5t256 46.5q142 0 255.5 -46t180 -140.5t66.5 -233.5q0 -107 -43 -180t-97 -114t-54 -34q0 8 64 -34.5t115.5 -123.5t51.5 -206
q0 -148 -73 -250.5t-195.5 -153.5t-272.5 -51q-151 0 -273.5 49.5zM725.5 930q48.5 23 77.5 68t29 108q0 91 -57 140.5t-150 49.5t-150 -49t-57 -141q0 -64 27 -109t73 -67.5t102 -22.5q57 0 105.5 23zM800 281q67 57 67 164q0 105 -64.5 165t-176.5 60q-115 0 -179.5 -61
t-64.5 -164q0 -107 67.5 -164t175.5 -57t175 57z" />
    <glyph glyph-name="nine.tf" 
d="M913 1473.5q122 -72.5 185.5 -235t63.5 -428.5q0 -296 -68.5 -478t-208.5 -266t-361 -84q-108 0 -188 20t-126 43t-46 26l68 217q0 -2 43.5 -19.5t106 -32t130.5 -14.5q104 0 174 39t112.5 137t54.5 271q-53 -45 -141 -87t-202 -42q-213 0 -320.5 119t-107.5 367
q0 263 139.5 391.5t386.5 128.5q183 0 305 -72.5zM408.5 884.5q21.5 -55.5 68 -80t123.5 -24.5q85 0 150 37t106 78q-6 150 -32.5 239.5t-78.5 130.5t-136 41q-113 0 -167.5 -63t-54.5 -207q0 -96 21.5 -151.5z" />
    <glyph glyph-name="zero.dnom" horiz-adv-x="799" 
d="M209.5 22.5q-72.5 41.5 -106.5 130.5t-34 236q0 146 34 235t106.5 130.5t191.5 41.5t190.5 -41t104.5 -130t33 -236t-33 -236t-104.5 -130.5t-190.5 -41.5t-191.5 41.5zM467 162.5q23 20.5 33 73.5t10 153q0 102 -10 154.5t-33 72t-66 19.5q-42 0 -65.5 -21t-34.5 -74
t-11 -151q0 -99 11 -152t35 -74t67 -21q41 0 64 20.5z" />
    <glyph glyph-name="one.dnom" horiz-adv-x="799" 
d="M144 659l230 115h162v-612h195v-162h-632v162h213v392l-168 -70v175z" />
    <glyph glyph-name="two.dnom" horiz-adv-x="799" 
d="M90 144l309 271q51 44 67.5 69t16.5 61q0 44 -25 63t-82 19q-58 0 -111.5 -14.5t-91.5 -32t-38 -19.5l-58 160q0 2 44 21.5t113 36t155 16.5q152 0 233 -62t81 -177q0 -71 -33 -126t-117 -124l-168 -144h328v-162h-623v144z" />
    <glyph glyph-name="three.dnom" horiz-adv-x="799" 
d="M229 -4q-70 16 -114.5 35.5t-44.5 21.5l63 164q0 -2 37 -20t90 -33.5t111 -15.5q60 0 88 20.5t28 68.5q0 43 -25 63.5t-75 20.5h-133v150h127q41 0 64.5 21t23.5 60q0 45 -22 62t-77 17q-54 0 -105 -14t-87.5 -30.5t-36.5 -18.5l-58 157q0 2 42 20.5t108 34t147 15.5
q156 0 231.5 -56t75.5 -171q0 -49 -21 -84t-47.5 -56t-26.5 -18q0 4 31.5 -16.5t56.5 -60t25 -99.5q0 -124 -81.5 -189t-237.5 -65q-87 0 -157 16z" />
    <glyph glyph-name="four.dnom" horiz-adv-x="799" 
d="M744 130h-80v-130h-209v130h-392v140l333 504h268v-483h80v-161zM455 291v227l-167 -227h167z" />
    <glyph glyph-name="five.dnom" horiz-adv-x="799" 
d="M233.5 -4q-69.5 16 -113.5 35.5t-44 21.5l59 157q0 -2 38.5 -19t92 -31.5t109.5 -14.5q66 0 95 26t29 89q0 60 -24.5 84.5t-83.5 24.5q-46 0 -71 -17.5t-38 -57.5h-187l55 480h529v-158h-351l-13 -114q53 21 114 21q145 0 216 -65t71 -201q0 -135 -83.5 -206t-245.5 -71
q-84 0 -153.5 16z" />
    <glyph glyph-name="six.dnom" horiz-adv-x="799" 
d="M660.5 449q63.5 -63 63.5 -195q0 -134 -81.5 -206.5t-232.5 -72.5q-170 0 -250.5 93t-80.5 290q0 151 40 246t123 141t216 46q65 0 112.5 -10.5t75 -23t27.5 -14.5l-50 -143q0 1 -19.5 9t-52.5 15t-77 7q-81 0 -120 -37.5t-50 -131.5q66 50 163 50q130 0 193.5 -63z
M486.5 159q23.5 26 23.5 87t-21 84.5t-74 23.5q-60 0 -115 -39q4 -99 30 -140.5t81 -41.5q52 0 75.5 26z" />
    <glyph glyph-name="seven.dnom" horiz-adv-x="799" 
d="M473 612h-383v162h624v-143l-298 -631h-231z" />
    <glyph glyph-name="eight.dnom" horiz-adv-x="799" 
d="M224.5 9q-73.5 29 -113 83.5t-39.5 128.5q0 68 33 113t76 69q-36 26 -62 66.5t-26 99.5q0 70 37 121t106.5 79t163.5 28q142 0 223 -60.5t81 -166.5q0 -58 -26 -97.5t-62 -64.5q44 -26 76.5 -70t32.5 -113q0 -75 -40 -130t-114 -85t-173 -30q-100 0 -173.5 29z
M462.5 501.5q24.5 21.5 24.5 58.5t-23 57.5t-66 20.5t-66 -20t-23 -58q0 -37 23 -58.5t63 -21.5q43 0 67.5 21.5zM479 163q28 24 28 68q0 45 -28 69.5t-80 24.5q-53 0 -81.5 -24.5t-28.5 -69.5q0 -44 28.5 -68t80.5 -24q53 0 81 24z" />
    <glyph glyph-name="nine.dnom" horiz-adv-x="799" 
d="M642.5 700q80.5 -93 80.5 -290q0 -151 -40 -246t-124 -141t-217 -46q-64 0 -111 10.5t-74.5 23t-27.5 14.5l50 143q0 -1 19.5 -9t52.5 -15t76 -7q80 0 119.5 37.5t51.5 131.5q-27 -21 -68.5 -35.5t-96.5 -14.5q-128 0 -191.5 63t-63.5 195q0 134 81.5 206.5t232.5 72.5
q170 0 250.5 -93zM313 437.5q21 -23.5 74 -23.5q58 0 116 39q-4 99 -30.5 140.5t-81.5 41.5q-52 0 -75.5 -26t-23.5 -87t21 -84.5z" />
    <glyph glyph-name="minus" unicode="&#x2212;" 
d="M139 883h971v-239h-971v239z" />
    <glyph glyph-name="plusminus" unicode="&#xb1;" 
d="M1110 922v-238h-366v-327h-239v327h-366v238h366v327h239v-327h366zM144 238h963v-238h-963v238z" />
    <glyph glyph-name="notequal" unicode="&#x2260;" 
d="M780 827l-64 -144h394v-239h-501l-105 -233h-226l105 233h-243v239h351l65 144h-416v239h524l104 230h223l-103 -230h222v-239h-330z" />
    <glyph glyph-name="greaterequal" unicode="&#x2265;" 
d="M139 239h971v-239h-971v239zM1107 928v-248l-968 -359v262l652 218l-652 221v266z" />
    <glyph glyph-name="lessequal" unicode="&#x2264;" 
d="M1108 321l-968 359v248l968 360v-266l-652 -221l652 -218v-262zM1110 239v-239h-971v239h971z" />
    <glyph glyph-name="approxequal" unicode="&#x2248;" 
d="M1096 955.5q-21 -72.5 -86.5 -141t-188.5 -68.5q-58 0 -102 14t-101 41q-45 21 -75 31.5t-65 10.5q-43 0 -66 -21.5t-30 -44t-7 -31.5h-242q0 25 22 98.5t88 142t188 68.5q58 0 102 -14t101 -41q46 -21 76 -31t63 -10q42 0 65 21.5t30 44t7 30.5h242q0 -27 -21 -99.5z
M1096 577.5q-21 -72.5 -86.5 -141t-188.5 -68.5q-58 0 -102 14t-101 41q-45 21 -75 31.5t-65 10.5q-43 0 -66 -21.5t-30 -44t-7 -31.5h-242q0 25 22 98.5t88 142t188 68.5q58 0 102 -14t101 -41q46 -21 76 -31t63 -10q42 0 65 21.5t30 44t7 30.5h242q0 -27 -21 -99.5z" />
    <glyph glyph-name="infinity" unicode="&#x221e;" horiz-adv-x="1661" 
d="M290.5 355.5q-93.5 61.5 -140 163t-46.5 223.5q0 123 46 224.5t139.5 162t228.5 60.5q98 0 167.5 -37t107 -79.5t37.5 -49.5q0 7 36.5 49.5t106 79.5t169.5 37q136 0 229 -60.5t138.5 -161.5t45.5 -225q0 -122 -46 -223.5t-139 -163t-228 -61.5q-100 0 -169 34.5t-106 74
t-37 46.5q0 -7 -37.5 -46.5t-106.5 -74t-168 -34.5q-134 0 -227.5 61.5zM629 548q44 29 66 78t22 110q0 63 -22 114t-66 81t-107 30q-86 0 -133.5 -60.5t-47.5 -160.5t47 -160.5t134 -60.5q63 0 107 29zM1273 579.5q47 60.5 47 160.5t-47.5 160.5t-133.5 60.5
q-63 0 -107 -30t-66 -81t-22 -114q0 -94 50.5 -155.5t144.5 -61.5q87 0 134 60.5z" />
    <glyph glyph-name="integral" unicode="&#x222b;" 
d="M385.5 -404q-38.5 6 -62.5 12.5t-30 8.5l28 218q0 -1 27.5 -8t50.5 -7q42 0 61.5 26.5t19.5 72.5v1309q0 155 91 236t251 81q55 0 105 -6t80.5 -12t38.5 -8l-33 -221l-25 5t-49.5 8t-59.5 4q-61 0 -89 -30t-28 -90v-1305q0 -147 -77.5 -223.5t-216.5 -76.5q-44 0 -82.5 6
z" />
    <glyph glyph-name="uni2126" unicode="&#x2126;" horiz-adv-x="1500" 
d="M94 225h227q0 -10 -63 67t-113.5 200t-50.5 287q0 279 71.5 447t215 243t369.5 75t370 -75t215.5 -243t71.5 -447q0 -164 -50.5 -287t-114 -200t-63.5 -67h228v-225h-614q0 -14 76 101t136.5 288t60.5 390q0 193 -34 299.5t-101.5 148.5t-180.5 42t-180.5 -42
t-101.5 -148.5t-34 -299.5q0 -217 60.5 -390t136.5 -288t76 -101h-613v225z" />
    <glyph glyph-name="uni2206" unicode="&#x2206;" horiz-adv-x="1454" 
d="M937 1524l466 -1524h-1353l458 1524h429zM431 228h587l-298 1006z" />
    <glyph glyph-name="product" unicode="&#x220f;" horiz-adv-x="1380" 
d="M1320 1524v-260h-174v-1264h-323v1264h-269v-1264h-324v1264h-174v260h1264z" />
    <glyph glyph-name="summation" unicode="&#x2211;" horiz-adv-x="1413" 
d="M95 1524h1205v-498h-290v252h-557l506 -709l-502 -708h573v269h288v-515h-1223v250l505 702l-505 702v255z" />
    <glyph glyph-name="radical" unicode="&#x221a;" horiz-adv-x="1333" 
d="M31 1109h399l194 -791l285 1206h413v-219h-186l-352 -1305h-329l-254 890h-170v219z" />
    <glyph glyph-name="partialdiff" unicode="&#x2202;" 
d="M890.5 1462q139.5 -84 207.5 -266.5t68 -478.5q0 -266 -63 -428.5t-184 -235t-303 -72.5q-247 0 -382.5 124.5t-135.5 387.5q0 251 102.5 373t313.5 122q114 0 203 -42t142 -88q-11 172 -52 268.5t-113.5 135t-186.5 38.5q-78 0 -138 -14.5t-96 -32t-36 -19.5l-67 222
q0 3 45.5 26.5t125.5 43.5t189 20q221 0 360.5 -84zM750.5 268.5q52.5 40.5 79 128.5t32.5 235q-41 41 -106.5 77.5t-150.5 36.5q-77 0 -124 -24t-69 -79.5t-22 -150.5q0 -140 55.5 -202t168.5 -62q84 0 136.5 40.5z" />
    <glyph glyph-name="lozenge" unicode="&#x25ca;" horiz-adv-x="1350" 
d="M518 0l-471 763l471 761h321l466 -761l-466 -763h-321zM382 763l300 -476l292 476l-292 472z" />
    <glyph glyph-name="pi" unicode="&#x3c0;" horiz-adv-x="1446" 
d="M242 0v890h-185v219h1325v-219h-265v-549q0 -59 29 -89.5t92 -30.5q30 0 60 4t50 8l25 5l32 -221q-8 -2 -38.5 -8t-80 -12t-105.5 -6q-161 0 -254 80t-93 234v585h-306v-890h-286z" />
    <glyph glyph-name="uni00B5" unicode="&#xb5;" horiz-adv-x="1135" 
d="M1024 1108v-761q0 -122 -47 -204.5t-127 -122.5t-179 -40q-85 0 -156.5 31t-122.5 72v-468h-281v1493h281v-796q39 -34 88.5 -58.5t106.5 -24.5q79 0 117.5 42t38.5 121v716h281z" />
    <glyph glyph-name="asciicircum" unicode="^" 
d="M490 1526h265l363 -999h-271l-226 679l-224 -679h-266z" />
    <glyph glyph-name="periodcentered.case" horiz-adv-x="830" 
d="M296.5 654.5q-45.5 40.5 -45.5 124.5t45.5 124t114.5 40q72 0 118.5 -40t46.5 -124t-46.5 -124.5t-118.5 -40.5q-69 0 -114.5 40.5z" />
    <glyph glyph-name="bullet.case" horiz-adv-x="907" 
d="M304 487q-67 34 -108.5 106.5t-41.5 180.5q0 109 41 179.5t108.5 103.5t147.5 33q82 0 149.5 -33t108.5 -103.5t41 -179.5q0 -108 -41 -180.5t-109 -106.5t-149 -34q-80 0 -147 34z" />
    <glyph glyph-name="exclamdown.case" horiz-adv-x="528" 
d="M379.5 1504q46.5 -39 46.5 -119q0 -81 -46 -118.5t-118 -37.5q-69 0 -114.5 38t-45.5 118t46 119t114 39q71 0 117.5 -39zM400 1075l13 -1075h-298l14 1075h271z" />
    <glyph glyph-name="questiondown.case" horiz-adv-x="865" 
d="M611.5 1507q45.5 -39 45.5 -118q0 -80 -45.5 -118t-114.5 -38q-72 0 -118.5 37.5t-46.5 118.5q0 79 47 118t118 39q69 0 114.5 -39zM640 931q0 -86 -24 -146t-58.5 -97.5t-90.5 -85.5q-47 -40 -74 -68.5t-45.5 -69.5t-18.5 -96q0 -72 43 -110t117 -38q72 0 137.5 15.5
t111.5 34t46 20.5l53 -227q0 -2 -55 -24t-135.5 -40.5t-172.5 -18.5q-206 0 -317 94.5t-111 284.5q0 85 24.5 147t59.5 102t92 92q45 40 72 69t44.5 68t17.5 89v142h284v-137z" />
    <glyph glyph-name="braceleft.case" horiz-adv-x="684" 
d="M270 -344.5q-66 33.5 -103 95.5t-37 145q0 64 12.5 130.5t38.5 167.5q29 116 43.5 193t14.5 158q0 46 -37 70.5t-102 25.5v195q64 1 101.5 26.5t37.5 70.5q0 54 -12.5 121.5t-40.5 191.5q-28 119 -42 195t-14 135q0 82 37 144t103 95.5t152 33.5h190v-260h-77
q-60 0 -93.5 -34.5t-33.5 -100.5q0 -35 8 -82t25 -123q25 -119 39 -205.5t14 -175.5q0 -41 -18 -70t-40 -46t-22 -14t22 -13.5t40 -45t18 -69.5q0 -96 -14.5 -188t-41.5 -224q-15 -68 -22.5 -110.5t-7.5 -69.5q0 -67 33.5 -101.5t93.5 -34.5h77v-260h-190q-86 0 -152 33.5z
" />
    <glyph glyph-name="braceright.case" horiz-adv-x="684" 
d="M100 -378v260h77q60 0 93.5 34.5t33.5 101.5q0 27 -7.5 69.5t-22.5 110.5q-27 132 -41.5 224t-14.5 188q0 41 18 69.5t40 45t22 13.5t-22 14t-40 46t-18 70q0 89 14 175.5t39 205.5q17 76 25 123t8 82q0 66 -33.5 100.5t-93.5 34.5h-77v260h190q86 0 152 -33.5t103 -95.5
t37 -144q0 -59 -14 -135t-42 -195q-28 -124 -40.5 -191.5t-12.5 -121.5q0 -45 37.5 -70.5t101.5 -26.5v-195q-65 -1 -102 -25.5t-37 -70.5q0 -81 14.5 -158t43.5 -193q26 -101 38.5 -167.5t12.5 -130.5q0 -83 -37 -145t-103 -95.5t-152 -33.5h-190z" />
    <glyph glyph-name="bracketleft.case" horiz-adv-x="684" 
d="M105 1848h507v-260h-205v-1705h205v-260h-507v2225z" />
    <glyph glyph-name="bracketright.case" horiz-adv-x="684" 
d="M72 -377v260h205v1705h-205v260h507v-2225h-507z" />
    <glyph glyph-name="parenleft.case" horiz-adv-x="684" 
d="M347 -220q-96 173 -173 410t-77 500q0 285 77 520.5t173 396t96 142.5l209 -54q0 17 -66.5 -136.5t-120 -377t-53.5 -491.5q0 -246 53.5 -471t120 -391t66.5 -151l-209 -54q0 -16 -96 157z" />
    <glyph glyph-name="parenright.case" horiz-adv-x="684" 
d="M32 -323q0 -15 66.5 151t120 391t53.5 471q0 268 -53.5 491.5t-120 377t-66.5 136.5l209 54q0 18 96 -142.5t173 -396t77 -520.5q0 -263 -77 -500t-173 -410t-96 -157z" />
    <glyph glyph-name="guillemotleft.case" horiz-adv-x="1160" 
d="M817 407l-317 367l317 364h279l-325 -364l325 -367h-279zM381 407l-317 367l317 364h279l-325 -364l325 -367h-279z" />
    <glyph glyph-name="guillemotright.case" horiz-adv-x="1160" 
d="M500 1138h279l317 -364l-317 -367h-279l325 367zM64 1138h279l317 -364l-317 -367h-279l325 367z" />
    <glyph glyph-name="guilsinglleft.case" horiz-adv-x="724" 
d="M381 407l-317 367l317 364h279l-325 -364l325 -367h-279z" />
    <glyph glyph-name="guilsinglright.case" horiz-adv-x="724" 
d="M64 1138h279l317 -364l-317 -367h-279l325 367z" />
    <glyph glyph-name="at.case" horiz-adv-x="1931" 
d="M1326 1156v-541q0 -87 74 -87q39 0 69.5 34.5t48 103t17.5 166.5q0 154 -70.5 272t-194.5 182t-279 64q-181 0 -313 -72.5t-202 -204.5t-70 -307q0 -183 70.5 -314t208 -201t333.5 -70q117 0 225.5 26.5t185.5 58.5t77 35l60 -191q0 -4 -83.5 -38t-205 -63t-259.5 -29
q-259 0 -446.5 95t-286.5 272t-99 419q0 229 103 406.5t286.5 276.5t416.5 99q220 0 391 -90t266 -249.5t95 -360.5q0 -151 -50.5 -263.5t-136.5 -172.5t-191 -60q-75 0 -129 26t-85 70q-50 -38 -121.5 -71.5t-156.5 -33.5q-162 0 -241.5 98.5t-79.5 315.5t79.5 315.5
t241.5 98.5q77 0 144.5 -28.5t117.5 -65.5l14 79h176zM1111 577v4v356q-86 59 -164 59q-60 0 -96.5 -21t-54.5 -72.5t-18 -145.5t18 -146t54.5 -73t96.5 -21q78 0 164 60z" />
    <glyph glyph-name="grave" unicode="`" horiz-adv-x="716" 
d="M613 1218h-236l-275 306h324z" />
    <glyph glyph-name="macron" unicode="&#xaf;" horiz-adv-x="857" 
d="M102 1488h652v-197h-652v197z" />
    <glyph glyph-name="acute" unicode="&#xb4;" horiz-adv-x="716" 
d="M338 1218h-236l187 306h324z" />
    <glyph glyph-name="dieresis" unicode="&#xa8;" horiz-adv-x="865" 
d="M143.5 1282.5q-41.5 34.5 -41.5 103.5q0 70 41.5 104t104.5 34q64 0 107.5 -34t43.5 -104q0 -68 -43.5 -103t-107.5 -35q-63 0 -104.5 34.5zM508 1283q-42 35 -42 103q0 70 41.5 104t104.5 34q64 0 107.5 -34t43.5 -104q0 -68 -43.5 -103t-107.5 -35q-62 0 -104 35z" />
    <glyph glyph-name="cedilla" unicode="&#xb8;" horiz-adv-x="665" 
d="M377.5 -269q18.5 13 18.5 37q0 33 -40 45t-125 12h-34l99 185h149l-54 -95q73 -5 122.5 -41.5t49.5 -107.5q0 -84 -61 -131.5t-177 -47.5q-82 0 -137 20.5t-85 38.5l54 120q0 -1 26.5 -14t64 -23.5t78.5 -10.5q33 0 51.5 13z" />
    <glyph glyph-name="circumflex" unicode="&#x2c6;" horiz-adv-x="940" 
d="M350 1524h242l245 -304h-254l-114 155l-113 -155h-254z" />
    <glyph glyph-name="caron" unicode="&#x2c7;" horiz-adv-x="940" 
d="M469 1365l114 157h254l-245 -305h-242l-248 305h254z" />
    <glyph glyph-name="breve" unicode="&#x2d8;" horiz-adv-x="955" 
d="M828.5 1420.5q-23.5 -72.5 -107 -143t-246.5 -70.5q-164 0 -247 70.5t-104.5 141.5t-21.5 105h213q0 -19 8.5 -53t44 -68.5t108.5 -34.5q74 0 112 34.5t48 70t10 51.5h206q0 -31 -23.5 -103.5z" />
    <glyph glyph-name="dotaccent" unicode="&#x2d9;" horiz-adv-x="506" 
d="M144.5 1280q-42.5 36 -42.5 105q0 70 42 104.5t106 34.5q66 0 109.5 -34.5t43.5 -104.5q0 -69 -44 -105t-109 -36q-63 0 -105.5 36z" />
    <glyph glyph-name="ring" unicode="&#x2da;" horiz-adv-x="735" 
d="M230 1208.5q-60 26.5 -94 75.5t-34 115q0 101 72.5 158.5t193.5 57.5q79 0 138.5 -26t92.5 -74.5t33 -115.5q0 -102 -73 -159.5t-191 -57.5q-78 0 -138 26.5zM295 1464q-28 -26 -28 -65q0 -40 28.5 -66t72.5 -26q43 0 71.5 26t28.5 66t-26 65.5t-74 25.5q-45 0 -73 -26z
" />
    <glyph glyph-name="ogonek" unicode="&#x2db;" horiz-adv-x="657" 
d="M165.5 -335.5q-63.5 44.5 -63.5 131.5q0 78 57.5 131t169.5 95h107l12 -22q-69 -27 -111.5 -69t-42.5 -86q0 -29 21 -44.5t58 -15.5q44 0 77 7t53 15.5t20 9.5l31 -151q0 -2 -27 -14t-74 -22t-111 -10q-113 0 -176.5 44.5z" />
    <glyph glyph-name="tilde" unicode="&#x2dc;" horiz-adv-x="1010" 
d="M891.5 1423q-16.5 -70 -72.5 -137t-163 -67q-50 0 -84.5 15t-80.5 45q-33 23 -57 34t-52 11q-36 0 -54.5 -23t-23.5 -46.5t-5 -34.5h-197q0 28 16.5 97.5t72 136.5t161.5 67q54 0 92.5 -16.5t83.5 -47.5q33 -22 54.5 -32.5t45.5 -10.5q36 0 54.5 24t23.5 48t5 35h197
q0 -28 -16.5 -98z" />
    <glyph glyph-name="hungarumlaut" unicode="&#x2dd;" horiz-adv-x="984" 
d="M288 1217h-186l161 307h262zM608 1217h-186l196 307h263z" />
    <glyph glyph-name="uni0308" unicode="&#x308;" horiz-adv-x="0" 
d="M-862.5 1282.5q-41.5 34.5 -41.5 103.5q0 70 41.5 104t104.5 34q64 0 107.5 -34t43.5 -104q0 -68 -43.5 -103t-107.5 -35q-63 0 -104.5 34.5zM-498 1283q-42 35 -42 103q0 70 41.5 104t104.5 34q64 0 107.5 -34t43.5 -104q0 -68 -43.5 -103t-107.5 -35q-62 0 -104 35z
" />
    <glyph glyph-name="uni0307" unicode="&#x307;" horiz-adv-x="0" 
d="M-681.5 1280q-42.5 36 -42.5 105q0 70 42 104.5t106 34.5q66 0 109.5 -34.5t43.5 -104.5q0 -69 -44 -105t-109 -36q-63 0 -105.5 36z" />
    <glyph glyph-name="gravecomb" unicode="&#x300;" horiz-adv-x="0" 
d="M-384 1218h-236l-275 306h324z" />
    <glyph glyph-name="acutecomb" unicode="&#x301;" horiz-adv-x="0" 
d="M-526 1218h-236l187 306h324z" />
    <glyph glyph-name="uni030B" unicode="&#x30b;" horiz-adv-x="0" 
d="M-630 1217h-186l161 307h262zM-310 1217h-186l196 307h263z" />
    <glyph glyph-name="uni0302" unicode="&#x302;" horiz-adv-x="0" 
d="M-693 1524h242l245 -304h-254l-114 155l-113 -155h-254z" />
    <glyph glyph-name="uni030C" unicode="&#x30c;" horiz-adv-x="0" 
d="M-574 1365l114 157h254l-245 -305h-242l-248 305h254z" />
    <glyph glyph-name="uni0306" unicode="&#x306;" horiz-adv-x="0" 
d="M-221.5 1420.5q-23.5 -72.5 -107 -143t-246.5 -70.5q-164 0 -247 70.5t-104.5 141.5t-21.5 105h213q0 -19 8.5 -53t44 -68.5t108.5 -34.5q74 0 112 34.5t48 70t10 51.5h206q0 -31 -23.5 -103.5z" />
    <glyph glyph-name="uni030A" unicode="&#x30a;" horiz-adv-x="0" 
d="M-710 1208.5q-60 26.5 -94 75.5t-34 115q0 101 72.5 158.5t193.5 57.5q79 0 138.5 -26t92.5 -74.5t33 -115.5q0 -102 -73 -159.5t-191 -57.5q-78 0 -138 26.5zM-645 1464q-28 -26 -28 -65q0 -40 28.5 -66t72.5 -26q43 0 71.5 26t28.5 66t-26 65.5t-74 25.5q-45 0 -73 -26
z" />
    <glyph glyph-name="tildecomb" unicode="&#x303;" horiz-adv-x="0" 
d="M-186.5 1423q-16.5 -70 -72.5 -137t-163 -67q-50 0 -84.5 15t-80.5 45q-33 23 -57 34t-52 11q-36 0 -54.5 -23t-23.5 -46.5t-5 -34.5h-197q0 28 16.5 97.5t72 136.5t161.5 67q54 0 92.5 -16.5t83.5 -47.5q33 -22 54.5 -32.5t45.5 -10.5q36 0 54.5 24t23.5 48t5 35h197
q0 -28 -16.5 -98z" />
    <glyph glyph-name="uni0304" unicode="&#x304;" horiz-adv-x="0" 
d="M-900 1488h652v-197h-652v197z" />
    <glyph glyph-name="uni0326" unicode="&#x326;" horiz-adv-x="0" 
d="M-543 -448h-226l61 340h298z" />
    <glyph glyph-name="uni0327" unicode="&#x327;" horiz-adv-x="0" 
d="M-553.5 -269q18.5 13 18.5 37q0 33 -40 45t-125 12h-34l99 185h149l-54 -95q73 -5 122.5 -41.5t49.5 -107.5q0 -84 -61 -131.5t-177 -47.5q-82 0 -137 20.5t-85 38.5l54 120q0 -1 26.5 -14t64 -23.5t78.5 -10.5q33 0 51.5 13z" />
    <glyph glyph-name="uni0328" unicode="&#x328;" horiz-adv-x="0" 
d="M-781.5 -335.5q-63.5 44.5 -63.5 131.5q0 78 57.5 131t169.5 95h107l12 -22q-69 -27 -111.5 -69t-42.5 -86q0 -29 21 -44.5t58 -15.5q44 0 77 7t53 15.5t20 9.5l31 -151q0 -2 -27 -14t-74 -22t-111 -10q-113 0 -176.5 44.5z" />
    <glyph glyph-name="uni00A0" unicode="&#xa0;" horiz-adv-x="614" 
 />
    <glyph glyph-name="uni2003" unicode="&#x2003;" horiz-adv-x="1676" 
 />
    <glyph glyph-name="uni2002" unicode="&#x2002;" horiz-adv-x="1133" 
 />
    <glyph glyph-name="uni2007" unicode="&#x2007;" 
 />
    <glyph glyph-name="uni200A" unicode="&#x200a;" horiz-adv-x="205" 
 />
    <glyph glyph-name="uni2008" unicode="&#x2008;" horiz-adv-x="506" 
 />
    <glyph glyph-name="uni2009" unicode="&#x2009;" horiz-adv-x="410" 
 />
    <glyph glyph-name="uni200C" unicode="&#x200c;" horiz-adv-x="0" 
 />
    </font>
</defs>
</svg>
